<svg width="24" height="24" viewBox="0 0 24 24" fill="none" xmlns="http://www.w3.org/2000/svg">
<circle cx="12" cy="12" r="12" fill="#A064A5"/>
<path d="M17.3874 8.00409C17.2639 8.01961 17.1497 8.07525 17.0638 8.16155C16.85 8.36605 15.1962 9.99172 13.5158 11.6427C11.994 13.1379 10.7029 14.408 10.3142 14.7869L6.87973 12.2833C6.76481 12.1977 6.61871 12.1597 6.47413 12.1779C6.32969 12.1959 6.1988 12.2687 6.11074 12.3798C6.02268 12.491 5.98479 12.6311 6.00557 12.7692C6.02635 12.9071 6.10402 13.0314 6.22123 13.1143L10.0359 15.8948V15.8947C10.1412 15.9707 10.2716 16.0076 10.4031 15.9987C10.5346 15.9897 10.6583 15.9354 10.7511 15.8458C10.9649 15.6413 12.6187 14.0211 14.2991 12.3703C15.9794 10.7194 17.6859 9.03775 17.8355 8.89469C17.9452 8.79238 18.0049 8.65056 17.9997 8.504C17.9946 8.35757 17.9253 8.21986 17.8087 8.1247C17.6922 8.02953 17.5391 7.98578 17.387 8.00408L17.3874 8.00409Z" fill="white" stroke="white"/>
</svg>
