<svg width="196" height="100" viewBox="0 0 196 100" fill="none" xmlns="http://www.w3.org/2000/svg">
<path d="M92.1715 97.0837C92.148 99.1768 92.1656 100.006 92.5701 100C93.0273 99.9882 92.9042 98.6888 92.9862 96.8309C93.0976 93.9382 92.828 82.7731 93.1211 81.0328C94.5454 72.7133 92.5114 72.0313 90.1843 70.532C86.1163 67.9039 88.9299 66.2282 95.5947 63.8764C98.8303 62.7417 104.844 60.9014 104.065 57.75C103.18 54.2106 82.2652 59.9901 81.9897 57.9264C81.4798 54.2282 97.5173 53.8989 118.977 44.8034C133.303 38.724 137.535 30.2987 136.099 27.8293C134.165 24.4898 125.143 27.2355 116.79 32.3742C112.371 35.0905 107.693 39.4178 104.604 41.4344C103.953 41.8578 103.449 41.5579 104.047 40.7407C107.898 35.3668 111.966 30.0635 113.848 26.2477C117.857 18.1399 120.067 8.22713 117.617 6.46917C114.803 4.47014 106.978 12.9484 103.215 20.9974C100.776 26.2125 98.6545 33.1209 97.3766 37.4011C97.1187 38.0537 96.6849 38.042 96.8139 37.3129C97.5056 33.1503 98.719 27.0297 98.9534 21.8734C99.3579 13.1365 96.3332 -0.174649 93.0624 0.0017351C90.3309 0.142843 85.7002 8.5799 87.0132 24.3252C87.2887 27.6471 88.3555 33.8969 89.0355 37.7127C89.1586 38.283 88.6076 38.53 88.3321 37.795C87.0718 33.8088 84.944 26.7593 81.6146 20.8269C77.7986 14.0243 70.1609 6.47504 67.0542 7.70386C64.094 8.86799 65.407 19.9508 71.7963 29.0523C74.6509 33.1091 79.1116 37.6892 81.9252 40.5231C82.5524 41.1581 82.0249 41.4815 81.5794 41.1757C77.7752 38.5535 71.5794 33.8205 68.8478 32.2037C61.1573 27.6529 49.2229 23.9783 47.4176 28.0057C46.0928 30.9748 54.0647 38.336 62.1421 42.0106C67.9627 44.6564 75.7295 47.5315 81.7084 48.1312C82.5642 48.2194 82.7517 47.7843 81.8959 47.5256C78.713 46.5672 72.5524 44.6623 65.7529 41.311C59.9381 38.4418 55.3191 34.3908 55.9815 32.2095C57.3883 27.5765 73.8654 37.2777 82.5818 42.7044C85.7705 44.6917 86.3332 44.4624 83.8186 41.4756C81.386 38.5888 78.0624 34.3262 74.4809 28.7112C69.6216 21.1032 68.4786 15.794 69.944 14.7122C71.6556 13.4481 75.8643 16.7583 80.5009 24.4251C84.2406 30.6221 86.726 36.6721 88.3496 40.0469C89.7564 42.9631 90.3778 43.0101 90.0554 39.2414C89.6685 34.7377 89.2875 28.1703 89.4927 21.0091C89.7154 13.0953 91.0871 8.10366 92.9745 7.70974C94.5396 7.38048 96.3157 12.7132 96.1222 21.3619C96.4974 28.1351 96.1457 35.0376 95.7412 39.7823C95.4892 42.6515 95.8702 43.1689 97.1891 39.7706C99.1469 34.7495 102.236 27.4472 105.542 22.0616C109.545 15.553 112.429 12.3486 113.918 12.6073C116.884 13.1365 114.792 19.9626 110.606 27.0474C107.764 32.5212 103.983 38.4065 101.878 42.1517C100.671 44.2978 100.794 45.2267 102.957 43.7333C106.562 41.2463 112.406 37.3482 117.881 34.2909C124.979 30.3281 130.524 29.1169 131.357 31.1571C132.207 33.2208 126.82 37.5481 120.542 40.9582C108.672 47.408 93.8948 51.8882 84.9909 54.2164C78.3379 55.9568 75.0319 58.2086 78.4962 59.6844C82.7342 61.4952 98.8362 56.7858 99.6978 60.0371C100.214 61.9774 91.4153 63.5354 87.9159 65.458C84.8737 67.1395 83.6427 69.0445 89.4927 72.2841C93.3262 74.4066 91.2629 77.7108 91.4387 84.0019C91.4329 84.0019 92.0894 94.8084 92.1715 97.0837Z" fill="white"/>
<path d="M39.9609 92.9531C38.8906 93.4221 37.2728 93.4221 36.2025 93.4221C32.1981 93.4221 31.3123 92.8315 31.2262 90.0463C31.1954 89.3052 31.2139 87.4464 31.22 85.9525L31.2262 84.4818V81.6561C31.2262 80.9902 31.6691 80.9786 31.8597 80.9786H37.3159C39.8195 80.9786 40.1332 83.2832 40.1516 83.4105C40.1824 82.8547 40.1516 79.143 40.1516 79.143C39.8133 79.7626 39.0998 79.8495 38.0356 79.8495H31.8966C31.5952 79.8495 31.2262 79.751 31.2262 79.1141V70.0521C31.2262 69.3689 31.7429 69.2936 31.8966 69.2936H36.4732C40.1701 69.2936 40.5392 70.9728 40.5638 70.6196L40.6191 70.0174C40.6929 68.894 40.3854 68.1818 38.0418 68.1818H25.284C26.7357 68.4945 27.0741 69.3109 27.154 70.5733C27.2278 71.7255 27.2278 72.7157 27.2278 78.1818V84.4876C27.2278 87.7881 27.2278 90.6369 27.0372 92.1598C26.908 93.0342 26.219 94.3138 24.5459 94.5455H38.6261C41.1481 94.5455 41.4003 93.6885 41.8186 90.4517C41.5049 91.795 40.9698 92.5188 39.9609 92.9531Z" fill="white"/>
<path d="M24.4244 94.5223C23.802 94.4009 22.292 94.0423 20.3268 92.0005C18.4883 90.0571 16.4193 87.4311 13.7913 84.1111L12.3102 82.2428C12.3102 82.2428 17.5893 80.8546 17.1801 74.2608C17.036 71.953 15.8257 70.2814 14.9152 69.6568C13.0248 68.3553 10.6331 68.1818 8.55258 68.1818L0 68.2107C1.34859 68.5231 1.67133 69.3155 1.74625 70.5764C1.81541 71.739 1.81541 72.7223 1.81541 78.2056V84.5159C1.81541 87.8244 1.81541 90.6759 1.63675 92.2087C1.51572 93.0937 1.34859 94.291 0.299686 94.5108C0.282397 94.5165 0.259344 94.5165 0.236291 94.5223L7.35384 94.5339C7.30197 94.5281 7.23281 94.5223 7.18094 94.5108C5.79778 94.3257 5.56725 93.2209 5.45775 92.2029C5.27909 90.6817 5.27909 87.8128 5.27909 84.487V83.9838V81.0397V70.1368C5.27909 69.9691 5.27909 69.4427 5.8727 69.2692C6.24154 69.1593 6.84091 69.1188 7.87253 69.1188C10.0453 69.1188 13.7222 70.5764 13.7222 76.0597C13.7222 79.559 12.3044 81.1207 11.4572 81.7396C10.708 82.2833 10.2354 82.5378 8.77735 82.6998L8.71972 82.7055C9.06551 82.7692 9.70522 83.4343 9.98762 83.7756C10.2585 84.0995 10.9097 85.0134 11.7166 86.1702L13.5435 88.7499C15.5894 91.5725 16.8919 93.1515 18.3097 93.9092C19.2087 94.3951 20.0847 94.5455 21.9578 94.5455H24.5455L24.4878 94.5339C24.4763 94.5339 24.4705 94.5281 24.459 94.5281C24.4705 94.5281 24.4821 94.5223 24.4993 94.5223H24.4244Z" fill="white"/>
<path d="M59.1561 92.9531C58.1425 93.4221 56.6045 93.4221 55.5967 93.4221C51.8044 93.4221 50.9655 92.8315 50.884 90.0463C50.8607 89.3052 50.8665 87.4464 50.8781 85.9525L50.884 84.4818V81.6561C50.884 80.9902 51.3034 80.9786 51.4782 80.9786H56.6453C59.0104 80.9786 59.3134 83.2832 59.3308 83.4105C59.3658 82.8547 59.3308 79.143 59.3308 79.143C59.0104 79.7626 58.3347 79.8495 57.3269 79.8495H51.5131C51.2218 79.8495 50.8781 79.751 50.8781 79.1141V70.0521C50.8781 69.3689 51.3617 69.2936 51.5131 69.2936H55.8472C59.3425 69.2936 59.692 70.9728 59.7153 70.6196L59.7678 70.0174C59.8377 68.894 59.5464 68.1818 57.3269 68.1818H45.2508C46.6256 68.4945 46.946 69.3109 47.0159 70.5733C47.0858 71.7255 47.0858 72.7157 47.0858 78.1818V84.4876C47.0858 87.7881 47.0858 90.6369 46.9052 92.1598C46.7829 93.0342 46.1304 94.3138 44.5459 94.5455H57.8803C60.2687 94.5455 60.5076 93.6885 60.9095 90.4517C60.6183 91.795 60.1056 92.5188 59.1561 92.9531Z" fill="white"/>
<path d="M156.341 90.398C155.02 87.3365 146.612 68.1818 146.612 68.1818L136.789 91.1489C136.108 92.8067 135.356 94.1873 133.597 94.5339C133.295 94.4819 132.97 94.4242 132.591 94.3028C131.288 93.9158 130.885 92.6739 130.554 90.3749L126.995 68.228L126.989 68.2569C126.877 68.2569 116.621 88.2434 116.621 88.2434L105.53 68.2049L101.705 91.4204C101.569 92.3966 101.285 94.1931 100 94.5455H105.223C105.122 94.5281 105.027 94.5166 104.926 94.4992C103.784 94.222 103.541 93.5288 103.541 92.9743C103.541 92.362 103.582 91.8652 103.653 91.2471C103.659 91.2413 105.732 76.8234 105.732 76.8234L115.265 94.505L124.621 76.7598L127.143 92.3446C127.184 92.5988 127.214 92.8992 127.214 93.1822C127.214 93.6848 126.912 94.401 126.107 94.5397H133.538H133.621H139.163C138.447 94.2682 138.299 93.6848 138.299 93.188C138.299 92.7317 138.618 91.8767 139.015 90.9005C139.015 90.9063 141.165 85.7422 141.165 85.7422C141.218 85.6093 141.342 85.2107 141.863 85.2107H149.543C149.887 85.2107 150.141 85.384 150.277 85.7017C150.283 85.7075 153.41 93.3035 153.41 93.3035C153.463 93.4422 153.487 93.5808 153.487 93.7194C153.487 93.8696 153.463 94.014 153.398 94.1469C153.333 94.2855 153.191 94.4299 153.06 94.5224C153.084 94.5224 160 94.5397 160 94.5397C160 94.5397 159.828 94.4935 159.763 94.4877C158.786 94.2451 157.738 93.6328 156.341 90.398ZM149.277 83.9804C149.229 84.0555 149.087 84.1768 148.827 84.1768H142.556C142.396 84.1768 142.254 84.1248 142.153 84.0092C142.082 83.9226 142.011 83.7724 142.07 83.5414L142.082 83.524L145.759 74.6919L149.371 83.4605C149.389 83.524 149.407 83.6915 149.407 83.7435C149.407 83.8475 149.336 83.9053 149.277 83.9804Z" fill="white"/>
<path d="M170.548 93.3357C168.431 93.4395 167.138 93.1684 166.457 92.4299C165.588 91.4722 165.588 89.4126 165.588 84.4453V78.151C165.588 72.6818 165.588 71.701 165.656 70.5414C165.731 69.3183 166.028 68.4529 167.172 68.1875L160.084 68.1818C161.434 68.4991 161.755 69.2895 161.829 70.5472C161.904 71.7068 161.904 72.6876 161.904 78.1568V84.451C161.904 87.7511 161.858 90.5895 161.72 92.1241C161.617 93.2722 161.034 94.2299 160.016 94.4261C159.987 94.4318 160.004 94.4376 160.016 94.4376C160.645 94.4376 161.658 94.0568 163.871 94.0165C168.019 93.9184 169.455 94.8876 172.865 94.4145C176.005 93.9761 176.497 91.2818 176.337 90.3299C176.303 90.9991 174.649 93.1395 170.548 93.3357Z" fill="white"/>
<path d="M195.43 90.3241C195.39 90.9991 193.744 93.1395 189.644 93.3357C187.523 93.4395 186.231 93.1684 185.551 92.4299C184.687 91.4722 184.676 89.4126 184.676 84.4453V78.151C184.676 72.6818 184.676 71.701 184.75 70.5414C184.824 69.3183 185.11 68.4529 186.26 68.1875L179.181 68.1818C180.536 68.4991 180.851 69.2895 180.919 70.5472C180.994 71.7068 180.994 72.6876 180.994 78.1568V84.451C180.994 87.7511 180.954 90.5895 180.811 92.1241C180.714 93.2722 180.125 94.2299 179.101 94.4261C179.084 94.4318 179.096 94.4376 179.096 94.4376C179.736 94.4376 180.754 94.0568 182.961 94.0165C187.111 93.9184 188.547 94.8876 191.949 94.4145C195.093 93.9645 195.585 91.2703 195.43 90.3241Z" fill="white"/>
<path d="M76.6454 68.1818L64.5449 68.2223C65.916 68.5346 66.2369 69.3326 66.3127 70.5817C66.3886 71.7382 66.3886 72.7213 66.3886 78.1918V84.5413H66.3769C66.3769 87.982 66.3769 90.6999 66.1902 92.2324C66.0677 93.1171 65.8985 94.3141 64.8366 94.5281C64.8075 94.5339 64.7783 94.5339 64.755 94.5455H72.2463C72.1938 94.5339 72.1355 94.5455 72.0888 94.5339C70.6827 94.3488 70.4552 93.2443 70.3501 92.2266C70.1868 90.8734 70.1693 88.6008 70.1576 85.7152H70.1693V81.6672C70.1693 81.0022 70.5893 80.9849 70.7702 80.9849H75.9512C78.3199 80.9849 78.6233 83.2864 78.6466 83.4194C78.67 82.8585 78.6466 79.1633 78.6466 79.1633C78.3199 79.7763 77.6431 79.8688 76.6338 79.8688H70.8111C70.5193 79.8688 70.1693 79.7647 70.1693 79.1344V70.0844C70.1693 69.402 70.6594 69.3152 70.8111 69.3152H75.1518C78.6583 69.3152 79.0025 70.998 79.0259 70.6453L79.0784 70.0381C79.1601 68.9162 78.8742 68.1818 76.6454 68.1818Z" fill="white"/>
</svg>
