<svg width="28" height="27" viewBox="0 0 28 27" fill="none" xmlns="http://www.w3.org/2000/svg">
<path d="M14 12.8652C15.7017 12.8652 17.3338 12.1875 18.5371 10.9812C19.7404 9.77481 20.4165 8.13865 20.4165 6.43261C20.4165 4.72658 19.7404 3.09042 18.5371 1.88407C17.3338 0.67772 15.7017 0 14 0C12.2983 0 10.6662 0.67772 9.46288 1.88407C8.25956 3.09042 7.58355 4.72658 7.58355 6.43261C7.58355 8.13865 8.25956 9.77481 9.46288 10.9812C10.6662 12.1875 12.2983 12.8652 14 12.8652ZM14 15.6914C5.46891 15.6914 0 20.4111 0 22.709V27H28V22.709C28 19.9301 22.8225 15.6914 14 15.6914Z" fill="url(#paint0_linear_14759_3919)"/>
<defs>
<linearGradient id="paint0_linear_14759_3919" x1="0" y1="0" x2="40.0588" y2="19.7292" gradientUnits="userSpaceOnUse">
<stop stop-color="#C183B9"/>
<stop offset="1" stop-color="#99458F"/>
</linearGradient>
</defs>
</svg>
