<svg width="53" height="60" viewBox="0 0 53 60" fill="none" xmlns="http://www.w3.org/2000/svg">
<path d="M39.9995 59.5855H12.9544C10.4686 59.5855 8.46875 57.5701 8.46875 55.0881V6.73674H44.5039V55.1068C44.4852 57.5701 42.4667 59.5855 39.9995 59.5855ZM10.6742 8.95743V55.1068C10.6742 56.3571 11.6835 57.3648 12.9358 57.3648H39.9808C41.2331 57.3648 42.2424 56.3571 42.2424 55.1068V8.95743H10.6742Z" fill="#A064A5"/>
<path d="M48.2027 15.7128H44.5767C43.96 15.7128 43.4553 15.2089 43.4553 14.5931C43.4553 13.9773 43.96 13.4734 44.5767 13.4734H48.2027C49.5858 13.4734 50.7072 12.4657 50.7072 11.2154V4.46005C50.7072 3.20974 49.5858 2.20203 48.2027 2.20203H4.7287C3.3456 2.20203 2.22417 3.20974 2.22417 4.46005V11.2154C2.22417 12.4657 3.3456 13.4734 4.7287 13.4734H8.35464C8.97142 13.4734 9.47607 13.9773 9.47607 14.5931C9.47607 15.2089 8.97142 15.7128 8.35464 15.7128H4.7287C2.11203 15.7128 0 13.6974 0 11.2341V4.47871C0 1.99676 2.13072 0 4.7287 0H48.2027C50.8194 0 52.9314 2.01542 52.9314 4.47871V11.2341C52.9314 13.6974 50.8194 15.7128 48.2027 15.7128Z" fill="#A064A5"/>
<path d="M45.0576 8.95737H7.86363C7.24684 8.95737 6.74219 8.45352 6.74219 7.8377C6.74219 7.22187 7.24684 6.71802 7.86363 6.71802H45.0576C45.6744 6.71802 46.1791 7.22187 46.1791 7.8377C46.1604 8.45352 45.6744 8.95737 45.0576 8.95737Z" fill="#A064A5"/>
<path d="M29.3281 43.742V20.3968C29.3281 19.6876 29.9075 19.1091 30.6178 19.1091H30.6365C31.3467 19.1091 31.9261 19.6876 31.9261 20.3968V43.742C31.9261 44.4512 31.3467 45.0297 30.6365 45.0297H30.6178C29.9075 45.0483 29.3281 44.4698 29.3281 43.742Z" fill="#A064A5"/>
<path d="M21.8672 43.742V20.3968C21.8672 19.6876 22.4466 19.1091 23.1568 19.1091H23.1755C23.8858 19.1091 24.4652 19.6876 24.4652 20.3968V43.742C24.4652 44.4512 23.8858 45.0297 23.1755 45.0297H23.1568C22.4466 45.0483 21.8672 44.4698 21.8672 43.742Z" fill="#A064A5"/>
</svg>
