<svg width="41" height="50" viewBox="0 0 41 50" fill="none" xmlns="http://www.w3.org/2000/svg">
<path d="M33.0282 49.9372C31.2607 49.9372 29.8135 48.5049 29.8135 46.7274V45.3591H11.0113V46.7274C11.0113 48.4921 9.57687 49.9372 7.79656 49.9372C6.02906 49.9372 4.58174 48.5049 4.58174 46.7274V45.2056L4.42805 45.1545C3.14725 44.7069 2.28906 43.492 2.28906 42.1493V37.5712C2.28906 35.8064 3.73638 34.3614 5.50388 34.3614H5.96495L9.20541 23.5683C9.32068 23.1719 9.6793 22.9161 10.0892 22.9161H30.7228C31.1199 22.9161 31.4913 23.1847 31.6066 23.5683L34.847 34.3614H35.3081C37.0756 34.3614 38.5229 35.8064 38.5229 37.5712V42.1493C38.5229 43.5048 37.6647 44.7069 36.3839 45.1545L36.2302 45.2056V46.7274C36.2302 48.5049 34.7957 49.9372 33.0282 49.9372ZM31.645 46.7274C31.645 47.4819 32.2598 48.0957 33.0155 48.0957C33.7712 48.0957 34.3859 47.4819 34.3859 46.7274V45.3591H31.6322V46.7274H31.645ZM6.4261 46.7274C6.4261 47.4819 7.04089 48.0957 7.79656 48.0957C8.55223 48.0957 9.16694 47.4819 9.16694 46.7274V45.3591H6.41327V46.7274H6.4261ZM5.50388 36.2029C4.74821 36.2029 4.13342 36.8167 4.13342 37.5712V42.1493C4.13342 42.9038 4.74821 43.5176 5.50388 43.5176H35.3209C36.0766 43.5176 36.6914 42.9038 36.6914 42.1493V37.5712C36.6914 36.8167 36.0766 36.2029 35.3209 36.2029H5.50388ZM7.88615 34.3614H32.9386L30.044 24.7448H10.7679L7.88615 34.3614Z" fill="#A064A5"/>
<path d="M7.79722 40.7809C7.2849 40.7809 6.875 40.3717 6.875 39.8602C6.875 39.3487 7.2849 38.9395 7.79722 38.9395H10.0898C10.6021 38.9395 11.012 39.3487 11.012 39.8602C11.012 40.3717 10.6021 40.7809 10.0898 40.7809H7.79722Z" fill="#A064A5"/>
<path d="M30.7424 40.7809C30.2301 40.7809 29.8203 40.3717 29.8203 39.8602C29.8203 39.3487 30.2301 38.9395 30.7424 38.9395H33.0351C33.5474 38.9395 33.9573 39.3487 33.9573 39.8602C33.9573 40.3717 33.5474 40.7809 33.0351 40.7809H30.7424Z" fill="#A064A5"/>
<path d="M18.1233 6.43236C17.611 6.43236 17.2011 6.02315 17.2011 5.51163C17.2011 5.00011 17.611 4.59089 18.1233 4.59089H19.4938V1.84147H0.922216C0.409896 1.84147 0 1.43226 0 0.920736C0 0.409216 0.409896 0 0.922216 0H39.9096C40.422 0 40.8319 0.409216 40.8319 0.920736C40.8319 1.43226 40.422 1.84147 39.9096 1.84147H21.3381V4.59089H22.7085C23.2208 4.59089 23.6307 5.00011 23.6307 5.51163C23.6307 6.02315 23.2208 6.43236 22.7085 6.43236H18.1233Z" fill="#A064A5"/>
<path d="M20.4143 12.1615C20.171 12.1615 19.9404 12.0719 19.7611 11.8929C19.5946 11.7267 19.4922 11.4837 19.4922 11.2407V10.0898C19.4922 9.57828 19.902 9.16907 20.4143 9.16907C20.9266 9.16907 21.3365 9.57828 21.3365 10.0898V11.2407C21.3365 11.4837 21.234 11.7139 21.0675 11.8929C20.8882 12.0592 20.6577 12.1615 20.4143 12.1615Z" fill="#A064A5"/>
<path d="M20.4143 17.8776C19.902 17.8776 19.4922 17.4684 19.4922 16.9569V15.806C19.4922 15.2945 19.902 14.8853 20.4143 14.8853C20.9266 14.8853 21.3365 15.2945 21.3365 15.806V16.9569C21.3365 17.4684 20.9266 17.8776 20.4143 17.8776Z" fill="#A064A5"/>
<path d="M25.4946 12.0464C25.136 12.0464 24.8158 11.8418 24.6621 11.5221L24.1753 10.4862C24.0345 10.1921 24.0601 9.83404 24.2522 9.56549C24.4187 9.32252 24.7005 9.16907 25.0079 9.16907C25.4178 9.20743 25.6995 9.39925 25.8404 9.70616L26.3271 10.742C26.532 11.2024 26.3399 11.7395 25.8788 11.9569C25.7508 12.0208 25.6227 12.0464 25.4946 12.0464Z" fill="#A064A5"/>
<path d="M27.9086 17.2383C27.55 17.2383 27.2298 17.0337 27.0761 16.714L26.5894 15.6781C26.4485 15.384 26.4741 15.0259 26.6663 14.7574C26.8328 14.5144 27.1145 14.361 27.4219 14.361C27.8317 14.3993 28.1264 14.5911 28.2544 14.8981L28.7411 15.9339C28.9461 16.3943 28.754 16.9313 28.2929 17.1487C28.1776 17.1999 28.0367 17.2383 27.9086 17.2383Z" fill="#A064A5"/>
<path d="M15.3504 12.0464C15.2223 12.0464 15.0814 12.0208 14.9662 11.9569C14.7484 11.8545 14.5691 11.6755 14.4923 11.4453C14.4154 11.2151 14.4154 10.9594 14.5179 10.742L15.0046 9.70616C15.1455 9.39925 15.4272 9.20743 15.7602 9.16907H15.7731C16.1445 9.16907 16.4263 9.30973 16.5928 9.55271C16.7849 9.82125 16.8105 10.1793 16.6696 10.4734L16.1829 11.5093C16.0805 11.7267 15.9011 11.9057 15.6706 11.9824C15.5681 12.0336 15.4657 12.0464 15.3504 12.0464Z" fill="#A064A5"/>
<path d="M12.9298 17.2382C12.6352 17.2382 12.3534 17.0976 12.1741 16.8418C11.9819 16.5733 11.9563 16.2152 12.0972 15.9211L12.5839 14.8852C12.7248 14.5911 13.0066 14.3865 13.3396 14.3481H13.3524C13.7238 14.3481 14.0056 14.4888 14.1721 14.7318C14.3642 15.0003 14.3898 15.3584 14.249 15.6525L13.7622 16.6883C13.6214 16.9825 13.3396 17.1871 13.0066 17.2254L12.9298 17.2382Z" fill="#A064A5"/>
</svg>
