<svg width="56" height="54" viewBox="0 0 56 54" fill="none" xmlns="http://www.w3.org/2000/svg">
<path d="M27.593 16.6912C22.9759 16.6912 19.2344 12.9397 19.2344 8.3456C19.2344 3.73565 22.9918 0 27.593 0C32.1943 0 35.9517 3.75155 35.9517 8.3456C35.9517 12.9555 32.2102 16.6912 27.593 16.6912ZM27.593 1.79629C23.9789 1.79629 21.0335 4.73712 21.0335 8.3456C21.0335 11.9541 23.9789 14.8949 27.593 14.8949C31.2071 14.8949 34.1526 11.9541 34.1526 8.3456C34.1526 4.73712 31.2231 1.79629 27.593 1.79629Z" fill="#A064A5"/>
<path d="M27.5812 49.2629C25.9572 49.2629 24.5243 48.1183 24.19 46.481C23.8397 44.6847 24.9383 42.9202 26.7055 42.4592C26.7215 42.4592 26.7214 42.4592 26.7373 42.4592L35.8124 40.3768C36.911 40.1225 37.6115 39.0574 37.3886 37.9447L35.3508 27.7074C35.2552 27.2146 35.5737 26.7536 36.0513 26.6582C36.5448 26.5629 37.0065 26.8808 37.102 27.3577L39.14 37.5949C39.554 39.6615 38.2643 41.6485 36.2105 42.1254L27.1353 44.2078C26.2915 44.4304 25.7661 45.2729 25.9413 46.1313C26.1164 47.0056 26.9444 47.5779 27.82 47.4507L41.2576 45.3842C43.0885 45.098 44.3621 43.4289 44.1711 41.5849L42.6745 28.073C42.3401 25.1163 40.6366 22.4457 38.0733 20.9196L33.9497 18.4398C33.5198 18.1855 33.3924 17.6291 33.6472 17.1999C33.9019 16.7707 34.4592 16.6435 34.8891 16.8979L39.0126 19.3777C42.0376 21.1899 44.0756 24.3692 44.4736 27.8664L45.9702 41.3783C46.2886 44.176 44.3463 46.7195 41.5441 47.1487L28.1066 49.2152C27.9315 49.247 27.7563 49.2629 27.5812 49.2629Z" fill="#A064A5"/>
<path d="M22.6433 43.1427C22.5796 43.1427 22.5158 43.1427 22.4681 43.1268L19.1724 42.4592C17.1345 42.0459 15.7971 40.0429 16.1951 38.0082L18.265 27.3417C18.3605 26.8489 18.8381 26.531 19.3157 26.6264C19.8093 26.7218 20.1277 27.1987 20.0322 27.6756L17.9624 38.342C17.7555 39.423 18.456 40.4721 19.5386 40.6947L22.8343 41.3623C23.3279 41.4577 23.6304 41.9346 23.5349 42.4274C23.4393 42.8566 23.0572 43.1427 22.6433 43.1427Z" fill="#A064A5"/>
<path d="M26.7795 49.1039C26.7317 49.1039 26.6839 49.1039 26.6361 49.088L13.8196 47.1328C11.0174 46.7036 9.07509 44.1761 9.39352 41.3624L10.8901 27.8505C11.2722 24.3533 13.3261 21.174 16.3511 19.3618L20.4746 16.882C20.9045 16.6276 21.4459 16.7707 21.7165 17.184C21.9713 17.6132 21.828 18.1537 21.414 18.4239L17.2904 20.9038C14.743 22.4298 13.0236 25.1004 12.6892 28.0571L11.1926 41.5691C10.9856 43.413 12.2593 45.0822 14.1061 45.3683L26.9228 47.3235C27.4164 47.403 27.7507 47.864 27.6711 48.3409C27.5914 48.786 27.2093 49.1039 26.7795 49.1039Z" fill="#A064A5"/>
<path d="M48.5438 53.9999H6.59141C2.96137 53.9999 0 51.0432 0 47.4188C0 45.4795 0.843811 43.6514 2.32449 42.4115C3.80516 41.1557 5.74756 40.6152 7.65811 40.9331L10.0463 41.3146C10.5398 41.3941 10.8742 41.8551 10.7946 42.3479C10.715 42.8407 10.2533 43.1745 9.75972 43.095L7.37154 42.7135C5.98639 42.491 4.56941 42.8884 3.50269 43.7945C2.43597 44.7006 1.81504 46.0359 1.81504 47.4347C1.81504 50.0735 3.96442 52.2195 6.60735 52.2195H48.5597C51.2027 52.2195 53.352 50.0735 53.352 47.4347C53.352 46.0359 52.7311 44.7006 51.6644 43.7945C50.5977 42.8884 49.1807 42.491 47.7956 42.7135L45.4074 43.095C44.9138 43.1745 44.4521 42.8407 44.3725 42.3479C44.2928 41.8551 44.6272 41.3941 45.1208 41.3146L47.509 40.9331C49.4195 40.6311 51.3619 41.1716 52.8426 42.4115C54.3232 43.6673 55.1671 45.4954 55.1671 47.4188C55.1352 51.0432 52.1738 53.9999 48.5438 53.9999Z" fill="#A064A5"/>
</svg>
