<svg width="59" height="41" viewBox="0 0 59 41" fill="none" xmlns="http://www.w3.org/2000/svg">
<path d="M54.2748 40.4179H4.59789C2.06169 40.4179 0 38.3595 0 35.8272V4.59072C0 2.05847 2.06169 0 4.59789 0H54.2748C56.811 0 58.8727 2.05847 58.8727 4.59072V35.8272C58.8727 38.3595 56.811 40.4179 54.2748 40.4179ZM4.59789 1.82975C3.07617 1.82975 1.83261 3.07137 1.83261 4.59072V35.8272C1.83261 37.3466 3.07617 38.5882 4.59789 38.5882H54.2748C55.7965 38.5882 57.0401 37.3466 57.0401 35.8272V4.59072C57.0401 3.07137 55.7965 1.82975 54.2748 1.82975H4.59789Z" fill="#A064A5"/>
<path d="M22.0767 20.2089H17.4788C16.9716 20.2089 16.5625 19.8005 16.5625 19.2941V14.7033C16.5625 11.6647 19.0332 9.19775 22.0767 9.19775C25.1201 9.19775 27.5909 11.6647 27.5909 14.7033C27.6073 17.742 25.1201 20.2089 22.0767 20.2089ZM18.3951 18.3792H22.0767C24.1057 18.3792 25.7583 16.7291 25.7583 14.7033C25.7583 12.6776 24.1057 11.0275 22.0767 11.0275C20.0477 11.0275 18.3951 12.6776 18.3951 14.7033V18.3792Z" fill="#A064A5"/>
<path d="M17.4793 20.2089H12.8814C9.83793 20.2089 7.36719 17.742 7.36719 14.7033C7.36719 11.6647 9.83793 9.19775 12.8814 9.19775C15.9248 9.19775 18.3956 11.6647 18.3956 14.7033V19.2941C18.3956 19.8005 17.9865 20.2089 17.4793 20.2089ZM12.8814 11.0275C10.8524 11.0275 9.19979 12.6776 9.19979 14.7033C9.19979 16.7291 10.8524 18.3792 12.8814 18.3792H16.563V14.7033C16.563 12.6776 14.9103 11.0275 12.8814 11.0275Z" fill="#A064A5"/>
<path d="M24.8384 27.5607C24.6093 27.5607 24.3638 27.479 24.1838 27.2993L17.4752 20.6011L10.7666 27.2993C10.4066 27.6587 9.81746 27.6587 9.45748 27.2993C9.09751 26.9399 9.09751 26.3518 9.45748 25.9923L16.8207 18.6407C17.1806 18.2812 17.7698 18.2812 18.1297 18.6407L25.4929 25.9923C25.8529 26.3518 25.8529 26.9399 25.4929 27.2993C25.3129 27.4627 25.0675 27.5607 24.8384 27.5607Z" fill="#A064A5"/>
<path d="M17.4788 9.18144C16.9716 9.18144 16.5625 8.77302 16.5625 8.26657V0.914879C16.5625 0.408429 16.9716 0 17.4788 0C17.986 0 18.3951 0.408429 18.3951 0.914879V8.26657C18.3951 8.77302 17.986 9.18144 17.4788 9.18144Z" fill="#A064A5"/>
<path d="M17.4788 40.4179C16.9716 40.4179 16.5625 40.0095 16.5625 39.503V24.7996C16.5625 24.2932 16.9716 23.8848 17.4788 23.8848C17.986 23.8848 18.3951 24.2932 18.3951 24.7996V39.503C18.3951 40.0095 17.986 40.4179 17.4788 40.4179Z" fill="#A064A5"/>
<path d="M6.4305 20.209H0.916302C0.409061 20.209 0 19.8005 0 19.2941C0 18.7876 0.409061 18.3792 0.916302 18.3792H6.4305C6.93774 18.3792 7.3468 18.7876 7.3468 19.2941C7.3468 19.8005 6.93774 20.209 6.4305 20.209Z" fill="#A064A5"/>
<path d="M57.962 20.209H28.5257C28.0184 20.209 27.6094 19.8005 27.6094 19.2941C27.6094 18.7876 28.0184 18.3792 28.5257 18.3792H57.962C58.4693 18.3792 58.8783 18.7876 58.8783 19.2941C58.8783 19.8005 58.4693 20.209 57.962 20.209Z" fill="#A064A5"/>
<path d="M43.2274 31.2365H37.7132C37.2059 31.2365 36.7969 30.8281 36.7969 30.3216C36.7969 29.8152 37.2059 29.4067 37.7132 29.4067H43.2274C43.7346 29.4067 44.1437 29.8152 44.1437 30.3216C44.16 30.8281 43.751 31.2365 43.2274 31.2365Z" fill="#A064A5"/>
<path d="M50.5906 34.9123H37.7132C37.2059 34.9123 36.7969 34.5038 36.7969 33.9974C36.7969 33.4909 37.2059 33.0825 37.7132 33.0825H50.5906C51.0978 33.0825 51.5069 33.4909 51.5069 33.9974C51.5232 34.5038 51.0978 34.9123 50.5906 34.9123Z" fill="#A064A5"/>
</svg>
