<svg width="46" height="57" viewBox="0 0 46 57" fill="none" xmlns="http://www.w3.org/2000/svg">
<path d="M26.874 7.07612H18.0393C16.7772 7.07612 15.7578 6.04217 15.7578 4.74973C15.7578 3.47345 16.7772 2.42334 18.0393 2.42334H26.874C28.1523 2.42334 29.1879 3.45729 29.1879 4.74973C29.1879 6.04217 28.1523 7.07612 26.874 7.07612ZM18.0393 4.362C17.8613 4.362 17.6995 4.53971 17.6995 4.74973C17.6995 4.95975 17.8451 5.13746 18.0393 5.13746H26.874C27.0682 5.13746 27.2461 4.95975 27.2461 4.74973C27.2461 4.53971 27.0682 4.362 26.874 4.362H18.0393Z" fill="#A064A5"/>
<path d="M34.3057 50.9867H10.6818C10.1478 50.9867 9.71094 50.5505 9.71094 50.0174C9.71094 49.4842 10.1478 49.048 10.6818 49.048H34.3057C34.8396 49.048 35.2765 49.4842 35.2765 50.0174C35.2765 50.5505 34.8396 50.9867 34.3057 50.9867Z" fill="#A064A5"/>
<path d="M40.9516 56.0918H3.97862C3.44465 56.0918 3.00781 55.6556 3.00781 55.1225C3.00781 54.5893 3.44465 54.1531 3.97862 54.1531H40.9516C41.4856 54.1531 41.9225 54.5893 41.9225 55.1225C41.9225 55.6718 41.4856 56.0918 40.9516 56.0918Z" fill="#A064A5"/>
<path d="M33.2749 44.8153C30.2329 44.8153 27.7734 42.3435 27.7734 39.3063C27.7734 36.2691 30.2491 33.8134 33.2749 33.8134C36.2845 33.8134 38.744 36.2852 38.744 39.3063C38.7278 42.3597 36.2845 44.8153 33.2749 44.8153ZM33.2749 35.7521C31.317 35.7521 29.7151 37.3515 29.7151 39.3224C29.7151 41.2934 31.317 42.8928 33.2749 42.8928C35.2166 42.8928 36.8023 41.2934 36.8023 39.3224C36.7861 37.3515 35.2166 35.7521 33.2749 35.7521Z" fill="#A064A5"/>
<path d="M11.7113 44.8153C8.70167 44.8153 6.24219 42.3435 6.24219 39.3063C6.24219 36.2691 8.70167 33.8134 11.7113 33.8134C14.7209 33.8134 17.1804 36.2852 17.1804 39.3063C17.1804 42.3597 14.7371 44.8153 11.7113 44.8153ZM11.7113 35.7521C9.73723 35.7521 8.18385 37.3192 8.18385 39.3224C8.18385 41.3257 9.73723 42.8928 11.7113 42.8928C13.6853 42.8928 15.2387 41.3257 15.2387 39.3224C15.2387 37.3192 13.7015 35.7521 11.7113 35.7521Z" fill="#A064A5"/>
<path d="M30.51 25.7518H14.491C9.86334 25.7518 6.10938 21.9553 6.10938 17.3025V12.0681C6.10938 9.93562 7.82456 8.19083 9.92805 8.19083H35.0891C37.1926 8.19083 38.9078 9.93562 38.9078 12.0681V17.3025C38.8916 21.9715 35.1215 25.7518 30.51 25.7518ZM9.91186 10.1456C8.87629 10.1456 8.03489 11.018 8.03489 12.0843V17.3187C8.03489 20.9052 10.9313 23.8293 14.4748 23.8293H30.4938C34.0535 23.8293 36.9337 20.9052 36.9337 17.3187V12.0843C36.9337 11.018 36.0923 10.1456 35.0567 10.1456H9.91186Z" fill="#A064A5"/>
<path d="M45.0193 53.4747C45.5371 52.8607 45.084 51.6329 44.8575 50.9221L41.3139 48.0303C43.1099 46.4147 44.1455 44.0883 44.1455 41.5842V8.67549C44.1455 3.89347 40.2945 0 35.5697 0H9.40546C4.64833 0 0.797298 3.89347 0.797298 8.67549V41.5681C0.797298 44.0237 1.86526 46.3986 3.66132 48.0141L0.0529982 50.9382C0.0529982 50.9544 0.0529982 50.9706 0.0529982 51.0029C0.0206367 51.4552 -0.0764339 52.0691 0.117735 52.473C0.214819 52.683 0.408984 52.8446 0.619334 52.9738L5.82953 48.7573C6.07224 48.5634 6.20169 48.2726 6.18551 47.9495C6.16933 47.6425 6.00749 47.3517 5.7486 47.1902C3.88782 45.9785 2.72281 43.8137 2.72281 41.5681V8.67549C2.72281 4.95973 5.71625 1.93866 9.40546 1.93866H35.5697C39.2266 1.93866 42.2038 4.95973 42.2038 8.67549V41.5681C42.2038 43.8621 41.0873 45.9623 39.2266 47.1902C38.9677 47.3679 38.8059 47.6425 38.7897 47.9495C38.7735 48.2564 38.903 48.5472 39.1457 48.7573L44.7604 53.3454C44.8413 53.3939 44.9384 53.4423 45.0193 53.4747Z" fill="#A064A5"/>
</svg>
