<svg width="50" height="42" viewBox="0 0 50 42" fill="none" xmlns="http://www.w3.org/2000/svg">
<path d="M41.226 21.1942C40.6842 21.1942 40.183 20.8967 39.9256 20.4098C39.6682 19.9228 39.7089 19.3277 40.034 18.8814C41.8357 16.3251 43.6644 14.391 45.4661 13.1196C46.5633 12.3487 47.6471 11.7536 48.785 11.2802C48.8798 11.2396 48.9611 11.2261 49.0559 11.2261C49.3404 11.2261 49.6113 11.4019 49.7197 11.6724C49.8687 12.0376 49.7062 12.4569 49.3404 12.6057C48.2973 13.0385 47.2949 13.593 46.2925 14.2963C44.6263 15.4595 42.9059 17.2854 41.2126 19.7064L49.0152 19.7741C49.4081 19.7741 49.7332 20.0987 49.7332 20.4909C49.7332 20.8831 49.4081 21.2078 49.0152 21.2078H41.226V21.1942Z" fill="#A064A5"/>
<path d="M48.998 20.9236H41.2223C40.7753 20.9236 40.3689 20.6801 40.1657 20.2879C39.9625 19.8821 39.9896 19.4088 40.247 19.0301C42.0216 16.5008 43.8368 14.5802 45.6114 13.3359C46.6951 12.5785 47.7653 11.9834 48.8761 11.5235C49.1064 11.4288 49.3637 11.537 49.4586 11.767C49.5534 11.9969 49.445 12.2539 49.2147 12.3486C48.1581 12.7949 47.1422 13.3494 46.1126 14.0663C44.4193 15.2565 42.6854 17.0959 40.965 19.544C40.8566 19.6928 40.9243 19.8416 40.9379 19.8822C40.965 19.9363 41.0463 20.0445 41.2088 20.0445H48.9845C49.2283 20.0445 49.4315 20.2473 49.4315 20.4908C49.4451 20.7342 49.2419 20.9236 48.998 20.9236Z" fill="#A064A5"/>
<path d="M40.1554 34.5301C39.7626 34.5301 39.4375 34.2055 39.4375 33.8133C39.4375 33.421 39.7626 33.0964 40.1554 33.0964H49.0013C49.3941 33.0964 49.7192 33.421 49.7192 33.8133C49.7192 34.2055 49.3941 34.5301 49.0013 34.5301H40.1554Z" fill="#A064A5"/>
<path d="M49.0039 34.2596H40.158C39.9142 34.2596 39.7109 34.0567 39.7109 33.8133C39.7109 33.5698 39.9142 33.3669 40.158 33.3669H49.0039C49.2477 33.3669 49.4508 33.5698 49.4508 33.8133C49.4508 34.0567 49.2477 34.2596 49.0039 34.2596Z" fill="#A064A5"/>
<path d="M21.6137 34.5301C20.8822 34.5301 20.1914 34.2325 19.6901 33.705C19.1754 33.1776 18.9044 32.4742 18.9315 31.7304C19.0399 28.7548 19.5005 24.8595 21.1261 23.1688C23.0767 21.14 27.1136 20.1662 30.6763 19.3006C32.5457 18.8407 34.2932 18.4214 35.3363 17.9345C36.4335 17.4206 38.3707 15.5406 40.0775 13.8769C41.2561 12.7273 42.3534 11.6588 43.1662 11.0637C44.8324 9.80582 46.7288 8.80495 48.7879 8.11516C48.8556 8.08811 48.9369 8.07458 49.0182 8.07458C49.3297 8.07458 49.6007 8.26394 49.6955 8.56149C49.7497 8.73732 49.7497 8.94021 49.6549 9.10251C49.5736 9.27834 49.4246 9.40007 49.2485 9.45417C47.3249 10.1034 45.5638 11.0231 44.0331 12.1863C43.288 12.7408 42.2179 13.7823 41.08 14.8913C39.197 16.7173 37.2599 18.5973 35.9459 19.2194C34.7673 19.774 32.9521 20.2203 31.0285 20.6802C27.6554 21.5052 23.8218 22.4249 22.1692 24.1562C21.1396 25.2247 20.5029 27.9297 20.3675 31.7709C20.3539 32.1226 20.4894 32.4607 20.7332 32.7042C20.9771 32.9476 21.2886 33.0829 21.6408 33.0829H27.669C28.0619 33.0829 28.3869 33.4075 28.3869 33.7997C28.3869 34.192 28.0619 34.5166 27.669 34.5166H21.6137V34.5301Z" fill="#A064A5"/>
<path d="M27.6488 34.2596H21.6206C20.9569 34.2596 20.3473 34.0026 19.8867 33.5292C19.4262 33.0423 19.1823 32.4202 19.1958 31.7439C19.2907 28.8224 19.7377 24.9948 21.3091 23.3582C23.2056 21.397 27.2018 20.4232 30.7239 19.5576C32.5933 19.0977 34.3543 18.6784 35.438 18.1645C36.5759 17.6235 38.5266 15.7299 40.2606 14.0528C41.4256 12.9167 42.5228 11.8482 43.3221 11.253C44.9612 10.0087 46.8306 9.0349 48.8761 8.34511C49.1064 8.26395 49.3638 8.38568 49.4451 8.62914C49.5264 8.85907 49.4044 9.11605 49.1606 9.1972C47.2099 9.85994 45.4353 10.7932 43.8639 11.9699C43.1188 12.538 42.0352 13.5929 40.8837 14.702C39.0279 16.5144 37.1042 18.3809 35.8308 18.976C34.6794 19.517 32.8642 19.9633 30.9542 20.4232C27.5405 21.2483 23.6797 22.195 21.9593 23.9668C20.8891 25.0759 20.2253 27.8486 20.0899 31.7574C20.0763 32.1902 20.2254 32.596 20.5234 32.8935C20.8078 33.1911 21.2007 33.3534 21.6206 33.3534H27.6488C27.8927 33.3534 28.0959 33.5563 28.0959 33.7997C28.0959 34.0432 27.8927 34.2596 27.6488 34.2596Z" fill="#A064A5"/>
<path d="M33.9437 41.2521C30.1236 41.2521 27.0078 38.1142 27.0078 34.246C27.0078 30.3777 30.11 27.2399 33.9437 27.2399C37.7773 27.2399 40.8794 30.3777 40.8794 34.246C40.8794 38.1142 37.7638 41.2521 33.9437 41.2521ZM33.9437 28.6871C30.9093 28.6871 28.4438 31.1893 28.4438 34.2595C28.4438 37.3297 30.9093 39.8319 33.9437 39.8319C36.9781 39.8319 39.4435 37.3297 39.4435 34.2595C39.4435 31.1893 36.9781 28.6871 33.9437 28.6871Z" fill="#A064A5"/>
<path d="M33.9404 40.9816C30.2693 40.9816 27.2891 37.9654 27.2891 34.246C27.2891 30.5265 30.2693 27.5104 33.9404 27.5104C37.6115 27.5104 40.5917 30.5265 40.5917 34.246C40.5917 37.9654 37.6115 40.9816 33.9404 40.9816ZM33.9404 28.4166C30.757 28.4166 28.1696 31.0405 28.1696 34.2595C28.1696 37.4785 30.757 40.1024 33.9404 40.1024C37.1238 40.1024 39.7111 37.4785 39.7111 34.2595C39.7111 31.027 37.1238 28.4166 33.9404 28.4166Z" fill="#A064A5"/>
<path d="M33.9427 38.5877C31.5721 38.5877 29.6484 36.6401 29.6484 34.2596C29.6484 31.8792 31.5721 29.9315 33.9427 29.9315C36.3134 29.9315 38.2369 31.8792 38.2369 34.2596C38.2369 36.6401 36.3134 38.5877 33.9427 38.5877ZM33.9427 31.3517C32.3713 31.3517 31.0844 32.6501 31.0844 34.2596C31.0844 35.8691 32.3713 37.1676 33.9427 37.1676C35.5141 37.1676 36.801 35.8691 36.801 34.2596C36.801 32.6501 35.5277 31.3517 33.9427 31.3517Z" fill="#A064A5"/>
<path d="M33.9452 38.3171C31.7236 38.3171 29.9219 36.4912 29.9219 34.2595C29.9219 32.0143 31.7236 30.2019 33.9452 30.2019C36.1668 30.2019 37.9685 32.0278 37.9685 34.2595C37.9685 36.4912 36.1668 38.3171 33.9452 38.3171ZM33.9452 31.0811C32.2248 31.0811 30.816 32.5012 30.816 34.2595C30.816 36.0043 32.2248 37.4379 33.9452 37.4379C35.6656 37.4379 37.0744 36.0178 37.0744 34.2595C37.0744 32.5012 35.6792 31.0811 33.9452 31.0811Z" fill="#A064A5"/>
<path d="M20.1946 28.4031C19.8017 28.4031 19.4766 28.0785 19.4766 27.6862C19.4766 27.294 19.8017 26.9694 20.1946 26.9694H22.6871C23.2832 26.9694 23.7573 26.4825 23.7573 25.8738V24.9676C23.7573 24.8594 23.676 24.7783 23.5812 24.7783H21.3325C20.9397 24.7783 20.6145 24.4537 20.6145 24.0614C20.6145 23.6692 20.9397 23.3446 21.3325 23.3446H23.5812C24.4617 23.3446 25.1932 24.075 25.1932 24.9676V25.8738C25.1932 27.2669 24.0689 28.4031 22.6871 28.4031H20.1946Z" fill="#A064A5"/>
<path d="M22.674 28.1327H20.1814C19.9376 28.1327 19.7344 27.9298 19.7344 27.6864C19.7344 27.4429 19.9376 27.24 20.1814 27.24H22.674C23.4191 27.24 24.0287 26.6314 24.0287 25.874V24.9678C24.0287 24.7108 23.8254 24.5079 23.5816 24.5079H21.3328C21.089 24.5079 20.8859 24.305 20.8859 24.0616C20.8859 23.8181 21.089 23.6152 21.3328 23.6152H23.5816C24.3131 23.6152 24.9227 24.2239 24.9227 24.9678V25.874C24.9227 27.1183 23.9203 28.1327 22.674 28.1327Z" fill="#A064A5"/>
<path d="M0.718002 41.2522C0.325155 41.2522 0 40.9276 0 40.5353C0 40.1431 0.325155 39.8185 0.718002 39.8185H49.282C49.6748 39.8185 50 40.1431 50 40.5353C50 40.9276 49.6748 41.2522 49.282 41.2522H0.718002Z" fill="#A064A5"/>
<path d="M49.2845 40.9817H0.720494C0.476657 40.9817 0.273438 40.7788 0.273438 40.5353C0.273438 40.2919 0.476657 40.089 0.720494 40.089H49.2845C49.5283 40.089 49.7315 40.2919 49.7315 40.5353C49.7315 40.7923 49.5283 40.9817 49.2845 40.9817Z" fill="#A064A5"/>
<path d="M6.27623 35.2875C5.61245 35.2875 4.98934 35.0305 4.52876 34.5436C4.06818 34.0567 3.81079 33.421 3.83788 32.7582C4.00044 27.9297 5.00291 25.9144 5.81569 25.0759C7.56319 23.2635 11.153 22.3979 14.3228 21.6269C15.9619 21.2347 17.5063 20.856 18.441 20.4232C19.4028 19.9633 21.1231 18.2997 22.6268 16.839C23.6834 15.8246 24.6588 14.8778 25.3632 14.3368C29.82 10.969 34.9812 10.5091 38.9909 10.4956C38.9909 10.4956 43.976 10.4821 44.1386 10.4821C44.5314 10.4821 44.8566 10.7931 44.8566 11.1854C44.8566 11.3747 44.7888 11.5506 44.6534 11.6993C44.5179 11.8346 44.3418 11.9157 44.1521 11.9157C44.0031 11.9157 39.0045 11.9293 39.0045 11.9293C37.3518 11.9428 35.1708 12.0104 32.895 12.5109C30.3212 13.0654 28.1537 14.0392 26.2437 15.4864C25.5935 15.9733 24.6452 16.9066 23.6428 17.8804C21.9766 19.5034 20.2426 21.1806 19.0641 21.7351C18.0075 22.2356 16.3954 22.6278 14.675 23.0471C11.6813 23.7774 8.32173 24.589 6.85871 26.1038C5.96465 27.0235 5.39573 29.4851 5.28736 32.8394C5.27382 33.1234 5.38222 33.3939 5.57187 33.5833C5.76152 33.7862 6.01886 33.8808 6.28979 33.8808H9.75768C10.1505 33.8808 10.4757 34.2055 10.4757 34.5977C10.4757 34.9899 10.1505 35.3145 9.75768 35.3145H6.27623V35.2875Z" fill="#A064A5"/>
<path d="M9.74118 35.017H6.27329C5.69079 35.017 5.13545 34.7871 4.72906 34.3543C4.30912 33.9215 4.09236 33.3534 4.11945 32.7583C4.28201 28.0109 5.23021 26.0633 6.01591 25.2517C7.70921 23.4935 11.2584 22.6414 14.3876 21.8704C16.0403 21.4647 17.6117 21.0859 18.5464 20.6396C19.5488 20.1662 21.2828 18.4891 22.8 17.0013C23.8295 16.0004 24.8049 15.0537 25.5093 14.5127C29.8983 11.1854 35.0053 10.7391 38.9744 10.7256C39.6789 10.7256 40.9116 10.7256 42.0088 10.712C43.0248 10.712 43.9189 10.712 44.1221 10.712C44.3659 10.712 44.5691 10.9014 44.5691 11.1584C44.5691 11.4018 44.3795 11.6047 44.1221 11.6047C43.9189 11.6047 43.0248 11.6047 42.0088 11.6047C40.9116 11.6047 39.6789 11.6047 38.9744 11.6182C37.3082 11.6318 35.1002 11.6994 32.8108 12.1998C30.1964 12.7679 27.9883 13.7552 26.0512 15.2295C25.3874 15.7299 24.4256 16.6632 23.4231 17.6505C21.7705 19.26 20.0636 20.9101 18.9257 21.4511C17.8962 21.938 16.2977 22.3303 14.5908 22.736C11.57 23.4664 8.15628 24.305 6.63907 25.8739C5.69082 26.8613 5.10828 29.3093 4.98636 32.7989C4.97282 33.1505 5.10831 33.4887 5.35214 33.7456C5.59598 33.9891 5.92107 34.1379 6.25973 34.1379H9.72762C9.97146 34.1379 10.1747 34.3408 10.1747 34.5842C10.1747 34.8277 9.98502 35.017 9.74118 35.017Z" fill="#A064A5"/>
<path d="M15.3434 38.6012C13.3521 38.6012 11.7266 36.9646 11.7266 34.9629C11.7266 32.9611 13.3521 31.3246 15.3434 31.3246C17.3348 31.3246 18.9603 32.9611 18.9603 34.9629C18.9603 36.9646 17.3348 38.6012 15.3434 38.6012ZM15.3434 32.7447C14.1378 32.7447 13.1625 33.7321 13.1625 34.9629C13.1625 36.1937 14.1378 37.181 15.3434 37.181C16.5491 37.181 17.5244 36.1937 17.5244 34.9629C17.5244 33.7321 16.5491 32.7447 15.3434 32.7447Z" fill="#A064A5"/>
<path d="M15.3459 38.3307C13.5036 38.3307 12 36.8159 12 34.9629C12 33.0964 13.5036 31.5951 15.3459 31.5951C17.1883 31.5951 18.692 33.1099 18.692 34.9629C18.692 36.8159 17.1883 38.3307 15.3459 38.3307ZM15.3459 32.4742C13.9913 32.4742 12.894 33.5833 12.894 34.9629C12.894 36.3289 13.9913 37.4515 15.3459 37.4515C16.7006 37.4515 17.7978 36.3425 17.7978 34.9629C17.7978 33.5833 16.7006 32.4742 15.3459 32.4742Z" fill="#A064A5"/>
<path d="M15.3563 41.2521C11.9155 41.2521 9.125 38.4253 9.125 34.9493C9.125 31.4733 11.9155 28.6465 15.3563 28.6465C16.2775 28.6465 17.158 28.8494 17.9844 29.2281C18.3366 29.3904 18.4991 29.8232 18.323 30.1748C18.2011 30.4183 17.9573 30.5806 17.6728 30.5806C17.5644 30.5806 17.4696 30.5535 17.3747 30.513C16.7381 30.2154 16.0608 30.0666 15.3563 30.0666C12.7012 30.0666 10.5474 32.2442 10.5474 34.9358C10.5474 37.6273 12.7012 39.8049 15.3563 39.8049C17.7134 39.8049 19.7047 38.1007 20.0976 35.7608C20.1518 35.4091 20.4498 35.1657 20.802 35.1657C21.1136 35.2063 21.2762 35.3145 21.3845 35.4632C21.4929 35.612 21.5335 35.8014 21.5064 35.9907C21.2626 37.4379 20.5175 38.7634 19.4067 39.7237C18.2824 40.7246 16.8464 41.2521 15.3563 41.2521Z" fill="#A064A5"/>
<path d="M15.3511 40.9816C12.0593 40.9816 9.39062 38.2765 9.39062 34.9493C9.39062 31.6221 12.0593 28.917 15.3511 28.917C16.2316 28.917 17.0715 29.1063 17.8572 29.4715C18.0739 29.5797 18.1688 29.8367 18.0739 30.0666C17.9656 30.2831 17.7082 30.3777 17.4779 30.2831C16.8141 29.972 16.0962 29.8097 15.3511 29.8097C12.547 29.8097 10.2712 32.109 10.2712 34.9493C10.2712 37.7896 12.547 40.0889 15.3511 40.0889C17.8301 40.0889 19.9433 38.29 20.3497 35.8149C20.3904 35.5714 20.6207 35.4091 20.8645 35.4497C21.1083 35.4903 21.2709 35.7202 21.2303 35.9637C21 37.3568 20.282 38.6146 19.2254 39.5344C18.1416 40.4676 16.7735 40.9816 15.3511 40.9816Z" fill="#A064A5"/>
<path d="M5.90464 28.9171C5.62017 28.9171 5.32211 28.9036 5.02409 28.863C4.83444 28.836 4.67192 28.7413 4.55 28.5925C4.42808 28.4437 4.38738 28.2544 4.40092 28.065C4.44156 27.7134 4.75316 27.4428 5.10537 27.4428C5.44403 27.4834 5.67435 27.4969 5.90464 27.4969C7.16446 27.4969 8.22104 27.0371 8.73581 26.2526C9.12865 25.644 9.23708 24.9812 9.12871 23.8181C9.08807 23.4258 9.38606 23.0742 9.77891 23.0471C9.77891 23.0471 9.77892 23.0471 9.79247 23.0471C10.226 23.0471 10.524 23.3312 10.5646 23.6963C10.7001 25.2112 10.524 26.1444 9.94146 27.0371C9.15577 28.2003 7.65214 28.9171 5.90464 28.9171Z" fill="#A064A5"/>
<path d="M5.90474 28.6466C5.63382 28.6466 5.34935 28.633 5.06487 28.5925C4.82103 28.5654 4.64489 28.3355 4.68553 28.092C4.71262 27.8486 4.94291 27.6727 5.18674 27.7133C6.8665 27.9297 8.31596 27.4158 8.97973 26.3878C9.41322 25.7251 9.53515 25.0218 9.41323 23.7775C9.38614 23.534 9.57577 23.3176 9.81961 23.2905C10.0634 23.2635 10.2802 23.4528 10.3073 23.6963C10.4428 25.1435 10.2802 26.0362 9.72477 26.8748C8.97972 27.9974 7.55741 28.6466 5.90474 28.6466Z" fill="#A064A5"/>
<path d="M24.3764 22.6279C24.2409 22.6279 24.1054 22.5873 23.9835 22.5061C23.8209 22.3979 23.7126 22.2491 23.6719 22.0598C23.6313 21.8704 23.672 21.6811 23.7668 21.5188C24.2544 20.7614 25.1349 19.4224 25.5955 18.9084C27.1669 17.096 28.6299 15.9734 30.6483 15.0537C33.2221 13.877 35.8366 13.3495 39.1148 13.3495H40.8217C41.2146 13.3495 41.5397 13.6741 41.5397 14.0663C41.5397 14.4586 41.2146 14.7832 40.8217 14.7832H39.1284C36.0534 14.7832 33.6151 15.2701 31.2309 16.3521C29.4157 17.1771 28.088 18.1915 26.6657 19.8416C26.3812 20.1662 25.7581 21.0589 24.9589 22.2897C24.8505 22.5061 24.6202 22.6279 24.3764 22.6279Z" fill="#A064A5"/>
<path d="M24.3717 22.3573C24.2904 22.3573 24.2091 22.3302 24.1278 22.2897C23.9246 22.1544 23.8569 21.8839 23.9924 21.681C24.48 20.9371 25.347 19.6116 25.7941 19.0977C27.3384 17.3123 28.7742 16.2168 30.752 15.3106C33.3529 14.1204 36.008 13.6064 39.3676 13.6335H40.8306C41.0744 13.6335 41.2776 13.8363 41.2776 14.0798C41.2776 14.3233 41.0744 14.5261 40.8306 14.5261H39.3676C36.1435 14.4991 33.5968 14.9995 31.1314 16.1221C29.2755 16.9742 27.9344 18.0021 26.4714 19.6793C26.1734 20.0174 25.5502 20.9236 24.751 22.1679C24.6561 22.2897 24.5207 22.3573 24.3717 22.3573Z" fill="#A064A5"/>
<path d="M1.54432 14.7426C0.690889 14.7426 0 14.0528 0 13.2007V1.54189C0 0.689793 0.690889 0 1.54432 0H13.0452C13.8987 0 14.5896 0.689793 14.5896 1.54189V13.2007C14.5896 14.0528 13.8987 14.7426 13.0452 14.7426H1.54432ZM1.54432 1.43368C1.49013 1.43368 1.43592 1.48779 1.43592 1.54189V13.2007C1.43592 13.2548 1.49013 13.3089 1.54432 13.3089H13.0452C13.0994 13.3089 13.1536 13.2548 13.1536 13.2007V1.54189C13.1536 1.48779 13.0994 1.43368 13.0452 1.43368H1.54432Z" fill="#A064A5"/>
<path d="M13.0477 14.4721H1.54681C0.842392 14.4721 0.273438 13.904 0.273438 13.2007V1.54189C0.273438 0.838572 0.842392 0.270508 1.54681 0.270508H13.0477C13.7521 0.270508 14.3211 0.838572 14.3211 1.54189V13.2007C14.3076 13.904 13.7386 14.4721 13.0477 14.4721ZM1.54681 1.16318C1.34361 1.16318 1.16755 1.33901 1.16755 1.54189V13.2007C1.16755 13.4036 1.34361 13.5794 1.54681 13.5794H13.0477C13.2509 13.5794 13.4271 13.4036 13.4271 13.2007V1.54189C13.4271 1.33901 13.2509 1.16318 13.0477 1.16318H1.54681Z" fill="#A064A5"/>
<path d="M7.28823 25.3735C6.89538 25.3735 6.57031 25.0489 6.57031 24.6566V14.188C6.57031 13.7958 6.89538 13.4712 7.28823 13.4712C7.68108 13.4712 8.00623 13.7958 8.00623 14.188V24.6566C8.00623 25.0489 7.69463 25.3735 7.28823 25.3735Z" fill="#A064A5"/>
<path d="M7.29072 25.103C7.04689 25.103 6.84375 24.9001 6.84375 24.6566V14.188C6.84375 13.9446 7.04689 13.7417 7.29072 13.7417C7.53456 13.7417 7.73778 13.9446 7.73778 14.188V24.6566C7.73778 24.9001 7.54811 25.103 7.29072 25.103Z" fill="#A064A5"/>
<path d="M5.2805 11.5506C4.88765 11.5506 4.5625 11.226 4.5625 10.8338V3.81413C4.5625 3.4219 4.88765 3.09729 5.2805 3.09729H7.4479C8.87028 3.09729 10.0353 4.26047 10.0353 5.70768C10.0353 7.15488 8.87028 8.31806 7.4479 8.31806H5.99842V10.8473C5.98487 11.2395 5.67335 11.5506 5.2805 11.5506ZM7.43442 6.88438C8.07111 6.88438 8.58584 6.35689 8.58584 5.70768C8.58584 5.05846 8.07111 4.53097 7.43442 4.53097H5.98494V6.88438H7.43442Z" fill="#A064A5"/>
<path d="M5.28299 11.2801C5.03916 11.2801 4.83594 11.0772 4.83594 10.8338V3.81413C4.83594 3.57068 5.03916 3.3678 5.28299 3.3678H7.45039C8.72376 3.3678 9.76687 4.40925 9.76687 5.70768C9.76687 6.99258 8.72376 8.04755 7.45039 8.04755H5.73005V10.8473C5.7165 11.0907 5.52683 11.2801 5.28299 11.2801ZM5.71649 7.15488H7.43692C8.22261 7.15488 8.85928 6.50567 8.85928 5.70768C8.85928 4.90968 8.22261 4.26047 7.43692 4.26047H5.71649V7.15488Z" fill="#A064A5"/>
</svg>
