<svg width="50" height="66" viewBox="0 0 50 66" fill="none" xmlns="http://www.w3.org/2000/svg">
<path d="M46.5199 55.3235C46.4688 55.2724 46.4176 55.2214 46.3664 55.1703L46.2982 55.1022C46.2811 55.0851 46.264 55.0681 46.2299 55.0511L46.0594 54.8978C45.9911 54.8467 45.9399 54.7957 45.8888 54.7446C38.5022 48.4953 34.1692 42.1951 33.3504 36.5588C32.8045 32.7957 33.2139 22.1192 33.3333 19.4118C37.8881 18.5774 41.3681 14.5759 41.3681 9.79102C41.3681 4.39319 36.9669 0 31.5592 0C26.1515 0 21.7503 4.39319 21.7503 9.79102C21.7503 11.4938 22.1938 13.0944 22.9614 14.4907C16.0355 18.0666 11.6001 25.2864 11.6001 33.1022V54.8638C8.8195 55.4938 6.29477 56.6347 4.04298 58.2694C2.04707 59.7337 0 61.692 0 65.2337V66H47.3558C48.8058 66 50 64.8251 50 63.3607C49.9829 60.2957 48.7547 57.435 46.5199 55.3235ZM32.4974 17.9814C32.1733 18.0155 31.8663 18.0325 31.5592 18.0325C31.4057 18.0325 31.2351 18.0325 31.0815 18.0155C31.0304 18.0155 30.9962 18.0155 30.945 17.9985C30.8256 17.9985 30.7233 17.9814 30.6039 17.9644C30.5527 17.9644 30.5015 17.9474 30.4503 17.9474C30.348 17.9303 30.2285 17.9133 30.1262 17.8963C30.075 17.8963 30.0239 17.8793 29.9897 17.8793C29.8703 17.8622 29.7339 17.8282 29.6144 17.7941C29.5803 17.7941 29.5633 17.7771 29.5292 17.7771C29.3756 17.743 29.2391 17.6919 29.0856 17.6579C29.0344 17.6409 29.0003 17.6238 28.9492 17.6068C28.8468 17.5728 28.7615 17.5387 28.6591 17.5046C28.5909 17.4876 28.5227 17.4536 28.4544 17.4195C28.3862 17.3854 28.318 17.3684 28.2497 17.3344C28.1815 17.3003 28.0962 17.2663 28.028 17.2322C27.9768 17.2152 27.9256 17.1811 27.8915 17.1641C27.4479 16.9427 27.0385 16.6873 26.6462 16.3978C26.6462 16.3978 26.6462 16.3978 26.6291 16.3978C26.1003 16.0062 25.6227 15.5464 25.2132 15.0526C25.2132 15.0356 25.1962 15.0356 25.1962 15.0186C24.0191 13.5882 23.3197 11.7833 23.3197 9.79102C23.3197 9.45047 23.3367 9.10991 23.3879 8.76935H39.7646C39.7987 9.10991 39.8328 9.45047 39.8328 9.79102C39.8157 14.0139 36.6086 17.5046 32.4974 17.9814ZM31.5592 1.54954C35.2098 1.54954 38.3145 3.93344 39.4063 7.21981H23.712C24.8038 3.93344 27.9086 1.54954 31.5592 1.54954ZM47.3388 64.4675H1.5694C1.77411 62.5604 2.79767 61.0789 4.94711 59.5294C7.16478 57.9288 9.68951 56.822 12.4531 56.2771H25.9809V54.7276H13.1525V33.1022C13.1525 25.7972 17.3149 19.0712 23.8144 15.7848C23.8826 15.87 23.9338 15.9381 24.002 16.0062C24.7014 16.8576 25.5373 17.5728 26.4756 18.1517C26.4926 18.1517 26.4926 18.1687 26.5097 18.1687C26.6291 18.2368 26.7656 18.322 26.885 18.3901C26.902 18.4071 26.9191 18.4071 26.9362 18.4241C27.2773 18.6115 27.6356 18.7817 28.0109 18.918C28.0791 18.952 28.1474 18.969 28.2327 19.0031C28.3009 19.0372 28.3691 19.0542 28.4544 19.0712C28.5568 19.1053 28.6421 19.1393 28.7444 19.1734C28.8127 19.1904 28.8809 19.2074 28.9492 19.2245C29.0515 19.2585 29.1539 19.2755 29.2562 19.3096C29.3245 19.3266 29.3927 19.3437 29.4438 19.3607C29.5462 19.3777 29.6656 19.4118 29.768 19.4288C29.8362 19.4458 29.8874 19.4458 29.9556 19.4628C30.0751 19.4799 30.1944 19.4969 30.2968 19.5139C30.365 19.5139 30.4162 19.531 30.4845 19.531C30.6039 19.548 30.7404 19.548 30.8598 19.565C30.9109 19.565 30.9621 19.582 31.0133 19.582C31.1839 19.5991 31.3715 19.5991 31.5592 19.5991C31.6274 19.5991 31.6956 19.5991 31.7809 19.5991C31.6444 22.6811 31.2691 32.9489 31.8321 36.8142C32.7192 42.9272 37.1034 49.3638 44.9164 55.9706C44.9676 56.0217 45.0187 56.0557 45.0699 56.1068L45.2576 56.2601C45.2747 56.2771 45.2917 56.2941 45.2917 56.2941L45.3429 56.3452C45.377 56.3793 45.4111 56.3963 45.4281 56.4303L45.4623 56.4644C47.39 58.3034 48.4476 60.7724 48.4476 63.4118C48.4306 63.9737 47.9529 64.4675 47.3388 64.4675Z" fill="#A064A5"/>
</svg>
