<svg width="52" height="57" viewBox="0 0 52 57" fill="none" xmlns="http://www.w3.org/2000/svg">
<path d="M19.9935 56.3865C9.40914 56.3865 0.804688 47.7955 0.804688 37.2277C0.804688 30.9461 3.89489 25.0709 9.05755 21.4867C9.37212 21.265 9.74219 21.1542 10.1123 21.1542C10.7229 21.1542 11.2965 21.4498 11.6481 21.9486C12.2403 22.78 12.0182 23.9439 11.1855 24.5352C7.02208 27.4173 4.52404 32.1654 4.52404 37.2277C4.52404 45.7448 11.4631 52.673 19.9935 52.673C26.803 52.673 32.7429 48.3128 34.7598 41.828C35.0004 41.052 35.722 40.5163 36.5362 40.5163C36.7212 40.5163 36.9063 40.5532 37.0913 40.6086C38.0721 40.9042 38.6272 41.9573 38.3126 42.9365C37.1283 46.7609 34.6858 50.1788 31.4661 52.5806C28.1353 55.0563 24.1569 56.3865 19.9935 56.3865Z" fill="#A064A5"/>
<path d="M17.2457 10.9743C20.2809 10.9743 22.7415 8.51763 22.7415 5.48716C22.7415 2.45668 20.2809 0 17.2457 0C14.2105 0 11.75 2.45668 11.75 5.48716C11.75 8.51763 14.2105 10.9743 17.2457 10.9743Z" fill="#A064A5"/>
<path d="M16.3298 24.8862C15.3121 24.8862 14.4609 24.0548 14.4609 23.0386C14.4609 22.0225 15.2936 21.1911 16.3298 21.1911H33.3352C34.3529 21.1911 35.2041 22.0225 35.2041 23.0386C35.2041 24.0548 34.3714 24.8862 33.3352 24.8862H16.3298Z" fill="#A064A5"/>
<path d="M46.7704 44.2298C46.4004 44.2298 46.0303 44.1189 45.7157 43.8972L32.7443 34.9737L16.4236 35.4356C15.887 35.4356 15.4244 35.2508 15.0913 34.9183C14.7397 34.5857 14.5177 34.1054 14.5177 33.6065L14.2031 10.5863C14.2031 10.0875 14.3882 9.62561 14.7397 9.25611C15.0913 8.90508 15.5539 8.70185 16.0535 8.70185C17.0898 8.70185 17.9225 9.51476 17.941 10.5309L18.2185 31.6666L33.2624 31.2417C33.688 31.2417 34.0581 31.3525 34.3726 31.5742L47.8437 40.8304C48.2508 41.1075 48.5283 41.5324 48.6209 42.0312C48.7134 42.5116 48.6023 43.0104 48.3248 43.4169C47.9547 43.9342 47.3811 44.2298 46.7704 44.2298Z" fill="#A064A5"/>
<path d="M47.8276 43.9526C47.55 43.9526 46.9024 43.6016 46.2362 42.9365C45.4036 42.1051 45.163 41.44 45.2185 41.3107L49.1414 37.4124C49.4375 37.4124 50.0851 37.7819 50.7513 38.447C51.584 39.2784 51.8245 39.9435 51.769 40.0728L47.8461 43.9711L47.8276 43.9526Z" fill="#A064A5"/>
</svg>
