<svg width="68" height="55" viewBox="0 0 68 55" fill="none" xmlns="http://www.w3.org/2000/svg">
<path d="M33.9751 54.8823C31.957 54.8823 30.066 54.1017 28.6479 52.6676C27.2297 51.2516 26.4297 49.3455 26.4297 47.3486C26.4297 45.3336 27.2115 43.4456 28.6479 42.0297C30.066 40.6137 31.9751 39.8149 33.9751 39.8149C35.9933 39.8149 37.8842 40.5955 39.3024 42.0297C40.7206 43.4638 41.5206 45.3517 41.5206 47.3486C41.5206 49.3636 40.7388 51.2516 39.3024 52.6676C37.8842 54.1017 35.9933 54.8823 33.9751 54.8823ZM33.9751 43.5727C32.9751 43.5727 32.0115 43.9721 31.3024 44.6801C30.5933 45.388 30.1933 46.332 30.1933 47.3486C30.1933 48.3652 30.5933 49.3092 31.3024 50.0172C32.0115 50.7252 32.957 51.1245 33.9751 51.1245C34.9933 51.1245 35.9388 50.7252 36.6479 50.0172C37.357 49.3092 37.757 48.3652 37.757 47.3486C37.757 46.332 37.357 45.388 36.6479 44.6801C35.9388 43.9721 34.9751 43.5727 33.9751 43.5727Z" fill="#A064A5"/>
<path opacity="0.8" d="M47.3297 35.2222C47.0206 35.2222 46.7115 35.0951 46.4751 34.8773C43.1297 31.5552 38.6933 29.7217 33.9842 29.7217C29.2751 29.7217 24.8388 31.5552 21.4933 34.8773C21.0206 35.3493 20.257 35.3493 19.7842 34.8773C19.3115 34.4053 19.3115 33.6429 19.7842 33.1709C23.5661 29.395 28.6206 27.3073 33.9842 27.3073C39.3479 27.3073 44.3842 29.395 48.1842 33.1709C48.657 33.6429 48.657 34.4053 48.1842 34.8773C47.9479 35.1133 47.6388 35.2222 47.3297 35.2222Z" fill="#A064A5"/>
<path d="M56.6639 25.9094C56.3548 25.9094 56.0457 25.7823 55.8094 25.5645C49.973 19.7372 42.2276 16.5422 33.9912 16.5422C25.7548 16.5422 17.9912 19.7554 12.173 25.5645C11.7003 26.0365 10.9366 26.0365 10.4639 25.5645C9.99119 25.0925 9.99119 24.3301 10.4639 23.8581C16.7548 17.577 25.1003 14.1278 33.9912 14.1278C42.8821 14.1278 51.2276 17.577 57.5185 23.8581C57.9912 24.3301 57.9912 25.0925 57.5185 25.5645C57.2821 25.7823 56.973 25.9094 56.6639 25.9094Z" fill="#A064A5"/>
<path d="M66.0033 16.5786C65.6942 16.5786 65.3851 16.4515 65.1487 16.2337C56.8215 7.91937 45.7669 3.34471 33.9851 3.34471C22.2033 3.34471 11.1487 7.91937 2.82145 16.2337C2.34872 16.7056 1.58509 16.7056 1.11236 16.2337C0.639631 15.7617 0.639631 14.9992 1.11236 14.5272C9.89418 5.75911 21.5669 0.930298 33.9851 0.930298C46.4033 0.930298 58.076 5.75911 66.8578 14.5272C67.3306 14.9992 67.3306 15.7617 66.8578 16.2337C66.6215 16.4696 66.3124 16.5786 66.0033 16.5786Z" fill="#A064A5"/>
</svg>
