<svg width="71" height="58" viewBox="0 0 71 58" fill="none" xmlns="http://www.w3.org/2000/svg">
<path d="M35.0992 57.3689C32.9768 57.3689 30.9882 56.548 29.4968 55.0398C28.0054 53.5507 27.1641 51.5462 27.1641 49.4462C27.1641 47.3271 27.9863 45.3416 29.4968 43.8525C30.9882 42.3634 32.9959 41.5234 35.0992 41.5234C37.2216 41.5234 39.2101 42.3443 40.7016 43.8525C42.193 45.3607 43.0343 47.3462 43.0343 49.4462C43.0343 51.5653 42.2121 53.5507 40.7016 55.0398C39.2101 56.548 37.2216 57.3689 35.0992 57.3689ZM35.0992 45.4753C34.0475 45.4753 33.0341 45.8953 32.2884 46.6398C31.5427 47.3843 31.1221 48.3771 31.1221 49.4462C31.1221 50.5153 31.5427 51.508 32.2884 52.2525C33.0341 52.9971 34.0284 53.4171 35.0992 53.4171C36.1699 53.4171 37.1642 52.9971 37.9099 52.2525C38.6556 51.508 39.0763 50.5153 39.0763 49.4462C39.0763 48.3771 38.6556 47.3843 37.9099 46.6398C37.1642 45.8953 36.1508 45.4753 35.0992 45.4753Z" fill="white"/>
<path opacity="0.8" d="M49.1338 36.6938C48.8087 36.6938 48.4837 36.5601 48.2351 36.331C44.7169 32.8374 40.0514 30.9092 35.0991 30.9092C30.1469 30.9092 25.4814 32.8374 21.9632 36.331C21.466 36.8274 20.663 36.8274 20.1658 36.331C19.6687 35.8347 19.6687 35.0329 20.1658 34.5365C24.1429 30.5656 29.4585 28.3701 35.0991 28.3701C40.7397 28.3701 46.0362 30.5656 50.0324 34.5365C50.5296 35.0329 50.5296 35.8347 50.0324 36.331C49.7839 36.5792 49.4588 36.6938 49.1338 36.6938Z" fill="white"/>
<path d="M58.9431 26.8998C58.618 26.8998 58.2929 26.7661 58.0444 26.537C51.9066 20.4089 43.7612 17.0489 35.0995 17.0489C26.4378 17.0489 18.2732 20.4279 12.1546 26.537C11.6574 27.0334 10.8544 27.0334 10.3572 26.537C9.86009 26.0407 9.86009 25.2389 10.3572 24.7425C16.973 18.137 25.7494 14.5098 35.0995 14.5098C44.4495 14.5098 53.2259 18.137 59.8417 24.7425C60.3389 25.2389 60.3389 26.0407 59.8417 26.537C59.5932 26.7661 59.2681 26.8998 58.9431 26.8998Z" fill="white"/>
<path d="M68.7711 17.0872C68.446 17.0872 68.121 16.9536 67.8724 16.7245C59.1151 7.98086 47.4897 3.16995 35.0994 3.16995C22.7092 3.16995 11.0838 7.98086 2.32645 16.7245C1.82931 17.2209 1.02624 17.2209 0.529105 16.7245C0.0319651 16.2281 0.0319651 15.4263 0.529105 14.93C9.76443 5.70904 22.0399 0.630859 35.0994 0.630859C48.1589 0.630859 60.4344 5.70904 69.6697 14.93C70.1669 15.4263 70.1669 16.2281 69.6697 16.7245C69.4212 16.9727 69.0961 17.0872 68.7711 17.0872Z" fill="white"/>
</svg>
