<svg width="55" height="62" viewBox="0 0 55 62" fill="none" xmlns="http://www.w3.org/2000/svg">
<path d="M40.9403 61.4883H13.2726C10.7295 61.4883 8.68359 59.4265 8.68359 56.8874V7.42285H45.5484V56.9065C45.5293 59.4265 43.4642 61.4883 40.9403 61.4883ZM10.9398 9.69467V56.9065C10.9398 58.1856 11.9724 59.2165 13.2535 59.2165H40.9212C42.2023 59.2165 43.2348 58.1856 43.2348 56.9065V9.69467H10.9398Z" fill="white"/>
<path d="M49.3359 16.6053H45.6264C44.9955 16.6053 44.4792 16.0899 44.4792 15.4599C44.4792 14.8299 44.9955 14.3144 45.6264 14.3144H49.3359C50.7508 14.3144 51.898 13.2835 51.898 12.0044V5.09349C51.898 3.8144 50.7508 2.78349 49.3359 2.78349H4.861C3.44606 2.78349 2.29881 3.8144 2.29881 5.09349V12.0044C2.29881 13.2835 3.44606 14.3144 4.861 14.3144H8.57042C9.2014 14.3144 9.71767 14.8299 9.71767 15.4599C9.71767 16.0899 9.2014 16.6053 8.57042 16.6053H4.861C2.18409 16.6053 0.0234375 14.5435 0.0234375 12.0235V5.11258C0.0234375 2.57349 2.20322 0.530762 4.861 0.530762H49.3359C52.0128 0.530762 54.1734 2.59258 54.1734 5.11258V12.0235C54.1734 14.5435 52.0128 16.6053 49.3359 16.6053Z" fill="white"/>
<path d="M46.1233 9.69423H8.07304C7.44205 9.69423 6.92578 9.17878 6.92578 8.54878C6.92578 7.91878 7.44205 7.40332 8.07304 7.40332H46.1233C46.7543 7.40332 47.2706 7.91878 47.2706 8.54878C47.2515 9.17878 46.7543 9.69423 46.1233 9.69423Z" fill="white"/>
<path d="M30.0234 45.2801V21.3973C30.0234 20.6719 30.6162 20.0801 31.3428 20.0801H31.3619C32.0885 20.0801 32.6812 20.6719 32.6812 21.3973V45.2801C32.6812 46.0055 32.0885 46.5973 31.3619 46.5973H31.3428C30.6162 46.6164 30.0234 46.0246 30.0234 45.2801Z" fill="white"/>
<path d="M22.3945 45.2801V21.3973C22.3945 20.6719 22.9873 20.0801 23.7139 20.0801H23.733C24.4596 20.0801 25.0523 20.6719 25.0523 21.3973V45.2801C25.0523 46.0055 24.4596 46.5973 23.733 46.5973H23.7139C22.9873 46.6164 22.3945 46.0246 22.3945 45.2801Z" fill="white"/>
</svg>
