<svg width="54" height="60" viewBox="0 0 54 60" fill="none" xmlns="http://www.w3.org/2000/svg">
<path d="M20.5978 59.1324C9.6607 59.1324 0.769531 50.2552 0.769531 39.3352C0.769531 32.8443 3.96271 26.7733 9.2974 23.0697C9.62245 22.8406 10.0049 22.7261 10.3873 22.7261C11.0183 22.7261 11.611 23.0315 11.9743 23.547C12.5862 24.4061 12.3567 25.6088 11.4963 26.2197C7.1941 29.1979 4.61282 34.1043 4.61282 39.3352C4.61282 48.1361 11.7831 55.2952 20.5978 55.2952C27.6342 55.2952 33.772 50.7897 35.8561 44.0888C36.1047 43.287 36.8504 42.7333 37.6917 42.7333C37.8829 42.7333 38.0741 42.7715 38.2653 42.8288C39.2787 43.1343 39.8524 44.2224 39.5273 45.2343C38.3036 49.1861 35.7796 52.7179 32.4526 55.1997C29.0109 57.7579 24.8999 59.1324 20.5978 59.1324Z" fill="white"/>
<path d="M17.7492 12.2072C20.8855 12.2072 23.428 9.66864 23.428 6.53719C23.428 3.40573 20.8855 0.867188 17.7492 0.867188C14.6128 0.867188 12.0703 3.40573 12.0703 6.53719C12.0703 9.66864 14.6128 12.2072 17.7492 12.2072Z" fill="white"/>
<path d="M16.8101 26.5828C15.7585 26.5828 14.8789 25.7237 14.8789 24.6737C14.8789 23.6237 15.7393 22.7646 16.8101 22.7646H34.3821C35.4337 22.7646 36.3133 23.6237 36.3133 24.6737C36.3133 25.7237 35.4528 26.5828 34.3821 26.5828H16.8101Z" fill="white"/>
<path d="M48.2658 46.5707C47.8834 46.5707 47.501 46.4562 47.1759 46.2271L33.7723 37.0062L16.9078 37.4834C16.3533 37.4834 15.8752 37.2925 15.5311 36.9489C15.1678 36.6052 14.9383 36.1089 14.9383 35.5934L14.6133 11.8062C14.6133 11.2907 14.8045 10.8134 15.1678 10.4316C15.5311 10.0689 16.0091 9.85889 16.5254 9.85889C17.5961 9.85889 18.4566 10.6989 18.4757 11.7489L18.7625 33.5889L34.3077 33.1498C34.7474 33.1498 35.1298 33.2643 35.4549 33.4934L49.3748 43.058C49.7954 43.3443 50.0823 43.7834 50.1779 44.2989C50.2735 44.7953 50.1588 45.3107 49.8719 45.7307C49.4895 46.2653 48.8968 46.5707 48.2658 46.5707Z" fill="white"/>
<path d="M49.3562 46.2845C49.0694 46.2845 48.4002 45.9218 47.7118 45.2345C46.8514 44.3755 46.6028 43.6882 46.6602 43.5545L50.7138 39.5264C51.0197 39.5264 51.6889 39.9082 52.3773 40.5955C53.2377 41.4545 53.4863 42.1418 53.4289 42.2755L49.3753 46.3036L49.3562 46.2845Z" fill="white"/>
</svg>
