<svg width="54" height="67" viewBox="0 0 54 67" fill="none" xmlns="http://www.w3.org/2000/svg">
<path d="M32.1477 9.04848H21.7078C20.2163 9.04848 19.0117 7.82666 19.0117 6.29939C19.0117 4.7912 20.2163 3.55029 21.7078 3.55029H32.1477C33.6583 3.55029 34.882 4.77211 34.882 6.29939C34.882 7.82666 33.6583 9.04848 32.1477 9.04848ZM21.7078 5.8412C21.4974 5.8412 21.3062 6.0512 21.3062 6.29939C21.3062 6.54757 21.4783 6.75757 21.7078 6.75757H32.1477C32.3772 6.75757 32.5875 6.54757 32.5875 6.29939C32.5875 6.0512 32.3772 5.8412 32.1477 5.8412H21.7078Z" fill="white"/>
<path d="M40.9229 60.9374H13.0066C12.3756 60.9374 11.8594 60.4219 11.8594 59.7919C11.8594 59.1619 12.3756 58.6465 13.0066 58.6465H40.9229C41.5539 58.6465 42.0701 59.1619 42.0701 59.7919C42.0701 60.4219 41.5539 60.9374 40.9229 60.9374Z" fill="white"/>
<path d="M48.7834 66.9701H5.09251C4.46153 66.9701 3.94531 66.4547 3.94531 65.8247C3.94531 65.1947 4.46153 64.6792 5.09251 64.6792H48.7834C49.4144 64.6792 49.9307 65.1947 49.9307 65.8247C49.9307 66.4737 49.4144 66.9701 48.7834 66.9701Z" fill="white"/>
<path d="M39.7003 53.6445C36.1056 53.6445 33.1992 50.7236 33.1992 47.1345C33.1992 43.5454 36.1247 40.6436 39.7003 40.6436C43.2567 40.6436 46.1631 43.5645 46.1631 47.1345C46.144 50.7426 43.2567 53.6445 39.7003 53.6445ZM39.7003 42.9345C37.3867 42.9345 35.4937 44.8245 35.4937 47.1536C35.4937 49.4826 37.3867 51.3726 39.7003 51.3726C41.9948 51.3726 43.8686 49.4826 43.8686 47.1536C43.8495 44.8245 41.9948 42.9345 39.7003 42.9345Z" fill="white"/>
<path d="M14.2128 53.6445C10.6564 53.6445 7.75 50.7236 7.75 47.1345C7.75 43.5454 10.6564 40.6436 14.2128 40.6436C17.7693 40.6436 20.6756 43.5645 20.6756 47.1345C20.6756 50.7426 17.7884 53.6445 14.2128 53.6445ZM14.2128 42.9345C11.8801 42.9345 10.0445 44.7863 10.0445 47.1536C10.0445 49.5208 11.8801 51.3726 14.2128 51.3726C16.5456 51.3726 18.3811 49.5208 18.3811 47.1536C18.3811 44.7863 16.5647 42.9345 14.2128 42.9345Z" fill="white"/>
<path d="M36.4318 31.1175H17.5022C12.0337 31.1175 7.59766 26.6312 7.59766 21.133V14.9475C7.59766 12.4275 9.62449 10.3657 12.1102 10.3657H41.8429C44.3286 10.3657 46.3555 12.4275 46.3555 14.9475V21.133C46.3363 26.6503 41.8812 31.1175 36.4318 31.1175ZM12.091 12.6757C10.8673 12.6757 9.87303 13.7066 9.87303 14.9666V21.1521C9.87303 25.3903 13.2957 28.8457 17.4831 28.8457H36.4126C40.6192 28.8457 44.0227 25.3903 44.0227 21.1521V14.9666C44.0227 13.7066 43.0284 12.6757 41.8047 12.6757H12.091Z" fill="white"/>
<path d="M53.582 63.8774C54.1939 63.152 53.6585 61.7011 53.3908 60.8611L49.2034 57.4438C51.3258 55.5347 52.5495 52.7856 52.5495 49.8265V10.9383C52.5495 5.28743 47.9988 0.686523 42.4155 0.686523H11.4972C5.87573 0.686523 1.32498 5.28743 1.32498 10.9383V49.8074C1.32498 52.7092 2.58699 55.5156 4.70939 57.4247L0.44544 60.8802C0.44544 60.8993 0.44544 60.9183 0.44544 60.9565C0.407199 61.4911 0.292491 62.2165 0.52194 62.6938C0.636664 62.942 0.866109 63.1329 1.11468 63.2856L7.27156 58.3029C7.55837 58.0738 7.71134 57.7302 7.69222 57.3483C7.6731 56.9856 7.48186 56.642 7.17592 56.4511C4.97704 55.0192 3.60035 52.4611 3.60035 49.8074V10.9383C3.60035 6.54743 7.1377 2.97743 11.4972 2.97743H42.4155C46.7368 2.97743 50.255 6.54743 50.255 10.9383V49.8074C50.255 52.5183 48.9356 55.0002 46.7368 56.4511C46.4308 56.6611 46.2396 56.9856 46.2205 57.3483C46.2014 57.7111 46.3544 58.0547 46.6412 58.3029L53.2761 63.7247C53.3717 63.782 53.4864 63.8392 53.582 63.8774Z" fill="white"/>
</svg>
