<svg width="57" height="75" viewBox="0 0 57 75" fill="none" xmlns="http://www.w3.org/2000/svg">
<path d="M53.0759 62.4961C53.0185 62.4388 52.9611 62.3815 52.9038 62.3243L52.8273 62.2479C52.8082 62.2288 52.789 62.2097 52.7508 62.1906L52.5596 62.0188C52.4831 61.9615 52.4258 61.9043 52.3684 61.847C44.0891 54.8406 39.2324 47.777 38.3146 41.4579C37.7028 37.2388 38.1617 25.2688 38.2955 22.2334C43.4007 21.2979 47.3014 16.8115 47.3014 11.447C47.3014 5.39518 42.3683 0.469727 36.307 0.469727C30.2457 0.469727 25.3125 5.39518 25.3125 11.447C25.3125 13.3561 25.8097 15.1506 26.6701 16.7161C18.9071 20.7252 13.9357 28.8197 13.9357 37.5825V61.9806C10.819 62.687 7.98914 63.9661 5.4652 65.7988C3.22807 67.4406 0.933594 69.6361 0.933594 73.607V74.4661H54.0128C55.638 74.4661 56.9765 73.1488 56.9765 71.507C56.9574 68.0706 55.5807 64.8634 53.0759 62.4961ZM37.3586 20.6297C36.9953 20.6679 36.6512 20.687 36.307 20.687C36.1349 20.687 35.9437 20.687 35.7716 20.6679C35.7142 20.6679 35.676 20.6679 35.6186 20.6488C35.4848 20.6488 35.3701 20.6297 35.2362 20.6106C35.1789 20.6106 35.1214 20.5915 35.0641 20.5915C34.9494 20.5725 34.8155 20.5534 34.7008 20.5343C34.6434 20.5343 34.5861 20.5152 34.5478 20.5152C34.414 20.4961 34.261 20.4579 34.1272 20.4197C34.0889 20.4197 34.0699 20.4006 34.0316 20.4006C33.8595 20.3625 33.7065 20.3052 33.5345 20.267C33.4771 20.2479 33.4389 20.2288 33.3815 20.2097C33.2668 20.1715 33.1712 20.1334 33.0564 20.0952C32.9799 20.0761 32.9035 20.0379 32.827 19.9997C32.7505 19.9615 32.674 19.9425 32.5976 19.9043C32.5211 19.8661 32.4255 19.8279 32.349 19.7897C32.2916 19.7706 32.2342 19.7325 32.196 19.7134C31.6988 19.4652 31.24 19.1788 30.8002 18.8543C30.8002 18.8543 30.8002 18.8543 30.7811 18.8543C30.1883 18.4152 29.653 17.8997 29.1941 17.3461C29.1941 17.327 29.1749 17.327 29.1749 17.3079C27.8556 15.7043 27.0716 13.6806 27.0716 11.447C27.0716 11.0652 27.0908 10.6834 27.1481 10.3015H45.5041C45.5423 10.6834 45.5805 11.0652 45.5805 11.447C45.5614 16.1815 41.9667 20.0952 37.3586 20.6297ZM36.307 2.207C40.3988 2.207 43.8788 4.87973 45.1025 8.56427H27.5114C28.7352 4.87973 32.2151 2.207 36.307 2.207ZM53.9937 72.7479H2.69267C2.92212 70.6097 4.06939 68.9488 6.4786 67.2115C8.9643 65.417 11.7942 64.1761 14.8917 63.5652H30.0545V61.8279H15.6757V37.5825C15.6757 29.3925 20.3411 21.8515 27.6261 18.167C27.7026 18.2625 27.76 18.3388 27.8364 18.4152C28.6204 19.3697 29.5573 20.1715 30.609 20.8206C30.6281 20.8206 30.6281 20.8397 30.6472 20.8397C30.781 20.9161 30.934 21.0115 31.0679 21.0879C31.087 21.107 31.1061 21.107 31.1252 21.1261C31.5076 21.3361 31.9092 21.527 32.3298 21.6797C32.4063 21.7179 32.4828 21.737 32.5784 21.7752C32.6549 21.8134 32.7314 21.8325 32.827 21.8515C32.9417 21.8897 33.0373 21.9279 33.152 21.9661C33.2285 21.9852 33.305 22.0043 33.3815 22.0234C33.4962 22.0615 33.6109 22.0806 33.7257 22.1188C33.8022 22.1379 33.8786 22.157 33.936 22.1761C34.0507 22.1952 34.1845 22.2334 34.2993 22.2525C34.3758 22.2715 34.4331 22.2715 34.5096 22.2906C34.6435 22.3097 34.7773 22.3288 34.892 22.3479C34.9685 22.3479 35.0259 22.367 35.1024 22.367C35.2362 22.3861 35.3892 22.3861 35.523 22.4052C35.5804 22.4052 35.6377 22.4243 35.6951 22.4243C35.8863 22.4434 36.0967 22.4434 36.307 22.4434C36.3835 22.4434 36.4599 22.4434 36.5555 22.4434C36.4025 25.8988 35.9819 37.4106 36.6129 41.7443C37.6071 48.5979 42.5212 55.8143 51.2785 63.2215C51.3359 63.2788 51.3932 63.317 51.4506 63.3743L51.6609 63.5461C51.6801 63.5652 51.6992 63.5843 51.6992 63.5843L51.7565 63.6415C51.7948 63.6797 51.833 63.6988 51.8521 63.737L51.8904 63.7752C54.051 65.837 55.2365 68.6052 55.2365 71.5643C55.2174 72.1943 54.682 72.7479 53.9937 72.7479Z" fill="white"/>
</svg>
