<svg width="70" height="48" viewBox="0 0 70 48" fill="none" xmlns="http://www.w3.org/2000/svg">
<path d="M64.1227 47.6157H6.07214C3.10843 47.6157 0.699219 45.2102 0.699219 42.2511V5.74931C0.699219 2.79022 3.10843 0.384766 6.07214 0.384766H64.1227C67.0864 0.384766 69.4956 2.79022 69.4956 5.74931V42.2511C69.4956 45.2102 67.0864 47.6157 64.1227 47.6157ZM6.07214 2.52295C4.29392 2.52295 2.84073 3.97386 2.84073 5.74931V42.2511C2.84073 44.0266 4.29392 45.4775 6.07214 45.4775H64.1227C65.9009 45.4775 67.3541 44.0266 67.3541 42.2511V5.74931C67.3541 3.97386 65.9009 2.52295 64.1227 2.52295H6.07214Z" fill="white"/>
<path d="M26.4945 24.0001H21.1215C20.5288 24.0001 20.0508 23.5228 20.0508 22.931V17.5664C20.0508 14.0155 22.938 11.1328 26.4945 11.1328C30.0509 11.1328 32.9381 14.0155 32.9381 17.5664C32.9573 21.1174 30.0509 24.0001 26.4945 24.0001ZM22.1923 21.8619H26.4945C28.8654 21.8619 30.7966 19.9337 30.7966 17.5664C30.7966 15.1992 28.8654 13.271 26.4945 13.271C24.1235 13.271 22.1923 15.1992 22.1923 17.5664V21.8619Z" fill="white"/>
<path d="M21.1213 24.0001H15.7484C12.1919 24.0001 9.30469 21.1174 9.30469 17.5664C9.30469 14.0155 12.1919 11.1328 15.7484 11.1328C19.3048 11.1328 22.1921 14.0155 22.1921 17.5664V22.931C22.1921 23.5228 21.714 24.0001 21.1213 24.0001ZM15.7484 13.271C13.3774 13.271 11.4462 15.1992 11.4462 17.5664C11.4462 19.9337 13.3774 21.8619 15.7484 21.8619H20.0505V17.5664C20.0505 15.1992 18.1193 13.271 15.7484 13.271Z" fill="white"/>
<path d="M29.7226 32.5912C29.4549 32.5912 29.1681 32.4957 28.9578 32.2857L21.1183 24.4584L13.2788 32.2857C12.8582 32.7057 12.1697 32.7057 11.7491 32.2857C11.3284 31.8657 11.3284 31.1784 11.7491 30.7584L20.3534 22.1675C20.7741 21.7475 21.4625 21.7475 21.8832 22.1675L30.4875 30.7584C30.9082 31.1784 30.9082 31.8657 30.4875 32.2857C30.2772 32.4766 29.9903 32.5912 29.7226 32.5912Z" fill="white"/>
<path d="M21.1215 11.1139C20.5288 11.1139 20.0508 10.6366 20.0508 10.0448V1.45386C20.0508 0.862041 20.5288 0.384766 21.1215 0.384766C21.7143 0.384766 22.1923 0.862041 22.1923 1.45386V10.0448C22.1923 10.6366 21.7143 11.1139 21.1215 11.1139Z" fill="white"/>
<path d="M21.1215 47.6159C20.5288 47.6159 20.0508 47.1386 20.0508 46.5468V29.365C20.0508 28.7732 20.5288 28.2959 21.1215 28.2959C21.7143 28.2959 22.1923 28.7732 22.1923 29.365V46.5468C22.1923 47.1386 21.7143 47.6159 21.1215 47.6159Z" fill="white"/>
<path d="M8.21366 24H1.76998C1.17723 24 0.699219 23.5227 0.699219 22.9309C0.699219 22.3391 1.17723 21.8618 1.76998 21.8618H8.21366C8.8064 21.8618 9.28442 22.3391 9.28442 22.9309C9.28442 23.5227 8.8064 24 8.21366 24Z" fill="white"/>
<path d="M68.426 24.0005H34.0278C33.435 24.0005 32.957 23.5232 32.957 22.9314C32.957 22.3396 33.435 21.8623 34.0278 21.8623H68.426C69.0187 21.8623 69.4968 22.3396 69.4968 22.9314C69.4968 23.5232 69.0187 24.0005 68.426 24.0005Z" fill="white"/>
<path d="M51.2176 36.8867H44.7739C44.1811 36.8867 43.7031 36.4094 43.7031 35.8176C43.7031 35.2258 44.1811 34.7485 44.7739 34.7485H51.2176C51.8103 34.7485 52.2883 35.2258 52.2883 35.8176C52.3074 36.4094 51.8294 36.8867 51.2176 36.8867Z" fill="white"/>
<path d="M59.8219 41.1821H44.7739C44.1811 41.1821 43.7031 40.7048 43.7031 40.113C43.7031 39.5212 44.1811 39.0439 44.7739 39.0439H59.8219C60.4146 39.0439 60.8927 39.5212 60.8927 40.113C60.9118 40.7048 60.4146 41.1821 59.8219 41.1821Z" fill="white"/>
</svg>
