<svg width="68" height="66" viewBox="0 0 68 66" fill="none" xmlns="http://www.w3.org/2000/svg">
<path d="M33.9603 20.8301C28.4153 20.8301 23.9219 16.3247 23.9219 10.8074C23.9219 5.27103 28.4344 0.784668 33.9603 0.784668C39.4862 0.784668 43.9987 5.29012 43.9987 10.8074C43.9987 16.3438 39.5053 20.8301 33.9603 20.8301ZM33.9603 2.94194C29.6199 2.94194 26.0825 6.47376 26.0825 10.8074C26.0825 15.141 29.6199 18.6728 33.9603 18.6728C38.3007 18.6728 41.838 15.141 41.838 10.8074C41.838 6.47376 38.3198 2.94194 33.9603 2.94194Z" fill="white"/>
<path d="M33.9398 59.9474C31.9895 59.9474 30.2686 58.5729 29.8671 56.6065C29.4464 54.4492 30.7658 52.3302 32.8882 51.7765C32.9073 51.7765 32.9072 51.7765 32.9263 51.7765L43.8252 49.2756C45.1445 48.9702 45.9858 47.6911 45.7181 46.3547L43.2707 34.0602C43.156 33.4683 43.5384 32.9147 44.1121 32.8002C44.7048 32.6856 45.2593 33.0674 45.374 33.6402L47.8215 45.9347C48.3186 48.4165 46.7698 50.8029 44.3032 51.3756L33.4044 53.8765C32.391 54.1438 31.76 55.1556 31.9703 56.1865C32.1806 57.2365 33.175 57.9238 34.2267 57.7711L50.3646 55.2892C52.5635 54.9456 54.093 52.9411 53.8636 50.7265L52.0662 34.4992C51.6647 30.9483 49.6189 27.7411 46.5404 25.9083L41.5881 22.9302C41.0718 22.6247 40.9189 21.9565 41.2248 21.4411C41.5307 20.9256 42.2 20.7729 42.7163 21.0783L47.6685 24.0565C51.3014 26.2329 53.7489 30.0511 54.2269 34.2511L56.0242 50.4783C56.4067 53.8383 54.074 56.8929 50.7087 57.4083L34.5708 59.8902C34.3605 59.9283 34.1501 59.9474 33.9398 59.9474Z" fill="white"/>
<path d="M28.0157 52.5974C27.9392 52.5974 27.8626 52.5974 27.8053 52.5784L23.8473 51.7765C21.3998 51.2802 19.7937 48.8747 20.2717 46.4311L22.7575 33.6211C22.8722 33.0293 23.4458 32.6474 24.0194 32.762C24.6122 32.8765 24.9946 33.4493 24.8799 34.022L22.3942 46.832C22.1456 48.1302 22.9869 49.3902 24.2871 49.6574L28.2451 50.4593C28.8379 50.5738 29.2012 51.1465 29.0865 51.7384C28.9717 52.2538 28.5128 52.5974 28.0157 52.5974Z" fill="white"/>
<path d="M32.9872 59.7565C32.9299 59.7565 32.8725 59.7566 32.8151 59.7375L17.4229 57.3893C14.0577 56.8738 11.725 53.8384 12.1074 50.4593L13.9048 34.232C14.3637 30.032 16.8302 26.2138 20.4632 24.0375L25.4154 21.0593C25.9316 20.7538 26.5818 20.9256 26.9069 21.422C27.2128 21.9375 27.0407 22.5866 26.5436 22.9111L21.5912 25.8893C18.5319 27.722 16.467 30.9293 16.0654 34.4802L14.2681 50.7075C14.0195 52.922 15.5491 54.9266 17.7671 55.2702L33.1594 57.6184C33.7521 57.7138 34.1536 58.2675 34.058 58.8402C33.9624 59.3747 33.5035 59.7565 32.9872 59.7565Z" fill="white"/>
<path d="M59.1234 65.6363H8.74024C4.38071 65.6363 0.824219 62.0854 0.824219 57.7327C0.824219 55.4036 1.8376 53.2081 3.61583 51.7191C5.39406 50.2109 7.7268 49.5618 10.0213 49.9436L12.8894 50.4018C13.4822 50.4972 13.8837 51.0509 13.7881 51.6427C13.6925 52.2345 13.138 52.6354 12.5452 52.54L9.67714 52.0818C8.01363 51.8145 6.3119 52.2918 5.03081 53.38C3.74972 54.4682 3.00401 56.0718 3.00401 57.7518C3.00401 60.9209 5.58533 63.4982 8.75938 63.4982H59.1425C62.3166 63.4982 64.8979 60.9209 64.8979 57.7518C64.8979 56.0718 64.1522 54.4682 62.8711 53.38C61.59 52.2918 59.8883 51.8145 58.2248 52.0818L55.3566 52.54C54.7639 52.6354 54.2093 52.2345 54.1137 51.6427C54.0181 51.0509 54.4197 50.4972 55.0125 50.4018L57.8806 49.9436C60.1751 49.5809 62.5078 50.23 64.286 51.7191C66.0642 53.2272 67.0777 55.4227 67.0777 57.7327C67.0394 62.0854 63.4829 65.6363 59.1234 65.6363Z" fill="white"/>
</svg>
