<svg width="71" height="59" viewBox="0 0 71 59" fill="none" xmlns="http://www.w3.org/2000/svg">
<path d="M58.5099 30.5729C57.7451 30.5729 57.0377 30.1529 56.6744 29.4657C56.3111 28.7784 56.3685 27.9384 56.8274 27.3084C59.3704 23.7002 61.9516 20.9702 64.4947 19.1757C66.0435 18.0875 67.5731 17.2475 69.1793 16.5793C69.3131 16.522 69.4279 16.5029 69.5617 16.5029C69.9633 16.5029 70.3457 16.7511 70.4986 17.1329C70.709 17.6484 70.4796 18.2402 69.9633 18.4502C68.491 19.0611 67.0761 19.8438 65.6611 20.8366C63.3093 22.4784 60.881 25.0557 58.4909 28.4729L69.5043 28.5684C70.0588 28.5684 70.5178 29.0266 70.5178 29.5802C70.5178 30.1338 70.0588 30.592 69.5043 30.592H58.5099V30.5729Z" fill="white"/>
<path d="M69.4847 30.191H58.5093C57.8783 30.191 57.3047 29.8474 57.0179 29.2938C56.7311 28.721 56.7694 28.0529 57.1326 27.5183C59.6375 23.9483 62.1997 21.2374 64.7045 19.481C66.2342 18.4119 67.7447 17.5719 69.3126 16.9229C69.6376 16.7892 70.0009 16.9419 70.1347 17.2665C70.2686 17.591 70.1156 17.9538 69.7906 18.0874C68.2992 18.7174 66.8651 19.5001 65.412 20.5119C63.0219 22.1919 60.5744 24.7883 58.1461 28.2438C57.9931 28.4538 58.0887 28.6638 58.1078 28.721C58.1461 28.7974 58.2608 28.9501 58.4903 28.9501H69.4656C69.8097 28.9501 70.0966 29.2365 70.0966 29.5801C70.1157 29.9238 69.8289 30.191 69.4847 30.191Z" fill="white"/>
<path d="M57.0016 49.3967C56.4471 49.3967 55.9883 48.9385 55.9883 48.3849C55.9883 47.8312 56.4471 47.373 57.0016 47.373H69.4875C70.042 47.373 70.5009 47.8312 70.5009 48.3849C70.5009 48.9385 70.042 49.3967 69.4875 49.3967H57.0016Z" fill="white"/>
<path d="M69.4841 49.0149H56.9982C56.654 49.0149 56.3672 48.7285 56.3672 48.3849C56.3672 48.0412 56.654 47.7549 56.9982 47.7549H69.4841C69.8283 47.7549 70.115 48.0412 70.115 48.3849C70.115 48.7285 69.8283 49.0149 69.4841 49.0149Z" fill="white"/>
<path d="M30.8236 49.3965C29.7911 49.3965 28.816 48.9765 28.1085 48.232C27.3819 47.4874 26.9995 46.4947 27.0378 45.4447C27.1907 41.2447 27.8408 35.7465 30.1353 33.3601C32.8887 30.4965 38.5867 29.122 43.6154 27.9001C46.2541 27.251 48.7207 26.6592 50.193 25.972C51.7418 25.2465 54.476 22.5929 56.8852 20.2447C58.5487 18.622 60.0976 17.1138 61.2448 16.2738C63.5967 14.4983 66.2735 13.0856 69.1799 12.112C69.2755 12.0738 69.3902 12.0547 69.5049 12.0547C69.9447 12.0547 70.3271 12.322 70.4609 12.742C70.5374 12.9901 70.5375 13.2765 70.4036 13.5056C70.2889 13.7538 70.0786 13.9256 69.83 14.002C67.1149 14.9183 64.6291 16.2165 62.4685 17.8583C61.4168 18.641 59.9063 20.111 58.3002 21.6765C55.6424 24.2538 52.9081 26.9074 51.0534 27.7856C49.3899 28.5683 46.8277 29.1983 44.1126 29.8474C39.3515 31.012 33.9404 32.3101 31.6077 34.7538C30.1545 36.262 29.2558 40.0801 29.0646 45.502C29.0454 45.9983 29.2367 46.4756 29.5809 46.8192C29.925 47.1629 30.3648 47.3538 30.8619 47.3538H39.3707C39.9252 47.3538 40.384 47.812 40.384 48.3656C40.384 48.9192 39.9252 49.3774 39.3707 49.3774H30.8236V49.3965Z" fill="white"/>
<path d="M39.3305 49.0149H30.8218C29.8848 49.0149 29.0245 48.6522 28.3744 47.984C27.7243 47.2967 27.3801 46.4185 27.3992 45.464C27.533 41.3403 28.164 35.9376 30.382 33.6276C33.0589 30.8594 38.6996 29.4849 43.671 28.2631C46.3096 27.614 48.7953 27.0222 50.325 26.2967C51.9311 25.5331 54.6845 22.8603 57.1319 20.4931C58.7763 18.8894 60.3251 17.3813 61.4532 16.5413C63.7669 14.7849 66.4055 13.4103 69.2927 12.4367C69.6178 12.3222 69.9811 12.494 70.0959 12.8376C70.2106 13.1622 70.0385 13.5249 69.6943 13.6394C66.9409 14.5749 64.436 15.8922 62.218 17.5531C61.1664 18.3549 59.6368 19.844 58.0115 21.4094C55.392 23.9676 52.6768 26.6022 50.8794 27.4422C49.2541 28.2058 46.692 28.8358 43.996 29.4849C39.1776 30.6494 33.7281 31.9858 31.2998 34.4867C29.7892 36.0522 28.8523 39.9658 28.6611 45.4831C28.642 46.094 28.8523 46.6667 29.273 47.0867C29.6745 47.5067 30.229 47.7358 30.8218 47.7358H39.3305C39.6747 47.7358 39.9615 48.0222 39.9615 48.3658C39.9615 48.7094 39.6747 49.0149 39.3305 49.0149Z" fill="white"/>
<path d="M48.2235 58.8846C42.8315 58.8846 38.4336 54.4555 38.4336 48.9955C38.4336 43.5355 42.8124 39.1064 48.2235 39.1064C53.6347 39.1064 58.0133 43.5355 58.0133 48.9955C58.0133 54.4555 53.6156 58.8846 48.2235 58.8846ZM48.2235 41.1492C43.9405 41.1492 40.4605 44.681 40.4605 49.0146C40.4605 53.3483 43.9405 56.8801 48.2235 56.8801C52.5066 56.8801 55.9865 53.3483 55.9865 49.0146C55.9865 44.681 52.5066 41.1492 48.2235 41.1492Z" fill="white"/>
<path d="M48.2243 58.5028C43.0426 58.5028 38.8359 54.2456 38.8359 48.9956C38.8359 43.7456 43.0426 39.4883 48.2243 39.4883C53.406 39.4883 57.6125 43.7456 57.6125 48.9956C57.6125 54.2456 53.406 58.5028 48.2243 58.5028ZM48.2243 40.7674C43.7309 40.7674 40.0788 44.471 40.0788 49.0146C40.0788 53.5583 43.7309 57.2619 48.2243 57.2619C52.7177 57.2619 56.3696 53.5583 56.3696 49.0146C56.3696 44.4519 52.7177 40.7674 48.2243 40.7674Z" fill="white"/>
<path d="M48.2254 55.1239C44.8793 55.1239 42.1641 52.3749 42.1641 49.0149C42.1641 45.6549 44.8793 42.9058 48.2254 42.9058C51.5716 42.9058 54.2867 45.6549 54.2867 49.0149C54.2867 52.3749 51.5716 55.1239 48.2254 55.1239ZM48.2254 44.9103C46.0074 44.9103 44.1909 46.743 44.1909 49.0149C44.1909 51.2867 46.0074 53.1194 48.2254 53.1194C50.4434 53.1194 52.2599 51.2867 52.2599 49.0149C52.2599 46.743 50.4626 44.9103 48.2254 44.9103Z" fill="white"/>
<path d="M48.2219 54.7417C45.0861 54.7417 42.543 52.1644 42.543 49.0144C42.543 45.8453 45.0861 43.2871 48.2219 43.2871C51.3577 43.2871 53.9007 45.8644 53.9007 49.0144C53.9007 52.1644 51.3577 54.7417 48.2219 54.7417ZM48.2219 44.528C45.7936 44.528 43.805 46.5326 43.805 49.0144C43.805 51.4771 45.7936 53.5007 48.2219 53.5007C50.6502 53.5007 52.6388 51.4962 52.6388 49.0144C52.6388 46.5326 50.6693 44.528 48.2219 44.528Z" fill="white"/>
<path d="M28.8142 40.7484C28.2597 40.7484 27.8008 40.2902 27.8008 39.7366C27.8008 39.1829 28.2597 38.7248 28.8142 38.7248H32.3325C33.1738 38.7248 33.843 38.0375 33.843 37.1784V35.8993C33.843 35.7466 33.7283 35.632 33.5944 35.632H30.4204C29.8659 35.632 29.407 35.1739 29.407 34.6202C29.407 34.0666 29.8659 33.6084 30.4204 33.6084H33.5944C34.8373 33.6084 35.8698 34.6393 35.8698 35.8993V37.1784C35.8698 39.1448 34.2828 40.7484 32.3325 40.7484H28.8142Z" fill="white"/>
<path d="M32.3329 40.3666H28.8146C28.4704 40.3666 28.1836 40.0802 28.1836 39.7366C28.1836 39.393 28.4704 39.1066 28.8146 39.1066H32.3329C33.3845 39.1066 34.245 38.2475 34.245 37.1784V35.8993C34.245 35.5366 33.9581 35.2502 33.6139 35.2502H30.4398C30.0957 35.2502 29.8089 34.9639 29.8089 34.6202C29.8089 34.2766 30.0957 33.9902 30.4398 33.9902H33.6139C34.6465 33.9902 35.5069 34.8493 35.5069 35.8993V37.1784C35.5069 38.9348 34.092 40.3666 32.3329 40.3666Z" fill="white"/>
<path d="M1.33767 58.8845C0.783173 58.8845 0.324219 58.4263 0.324219 57.8727C0.324219 57.319 0.783173 56.8608 1.33767 56.8608H69.8855C70.44 56.8608 70.899 57.319 70.899 57.8727C70.899 58.4263 70.44 58.8845 69.8855 58.8845H1.33767Z" fill="white"/>
<path d="M69.8859 58.5027H1.33805C0.993875 58.5027 0.707031 58.2163 0.707031 57.8727C0.707031 57.529 0.993875 57.2427 1.33805 57.2427H69.8859C70.2301 57.2427 70.5169 57.529 70.5169 57.8727C70.5169 58.2354 70.2301 58.5027 69.8859 58.5027Z" fill="white"/>
<path d="M9.17883 50.4654C8.24191 50.4654 7.3624 50.1026 6.7123 49.4154C6.06219 48.7281 5.69888 47.8308 5.73712 46.8954C5.96657 40.0799 7.38155 37.2354 8.52879 36.0517C10.9954 33.4935 16.0623 32.2717 20.5366 31.1835C22.8502 30.6299 25.03 30.0954 26.3493 29.4845C27.7069 28.8354 30.1352 26.4872 32.2576 24.4254C33.749 22.9935 35.1257 21.6572 36.12 20.8935C42.4107 16.1399 49.6957 15.4908 55.3555 15.4717C55.3555 15.4717 62.3919 15.4526 62.6213 15.4526C63.1758 15.4526 63.6348 15.8917 63.6348 16.4454C63.6348 16.7126 63.5392 16.9608 63.3479 17.1708C63.1567 17.3617 62.9082 17.4763 62.6405 17.4763C62.4302 17.4763 55.3746 17.4954 55.3746 17.4954C53.0419 17.5145 49.9634 17.6099 46.7512 18.3163C43.1182 19.099 40.0588 20.4735 37.3628 22.5163C36.445 23.2035 35.1066 24.5208 33.6916 25.8954C31.3398 28.1863 28.8923 30.5535 27.2288 31.3363C25.7374 32.0426 23.4621 32.5963 21.0337 33.1881C16.808 34.219 12.0661 35.3645 10.001 37.5026C8.73904 38.8008 7.93602 42.2754 7.78305 47.0099C7.76393 47.4108 7.91694 47.7926 8.18463 48.0599C8.45232 48.3463 8.81556 48.4799 9.19797 48.4799H14.0929C14.6474 48.4799 15.1063 48.9381 15.1063 49.4917C15.1063 50.0454 14.6474 50.5036 14.0929 50.5036H9.17883V50.4654Z" fill="white"/>
<path d="M14.075 50.0837H9.18005C8.35786 50.0837 7.57399 49.7592 7.00037 49.1482C6.40763 48.5373 6.10167 47.7355 6.13992 46.8955C6.36936 40.1946 7.70775 37.4455 8.81675 36.3001C11.2068 33.8183 16.2165 32.6155 20.6334 31.5273C22.9661 30.9546 25.1841 30.4201 26.5034 29.7901C27.9184 29.1219 30.3659 26.7546 32.5074 24.6546C33.9606 23.2419 35.3373 21.9055 36.3315 21.1419C42.5267 16.4455 49.7352 15.8155 55.3376 15.7964C56.3318 15.7964 58.0718 15.7964 59.6206 15.7773C61.0547 15.7773 62.3166 15.7773 62.6034 15.7773C62.9476 15.7773 63.2344 16.0446 63.2344 16.4073C63.2344 16.751 62.9667 17.0373 62.6034 17.0373C62.3166 17.0373 61.0547 17.0373 59.6206 17.0373C58.0718 17.0373 56.3318 17.0373 55.3376 17.0564C52.9857 17.0755 49.8691 17.171 46.6376 17.8773C42.9473 18.6792 39.8307 20.0728 37.0964 22.1537C36.1595 22.8601 34.8019 24.1773 33.387 25.571C31.0543 27.8428 28.645 30.1719 27.0389 30.9355C25.5857 31.6228 23.3294 32.1764 20.9202 32.7492C16.6563 33.7801 11.8379 34.9637 9.69635 37.1782C8.35789 38.5719 7.53564 42.0273 7.36355 46.9528C7.34443 47.4492 7.53568 47.9264 7.87985 48.2892C8.22403 48.6328 8.68289 48.8428 9.16091 48.8428H14.0558C14.4 48.8428 14.6868 49.1292 14.6868 49.4728C14.6868 49.8164 14.4191 50.0837 14.075 50.0837Z" fill="white"/>
<path d="M21.988 55.1425C19.1773 55.1425 16.8828 52.8325 16.8828 50.007C16.8828 47.1816 19.1773 44.8716 21.988 44.8716C24.7988 44.8716 27.0932 47.1816 27.0932 50.007C27.0932 52.8325 24.7988 55.1425 21.988 55.1425ZM21.988 46.8761C20.2863 46.8761 18.9096 48.2698 18.9096 50.007C18.9096 51.7443 20.2863 53.1379 21.988 53.1379C23.6898 53.1379 25.0664 51.7443 25.0664 50.007C25.0664 48.2698 23.6898 46.8761 21.988 46.8761Z" fill="white"/>
<path d="M21.9884 54.7607C19.388 54.7607 17.2656 52.6225 17.2656 50.0071C17.2656 47.3725 19.388 45.2534 21.9884 45.2534C24.5888 45.2534 26.7113 47.3916 26.7113 50.0071C26.7113 52.6225 24.5888 54.7607 21.9884 54.7607ZM21.9884 46.4943C20.0763 46.4943 18.5275 48.0598 18.5275 50.0071C18.5275 51.9352 20.0763 53.5198 21.9884 53.5198C23.9005 53.5198 25.4492 51.9543 25.4492 50.0071C25.4492 48.0598 23.9005 46.4943 21.9884 46.4943Z" fill="white"/>
<path d="M21.9908 58.8845C17.1341 58.8845 13.1953 54.8945 13.1953 49.9882C13.1953 45.0818 17.1341 41.0918 21.9908 41.0918C23.291 41.0918 24.5339 41.3782 25.7002 41.9127C26.1974 42.1418 26.4268 42.7527 26.1783 43.2491C26.0062 43.5927 25.662 43.8218 25.2605 43.8218C25.1075 43.8218 24.9736 43.7836 24.8398 43.7263C23.9411 43.3063 22.9851 43.0963 21.9908 43.0963C18.2431 43.0963 15.203 46.17 15.203 49.9691C15.203 53.7682 18.2431 56.8418 21.9908 56.8418C25.3178 56.8418 28.1286 54.4363 28.6831 51.1336C28.7596 50.6372 29.1803 50.2936 29.6774 50.2936C30.1172 50.3509 30.3466 50.5036 30.4996 50.7136C30.6525 50.9236 30.7098 51.1909 30.6716 51.4582C30.3274 53.5009 29.2758 55.3718 27.7079 56.7272C26.1209 58.14 24.0941 58.8845 21.9908 58.8845Z" fill="white"/>
<path d="M21.9913 58.5027C17.345 58.5027 13.5781 54.6845 13.5781 49.9882C13.5781 45.2918 17.345 41.4736 21.9913 41.4736C23.2341 41.4736 24.4196 41.7409 25.5286 42.2564C25.8345 42.4091 25.9684 42.7718 25.8346 43.0964C25.6816 43.4018 25.3183 43.5355 24.9933 43.4018C24.0564 42.9627 23.0429 42.7336 21.9913 42.7336C18.0333 42.7336 14.821 45.9791 14.821 49.9882C14.821 53.9973 18.0333 57.2427 21.9913 57.2427C25.4904 57.2427 28.4732 54.7036 29.0469 51.21C29.1042 50.8664 29.4293 50.6373 29.7735 50.6945C30.1176 50.7518 30.3471 51.0764 30.2898 51.42C29.9647 53.3864 28.9512 55.1618 27.4598 56.46C25.9301 57.7773 23.999 58.5027 21.9913 58.5027Z" fill="white"/>
<path d="M8.66116 41.4734C8.25962 41.4734 7.83892 41.4544 7.41826 41.3971C7.15057 41.3589 6.92117 41.2253 6.74908 41.0153C6.577 40.8053 6.51955 40.538 6.53867 40.2707C6.59603 39.7744 7.03584 39.3925 7.53298 39.3925C8.011 39.4498 8.33611 39.4689 8.66116 39.4689C10.4394 39.4689 11.9307 38.8198 12.6573 37.7125C13.2118 36.8534 13.3649 35.918 13.2119 34.2762C13.1545 33.7225 13.5752 33.2262 14.1297 33.188C14.1297 33.188 14.1297 33.188 14.1488 33.188C14.7607 33.188 15.1813 33.5889 15.2387 34.1044C15.4299 36.2425 15.1813 37.5598 14.3591 38.8198C13.2501 40.4616 11.1277 41.4734 8.66116 41.4734Z" fill="white"/>
<path d="M8.66276 41.092C8.28034 41.092 7.87881 41.0729 7.47728 41.0156C7.1331 40.9774 6.88448 40.6529 6.94184 40.3092C6.98008 39.9656 7.30513 39.7174 7.6493 39.7747C10.0203 40.0801 12.0662 39.3547 13.0031 37.9038C13.615 36.9683 13.7871 35.9756 13.615 34.2192C13.5767 33.8756 13.8444 33.5701 14.1886 33.532C14.5327 33.4938 14.8388 33.7611 14.877 34.1047C15.0682 36.1474 14.8387 37.4074 14.0547 38.5911C13.0031 40.1756 10.9955 41.092 8.66276 41.092Z" fill="white"/>
<path d="M34.7235 32.5964C34.5323 32.5964 34.341 32.5391 34.1689 32.4245C33.9395 32.2718 33.7865 32.0618 33.7292 31.7945C33.6718 31.5273 33.7292 31.26 33.863 31.0309C34.5514 29.9618 35.7942 28.0718 36.4443 27.3464C38.6623 24.7882 40.7273 23.2036 43.5763 21.9055C47.2092 20.2445 50.8995 19.5 55.5268 19.5H57.936C58.4905 19.5 58.9495 19.9582 58.9495 20.5118C58.9495 21.0655 58.4905 21.5236 57.936 21.5236H55.5459C51.2055 21.5236 47.7638 22.2109 44.3986 23.7382C41.8364 24.9027 39.9625 26.3345 37.9548 28.6636C37.5533 29.1218 36.6738 30.3818 35.5457 32.1191C35.3927 32.4245 35.0677 32.5964 34.7235 32.5964Z" fill="white"/>
<path d="M34.7248 32.2145C34.61 32.2145 34.4952 32.1763 34.3805 32.119C34.0937 31.9281 33.9981 31.5463 34.1893 31.2599C34.8777 30.2099 36.1014 28.339 36.7324 27.6136C38.9122 25.0936 40.9389 23.5472 43.7306 22.2681C47.4018 20.5881 51.1494 19.8627 55.8913 19.9008H57.9564C58.3006 19.9008 58.5874 20.1872 58.5874 20.5308C58.5874 20.8745 58.3006 21.1608 57.9564 21.1608H55.8913C51.3406 21.1227 47.746 21.829 44.266 23.4136C41.6465 24.6163 39.7535 26.0672 37.6885 28.4345C37.2678 28.9118 36.3882 30.1908 35.2601 31.9472C35.1262 32.119 34.9351 32.2145 34.7248 32.2145Z" fill="white"/>
<path d="M2.50401 21.4663C1.2994 21.4663 0.324219 20.4927 0.324219 19.29V2.83359C0.324219 1.63087 1.2994 0.657227 2.50401 0.657227H18.7375C19.9421 0.657227 20.9173 1.63087 20.9173 2.83359V19.29C20.9173 20.4927 19.9421 21.4663 18.7375 21.4663H2.50401ZM2.50401 2.68087C2.42753 2.68087 2.35101 2.75723 2.35101 2.83359V19.29C2.35101 19.3663 2.42753 19.4427 2.50401 19.4427H18.7375C18.814 19.4427 18.8905 19.3663 18.8905 19.29V2.83359C18.8905 2.75723 18.814 2.68087 18.7375 2.68087H2.50401Z" fill="white"/>
<path d="M18.7379 21.0845H2.50439C1.51011 21.0845 0.707031 20.2827 0.707031 19.29V2.83361C0.707031 1.84088 1.51011 1.03906 2.50439 1.03906H18.7379C19.7322 1.03906 20.5352 1.84088 20.5352 2.83361V19.29C20.5161 20.2827 19.713 21.0845 18.7379 21.0845ZM2.50439 2.29906C2.21758 2.29906 1.96907 2.54725 1.96907 2.83361V19.29C1.96907 19.5763 2.21758 19.8245 2.50439 19.8245H18.7379C19.0247 19.8245 19.2733 19.5763 19.2733 19.29V2.83361C19.2733 2.54725 19.0247 2.29906 18.7379 2.29906H2.50439Z" fill="white"/>
<path d="M10.611 36.4719C10.0565 36.4719 9.59766 36.0137 9.59766 35.4601V20.6837C9.59766 20.1301 10.0565 19.6719 10.611 19.6719C11.1655 19.6719 11.6245 20.1301 11.6245 20.6837V35.4601C11.6245 36.0137 11.1846 36.4719 10.611 36.4719Z" fill="white"/>
<path d="M10.6114 36.0901C10.2672 36.0901 9.98047 35.8037 9.98047 35.4601V20.6837C9.98047 20.3401 10.2672 20.0537 10.6114 20.0537C10.9555 20.0537 11.2424 20.3401 11.2424 20.6837V35.4601C11.2424 35.8037 10.9747 36.0901 10.6114 36.0901Z" fill="white"/>
<path d="M7.78299 16.9611C7.22849 16.9611 6.76953 16.5029 6.76953 15.9493V6.04112C6.76953 5.48748 7.22849 5.0293 7.78299 5.0293H10.8423C12.8499 5.0293 14.4944 6.67112 14.4944 8.71384C14.4944 10.7566 12.8499 12.3984 10.8423 12.3984H8.79633V15.9684C8.77721 16.522 8.33749 16.9611 7.78299 16.9611ZM10.8232 10.3747C11.7219 10.3747 12.4485 9.63021 12.4485 8.71384C12.4485 7.79748 11.7219 7.05293 10.8232 7.05293H8.7773V10.3747H10.8232Z" fill="white"/>
<path d="M7.77945 16.5793C7.43528 16.5793 7.14844 16.2929 7.14844 15.9493V6.04113C7.14844 5.6975 7.43528 5.41113 7.77945 5.41113H10.8387C12.6361 5.41113 14.1084 6.88113 14.1084 8.71386C14.1084 10.5275 12.6361 12.0166 10.8387 12.0166H8.41047V15.9684C8.39135 16.312 8.12363 16.5793 7.77945 16.5793ZM8.39133 10.7566H10.8197C11.9287 10.7566 12.8274 9.84022 12.8274 8.71386C12.8274 7.5875 11.9287 6.67113 10.8197 6.67113H8.39133V10.7566Z" fill="white"/>
</svg>
