<svg width="62" height="75" viewBox="0 0 62 75" fill="none" xmlns="http://www.w3.org/2000/svg">
<path d="M49.9328 74.8616C47.2941 74.8616 45.1336 72.7234 45.1336 70.0697V68.027H17.0642V70.0697C17.0642 72.7043 14.9228 74.8616 12.265 74.8616C9.62632 74.8616 7.46566 72.7234 7.46566 70.0697V67.7979L7.23622 67.7215C5.32414 67.0534 4.04297 65.2397 4.04297 63.2352V56.4006C4.04297 53.7661 6.20363 51.6088 8.8423 51.6088H9.53061L14.3682 35.4961C14.5403 34.9043 15.0757 34.5225 15.6876 34.5225H46.4911C47.0838 34.5225 47.6383 34.9234 47.8104 35.4961L52.648 51.6088H53.3363C55.975 51.6088 58.1356 53.7661 58.1356 56.4006V63.2352C58.1356 65.2588 56.8545 67.0534 54.9424 67.7215L54.713 67.7979V70.0697C54.713 72.7234 52.5714 74.8616 49.9328 74.8616ZM47.8678 70.0697C47.8678 71.1961 48.7856 72.1125 49.9137 72.1125C51.0419 72.1125 51.9596 71.1961 51.9596 70.0697V68.027H47.8487V70.0697H47.8678ZM10.2191 70.0697C10.2191 71.1961 11.1369 72.1125 12.265 72.1125C13.3931 72.1125 14.3108 71.1961 14.3108 70.0697V68.027H10.1999V70.0697H10.2191ZM8.8423 54.3579C7.71417 54.3579 6.79636 55.2743 6.79636 56.4006V63.2352C6.79636 64.3616 7.71417 65.2779 8.8423 65.2779H53.3555C54.4836 65.2779 55.4014 64.3616 55.4014 63.2352V56.4006C55.4014 55.2743 54.4836 54.3579 53.3555 54.3579H8.8423ZM12.3987 51.6088H49.799L45.4777 37.2525H16.7009L12.3987 51.6088Z" fill="white"/>
<path d="M12.2674 61.1925C11.5025 61.1925 10.8906 60.5815 10.8906 59.8179C10.8906 59.0543 11.5025 58.4434 12.2674 58.4434H15.69C16.4548 58.4434 17.0666 59.0543 17.0666 59.8179C17.0666 60.5815 16.4548 61.1925 15.69 61.1925H12.2674Z" fill="white"/>
<path d="M46.5095 61.1925C45.7446 61.1925 45.1328 60.5815 45.1328 59.8179C45.1328 59.0543 45.7446 58.4434 46.5095 58.4434H49.932C50.6969 58.4434 51.3088 59.0543 51.3088 59.8179C51.3088 60.5815 50.6969 61.1925 49.932 61.1925H46.5095Z" fill="white"/>
<path d="M27.677 9.91425C26.9122 9.91425 26.3002 9.30334 26.3002 8.5397C26.3002 7.77607 26.9122 7.16516 27.677 7.16516H29.7229V3.06062H1.99785C1.23302 3.06062 0.621094 2.44971 0.621094 1.68607C0.621094 0.922433 1.23302 0.311523 1.99785 0.311523H60.2013C60.9661 0.311523 61.5781 0.922433 61.5781 1.68607C61.5781 2.44971 60.9661 3.06062 60.2013 3.06062H32.4762V7.16516H34.5221C35.287 7.16516 35.8989 7.77607 35.8989 8.5397C35.8989 9.30334 35.287 9.91425 34.5221 9.91425H27.677Z" fill="white"/>
<path d="M31.0993 18.4673C30.736 18.4673 30.3918 18.3336 30.1241 18.0664C29.8755 17.8182 29.7227 17.4555 29.7227 17.0927V15.3745C29.7227 14.6109 30.3345 14 31.0993 14C31.8641 14 32.4759 14.6109 32.4759 15.3745V17.0927C32.4759 17.4555 32.323 17.7991 32.0745 18.0664C31.8068 18.3145 31.4626 18.4673 31.0993 18.4673Z" fill="white"/>
<path d="M31.0993 27.0005C30.3345 27.0005 29.7227 26.3896 29.7227 25.6259V23.9078C29.7227 23.1441 30.3345 22.5332 31.0993 22.5332C31.8641 22.5332 32.4759 23.1441 32.4759 23.9078V25.6259C32.4759 26.3896 31.8641 27.0005 31.0993 27.0005Z" fill="white"/>
<path d="M38.6733 18.2955C38.1379 18.2955 37.6598 17.99 37.4304 17.5127L36.7038 15.9664C36.4935 15.5273 36.5317 14.9927 36.8185 14.5918C37.0671 14.2291 37.4878 14 37.9467 14C38.5586 14.0573 38.9791 14.3436 39.1895 14.8018L39.9161 16.3482C40.222 17.0355 39.9352 17.8373 39.2469 18.1618C39.0557 18.2573 38.8645 18.2955 38.6733 18.2955Z" fill="white"/>
<path d="M42.2864 26.0459C41.7511 26.0459 41.2731 25.7405 41.0437 25.2632L40.3171 23.7169C40.1067 23.2778 40.145 22.7432 40.4318 22.3423C40.6804 21.9796 41.101 21.7505 41.5599 21.7505C42.1717 21.8078 42.6115 22.0941 42.8027 22.5523L43.5293 24.0987C43.8353 24.7859 43.5485 25.5878 42.8602 25.9123C42.6881 25.9887 42.4777 26.0459 42.2864 26.0459Z" fill="white"/>
<path d="M23.5269 18.2955C23.3357 18.2955 23.1254 18.2573 22.9533 18.1618C22.6282 18.0091 22.3605 17.7418 22.2458 17.3982C22.1311 17.0545 22.1311 16.6727 22.2841 16.3482L23.0107 14.8018C23.221 14.3436 23.6416 14.0573 24.1388 14H24.1579C24.7124 14 25.1331 14.21 25.3817 14.5727C25.6685 14.9736 25.7067 15.5082 25.4964 15.9473L24.7698 17.4936C24.6168 17.8182 24.3491 18.0855 24.0049 18.2C23.8519 18.2764 23.699 18.2955 23.5269 18.2955Z" fill="white"/>
<path d="M19.9154 26.046C19.4757 26.046 19.055 25.836 18.7873 25.4542C18.5005 25.0533 18.4622 24.5187 18.6725 24.0796L19.3991 22.5333C19.6095 22.0942 20.0301 21.7887 20.5272 21.7314H20.5463C21.1008 21.7314 21.5215 21.9414 21.7701 22.3042C22.0569 22.7051 22.0951 23.2396 21.8848 23.6787L21.1582 25.2251C20.9479 25.6642 20.5273 25.9696 20.0302 26.0269L19.9154 26.046Z" fill="white"/>
</svg>
