<svg width="120" height="40" viewBox="0 0 120 40" fill="none" xmlns="http://www.w3.org/2000/svg">
<g clip-path="url(#clip0_4801_13970)">
<path d="M110.135 0.00013H9.53468C9.16798 0.00013 8.80568 0.00013 8.43995 0.00213C8.1338 0.00413 7.83009 0.00994 7.521 0.01483C6.84951 0.0227318 6.17961 0.0818063 5.5171 0.19154C4.85552 0.303663 4.21467 0.515046 3.61622 0.81854C3.0185 1.1246 2.47235 1.5223 1.99757 1.9972C1.5203 2.47077 1.12246 3.01815 0.81935 3.61829C0.5154 4.21724 0.304641 4.85907 0.19435 5.52161C0.0830109 6.18332 0.0230984 6.85265 0.01515 7.52361C0.00587 7.83021 0.00489 8.13783 0 8.44447V31.5587C0.00489 31.8692 0.00587 32.17 0.01515 32.4806C0.0231008 33.1516 0.0830134 33.8209 0.19435 34.4825C0.304336 35.1455 0.515108 35.7877 0.81935 36.3868C1.12233 36.985 1.52022 37.5302 1.99757 38.0011C2.47054 38.4781 3.01705 38.8761 3.61622 39.1798C4.21467 39.4841 4.85545 39.6968 5.5171 39.8106C6.17972 39.9195 6.84956 39.9786 7.521 39.9874C7.83009 39.9942 8.1338 39.9981 8.43995 39.9981C8.80567 40.0001 9.168 40.0001 9.53468 40.0001H110.135C110.494 40.0001 110.859 40.0001 111.219 39.9981C111.523 39.9981 111.836 39.9942 112.141 39.9874C112.811 39.9791 113.479 39.92 114.141 39.8106C114.804 39.696 115.448 39.4834 116.049 39.1798C116.647 38.8759 117.193 38.478 117.666 38.0011C118.142 37.5284 118.541 36.9836 118.848 36.3868C119.15 35.7872 119.358 35.1451 119.467 34.4825C119.578 33.8208 119.64 33.1516 119.652 32.4806C119.656 32.17 119.656 31.8692 119.656 31.5587C119.664 31.1954 119.664 30.8341 119.664 30.4649V9.53626C119.664 9.17005 119.664 8.80677 119.656 8.44447C119.656 8.13783 119.656 7.83021 119.652 7.52357C119.64 6.85255 119.578 6.18337 119.467 5.52157C119.358 4.85941 119.149 4.21763 118.848 3.61825C118.23 2.41533 117.252 1.43616 116.049 0.81845C115.448 0.515697 114.804 0.30437 114.141 0.19145C113.48 0.0812328 112.811 0.0221378 112.141 0.01469C111.836 0.00981 111.523 0.00395 111.219 0.002C110.859 0 110.494 0 110.135 0V0.00013Z" fill="black"/>
<path d="M8.44291 39.125C8.13823 39.125 7.84091 39.1211 7.53862 39.1143C6.91241 39.1061 6.28765 39.0516 5.66948 38.9512C5.09307 38.8519 4.53469 38.6673 4.01274 38.4033C3.49559 38.1415 3.0239 37.7983 2.61574 37.3867C2.20168 36.98 1.85696 36.5082 1.59523 35.9902C1.33062 35.4688 1.1475 34.9099 1.05223 34.333C0.949358 33.7131 0.893698 33.0863 0.885734 32.458C0.879394 32.2471 0.871094 31.5449 0.871094 31.5449V8.44434C0.871094 8.44434 0.879934 7.75293 0.885784 7.5498C0.89341 6.92248 0.948746 6.29665 1.05131 5.67773C1.14675 5.09925 1.33002 4.53875 1.59477 4.01563C1.85554 3.49794 2.19835 3.02586 2.60991 2.61768C3.02102 2.20562 3.49422 1.8606 4.01225 1.59521C4.533 1.33209 5.09033 1.14873 5.66557 1.05127C6.28577 0.949836 6.91269 0.894996 7.54108 0.88721L8.4434 0.875H111.212L112.125 0.8877C112.748 0.895099 113.369 0.94945 113.983 1.05029C114.565 1.14898 115.128 1.33362 115.654 1.59814C116.692 2.13299 117.537 2.97916 118.069 4.01807C118.33 4.53758 118.51 5.09351 118.605 5.66699C118.708 6.29099 118.766 6.92174 118.778 7.5542C118.781 7.8374 118.781 8.1416 118.781 8.44434C118.789 8.81934 118.789 9.17627 118.789 9.53613V30.4648C118.789 30.8281 118.789 31.1826 118.781 31.54C118.781 31.8652 118.781 32.1631 118.777 32.4697C118.766 33.0909 118.709 33.7104 118.606 34.3232C118.513 34.9043 118.331 35.4675 118.066 35.9932C117.803 36.5056 117.46 36.9733 117.051 37.3789C116.642 37.7927 116.17 38.1379 115.651 38.4014C115.126 38.6674 114.564 38.8527 113.983 38.9512C113.365 39.0522 112.741 39.1067 112.114 39.1143C111.821 39.1211 111.515 39.125 111.217 39.125L110.133 39.127L8.44291 39.125Z" fill="black"/>
<path d="M24.77 20.3008C24.7807 19.4662 25.0024 18.6478 25.4145 17.9218C25.8265 17.1959 26.4154 16.5859 27.1265 16.1488C26.6748 15.5036 26.0788 14.9727 25.386 14.5981C24.6932 14.2236 23.9226 14.0157 23.1354 13.9911C21.4561 13.8148 19.8282 14.9959 18.9725 14.9959C18.1002 14.9959 16.7827 14.0086 15.364 14.0378C14.4463 14.0674 13.5519 14.3343 12.7681 14.8123C11.9842 15.2904 11.3375 15.9633 10.891 16.7656C8.95705 20.1141 10.3996 25.0351 12.2522 27.7417C13.1791 29.0671 14.2624 30.5475 15.6799 30.495C17.0669 30.4375 17.585 29.6105 19.2593 29.6105C20.918 29.6105 21.4041 30.495 22.8503 30.4616C24.3387 30.4375 25.2764 29.1304 26.1708 27.7925C26.8368 26.8481 27.3492 25.8044 27.6892 24.7C26.8245 24.3343 26.0866 23.7221 25.5675 22.9398C25.0483 22.1575 24.771 21.2397 24.77 20.3008Z" fill="white"/>
<path d="M22.0395 12.2108C22.8511 11.2366 23.2509 9.98445 23.154 8.72021C21.9142 8.85044 20.769 9.44299 19.9465 10.3798C19.5443 10.8375 19.2363 11.3699 19.0401 11.9467C18.8438 12.5235 18.7632 13.1333 18.8028 13.7412C19.4229 13.7476 20.0364 13.6132 20.5971 13.3481C21.1577 13.083 21.6509 12.6942 22.0395 12.2108Z" fill="white"/>
<path d="M42.3047 27.1397H37.5713L36.4346 30.4961H34.4297L38.9131 18.0781H40.9961L45.4795 30.4961H43.4404L42.3047 27.1397ZM38.0615 25.5908H41.8135L39.9639 20.1436H39.9121L38.0615 25.5908Z" fill="white"/>
<path d="M55.1612 25.9699C55.1612 28.7834 53.6553 30.591 51.3828 30.591C50.8072 30.6211 50.2347 30.4885 49.7309 30.2084C49.2271 29.9283 48.8124 29.5119 48.5342 29.007H48.4912V33.4914H46.6328V21.4426H48.4317V22.9485H48.4659C48.7568 22.446 49.1785 22.0318 49.6862 21.7499C50.1938 21.4681 50.7683 21.3291 51.3487 21.3479C53.6465 21.3479 55.1612 23.1643 55.1612 25.9699ZM53.251 25.9699C53.251 24.1369 52.3037 22.9319 50.8584 22.9319C49.4385 22.9319 48.4834 24.1623 48.4834 25.9699C48.4834 27.7942 49.4385 29.0158 50.8584 29.0158C52.3037 29.0158 53.251 27.8196 53.251 25.9699Z" fill="white"/>
<path d="M65.126 25.9699C65.126 28.7834 63.6201 30.591 61.3477 30.591C60.772 30.6211 60.1995 30.4885 59.6957 30.2084C59.1919 29.9283 58.7772 29.5119 58.4991 29.007H58.4561V33.4914H56.5977V21.4426H58.3965V22.9484H58.4307C58.7216 22.446 59.1433 22.0318 59.651 21.7499C60.1586 21.4681 60.7332 21.3291 61.3135 21.3479C63.6114 21.3479 65.126 23.1643 65.126 25.9699ZM63.2158 25.9699C63.2158 24.1369 62.2686 22.9318 60.8233 22.9318C59.4033 22.9318 58.4483 24.1623 58.4483 25.9699C58.4483 27.7942 59.4033 29.0158 60.8233 29.0158C62.2686 29.0158 63.2159 27.8195 63.2159 25.9699H63.2158Z" fill="white"/>
<path d="M71.711 27.0362C71.8487 28.2676 73.045 29.0762 74.6797 29.0762C76.2461 29.0762 77.3731 28.2676 77.3731 27.1572C77.3731 26.1934 76.6934 25.6162 75.084 25.2207L73.4746 24.833C71.1944 24.2822 70.1358 23.2158 70.1358 21.4854C70.1358 19.3428 72.003 17.8711 74.6543 17.8711C77.2783 17.8711 79.0772 19.3428 79.1377 21.4854H77.2617C77.1494 20.2461 76.125 19.4981 74.6279 19.4981C73.1309 19.4981 72.1065 20.2549 72.1065 21.3565C72.1065 22.2344 72.7608 22.751 74.3613 23.1465L75.7295 23.4824C78.2773 24.0849 79.3359 25.1084 79.3359 26.9248C79.3359 29.248 77.4854 30.7031 74.542 30.7031C71.7881 30.7031 69.9287 29.2822 69.8086 27.0361L71.711 27.0362Z" fill="white"/>
<path d="M83.3476 19.2998V21.4424H85.0693V22.9141H83.3476V27.9053C83.3476 28.6807 83.6924 29.042 84.4492 29.042C84.6536 29.0384 84.8577 29.0241 85.0605 28.999V30.4619C84.7203 30.5255 84.3744 30.5543 84.0283 30.5478C82.1953 30.5478 81.4805 29.8593 81.4805 28.1035V22.9141H80.1641V21.4424H81.4804V19.2998H83.3476Z" fill="white"/>
<path d="M86.0664 25.9697C86.0664 23.1211 87.7441 21.3311 90.3604 21.3311C92.9854 21.3311 94.6553 23.1211 94.6553 25.9697C94.6553 28.8262 92.9941 30.6084 90.3604 30.6084C87.7275 30.6084 86.0664 28.8262 86.0664 25.9697ZM92.7617 25.9697C92.7617 24.0156 91.8662 22.8623 90.3603 22.8623C88.8545 22.8623 87.96 24.0244 87.96 25.9697C87.96 27.9316 88.8545 29.0762 90.3603 29.0762C91.8662 29.0762 92.7617 27.9316 92.7617 25.9697H92.7617Z" fill="white"/>
<path d="M96.1875 21.4425H97.96V22.9835H98.003C98.1229 22.5022 98.4048 22.0769 98.8014 21.779C99.198 21.4811 99.6851 21.3288 100.181 21.3478C100.395 21.347 100.608 21.3703 100.817 21.4171V23.1554C100.547 23.0728 100.265 23.0348 99.9824 23.0431C99.7124 23.0321 99.4433 23.0797 99.1935 23.1826C98.9436 23.2855 98.719 23.4412 98.535 23.6391C98.351 23.837 98.2121 24.0724 98.1276 24.3291C98.0432 24.5857 98.0153 24.8576 98.0459 25.1261V30.4962H96.1875L96.1875 21.4425Z" fill="white"/>
<path d="M109.386 27.8369C109.136 29.4805 107.535 30.6084 105.487 30.6084C102.854 30.6084 101.219 28.8437 101.219 26.0127C101.219 23.1729 102.862 21.3311 105.409 21.3311C107.914 21.3311 109.489 23.0518 109.489 25.7969V26.4336H103.095V26.5459C103.065 26.8791 103.107 27.2148 103.217 27.5306C103.327 27.8464 103.503 28.1352 103.734 28.3778C103.964 28.6203 104.243 28.8111 104.553 28.9374C104.863 29.0637 105.196 29.1226 105.53 29.1103C105.969 29.1515 106.41 29.0498 106.787 28.8203C107.164 28.5909 107.456 28.246 107.621 27.8369L109.386 27.8369ZM103.104 25.1348H107.63C107.647 24.8352 107.601 24.5354 107.496 24.2541C107.392 23.9729 107.23 23.7164 107.022 23.5006C106.813 23.2849 106.562 23.1145 106.285 23.0003C106.007 22.8861 105.709 22.8305 105.409 22.8369C105.107 22.8351 104.807 22.8933 104.527 23.008C104.246 23.1227 103.992 23.2918 103.778 23.5054C103.563 23.7191 103.393 23.973 103.278 24.2527C103.162 24.5323 103.103 24.8321 103.104 25.1348V25.1348Z" fill="white"/>
<path d="M37.8271 8.73089C38.2168 8.70293 38.6077 8.76179 38.9718 8.90323C39.3359 9.04466 39.6641 9.26514 39.9327 9.54876C40.2013 9.83239 40.4036 10.1721 40.525 10.5434C40.6464 10.9146 40.6839 11.3082 40.6348 11.6957C40.6348 13.602 39.6045 14.6977 37.8271 14.6977H35.6719V8.73089H37.8271ZM36.5986 13.8539H37.7236C38.002 13.8705 38.2806 13.8249 38.5392 13.7203C38.7977 13.6157 39.0297 13.4547 39.2182 13.2491C39.4067 13.0436 39.5469 12.7986 39.6288 12.532C39.7107 12.2653 39.7321 11.9838 39.6914 11.7079C39.7291 11.4331 39.7056 11.1533 39.6224 10.8886C39.5393 10.624 39.3987 10.381 39.2106 10.177C39.0226 9.9731 38.7917 9.81329 38.5346 9.70905C38.2776 9.60481 38.0006 9.55873 37.7236 9.5741H36.5986V13.8539Z" fill="white"/>
<path d="M41.6819 12.4443C41.6536 12.1484 41.6875 11.8498 41.7813 11.5677C41.8751 11.2857 42.0269 11.0263 42.2268 10.8063C42.4268 10.5864 42.6705 10.4106 42.9423 10.2903C43.2142 10.17 43.5082 10.1079 43.8055 10.1079C44.1027 10.1079 44.3967 10.17 44.6686 10.2903C44.9404 10.4106 45.1841 10.5864 45.3841 10.8063C45.584 11.0263 45.7358 11.2857 45.8296 11.5677C45.9235 11.8498 45.9573 12.1484 45.929 12.4443C45.9578 12.7405 45.9244 13.0395 45.8308 13.322C45.7372 13.6045 45.5855 13.8644 45.3855 14.0848C45.1856 14.3052 44.9417 14.4813 44.6695 14.6019C44.3974 14.7224 44.1031 14.7847 43.8055 14.7847C43.5078 14.7847 43.2135 14.7224 42.9414 14.6019C42.6693 14.4813 42.4254 14.3052 42.2254 14.0848C42.0254 13.8644 41.8737 13.6045 41.7801 13.322C41.6865 13.0395 41.6531 12.7405 41.6819 12.4443ZM45.0149 12.4443C45.0149 11.4682 44.5764 10.8974 43.8069 10.8974C43.0345 10.8974 42.5999 11.4682 42.5999 12.4443C42.5999 13.4282 43.0345 13.9946 43.8069 13.9946C44.5765 13.9946 45.0149 13.4243 45.0149 12.4443H45.0149Z" fill="white"/>
<path d="M51.5742 14.6978H50.6523L49.7217 11.3813H49.6514L48.7246 14.6978H47.8115L46.5703 10.1948H47.4717L48.2783 13.6308H48.3447L49.2705 10.1948H50.1231L51.0488 13.6308H51.1191L51.9219 10.1948H52.8105L51.5742 14.6978Z" fill="white"/>
<path d="M53.8555 10.1949H54.7109V10.9102H54.7773C54.89 10.6533 55.08 10.4379 55.3209 10.2941C55.5617 10.1503 55.8415 10.0852 56.1211 10.1079C56.3402 10.0915 56.5602 10.1245 56.7648 10.2046C56.9694 10.2847 57.1533 10.4098 57.303 10.5707C57.4527 10.7315 57.5643 10.924 57.6295 11.1338C57.6947 11.3436 57.7118 11.5654 57.6797 11.7827V14.6977H56.791V12.0059C56.791 11.2823 56.4766 10.9224 55.8193 10.9224C55.6706 10.9155 55.5221 10.9408 55.384 10.9966C55.246 11.0525 55.1216 11.1375 55.0195 11.2459C54.9174 11.3543 54.8399 11.4834 54.7924 11.6246C54.7448 11.7657 54.7284 11.9154 54.7441 12.0635V14.6978H53.8555L53.8555 10.1949Z" fill="white"/>
<path d="M59.0938 8.43701H59.9824V14.6978H59.0938V8.43701Z" fill="white"/>
<path d="M61.2171 12.4444C61.1888 12.1484 61.2226 11.8499 61.3165 11.5678C61.4104 11.2857 61.5621 11.0263 61.7621 10.8064C61.9621 10.5864 62.2058 10.4106 62.4777 10.2903C62.7495 10.17 63.0435 10.1079 63.3408 10.1079C63.6381 10.1079 63.9321 10.17 64.204 10.2903C64.4759 10.4106 64.7196 10.5864 64.9196 10.8064C65.1195 11.0263 65.2713 11.2857 65.3652 11.5678C65.459 11.8499 65.4929 12.1484 65.4646 12.4444C65.4934 12.7406 65.4599 13.0396 65.3663 13.3221C65.2727 13.6046 65.121 13.8645 64.921 14.0849C64.721 14.3053 64.4771 14.4814 64.2049 14.6019C63.9328 14.7225 63.6385 14.7847 63.3408 14.7847C63.0432 14.7847 62.7489 14.7225 62.4767 14.6019C62.2046 14.4814 61.9607 14.3053 61.7607 14.0849C61.5607 13.8645 61.409 13.6046 61.3153 13.3221C61.2217 13.0396 61.1882 12.7406 61.2171 12.4444ZM64.5501 12.4444C64.5501 11.4683 64.1116 10.8975 63.3421 10.8975C62.5696 10.8975 62.1351 11.4683 62.1351 12.4444C62.1351 13.4283 62.5696 13.9947 63.3421 13.9947C64.1116 13.9947 64.5501 13.4244 64.5501 12.4444H64.5501Z" fill="white"/>
<path d="M66.4023 13.4243C66.4023 12.6138 67.0059 12.1465 68.0771 12.0801L69.2969 12.0098V11.6211C69.2969 11.1455 68.9824 10.877 68.375 10.877C67.8789 10.877 67.5352 11.0591 67.4365 11.3774H66.5762C66.667 10.604 67.3945 10.1079 68.416 10.1079C69.5449 10.1079 70.1816 10.6699 70.1816 11.6211V14.6978H69.3262V14.0649H69.2559C69.1131 14.2919 68.9127 14.477 68.6751 14.6012C68.4375 14.7254 68.1712 14.7843 67.9033 14.7719C67.7143 14.7916 67.5232 14.7714 67.3425 14.7127C67.1617 14.654 66.9953 14.5581 66.8538 14.4311C66.7124 14.3042 66.5992 14.149 66.5214 13.9756C66.4437 13.8021 66.4031 13.6144 66.4023 13.4243ZM69.2969 13.0395V12.6631L68.1973 12.7334C67.5771 12.7749 67.2959 12.9858 67.2959 13.3828C67.2959 13.7881 67.6474 14.0239 68.1309 14.0239C68.2725 14.0382 68.4156 14.0239 68.5516 13.9819C68.6876 13.9398 68.8138 13.8707 68.9226 13.7789C69.0313 13.6871 69.1205 13.5743 69.1849 13.4473C69.2492 13.3202 69.2873 13.1816 69.2969 13.0395Z" fill="white"/>
<path d="M71.3477 12.4444C71.3477 11.0215 72.0791 10.1201 73.2168 10.1201C73.4982 10.1072 73.7775 10.1746 74.022 10.3145C74.2666 10.4544 74.4662 10.661 74.5977 10.9101H74.6641V8.43701H75.5527V14.6978H74.7012V13.9863H74.6309C74.4893 14.2338 74.2826 14.4378 74.0334 14.5763C73.7841 14.7148 73.5017 14.7825 73.2168 14.772C72.0713 14.772 71.3477 13.8706 71.3477 12.4444ZM72.2657 12.4444C72.2657 13.3994 72.7159 13.9741 73.4688 13.9741C74.2178 13.9741 74.6807 13.3911 74.6807 12.4483C74.6807 11.5098 74.2129 10.9185 73.4688 10.9185C72.7207 10.9185 72.2656 11.4971 72.2656 12.4444H72.2657Z" fill="white"/>
<path d="M79.2327 12.4443C79.2044 12.1484 79.2382 11.8498 79.3321 11.5677C79.4259 11.2857 79.5777 11.0263 79.7776 10.8063C79.9776 10.5864 80.2213 10.4106 80.4931 10.2903C80.765 10.17 81.059 10.1079 81.3562 10.1079C81.6535 10.1079 81.9475 10.17 82.2193 10.2903C82.4912 10.4106 82.7349 10.5864 82.9348 10.8063C83.1348 11.0263 83.2865 11.2857 83.3804 11.5677C83.4742 11.8498 83.5081 12.1484 83.4798 12.4443C83.5086 12.7405 83.4752 13.0395 83.3816 13.322C83.288 13.6045 83.1363 13.8644 82.9363 14.0848C82.7363 14.3052 82.4924 14.4813 82.2203 14.6019C81.9482 14.7224 81.6539 14.7847 81.3562 14.7847C81.0586 14.7847 80.7643 14.7224 80.4922 14.6019C80.22 14.4813 79.9761 14.3052 79.7761 14.0848C79.5762 13.8644 79.4245 13.6045 79.3309 13.322C79.2373 13.0395 79.2039 12.7405 79.2327 12.4443ZM82.5657 12.4443C82.5657 11.4682 82.1272 10.8974 81.3577 10.8974C80.5852 10.8974 80.1507 11.4682 80.1507 12.4443C80.1507 13.4282 80.5853 13.9946 81.3577 13.9946C82.1272 13.9946 82.5657 13.4243 82.5657 12.4443Z" fill="white"/>
<path d="M84.6719 10.1949H85.5273V10.9102H85.5938C85.7064 10.6533 85.8964 10.4379 86.1373 10.2941C86.3782 10.1503 86.6579 10.0852 86.9375 10.1079C87.1566 10.0915 87.3766 10.1245 87.5812 10.2046C87.7858 10.2847 87.9698 10.4098 88.1194 10.5707C88.2691 10.7315 88.3807 10.924 88.4459 11.1338C88.5111 11.3436 88.5283 11.5654 88.4961 11.7827V14.6977H87.6074V12.0059C87.6074 11.2823 87.293 10.9224 86.6357 10.9224C86.487 10.9155 86.3385 10.9408 86.2004 10.9966C86.0624 11.0525 85.938 11.1375 85.8359 11.2459C85.7338 11.3543 85.6563 11.4834 85.6088 11.6246C85.5612 11.7657 85.5448 11.9154 85.5605 12.0635V14.6978H84.6719V10.1949Z" fill="white"/>
<path d="M93.5146 9.07373V10.2153H94.4902V10.9639H93.5146V13.2793C93.5146 13.751 93.709 13.9575 94.1514 13.9575C94.2646 13.9572 94.3778 13.9503 94.4902 13.937V14.6772C94.3307 14.7058 94.169 14.721 94.0068 14.7226C93.0186 14.7226 92.625 14.375 92.625 13.5068V10.9638H91.9102V10.2153H92.625V9.07373H93.5146Z" fill="white"/>
<path d="M95.707 8.43701H96.5879V10.9185H96.6582C96.7763 10.6591 96.9716 10.4425 97.2172 10.2982C97.4629 10.1539 97.7472 10.0888 98.0312 10.1118C98.2492 10.1 98.467 10.1364 98.6693 10.2184C98.8716 10.3004 99.0533 10.4261 99.2014 10.5864C99.3495 10.7468 99.4604 10.9378 99.5262 11.146C99.592 11.3541 99.611 11.5742 99.582 11.7905V14.6978H98.6924V12.0098C98.6924 11.2905 98.3574 10.9263 97.7295 10.9263C97.5768 10.9137 97.4232 10.9347 97.2794 10.9878C97.1356 11.0408 97.0052 11.1247 96.8972 11.2334C96.7892 11.3421 96.7062 11.4732 96.6542 11.6173C96.6021 11.7614 96.5822 11.9152 96.5957 12.0679V14.6977H95.7071L95.707 8.43701Z" fill="white"/>
<path d="M104.761 13.482C104.641 13.8935 104.379 14.2495 104.022 14.4877C103.666 14.7258 103.237 14.831 102.81 14.7847C102.514 14.7926 102.219 14.7357 101.946 14.6182C101.674 14.5007 101.43 14.3253 101.232 14.1041C101.034 13.883 100.887 13.6214 100.8 13.3376C100.713 13.0538 100.69 12.7545 100.73 12.4605C100.691 12.1656 100.715 11.8657 100.801 11.581C100.888 11.2964 101.035 11.0336 101.231 10.8105C101.428 10.5874 101.671 10.4093 101.943 10.2881C102.214 10.1669 102.509 10.1054 102.806 10.108C104.059 10.108 104.815 10.964 104.815 12.378V12.6881H101.635V12.7379C101.621 12.9031 101.642 13.0695 101.696 13.2262C101.751 13.383 101.837 13.5267 101.95 13.6481C102.063 13.7696 102.2 13.8661 102.352 13.9315C102.504 13.9969 102.669 14.0297 102.835 14.0279C103.047 14.0534 103.263 14.0151 103.453 13.9179C103.644 13.8207 103.802 13.669 103.906 13.482L104.761 13.482ZM101.635 12.0308H103.91C103.921 11.8797 103.9 11.7279 103.85 11.5852C103.799 11.4425 103.718 11.312 103.614 11.2021C103.51 11.0923 103.383 11.0055 103.243 10.9473C103.103 10.8891 102.953 10.8609 102.801 10.8643C102.648 10.8624 102.495 10.8913 102.353 10.9492C102.21 11.0072 102.081 11.093 101.972 11.2017C101.864 11.3104 101.778 11.4398 101.72 11.5822C101.662 11.7246 101.633 11.8771 101.635 12.0308H101.635Z" fill="white"/>
</g>
<defs>
<clipPath id="clip0_4801_13970">
<rect width="119.664" height="40" fill="white"/>
</clipPath>
</defs>
</svg>
