<svg xmlns="http://www.w3.org/2000/svg" width="40" height="45" viewBox="0 0 40 45" fill="none">
<path d="M30.135 44.25H10.164C8.32833 44.25 6.85156 42.7617 6.85156 40.929V5.22461H33.4612V40.9427C33.4474 42.7617 31.9568 44.25 30.135 44.25ZM8.48016 6.86445V40.9427C8.48016 41.866 9.22545 42.6101 10.1502 42.6101H30.1212C31.0459 42.6101 31.7912 41.866 31.7912 40.9427V6.86445H8.48016Z" fill="#87cbbb"/>
<path d="M36.1961 11.8529H33.5186C33.0631 11.8529 32.6905 11.4808 32.6905 11.0261C32.6905 10.5713 33.0631 10.1993 33.5186 10.1993H36.1961C37.2174 10.1993 38.0455 9.45513 38.0455 8.53186V3.54345C38.0455 2.62018 37.2174 1.87605 36.1961 1.87605H4.0934C3.07207 1.87605 2.24397 2.62018 2.24397 3.54345V8.53186C2.24397 9.45513 3.07207 10.1993 4.0934 10.1993H6.77092C7.22637 10.1993 7.59903 10.5713 7.59903 11.0261C7.59903 11.4808 7.22637 11.8529 6.77092 11.8529H4.0934C2.16116 11.8529 0.601562 10.3646 0.601562 8.54564V3.55723C0.601562 1.72447 2.17496 0.25 4.0934 0.25H36.1961C38.1283 0.25 39.6879 1.73826 39.6879 3.55723V8.54564C39.6879 10.3646 38.1283 11.8529 36.1961 11.8529Z" fill="#87cbbb"/>
<path d="M22.2539 32.5506V15.3117C22.2539 14.788 22.6818 14.3608 23.2062 14.3608H23.22C23.7445 14.3608 24.1723 14.788 24.1723 15.3117V32.5506C24.1723 33.0743 23.7445 33.5015 23.22 33.5015H23.2062C22.6818 33.5152 22.2539 33.0881 22.2539 32.5506Z" fill="#87cbbb"/>
<path d="M16.748 32.5506V15.3117C16.748 14.788 17.1759 14.3608 17.7004 14.3608H17.7142C18.2386 14.3608 18.6665 14.788 18.6665 15.3117V32.5506C18.6665 33.0743 18.2386 33.5015 17.7142 33.5015H17.7004C17.1759 33.5152 16.748 33.0881 16.748 32.5506Z" fill="#87cbbb"/>
</svg>