<svg width="190" height="141" viewBox="0 0 190 141" fill="none" xmlns="http://www.w3.org/2000/svg">
<g opacity="0.4">
<path d="M189.304 106.098C189.304 107.02 189.146 107.976 189.329 108.862C190.082 112.489 187.989 114.6 185.422 116.483C184.624 117.067 184.189 117.975 183.502 118.62C180.42 121.523 177.513 124.594 174.513 127.576C171.747 130.326 168.936 133.026 166.197 135.804C165.563 136.449 165.35 135.92 165.015 135.601C162.946 133.644 160.975 131.572 158.912 129.631C155.796 126.701 152.933 123.528 149.831 120.584C147.644 118.507 145.315 116.505 143.39 114.19C140.997 111.312 137.865 109.205 135.592 106.212C134.492 104.763 132.74 103.88 131.585 102.432C129.286 99.546 126.132 97.4967 123.917 94.5337C123.604 94.1127 123.147 93.8053 123.8 93.3152C125.573 91.9832 126.888 90.1832 128.522 88.6989C130.931 86.5112 133.152 84.1185 135.456 81.8145C137.37 79.8982 139.3 78.0013 141.183 76.0573C141.845 75.3733 142.299 75.2265 143.06 76.0047C148.084 81.1361 153.118 86.2536 158.225 91.3019C160.584 93.6336 163.024 95.8823 165.25 98.3469C165.533 98.6598 165.752 98.8647 166.098 98.3773C167.15 96.9069 168.604 95.8158 169.839 94.5198C170.127 94.218 170.739 93.8164 170.061 93.437C167.851 92.2103 166.71 89.8952 164.818 88.3804C161.963 86.0986 159.748 83.1881 157.065 80.7318C154.293 78.1951 151.8 75.3484 149.028 72.7951C148.389 72.2053 148.117 71.3136 147.419 70.7459C147.151 70.5271 147.09 70.2142 147.397 69.9096C149.433 67.8714 151.426 65.7917 153.478 63.7674C154.971 62.2942 156.447 60.785 157.94 59.3034C160.44 56.825 162.819 54.2274 165.453 51.8791C167.095 50.4142 168.31 48.5117 170.099 47.1714C170.423 46.9277 170.415 46.6646 170.016 46.4237C168.571 45.5486 167.521 44.2498 166.48 42.9621C165.959 42.3169 165.608 42.2255 164.976 42.8818C162.523 45.4323 160.089 48.0132 157.491 50.4114C155.123 52.5991 153.091 55.1163 150.67 57.221C147.965 59.5748 145.86 62.524 142.972 64.6896C142.246 65.2351 141.956 65.3265 141.194 64.7201C138.871 62.873 137.12 60.461 134.944 58.5059C131.588 55.493 128.611 52.1117 125.318 49.0406C123.125 46.9942 123.316 47.0329 125.276 44.8535C127.641 42.2283 130.292 39.8994 132.737 37.3572C135.248 34.7458 137.774 32.1289 140.419 29.6532C142.227 27.964 143.753 25.9978 145.639 24.4166C148.519 22.0018 151.022 19.191 153.636 16.5326C156.17 13.9572 158.97 11.6282 161.279 8.81192C162.406 7.43561 163.871 6.33345 165.17 5.09283C165.577 4.70514 165.815 4.68575 166.278 5.14268C172.165 10.9692 178.053 16.7984 183.846 22.7218C185.388 24.2975 186.95 25.8704 188.59 27.3547C189.11 27.8283 189.312 28.3406 189.31 29.0467C189.282 32.9209 189.301 36.7978 189.287 40.672C189.287 41.0043 189.512 41.4806 189.055 41.6468C188.711 41.7741 188.523 41.3643 188.282 41.1705C186.128 39.448 184.391 37.3074 182.453 35.3661C179.182 32.0929 175.685 29.0357 172.553 25.6378C170.556 23.4723 168.172 21.711 166.355 19.3987C165.785 18.6732 165.491 18.8642 164.985 19.3766C162.528 21.8606 160.119 24.3972 157.56 26.7732C154.633 29.4926 151.856 32.3726 149.045 35.1972C145.675 38.5812 142.213 41.8849 138.948 45.3797C137.505 46.9249 137.456 46.8806 139.02 48.448C139.771 49.1985 140.599 49.8852 141.258 50.7077C141.964 51.5911 142.382 51.364 143.069 50.6634C146.248 47.4151 149.488 44.2277 152.7 41.0098C154.376 39.3289 155.962 37.5511 157.718 35.9615C160.26 33.6631 162.354 30.9077 165.054 28.7698C165.588 28.3461 165.815 28.3683 166.361 28.8335C168.014 30.243 169.473 31.8409 171.013 33.3584C174.979 37.2769 178.883 41.2535 182.854 45.1637C184.571 46.8529 184.574 46.9415 182.799 48.6723C179.972 51.4305 177.294 54.3437 174.394 57.016C171.863 59.3505 169.631 61.9674 167.053 64.2631C165.076 66.0216 163.437 68.1705 161.373 69.8847C160.656 70.4801 161.454 70.8511 161.792 71.189C165.727 75.1462 169.676 79.0924 173.625 83.033C176.953 86.3561 180.26 89.7069 183.644 92.9746C184.624 93.9189 184.029 94.6943 183.458 95.1816C181.99 96.4333 180.852 98.0312 179.238 99.114C179.047 99.2413 178.836 99.3715 178.709 99.5515C176.948 102.005 174.414 103.714 172.45 105.932C170.548 108.081 168.371 109.911 166.427 111.988C165.777 112.683 165.511 112.52 164.926 112.002C162.686 110.016 160.739 107.726 158.557 105.702C155.35 102.728 152.351 99.5515 149.277 96.461C147.206 94.3786 144.927 92.5038 142.994 90.2884C142.291 89.4798 141.803 89.6044 141.103 90.305C140.067 91.3435 139.161 92.5315 137.896 93.3318C137.428 93.6281 137.48 93.966 137.852 94.3453C139.521 96.0484 141.136 97.8041 142.844 99.4712C145.766 102.324 148.629 105.231 151.523 108.111C152.949 109.532 154.32 111.013 155.796 112.392C157.541 114.024 159.183 115.763 160.853 117.471C162.171 118.82 163.641 120.011 164.835 121.487C165.356 122.132 165.882 122.076 166.533 121.412C171.561 116.286 176.59 111.157 181.722 106.134C183.887 104.013 185.986 101.825 188.146 99.701C188.401 99.4518 188.648 99.0364 189.041 99.1693C189.495 99.3189 189.29 99.8063 189.293 100.141C189.315 102.13 189.304 104.115 189.304 106.098Z" fill="#E8C5A2"/>
<path d="M0.982 41.6717C0.608144 41.1455 0.779852 40.6249 0.779851 40.1459C0.763234 36.4545 0.79369 32.7631 0.757694 29.0744C0.749378 28.2132 1.02907 27.5292 1.62445 26.9864C2.71277 25.9923 3.64601 24.7987 4.76479 23.896C7.44541 21.7277 9.70786 19.1246 12.0922 16.7043C14.8199 13.9323 17.8411 11.4289 20.2863 8.36332C21.2805 7.11716 22.6236 6.1507 23.7922 5.04023C24.1411 4.70793 24.3267 4.77716 24.6811 5.10116C26.6805 6.92885 28.6938 8.71778 30.4494 10.8113C31.8285 12.4535 33.5898 13.7716 35.1212 15.292C39.1975 19.3461 43.2461 23.4252 47.2864 27.5154C47.7461 27.9806 48.0203 27.8671 48.4079 27.4766C52.811 23.0458 57.1532 18.5486 61.6615 14.223C64.6717 11.3236 67.3883 8.12793 70.6062 5.44177C71.2043 4.94054 71.5671 4.899 72.2234 5.41408C73.356 6.303 74.3419 7.32485 75.3499 8.33285C79.6089 12.5919 83.9539 16.7652 88.0911 21.1378C90.4533 23.6357 92.9511 26.0089 95.3382 28.4735C97.7724 30.9852 100.262 33.5024 102.854 35.8951C106.357 39.1268 109.478 42.7655 112.92 46.0692C115.678 48.7166 118.384 51.4083 121.067 54.1277C124.1 57.1988 127.162 60.2422 130.22 63.2883C132.338 65.3985 134.462 67.5004 136.608 69.5828C137.073 70.0342 137.223 70.3111 136.744 70.9287C135.802 72.1388 134.711 73.1801 133.634 74.2545C129.857 78.0179 126.226 81.9392 122.308 85.5475C119.503 88.1312 117.138 91.1413 114.141 93.5423C112.543 94.8217 111.408 96.6687 109.841 97.998C107.135 100.291 104.826 102.98 102.342 105.472C99.7219 108.1 97.0191 110.67 94.4271 113.334C91.3893 116.455 88.3819 119.62 85.117 122.528C82.8933 124.508 81.1376 126.967 78.7893 128.853C77.3991 129.969 76.4659 131.572 75.0923 132.744C74.0096 133.666 72.9766 134.646 71.9465 135.629C71.4785 136.075 71.1517 135.887 70.7834 135.518C68.7757 133.511 66.5188 131.777 64.7215 129.526C63.4117 127.886 61.5231 126.762 60.1495 125.139C57.6821 122.22 54.6166 119.892 52.127 116.973C51.0138 115.668 49.535 114.641 48.3553 113.351C47.9012 112.855 47.6852 113.068 47.2809 113.456C44.5006 116.128 41.8947 118.986 39.0812 121.611C36.3286 124.181 33.8085 126.978 31.0808 129.573C29.0261 131.528 26.963 133.502 24.9913 135.554C24.3461 136.225 24.0442 136.05 23.4738 135.496C21.1061 133.198 18.9461 130.645 16.4814 128.512C13.8285 126.214 11.6491 123.489 9.01834 121.179C6.48448 118.953 4.29956 116.3 1.75186 114.043C1.14816 113.508 0.77156 112.808 0.768783 111.977C0.760482 107.87 0.766005 103.766 0.777082 99.6595C0.777082 99.4961 0.865705 99.3328 1.05678 98.6598C2.57986 100.296 3.84263 101.736 5.19403 103.096C11.2365 109.18 17.3122 115.231 23.3491 121.321C24.011 121.988 24.4762 122.093 25.1214 121.343C27.6719 118.374 30.5935 115.757 33.3488 112.993C36.8907 109.443 40.391 105.84 44.0353 102.39C45.0683 101.41 46.0513 100.374 47.0317 99.3411C47.6298 98.7125 48.1033 98.8814 48.6461 99.4325C50.9695 101.789 53.304 104.135 55.6551 106.466C58.6901 109.479 61.7557 112.462 64.7825 115.48C66.7043 117.396 68.6123 119.329 70.4677 121.309C71.1323 122.021 71.5643 122.005 72.2345 121.326C76.1114 117.388 80.0105 113.472 83.929 109.579C87.5484 105.984 91.2231 102.445 94.8398 98.8454C97.7059 95.993 100.503 93.0715 103.363 90.2137C106.285 87.2949 109.267 84.437 112.192 81.521C114.632 79.0924 117.024 76.6195 119.447 74.1715C120.414 73.1967 121.4 72.2385 122.374 71.2721C123.025 70.6268 123.219 70.1561 122.288 69.4278C120.962 68.3893 119.788 67.1625 118.675 65.8554C117.282 64.2188 115.462 62.945 114.055 61.3167C111.655 58.5363 108.65 56.3708 106.365 53.4742C105.205 52.0009 103.494 51.0373 102.267 49.5862C99.8327 46.7062 96.9831 44.2166 94.3219 41.5665C91.2647 38.5231 88.188 35.4797 85.1613 32.4086C82.428 29.6366 79.5093 27.0446 76.9311 24.0954C75.3831 22.3258 73.5194 20.7584 71.7526 19.1495C71.4563 18.8809 71.2874 18.8726 70.98 19.2049C69.0305 21.315 66.7957 23.1317 64.8434 25.2612C63.5335 26.6901 62.1738 28.1357 60.5871 29.3514C58.9643 30.5948 57.8871 32.4446 56.2892 33.7794C53.7858 35.8702 51.7421 38.4372 49.3606 40.6692C48.0701 41.8766 47.4276 41.8849 46.3393 40.6637C45.3009 39.4978 44.0076 38.5591 42.9747 37.3905C41.1415 35.3163 38.9399 33.6132 37.1372 31.5363C34.7861 28.828 32.0002 26.5655 29.6048 23.8904C28.1288 22.2427 26.4091 20.7307 24.7753 19.1855C24.0497 18.5015 23.7534 19.252 23.4571 19.5372C21.2445 21.6778 19.1343 23.9264 16.8885 26.0311C13.7011 29.0163 10.7353 32.2231 7.56725 35.2332C5.35463 37.3323 3.33585 39.6474 0.982 41.6717Z" fill="#E8C5A2"/>
<path d="M89.8967 47.0163C89.6114 47.3957 89.3262 47.8803 88.9413 48.2625C86.64 50.5526 84.1643 52.6905 82.0514 55.1413C80.4896 56.9523 78.4985 58.2567 76.9809 60.1425C75.8206 61.5853 74.5496 63.1388 72.8049 64.0914C72.2982 64.3684 71.8052 64.8364 71.5339 65.3404C70.5646 67.1431 68.8034 68.1622 67.4659 69.5939C67.0089 70.0813 66.7902 70.3195 67.3246 70.9093C70.2212 74.1161 73.3782 77.0653 76.4022 80.1475C78.9776 82.7727 81.6 85.3509 84.2087 87.9401C86.0031 89.7207 87.8004 91.4958 89.6198 93.2515C89.9465 93.5644 90.2816 93.7583 89.8441 94.2318C88.2961 95.9183 86.8893 97.7349 84.9813 99.078C84.2834 99.5681 83.7379 100.291 83.1757 100.953C81.9905 102.354 80.736 103.686 79.296 104.832C77.5237 106.245 76.3606 108.244 74.5994 109.668C74.317 109.897 74.1037 110.224 73.8019 110.418C72.9185 110.988 72.2511 112.39 71.3262 112.201C70.3348 111.996 69.4348 110.958 68.6705 110.124C65.436 106.605 61.8111 103.478 58.632 99.9004C57.4246 98.5435 55.8129 97.5244 54.6664 96.0844C52.8498 93.8054 50.2606 92.3294 48.5104 89.9949C48.0895 89.4327 47.6797 89.4078 47.1757 89.9478C44.5587 92.7503 41.7535 95.3811 39.0175 98.0561C36.8963 100.13 35.063 102.506 32.7535 104.362C30.2335 106.389 28.4058 109.08 25.8996 111.116C24.2436 112.459 24.4125 112.451 22.8119 111.168C19.5027 108.518 16.8165 105.237 13.7676 102.326C11.6214 100.277 9.47249 98.1891 7.37341 96.0734C6.83064 95.5251 6.56755 94.7386 5.94725 94.2263C5.56231 93.9078 5.72018 93.6198 6.03033 93.3097C13.3799 85.9657 20.7128 78.6023 28.0818 71.2776C28.835 70.5299 28.9236 70.2087 28.0264 69.4361C26.4645 68.0958 25.1021 66.509 23.6177 65.0884C21.0036 62.585 18.611 59.8601 15.8888 57.4591C13.8894 55.6951 12.3082 53.4908 10.2506 51.7683C8.68879 50.4613 7.46203 48.8357 6.03033 47.4068C5.69526 47.0717 5.56508 46.7616 5.9694 46.3517C9.68848 42.5939 13.3356 38.7585 17.1377 35.0865C18.8879 33.3972 20.5522 31.6277 22.2636 29.9052C23.975 28.1828 24.8445 28.2603 26.4867 30.0686C28.3005 32.0652 30.1808 34.0037 32.183 35.8286C34.0716 37.5511 35.7581 39.4923 37.5581 41.3117C40.6596 44.4465 43.8055 47.5369 46.8738 50.7022C47.5966 51.4471 47.976 51.4693 48.7154 50.716C53.4563 45.8837 58.2498 41.104 63.0295 36.3105C65.2034 34.1283 67.3745 31.9434 69.5677 29.7806C71.2182 28.1523 71.2902 28.1024 73.0016 29.692C74.7766 31.3397 76.3856 33.1618 78.1274 34.8455C81.9517 38.548 85.7234 42.3059 89.4093 46.144C89.6308 46.3794 89.9437 46.5428 89.8967 47.0163ZM71.3511 98.5546C71.5948 98.3331 71.7969 98.1586 71.9853 97.9731C72.7468 97.2364 73.5416 96.5275 74.2533 95.7438C74.832 95.1069 75.8317 94.6334 75.876 93.7887C75.912 93.1075 74.868 92.8334 74.3363 92.346C72.24 90.4297 70.5286 88.1533 68.3105 86.3256C66.3443 84.7084 64.86 82.5346 62.9105 80.8343C60.2465 78.5109 58.1197 75.6336 55.356 73.3989C54.6166 72.8007 54.0821 71.9533 53.4147 71.2527C52.7418 70.5465 52.8166 70.0619 53.5394 69.3502C57.8815 65.0884 62.16 60.7628 66.4606 56.4622C69.4237 53.4991 72.3951 50.5471 75.3388 47.5646C75.6074 47.2932 76.3717 47.0606 75.6572 46.4043C74.4028 45.2523 73.1843 44.056 71.9797 42.8486C71.5366 42.4055 71.3206 42.364 70.8055 42.8708C66.1145 47.4788 61.5231 52.1893 56.832 56.7917C53.9907 59.5776 51.3987 62.6265 48.3027 65.1521C47.9898 65.4068 47.8126 65.5896 47.4138 65.1798C46.4529 64.1939 45.4587 63.2247 44.3843 62.3662C42.9277 61.2031 42.0415 59.4585 40.5959 58.384C37.7464 56.26 35.5892 53.4548 33.0553 51.0373C30.2805 48.3926 27.4919 45.712 24.9027 42.8597C24.4014 42.3059 24.0774 42.3336 23.5817 42.8569C22.571 43.9314 21.5491 45.0031 20.4387 45.9696C19.6882 46.6259 19.7048 47.0994 20.3805 47.7613C23.7285 51.0594 27.0156 54.4157 30.3415 57.7361C34.2793 61.6656 38.2255 65.5868 42.1716 69.5108C42.7504 70.0868 42.7809 70.4053 42.3046 71.0921C40.3218 73.9555 37.4722 75.9687 35.1128 78.461C32.3491 81.3826 29.5965 84.365 26.5227 86.9875C24.2408 88.9343 22.6845 91.6011 20.1341 93.2737C19.4445 93.7251 19.8959 94.2651 20.2808 94.6638C21.4024 95.8241 22.5655 96.9401 23.6842 98.1032C24.1079 98.5463 24.3876 98.502 24.8085 98.0838C28.5249 94.3703 32.2716 90.69 35.9907 86.9764C39.7042 83.2684 43.4012 79.541 47.087 75.8025C47.6381 75.2459 48.0147 75.2736 48.563 75.8247C52.9024 80.2029 57.2612 84.5616 61.6228 88.9204C64.644 91.9389 67.6736 94.9491 70.7031 97.962C70.8886 98.1531 71.0963 98.3248 71.3511 98.5546Z" fill="#E8C5A2"/>
<path d="M76.5628 -0.0911681C80.7222 -0.0911686 84.685 -0.0330152 88.6422 -0.124401C89.9216 -0.154862 90.8631 0.252216 91.6994 1.11622C92.5634 2.01068 93.4081 2.92453 94.2887 3.79961C98.0299 7.52146 101.871 11.1464 105.496 14.979C107.958 17.5793 110.633 19.9581 113.042 22.6166C114.595 24.3307 116.376 25.912 118.085 27.5209C118.47 27.8837 118.661 27.8892 119.065 27.4766C122.12 24.3584 125.213 21.2818 128.295 18.1941C132.191 14.295 136.029 10.3322 140.02 6.5273C141.82 4.81037 143.459 2.95498 145.212 1.20206C146.068 0.346362 146.948 -0.152101 148.239 -0.121639C151.789 -0.0357932 155.342 -0.102255 158.895 -0.0801019C159.316 -0.0773327 159.942 -0.348718 160.113 0.213437C160.246 0.650976 159.789 1.03867 159.457 1.35436C155.918 4.70237 152.645 8.31623 149.05 11.6144C147.785 12.7775 146.708 14.2064 145.409 15.3612C142.532 17.9255 140.081 20.9135 137.184 23.475C135.592 24.8846 134.279 26.6818 132.659 28.1052C130.136 30.3234 127.993 32.9098 125.52 35.1834C123.332 37.1938 121.352 39.4508 119.162 41.4862C118.658 41.9542 118.428 41.9763 117.96 41.5305C116.06 39.7305 114.075 38.0329 112.408 35.9781C111.317 34.6351 109.766 33.6741 108.622 32.3643C105.994 29.3541 102.771 26.9366 100.248 23.8129C99.3176 22.6581 97.9358 21.8661 96.9305 20.7196C94.2638 17.6763 91.2757 14.9375 88.4151 12.0935C85.1253 8.82301 81.9545 5.41961 78.4985 2.3153C77.7536 1.65068 77.1969 0.825449 76.5628 -0.0911681Z" fill="#E8C5A2"/>
<path d="M160.631 140.91C156.156 140.91 151.825 140.918 147.491 140.905C146.292 140.902 145.583 139.941 144.913 139.221C141.947 136.02 138.774 133.023 135.697 129.938C132.327 126.56 128.882 123.24 125.556 119.82C123.407 117.61 120.956 115.713 119.004 113.32C118.553 112.769 118.309 113.079 118.043 113.395C116.332 115.45 114.008 116.87 112.35 119.005C111.347 120.299 110.129 121.459 108.766 122.434C107.634 123.245 106.93 124.489 105.953 125.461C103.505 127.886 101.14 130.415 98.5976 132.719C95.9032 135.161 93.7736 138.157 90.8299 140.334C90.4007 140.653 90.0351 140.891 89.4868 140.891C85.2001 140.877 80.9133 140.882 76.4105 140.882C77.0086 140.193 77.449 139.575 77.9945 139.074C81.0019 136.305 83.7213 133.25 86.7231 130.47C89.3124 128.072 91.6524 125.411 94.153 122.916C96.7838 120.288 99.4921 117.734 102.131 115.115C103.859 113.4 105.504 111.606 107.221 109.878C108.741 108.347 110.314 106.868 111.848 105.35C113.38 103.833 114.895 102.296 116.412 100.762C116.864 100.305 117.271 99.798 117.741 99.3632C118.317 98.8315 118.863 98.9118 119.42 99.4878C123.474 103.686 127.6 107.812 131.804 111.866C134.545 114.511 137.076 117.377 139.84 119.994C142.642 122.647 145.337 125.413 148.07 128.13C151.714 131.749 155.4 135.338 158.925 139.08C159.449 139.633 160.213 139.957 160.631 140.91Z" fill="#E8C5A2"/>
<path d="M76.3773 70.3527C76.4853 69.8487 76.9145 69.7684 77.1499 69.4998C80.4896 65.6893 84.2917 62.3357 87.7782 58.6665C89.7361 56.6034 91.8351 54.676 93.8068 52.6268C94.6819 51.7157 95.3687 51.9013 96.1385 52.6711C99.3813 55.9111 102.646 59.1345 105.872 62.3911C108.259 64.8004 110.594 67.2594 112.976 69.677C113.46 70.1699 113.449 70.5105 113.042 71.0754C111.599 73.0776 109.503 74.4318 107.919 76.2567C105.05 79.5632 101.608 82.2881 98.7527 85.6001C97.7668 86.7438 96.5124 87.6493 95.4241 88.7072C94.9838 89.1364 94.7595 88.9315 94.4244 88.613C90.3951 84.7804 86.4324 80.8869 82.6357 76.8216C81.2567 75.3456 79.6727 74.0607 78.2244 72.6456C77.6373 72.0724 77.1637 71.3801 76.6431 70.7404C76.5296 70.5992 76.441 70.4468 76.3773 70.3527ZM94.9339 74.969C95.0835 74.8499 95.1887 74.7613 95.2995 74.6782C96.8253 73.5512 97.8804 71.9561 99.2761 70.6988C99.6582 70.3555 99.5115 70.0508 99.1487 69.8071C97.7585 68.8795 96.7422 67.553 95.557 66.4093C95.0696 65.9385 94.8204 65.9468 94.369 66.4259C93.2696 67.5918 92.1868 68.7825 90.8714 69.7268C90.2484 70.1727 90.4145 70.6268 90.8881 71.0893C92.065 72.2441 93.2253 73.4182 94.4022 74.5758C94.5545 74.7308 94.7567 74.8416 94.9339 74.969Z" fill="#E8C5A2"/>
<path d="M189.37 89.225C187.354 87.2672 185.233 85.8022 183.71 83.6893C182.899 82.565 181.606 81.8838 180.705 80.8647C177.748 77.5222 174.273 74.6948 171.345 71.3274C170.689 70.5714 170.681 70.2198 171.381 69.4361C174.657 65.7834 178.285 62.4797 181.725 58.996C183.671 57.0243 185.585 55.0111 187.554 53.0588C187.814 52.8013 188.086 52.5437 188.385 52.3332C189.016 51.8902 189.531 51.8154 189.473 52.84C189.238 56.9828 189.343 61.1283 189.304 65.2711C189.301 65.6062 189.232 65.8997 188.955 66.1296C187.618 67.2456 186.654 68.7548 185.192 69.7324C184.552 70.1616 184.563 70.4524 185.114 70.973C186.382 72.1721 187.587 73.4404 188.817 74.681C189.141 75.0078 189.512 75.3096 189.473 75.8385C189.141 80.2001 189.357 84.5644 189.37 89.225Z" fill="#E8C5A2"/>
<path d="M99.9047 140.309C101.719 138.634 103.571 137.003 105.332 135.277C108.481 132.195 111.574 129.058 114.692 125.942C115.731 124.907 116.786 123.885 117.797 122.824C118.312 122.287 118.691 122.171 119.248 122.81C120.898 124.718 122.873 126.316 124.568 128.166C127.14 130.971 130.067 133.414 132.565 136.294C133.642 137.534 134.952 138.573 136.148 139.714C136.434 139.988 136.921 140.248 136.772 140.689C136.628 141.118 136.121 140.885 135.786 140.888C131.914 140.905 128.043 140.86 124.172 140.918C122.801 140.941 122.222 139.822 121.308 139.204C120.56 138.7 119.943 137.975 119.342 137.285C118.808 136.67 118.417 136.579 117.78 137.194C116.659 138.277 115.653 139.489 114.355 140.387C114.011 140.622 113.72 140.902 113.261 140.902C108.941 140.896 104.621 140.899 100.303 140.899C100.168 140.697 100.035 140.503 99.9047 140.309Z" fill="#E8C5A2"/>
<path d="M107.26 -0.0911721C108.874 -0.0911723 110.497 0.00852002 112.1 -0.121634C113.493 -0.235173 114.487 0.318674 115.39 1.23806C116.229 2.09375 117.071 2.94668 117.902 3.81345C118.345 4.27314 118.722 4.50022 119.184 3.7996C121.424 0.40175 124.601 -0.611791 128.555 -0.141021C130.876 0.135902 133.255 -0.0994832 135.606 -0.0828681C135.944 -0.0800989 136.417 -0.271176 136.575 0.185748C136.694 0.529133 136.298 0.72298 136.112 0.972211C134.443 3.19314 132.111 4.75776 130.3 6.82915C127.697 9.80608 124.581 12.2679 122 15.267C121.136 16.2695 120.018 17.0532 119.057 17.9753C118.655 18.3603 118.392 18.2799 118.002 17.9726C116.047 16.4246 114.346 14.6273 112.676 12.783C111.386 11.3569 109.827 10.1716 108.525 8.751C106.288 6.30577 103.773 4.14576 101.491 1.75037C101.206 1.45129 100.935 1.1356 100.694 0.800523C100.265 0.202368 100.398 -0.102248 101.176 -0.0967098C103.2 -0.0800946 105.23 -0.0911718 107.26 -0.0911721Z" fill="#E8C5A2"/>
<path d="M66.4966 -0.0911668C62.0298 4.72731 57.3692 8.94485 53.0437 13.4892C51.5178 15.0926 49.8867 16.5603 48.3 18.0861C48.0673 18.3104 47.8929 18.5569 47.5135 18.2135C45.5667 16.455 43.6006 14.7076 41.9279 12.6916C41.2938 11.9273 40.4962 11.415 39.8205 10.731C36.8824 7.75409 33.9138 4.80762 30.9562 1.8473C30.8593 1.75038 30.7596 1.65346 30.6682 1.54823C30.2778 1.10238 29.6436 0.606686 29.8374 0.0611461C30.0839 -0.628394 30.8122 -0.0717774 31.319 -0.077316C34.9135 -0.121624 38.5107 -0.0883938 42.1024 -0.157625C43.7556 -0.188087 44.5476 1.05807 45.4116 2.02453C47.7046 4.58885 47.7516 4.74392 49.9781 2.25161C51.5843 0.457144 53.2873 -0.304396 55.727 -0.14655C59.2024 0.0777577 62.6972 -0.0911663 66.4966 -0.0911668Z" fill="#E8C5A2"/>
<path d="M0.774319 88.4303C0.774318 83.7475 0.771541 79.3776 0.777079 75.0106C0.777079 74.3847 1.27278 74.0524 1.65493 73.6647C2.56046 72.7509 3.46324 71.8287 4.39094 70.937C4.85616 70.4912 4.92262 70.181 4.35215 69.7324C3.41616 68.993 2.54939 68.165 1.65215 67.3758C1.18415 66.9632 0.81585 66.4287 0.810311 65.8333C0.774315 61.3776 0.790932 56.9247 0.934928 52.3831C1.93185 53.416 3.0257 54.28 4.02816 55.2382C7.09093 58.1653 10.0125 61.2391 13.1417 64.0998C15.0747 65.8665 16.858 67.7995 18.7384 69.6272C19.259 70.1339 19.3836 70.4745 18.8353 71.0976C17.4036 72.7204 15.85 74.1909 14.2051 75.5976C12.8177 76.7856 11.7571 78.3613 10.3586 79.5355C7.10202 82.2715 4.54048 85.7552 0.774319 88.4303Z" fill="#E8C5A2"/>
<path d="M66.5077 140.882C61.9468 140.882 57.5824 140.913 53.2209 140.863C52.0329 140.849 51.4209 139.703 50.5209 139.118C50.1443 138.875 49.8812 138.459 49.5572 138.135C47.688 136.269 47.6104 136.205 45.9046 138.296C44.376 140.171 42.648 141.107 40.1279 140.938C37.0098 140.727 33.8639 140.899 30.7319 140.88C30.3553 140.877 29.807 141.126 29.6325 140.63C29.5107 140.281 29.9482 140.002 30.1975 139.753C35.1129 134.834 40.0393 129.927 44.963 125.015C45.6803 124.3 46.4224 123.608 47.0954 122.852C47.6852 122.19 48.0867 122.342 48.66 122.913C51.5898 125.823 54.4338 128.817 57.4357 131.661C60.5151 134.574 63.3979 137.703 66.5077 140.882Z" fill="#E8C5A2"/>
<path d="M0.768771 18.1858C0.76877 13.6498 0.765992 9.32148 0.77707 4.99039C0.77707 4.77162 0.832444 4.50578 0.959839 4.33685C2.1866 2.71408 3.65984 1.32115 5.18292 -0.0136201C5.5817 -0.362544 6.14938 -0.260082 6.65616 -0.260082C10.3475 -0.260083 14.039 -0.265622 17.7303 -0.251776C18.1208 -0.249007 18.6885 -0.478854 18.863 -0.0330065C19.043 0.429456 18.5556 0.789457 18.2454 1.10792C17.0851 2.29315 15.8971 3.45623 14.7257 4.63039C12.7457 6.61316 10.846 8.68732 8.75801 10.5483C7.4897 11.6781 6.50939 13.0516 5.24108 14.1787C3.80939 15.4526 2.57709 16.948 0.768771 18.1858Z" fill="#E8C5A2"/>
<path d="M0.993104 122.464C7.14357 128.62 13.1528 134.638 19.3919 140.885C15.4901 140.885 11.89 140.6 8.35649 140.965C4.74263 141.337 3.17523 138.781 1.09832 136.834C0.793704 136.549 0.777087 136.089 0.777087 135.662C0.779863 131.473 0.777101 127.285 0.785401 123.096C0.782639 122.971 0.860169 122.846 0.993104 122.464Z" fill="#E8C5A2"/>
<path d="M189.301 122.805C189.301 123.752 189.301 124.976 189.301 126.2C189.301 129.29 189.298 132.384 189.301 135.474C189.301 135.984 189.312 136.443 188.869 136.856C188.033 137.637 187.28 138.506 186.466 139.312C185.23 140.533 183.807 141.029 181.999 140.957C178.318 140.81 174.63 140.913 171.165 140.913C177.186 134.904 183.275 128.822 189.301 122.805Z" fill="#E8C5A2"/>
<path d="M171.163 -0.0911805C175.447 -0.091181 179.731 -0.0911816 184.015 -0.0939514C184.513 -0.0939515 184.884 0.130357 185.225 0.476511C186.424 1.68944 187.634 2.89129 188.847 4.09037C189.121 4.36175 189.298 4.66083 189.298 5.0596C189.296 9.37961 189.298 13.7024 189.298 18.0252C189.171 18.1138 189.046 18.2024 188.919 18.291C182.921 12.3039 176.923 6.31683 170.925 0.326974C171.005 0.188512 171.082 0.0472814 171.163 -0.0911805Z" fill="#E8C5A2"/>
</g>
</svg>
