<svg width="190" height="141" viewBox="0 0 190 141" fill="none" xmlns="http://www.w3.org/2000/svg">
<g opacity="0.4">
<path d="M189.046 106.098C189.046 107.02 188.888 107.976 189.071 108.862C189.824 112.489 187.731 114.6 185.164 116.483C184.366 117.067 183.931 117.975 183.245 118.62C180.162 121.523 177.255 124.594 174.256 127.576C171.489 130.326 168.678 133.026 165.94 135.804C165.306 136.449 165.092 135.92 164.757 135.601C162.689 133.644 160.717 131.572 158.654 129.631C155.538 126.701 152.675 123.528 149.573 120.584C147.386 118.507 145.057 116.505 143.132 114.19C140.74 111.312 137.608 109.205 135.334 106.212C134.235 104.763 132.482 103.88 131.327 102.432C129.028 99.546 125.874 97.4967 123.659 94.5337C123.346 94.1127 122.889 93.8053 123.543 93.3152C125.315 91.9832 126.63 90.1832 128.264 88.6989C130.673 86.5112 132.894 84.1185 135.198 81.8145C137.112 79.8982 139.042 78.0013 140.925 76.0573C141.587 75.3733 142.041 75.2265 142.803 76.0047C147.826 81.1361 152.861 86.2536 157.967 91.3019C160.326 93.6336 162.766 95.8823 164.993 98.3469C165.275 98.6598 165.494 98.8647 165.84 98.3773C166.892 96.9069 168.346 95.8158 169.581 94.5198C169.869 94.218 170.481 93.8164 169.803 93.437C167.593 92.2103 166.452 89.8952 164.561 88.3804C161.705 86.0986 159.49 83.1881 156.807 80.7318C154.035 78.1951 151.542 75.3484 148.77 72.7951C148.131 72.2053 147.859 71.3136 147.161 70.7459C146.893 70.5271 146.832 70.2142 147.139 69.9096C149.175 67.8714 151.169 65.7917 153.221 63.7674C154.713 62.2942 156.189 60.785 157.682 59.3034C160.182 56.825 162.561 54.2274 165.195 51.8791C166.837 50.4142 168.053 48.5117 169.842 47.1714C170.166 46.9277 170.157 46.6646 169.758 46.4237C168.313 45.5486 167.263 44.2498 166.222 42.9621C165.701 42.3169 165.35 42.2255 164.718 42.8818C162.265 45.4323 159.831 48.0132 157.233 50.4114C154.865 52.5991 152.833 55.1163 150.413 57.221C147.707 59.5748 145.602 62.524 142.714 64.6896C141.989 65.2351 141.698 65.3265 140.936 64.7201C138.613 62.873 136.863 60.461 134.686 58.5059C131.33 55.493 128.353 52.1117 125.06 49.0406C122.867 46.9942 123.058 47.0329 125.019 44.8535C127.384 42.2283 130.034 39.8994 132.479 37.3572C134.991 34.7458 137.516 32.1289 140.161 29.6532C141.969 27.964 143.495 25.9978 145.381 24.4166C148.261 22.0018 150.764 19.191 153.378 16.5326C155.912 13.9572 158.712 11.6282 161.021 8.81192C162.149 7.43561 163.613 6.33345 164.912 5.09283C165.319 4.70514 165.557 4.68575 166.02 5.14268C171.907 10.9692 177.795 16.7984 183.588 22.7218C185.13 24.2975 186.692 25.8704 188.332 27.3547C188.852 27.8283 189.054 28.3406 189.052 29.0467C189.024 32.9209 189.043 36.7978 189.03 40.672C189.03 41.0043 189.254 41.4806 188.797 41.6468C188.454 41.7741 188.265 41.3643 188.024 41.1705C185.87 39.448 184.134 37.3074 182.195 35.3661C178.925 32.0929 175.427 29.0357 172.295 25.6378C170.298 23.4723 167.914 21.711 166.097 19.3987C165.527 18.6732 165.233 18.8642 164.727 19.3766C162.27 21.8606 159.861 24.3972 157.302 26.7732C154.375 29.4926 151.598 32.3726 148.787 35.1972C145.417 38.5812 141.955 41.8849 138.69 45.3797C137.248 46.9249 137.198 46.8806 138.762 48.448C139.513 49.1985 140.341 49.8852 141 50.7077C141.706 51.5911 142.124 51.364 142.811 50.6634C145.99 47.4151 149.23 44.2277 152.442 41.0098C154.118 39.3289 155.705 37.5511 157.46 35.9615C160.002 33.6631 162.096 30.9077 164.796 28.7698C165.33 28.3461 165.557 28.3683 166.103 28.8335C167.756 30.243 169.216 31.8409 170.755 33.3584C174.721 37.2769 178.626 41.2535 182.597 45.1637C184.314 46.8529 184.316 46.9415 182.541 48.6723C179.714 51.4305 177.036 54.3437 174.137 57.016C171.606 59.3505 169.374 61.9674 166.795 64.2631C164.818 66.0216 163.179 68.1705 161.116 69.8847C160.398 70.4801 161.196 70.8511 161.534 71.189C165.469 75.1462 169.418 79.0924 173.367 83.033C176.695 86.3561 180.002 89.7069 183.386 92.9746C184.366 93.9189 183.771 94.6943 183.2 95.1816C181.733 96.4333 180.594 98.0312 178.98 99.114C178.789 99.2413 178.578 99.3715 178.451 99.5515C176.69 102.005 174.156 103.714 172.193 105.932C170.29 108.081 168.114 109.911 166.17 111.988C165.519 112.683 165.253 112.52 164.669 112.002C162.428 110.016 160.481 107.726 158.299 105.702C155.093 102.728 152.093 99.5515 149.02 96.461C146.948 94.3786 144.669 92.5038 142.736 90.2884C142.033 89.4798 141.545 89.6044 140.845 90.305C139.809 91.3435 138.904 92.5315 137.638 93.3318C137.17 93.6281 137.223 93.966 137.594 94.3453C139.264 96.0484 140.878 97.8041 142.587 99.4712C145.508 102.324 148.372 105.231 151.265 108.111C152.692 109.532 154.062 111.013 155.538 112.392C157.283 114.024 158.925 115.763 160.595 117.471C161.913 118.82 163.384 120.011 164.577 121.487C165.098 122.132 165.624 122.076 166.275 121.412C171.304 116.286 176.333 111.157 181.464 106.134C183.63 104.013 185.729 101.825 187.889 99.701C188.143 99.4518 188.39 99.0364 188.783 99.1693C189.237 99.3189 189.032 99.8063 189.035 100.141C189.057 102.13 189.046 104.115 189.046 106.098Z" fill="#E8C5A2"/>
<path d="M0.724188 41.6717C0.350332 41.1455 0.522039 40.6249 0.522039 40.1459C0.505422 36.4545 0.535878 32.7631 0.499882 29.0744C0.491566 28.2132 0.771259 27.5292 1.36664 26.9864C2.45496 25.9923 3.3882 24.7987 4.50698 23.896C7.18759 21.7277 9.45005 19.1246 11.8344 16.7043C14.5621 13.9323 17.5833 11.4289 20.0285 8.36332C21.0227 7.11716 22.3658 6.1507 23.5344 5.04023C23.8833 4.70793 24.0688 4.77716 24.4233 5.10116C26.4227 6.92885 28.4359 8.71778 30.1916 10.8113C31.5707 12.4535 33.332 13.7716 34.8633 15.292C38.9397 19.3461 42.9883 23.4252 47.0286 27.5154C47.4883 27.9806 47.7625 27.8671 48.1501 27.4766C52.5532 23.0458 56.8954 18.5486 61.4037 14.223C64.4139 11.3236 67.1305 8.12793 70.3483 5.44177C70.9465 4.94054 71.3093 4.899 71.9656 5.41408C73.0982 6.303 74.084 7.32485 75.092 8.33285C79.3511 12.5919 83.6961 16.7652 87.8333 21.1378C90.1955 23.6357 92.6933 26.0089 95.0804 28.4735C97.5146 30.9852 100.004 33.5024 102.596 35.8951C106.099 39.1268 109.22 42.7655 112.662 46.0692C115.42 48.7166 118.126 51.4083 120.809 54.1277C123.842 57.1988 126.904 60.2422 129.962 63.2883C132.08 65.3985 134.204 67.5004 136.35 69.5828C136.816 70.0342 136.965 70.3111 136.486 70.9287C135.545 72.1388 134.453 73.1801 133.376 74.2545C129.599 78.0179 125.968 81.9392 122.05 85.5475C119.245 88.1312 116.88 91.1413 113.884 93.5423C112.286 94.8217 111.15 96.6687 109.583 97.998C106.877 100.291 104.568 102.98 102.084 105.472C99.4641 108.1 96.7613 110.67 94.1693 113.334C91.1315 116.455 88.1241 119.62 84.8592 122.528C82.6355 124.508 80.8798 126.967 78.5315 128.853C77.1413 129.969 76.2081 131.572 74.8345 132.744C73.7518 133.666 72.7188 134.646 71.6887 135.629C71.2207 136.075 70.8939 135.887 70.5256 135.518C68.5179 133.511 66.261 131.777 64.4637 129.526C63.1539 127.886 61.2653 126.762 59.8917 125.139C57.4243 122.22 54.3588 119.892 51.8692 116.973C50.756 115.668 49.2772 114.641 48.0975 113.351C47.6434 112.855 47.4274 113.068 47.0231 113.456C44.2428 116.128 41.6369 118.986 38.8234 121.611C36.0707 124.181 33.5507 126.978 30.823 129.573C28.7683 131.528 26.7052 133.502 24.7335 135.554C24.0883 136.225 23.7864 136.05 23.2159 135.496C20.8483 133.198 18.6882 130.645 16.2236 128.512C13.5707 126.214 11.3913 123.489 8.76053 121.179C6.22667 118.953 4.04175 116.3 1.49405 114.043C0.89035 113.508 0.513748 112.808 0.510971 111.977C0.502669 107.87 0.508192 103.766 0.51927 99.6595C0.51927 99.4961 0.607893 99.3328 0.798963 98.6598C2.32205 100.296 3.58482 101.736 4.93622 103.096C10.9787 109.18 17.0544 115.231 23.0913 121.321C23.7532 121.988 24.2184 122.093 24.8636 121.343C27.4141 118.374 30.3356 115.757 33.091 112.993C36.6329 109.443 40.1332 105.84 43.7775 102.39C44.8105 101.41 45.7935 100.374 46.7738 99.3411C47.372 98.7125 47.8455 98.8814 48.3883 99.4325C50.7117 101.789 53.0462 104.135 55.3972 106.466C58.4323 109.479 61.4979 112.462 64.5247 115.48C66.4465 117.396 68.3545 119.329 70.2099 121.309C70.8745 122.021 71.3065 122.005 71.9767 121.326C75.8536 117.388 79.7527 113.472 83.6712 109.579C87.2905 105.984 90.9653 102.445 94.582 98.8454C97.4481 95.993 100.245 93.0715 103.106 90.2137C106.027 87.2949 109.01 84.437 111.934 81.521C114.374 79.0924 116.766 76.6195 119.189 74.1715C120.156 73.1967 121.142 72.2385 122.116 71.2721C122.767 70.6268 122.961 70.1561 122.031 69.4278C120.704 68.3893 119.53 67.1625 118.417 65.8554C117.024 64.2188 115.204 62.945 113.798 61.3167C111.397 58.5363 108.392 56.3708 106.108 53.4742C104.947 52.0009 103.236 51.0373 102.009 49.5862C99.5749 46.7062 96.7253 44.2166 94.0641 41.5665C91.0069 38.5231 87.9302 35.4797 84.9035 32.4086C82.1702 29.6366 79.2514 27.0446 76.6733 24.0954C75.1253 22.3258 73.2616 20.7584 71.4948 19.1495C71.1985 18.8809 71.0296 18.8726 70.7222 19.2049C68.7727 21.315 66.5379 23.1317 64.5856 25.2612C63.2757 26.6901 61.916 28.1357 60.3292 29.3514C58.7065 30.5948 57.6292 32.4446 56.0314 33.7794C53.528 35.8702 51.4843 38.4372 49.1028 40.6692C47.8123 41.8766 47.1698 41.8849 46.0815 40.6637C45.0431 39.4978 43.7498 38.5591 42.7169 37.3905C40.8837 35.3163 38.6821 33.6132 36.8793 31.5363C34.5283 28.828 31.7424 26.5655 29.347 23.8904C27.871 22.2427 26.1513 20.7307 24.5175 19.1855C23.7919 18.5015 23.4956 19.252 23.1993 19.5372C20.9867 21.6778 18.8765 23.9264 16.6307 26.0311C13.4433 29.0163 10.4775 32.2231 7.30944 35.2332C5.09682 37.3323 3.07804 39.6474 0.724188 41.6717Z" fill="#E8C5A2"/>
<path d="M89.6389 47.0163C89.3536 47.3957 89.0684 47.8803 88.6835 48.2625C86.3822 50.5526 83.9065 52.6905 81.7936 55.1413C80.2318 56.9523 78.2407 58.2567 76.7231 60.1425C75.5628 61.5853 74.2917 63.1388 72.5471 64.0914C72.0404 64.3684 71.5474 64.8364 71.276 65.3404C70.3068 67.1431 68.5456 68.1622 67.208 69.5939C66.7511 70.0813 66.5323 70.3195 67.0668 70.9093C69.9634 74.1161 73.1204 77.0653 76.1444 80.1475C78.7198 82.7727 81.3422 85.3509 83.9508 87.9401C85.7453 89.7207 87.5426 91.4958 89.3619 93.2515C89.6887 93.5644 90.0238 93.7583 89.5862 94.2318C88.0382 95.9183 86.6315 97.7349 84.7235 99.078C84.0256 99.5681 83.4801 100.291 82.9179 100.953C81.7327 102.354 80.4782 103.686 79.0382 104.832C77.2659 106.245 76.1028 108.244 74.3416 109.668C74.0591 109.897 73.8459 110.224 73.5441 110.418C72.6607 110.988 71.9933 112.39 71.0684 112.201C70.077 111.996 69.177 110.958 68.4127 110.124C65.1782 106.605 61.5533 103.478 58.3742 99.9004C57.1668 98.5435 55.5551 97.5244 54.4086 96.0844C52.592 93.8054 50.0028 92.3294 48.2526 89.9949C47.8317 89.4327 47.4218 89.4078 46.9178 89.9478C44.3009 92.7503 41.4957 95.3811 38.7597 98.0561C36.6384 100.13 34.8052 102.506 32.4957 104.362C29.9757 106.389 28.148 109.08 25.6418 111.116C23.9858 112.459 24.1547 112.451 22.5541 111.168C19.2449 108.518 16.5587 105.237 13.5098 102.326C11.3636 100.277 9.21467 98.1891 7.1156 96.0734C6.57283 95.5251 6.30974 94.7386 5.68944 94.2263C5.3045 93.9078 5.46237 93.6198 5.77252 93.3097C13.1221 85.9657 20.455 78.6023 27.8239 71.2776C28.5772 70.5299 28.6658 70.2087 27.7686 69.4361C26.2067 68.0958 24.8442 66.509 23.3599 65.0884C20.7458 62.585 18.3532 59.8601 15.631 57.4591C13.6316 55.6951 12.0504 53.4908 9.99284 51.7683C8.43098 50.4613 7.20421 48.8357 5.77251 47.4068C5.43745 47.0717 5.30727 46.7616 5.71158 46.3517C9.43067 42.5939 13.0778 38.7585 16.8799 35.0865C18.6301 33.3972 20.2944 31.6277 22.0058 29.9052C23.7172 28.1828 24.5867 28.2603 26.2289 30.0686C28.0427 32.0652 29.923 34.0037 31.9252 35.8286C33.8138 37.5511 35.5003 39.4923 37.3003 41.3117C40.4018 44.4465 43.5477 47.5369 46.616 50.7022C47.3388 51.4471 47.7181 51.4693 48.4575 50.716C53.1985 45.8837 57.992 41.104 62.7717 36.3105C64.9456 34.1283 67.1167 31.9434 69.3099 29.7806C70.9603 28.1523 71.0323 28.1024 72.7437 29.692C74.5188 31.3397 76.1278 33.1618 77.8696 34.8455C81.6939 38.548 85.4656 42.3059 89.1515 46.144C89.373 46.3794 89.6859 46.5428 89.6389 47.0163ZM71.0933 98.5546C71.337 98.3331 71.5391 98.1586 71.7274 97.9731C72.489 97.2364 73.2837 96.5275 73.9954 95.7438C74.5742 95.1069 75.5739 94.6334 75.6182 93.7887C75.6542 93.1075 74.6102 92.8334 74.0785 92.346C71.9822 90.4297 70.2708 88.1533 68.0527 86.3256C66.0865 84.7084 64.6022 82.5346 62.6526 80.8343C59.9886 78.5109 57.8619 75.6336 55.0982 73.3989C54.3588 72.8007 53.8243 71.9533 53.1569 71.2527C52.484 70.5465 52.5588 70.0619 53.2815 69.3502C57.6237 65.0884 61.9022 60.7628 66.2028 56.4622C69.1659 53.4991 72.1373 50.5471 75.081 47.5646C75.3496 47.2932 76.1139 47.0606 75.3994 46.4043C74.145 45.2523 72.9265 44.056 71.7219 42.8486C71.2788 42.4055 71.0628 42.364 70.5477 42.8708C65.8566 47.4788 61.2653 52.1893 56.5742 56.7917C53.7329 59.5776 51.1409 62.6265 48.0449 65.1521C47.732 65.4068 47.5548 65.5896 47.156 65.1798C46.1951 64.1939 45.2009 63.2247 44.1265 62.3662C42.6698 61.2031 41.7837 59.4585 40.3381 58.384C37.4886 56.26 35.3314 53.4548 32.7975 51.0373C30.0227 48.3926 27.2341 45.712 24.6449 42.8597C24.1436 42.3059 23.8196 42.3336 23.3239 42.8569C22.3132 43.9314 21.2913 45.0031 20.1809 45.9696C19.4304 46.6259 19.447 47.0994 20.1227 47.7613C23.4707 51.0594 26.7578 54.4157 30.0836 57.7361C34.0215 61.6656 37.9677 65.5868 41.9138 69.5108C42.4926 70.0868 42.5231 70.4053 42.0468 71.0921C40.064 73.9555 37.2144 75.9687 34.855 78.461C32.0913 81.3826 29.3387 84.365 26.2649 86.9875C23.983 88.9343 22.4267 91.6011 19.8762 93.2737C19.1867 93.7251 19.6381 94.2651 20.023 94.6638C21.1445 95.8241 22.3076 96.9401 23.4264 98.1032C23.8501 98.5463 24.1298 98.502 24.5507 98.0838C28.267 94.3703 32.0138 90.69 35.7329 86.9764C39.4464 83.2684 43.1434 79.541 46.8292 75.8025C47.3803 75.2459 47.7569 75.2736 48.3052 75.8247C52.6446 80.2029 57.0034 84.5616 61.3649 88.9204C64.3862 91.9389 67.4157 94.9491 70.4453 97.962C70.6308 98.1531 70.8385 98.3248 71.0933 98.5546Z" fill="#E8C5A2"/>
<path d="M76.305 -0.0911681C80.4644 -0.0911686 84.4271 -0.0330152 88.3844 -0.124401C89.6638 -0.154862 90.6053 0.252216 91.4416 1.11622C92.3056 2.01068 93.1502 2.92453 94.0309 3.79961C97.7721 7.52146 101.613 11.1464 105.238 14.979C107.7 17.5793 110.375 19.9581 112.784 22.6166C114.338 24.3307 116.118 25.912 117.827 27.5209C118.212 27.8837 118.403 27.8892 118.807 27.4766C121.862 24.3584 124.955 21.2818 128.037 18.1941C131.933 14.295 135.772 10.3322 139.762 6.5273C141.562 4.81037 143.201 2.95498 144.954 1.20206C145.81 0.346362 146.691 -0.152101 147.981 -0.121639C151.531 -0.0357932 155.084 -0.102255 158.637 -0.0801019C159.058 -0.0773327 159.684 -0.348718 159.856 0.213437C159.989 0.650976 159.532 1.03867 159.199 1.35436C155.66 4.70237 152.387 8.31623 148.793 11.6144C147.527 12.7775 146.45 14.2064 145.151 15.3612C142.274 17.9255 139.823 20.9135 136.926 23.475C135.334 24.8846 134.021 26.6818 132.401 28.1052C129.879 30.3234 127.735 32.9098 125.262 35.1834C123.075 37.1938 121.095 39.4508 118.904 41.4862C118.4 41.9542 118.17 41.9763 117.702 41.5305C115.803 39.7305 113.817 38.0329 112.15 35.9781C111.059 34.6351 109.508 33.6741 108.364 32.3643C105.736 29.3541 102.513 26.9366 99.9903 23.8129C99.0598 22.6581 97.678 21.8661 96.6727 20.7196C94.0059 17.6763 91.0179 14.9375 88.1573 12.0935C84.8675 8.82301 81.6967 5.41961 78.2407 2.3153C77.4957 1.65068 76.9391 0.825449 76.305 -0.0911681Z" fill="#E8C5A2"/>
<path d="M160.373 140.91C155.898 140.91 151.567 140.918 147.233 140.905C146.034 140.902 145.325 139.941 144.655 139.221C141.689 136.02 138.516 133.023 135.439 129.938C132.069 126.56 128.624 123.24 125.298 119.82C123.149 117.61 120.699 115.713 118.746 113.32C118.295 112.769 118.051 113.079 117.785 113.395C116.074 115.45 113.751 116.87 112.092 119.005C111.089 120.299 109.871 121.459 108.508 122.434C107.376 123.245 106.672 124.489 105.695 125.461C103.247 127.886 100.882 130.415 98.3398 132.719C95.6453 135.161 93.5158 138.157 90.5721 140.334C90.1429 140.653 89.7773 140.891 89.229 140.891C84.9422 140.877 80.6555 140.882 76.1527 140.882C76.7508 140.193 77.1911 139.575 77.7367 139.074C80.7441 136.305 83.4635 133.25 86.4653 130.47C89.0546 128.072 91.3946 125.411 93.8952 122.916C96.526 120.288 99.2343 117.734 101.873 115.115C103.601 113.4 105.246 111.606 106.963 109.878C108.484 108.347 110.056 106.868 111.591 105.35C113.122 103.833 114.637 102.296 116.154 100.762C116.606 100.305 117.013 99.798 117.484 99.3632C118.06 98.8315 118.605 98.9118 119.162 99.4878C123.216 103.686 127.342 107.812 131.546 111.866C134.287 114.511 136.818 117.377 139.582 119.994C142.385 122.647 145.079 125.413 147.812 128.13C151.457 131.749 155.142 135.338 158.668 139.08C159.191 139.633 159.955 139.957 160.373 140.91Z" fill="#E8C5A2"/>
<path d="M76.1195 70.3527C76.2274 69.8487 76.6567 69.7684 76.8921 69.4998C80.2318 65.6893 84.0339 62.3357 87.5204 58.6665C89.4783 56.6034 91.5773 54.676 93.549 52.6268C94.4241 51.7157 95.1109 51.9013 95.8807 52.6711C99.1235 55.9111 102.388 59.1345 105.615 62.3911C108.002 64.8004 110.336 67.2594 112.718 69.677C113.202 70.1699 113.191 70.5105 112.784 71.0754C111.341 73.0776 109.245 74.4318 107.661 76.2567C104.792 79.5632 101.35 82.2881 98.4949 85.6001C97.509 86.7438 96.2546 87.6493 95.1663 88.7072C94.726 89.1364 94.5017 88.9315 94.1666 88.613C90.1373 84.7804 86.1746 80.8869 82.3779 76.8216C80.9989 75.3456 79.4149 74.0607 77.9665 72.6456C77.3795 72.0724 76.9059 71.3801 76.3853 70.7404C76.2718 70.5992 76.1831 70.4468 76.1195 70.3527ZM94.6761 74.969C94.8257 74.8499 94.9309 74.7613 95.0417 74.6782C96.5675 73.5512 97.6226 71.9561 99.0183 70.6988C99.4004 70.3555 99.2537 70.0508 98.8909 69.8071C97.5007 68.8795 96.4844 67.553 95.2992 66.4093C94.8118 65.9385 94.5626 65.9468 94.1112 66.4259C93.0118 67.5918 91.929 68.7825 90.6136 69.7268C89.9906 70.1727 90.1567 70.6268 90.6303 71.0893C91.8072 72.2441 92.9675 73.4182 94.1444 74.5758C94.2967 74.7308 94.4989 74.8416 94.6761 74.969Z" fill="#E8C5A2"/>
<path d="M189.113 89.225C187.097 87.2672 184.975 85.8022 183.452 83.6893C182.641 82.565 181.348 81.8838 180.448 80.8647C177.49 77.5222 174.015 74.6948 171.088 71.3274C170.431 70.5714 170.423 70.2198 171.124 69.4361C174.4 65.7834 178.027 62.4797 181.467 58.996C183.414 57.0243 185.327 55.0111 187.296 53.0588C187.556 52.8013 187.828 52.5437 188.127 52.3332C188.758 51.8902 189.273 51.8154 189.215 52.84C188.98 56.9828 189.085 61.1283 189.046 65.2711C189.043 65.6062 188.974 65.8997 188.697 66.1296C187.36 67.2456 186.396 68.7548 184.934 69.7324C184.294 70.1616 184.305 70.4524 184.856 70.973C186.125 72.1721 187.329 73.4404 188.559 74.681C188.883 75.0078 189.254 75.3096 189.215 75.8385C188.883 80.2001 189.099 84.5644 189.113 89.225Z" fill="#E8C5A2"/>
<path d="M99.6469 140.309C101.461 138.634 103.313 137.003 105.075 135.277C108.223 132.195 111.316 129.058 114.435 125.942C115.473 124.907 116.528 123.885 117.539 122.824C118.054 122.287 118.433 122.171 118.99 122.81C120.64 124.718 122.615 126.316 124.31 128.166C126.882 130.971 129.809 133.414 132.307 136.294C133.385 137.534 134.694 138.573 135.891 139.714C136.176 139.988 136.663 140.248 136.514 140.689C136.37 141.118 135.863 140.885 135.528 140.888C131.657 140.905 127.785 140.86 123.914 140.918C122.543 140.941 121.964 139.822 121.05 139.204C120.303 138.7 119.685 137.975 119.084 137.285C118.55 136.67 118.159 136.579 117.522 137.194C116.401 138.277 115.396 139.489 114.097 140.387C113.753 140.622 113.463 140.902 113.003 140.902C108.683 140.896 104.363 140.899 100.046 140.899C99.91 140.697 99.777 140.503 99.6469 140.309Z" fill="#E8C5A2"/>
<path d="M107.002 -0.0911721C108.616 -0.0911723 110.239 0.00852002 111.843 -0.121634C113.236 -0.235173 114.23 0.318674 115.132 1.23806C115.972 2.09375 116.813 2.94668 117.644 3.81345C118.087 4.27314 118.464 4.50022 118.926 3.7996C121.167 0.40175 124.343 -0.611791 128.297 -0.141021C130.618 0.135902 132.997 -0.0994832 135.348 -0.0828681C135.686 -0.0800989 136.159 -0.271176 136.317 0.185748C136.436 0.529133 136.04 0.72298 135.855 0.972211C134.185 3.19314 131.853 4.75776 130.042 6.82915C127.439 9.80608 124.324 12.2679 121.743 15.267C120.879 16.2695 119.76 17.0532 118.799 17.9753C118.397 18.3603 118.134 18.2799 117.744 17.9726C115.789 16.4246 114.088 14.6273 112.419 12.783C111.128 11.3569 109.569 10.1716 108.268 8.751C106.03 6.30577 103.515 4.14576 101.234 1.75037C100.948 1.45129 100.677 1.1356 100.436 0.800523C100.007 0.202368 100.14 -0.102248 100.918 -0.0967098C102.942 -0.0800946 104.972 -0.0911718 107.002 -0.0911721Z" fill="#E8C5A2"/>
<path d="M66.2388 -0.0911668C61.772 4.72731 57.1114 8.94485 52.7858 13.4892C51.26 15.0926 49.6289 16.5603 48.0421 18.0861C47.8095 18.3104 47.6351 18.5569 47.2557 18.2135C45.3089 16.455 43.3427 14.7076 41.6701 12.6916C41.036 11.9273 40.2384 11.415 39.5627 10.731C36.6246 7.75409 33.6559 4.80762 30.6984 1.8473C30.6015 1.75038 30.5018 1.65346 30.4104 1.54823C30.0199 1.10238 29.3858 0.606686 29.5796 0.0611461C29.8261 -0.628394 30.5544 -0.0717774 31.0612 -0.077316C34.6556 -0.121624 38.2529 -0.0883938 41.8446 -0.157625C43.4978 -0.188087 44.2898 1.05807 45.1538 2.02453C47.4467 4.58885 47.4938 4.74392 49.7203 2.25161C51.3265 0.457144 53.0295 -0.304396 55.4692 -0.14655C58.9446 0.0777577 62.4394 -0.0911663 66.2388 -0.0911668Z" fill="#E8C5A2"/>
<path d="M0.516506 88.4303C0.516506 83.7475 0.513728 79.3776 0.519266 75.0106C0.519266 74.3847 1.01496 74.0524 1.39712 73.6647C2.30265 72.7509 3.20542 71.8287 4.13313 70.937C4.59835 70.4912 4.6648 70.181 4.09434 69.7324C3.15835 68.993 2.29157 68.165 1.39434 67.3758C0.926339 66.9632 0.558038 66.4287 0.552499 65.8333C0.516503 61.3776 0.533119 56.9247 0.677116 52.3831C1.67403 53.416 2.76789 54.28 3.77035 55.2382C6.83312 58.1653 9.75468 61.2391 12.8839 64.0998C14.8168 65.8665 16.6002 67.7995 18.4805 69.6272C19.0012 70.1339 19.1258 70.4745 18.5775 71.0976C17.1458 72.7204 15.5922 74.1909 13.9473 75.5976C12.5599 76.7856 11.4993 78.3613 10.1008 79.5355C6.8442 82.2715 4.28267 85.7552 0.516506 88.4303Z" fill="#E8C5A2"/>
<path d="M66.2499 140.882C61.689 140.882 57.3246 140.913 52.9631 140.863C51.7751 140.849 51.1631 139.703 50.2631 139.118C49.8865 138.875 49.6234 138.459 49.2994 138.135C47.4301 136.269 47.3526 136.205 45.6468 138.296C44.1182 140.171 42.3901 141.107 39.8701 140.938C36.752 140.727 33.6061 140.899 30.4741 140.88C30.0975 140.877 29.5492 141.126 29.3747 140.63C29.2529 140.281 29.6904 140.002 29.9397 139.753C34.855 134.834 39.7815 129.927 44.7052 125.015C45.4225 124.3 46.1646 123.608 46.8375 122.852C47.4274 122.19 47.8289 122.342 48.4022 122.913C51.332 125.823 54.176 128.817 57.1779 131.661C60.2573 134.574 63.14 137.703 66.2499 140.882Z" fill="#E8C5A2"/>
<path d="M0.510958 18.1858C0.510958 13.6498 0.50818 9.32148 0.519257 4.99039C0.519257 4.77162 0.574631 4.50578 0.702027 4.33685C1.92879 2.71408 3.40202 1.32115 4.92511 -0.0136201C5.32388 -0.362544 5.89157 -0.260082 6.39835 -0.260082C10.0897 -0.260083 13.7811 -0.265622 17.4725 -0.251776C17.863 -0.249007 18.4307 -0.478854 18.6051 -0.0330065C18.7851 0.429456 18.2978 0.789457 17.9876 1.10792C16.8273 2.29315 15.6393 3.45623 14.4679 4.63039C12.4879 6.61316 10.5882 8.68732 8.5002 10.5483C7.23189 11.6781 6.25157 13.0516 4.98326 14.1787C3.55158 15.4526 2.31928 16.948 0.510958 18.1858Z" fill="#E8C5A2"/>
<path d="M0.735291 122.464C6.88576 128.62 12.895 134.638 19.1341 140.885C15.2322 140.885 11.6322 140.6 8.09868 140.965C4.48482 141.337 2.91742 138.781 0.840503 136.834C0.535891 136.549 0.519274 136.089 0.519274 135.662C0.522051 131.473 0.519289 127.285 0.527589 123.096C0.524827 122.971 0.602357 122.846 0.735291 122.464Z" fill="#E8C5A2"/>
<path d="M189.043 122.805C189.043 123.752 189.043 124.976 189.043 126.2C189.043 129.29 189.041 132.384 189.043 135.474C189.043 135.984 189.054 136.443 188.611 136.856C187.775 137.637 187.022 138.506 186.208 139.312C184.973 140.533 183.549 141.029 181.741 140.957C178.061 140.81 174.372 140.913 170.908 140.913C176.928 134.904 183.018 128.822 189.043 122.805Z" fill="#E8C5A2"/>
<path d="M170.905 -0.0911805C175.189 -0.091181 179.473 -0.0911816 183.757 -0.0939514C184.255 -0.0939515 184.626 0.130357 184.967 0.476511C186.166 1.68944 187.376 2.89129 188.589 4.09037C188.863 4.36175 189.041 4.66083 189.041 5.0596C189.038 9.37961 189.041 13.7024 189.041 18.0252C188.913 18.1138 188.789 18.2024 188.661 18.291C182.663 12.3039 176.665 6.31683 170.667 0.326974C170.747 0.188512 170.825 0.0472814 170.905 -0.0911805Z" fill="#E8C5A2"/>
</g>
</svg>
