<svg width="563" height="356" viewBox="0 0 563 356" fill="none" xmlns="http://www.w3.org/2000/svg">
<path opacity="0.1" d="M338.163 731.041C337.986 746.802 338.119 753.044 341.165 753C344.608 752.911 343.681 743.127 344.299 729.137C345.138 707.355 343.107 623.281 345.315 610.177C356.043 547.531 340.723 542.396 323.197 531.106C292.558 511.316 313.749 498.699 363.945 480.99C388.315 472.445 433.611 458.588 427.739 434.858C421.073 408.206 263.553 451.725 261.478 436.186C257.637 408.338 378.426 405.859 540.052 337.37C647.949 291.592 679.824 228.149 669.008 209.555C654.439 184.408 586.495 205.083 523.584 243.777C490.297 264.231 455.067 296.816 431.801 312.001C426.9 315.189 423.104 312.931 427.607 306.777C456.612 266.312 487.251 226.378 501.422 197.646C531.619 136.594 548.263 61.9503 529.809 48.7128C508.618 33.6602 449.681 97.5011 421.338 158.11C402.972 197.38 386.99 249.4 377.366 281.63C375.424 286.545 372.157 286.456 373.128 280.966C378.337 249.621 387.476 203.534 389.242 164.707C392.288 98.9179 369.508 -1.31511 344.873 0.0130653C324.3 1.07561 289.423 64.6067 299.313 183.168C301.387 208.182 309.422 255.244 314.544 283.977C315.471 288.271 311.321 290.131 309.246 284.597C299.754 254.58 283.728 201.497 258.652 156.826C229.912 105.603 172.387 48.7571 148.989 58.01C126.694 66.776 136.583 150.23 184.704 218.764C206.204 249.312 239.801 283.8 260.992 305.139C265.716 309.921 261.743 312.356 258.387 310.053C229.735 290.308 183.071 254.669 162.498 242.494C104.576 208.227 14.6904 180.556 1.09278 210.883C-8.88467 233.241 51.1566 288.67 111.993 316.34C155.832 336.263 214.328 357.912 259.359 362.428C265.804 363.092 267.217 359.816 260.771 357.868C236.799 350.651 190.399 336.307 139.188 311.072C95.3929 289.467 60.6043 258.963 65.593 242.538C76.1885 207.651 200.289 280.701 265.937 321.564C289.953 336.528 294.191 334.802 275.252 312.311C256.93 290.574 231.899 258.476 204.924 216.196C168.325 158.907 159.717 118.929 170.754 110.783C183.645 101.264 215.343 126.19 250.264 183.921C278.43 230.584 297.149 276.141 309.378 301.553C319.974 323.512 324.654 323.866 322.225 295.488C319.312 261.575 316.442 212.123 317.987 158.199C319.665 98.6079 329.995 61.0206 344.211 58.0543C355.999 55.5751 369.375 95.7302 367.919 160.855C370.744 211.857 368.095 263.833 365.049 299.561C363.151 321.166 366.02 325.062 375.953 299.472C390.699 261.664 413.965 206.677 438.864 166.124C469.017 117.114 490.738 92.9853 501.952 94.9333C524.291 98.9178 508.53 150.318 477.008 203.667C455.596 244.884 427.121 289.201 411.272 317.403C402.177 333.562 403.105 340.557 419.395 329.312C446.546 310.585 490.562 281.232 531.796 258.21C585.259 228.371 627.023 219.251 633.292 234.613C639.694 250.153 599.122 282.737 551.839 308.415C462.439 356.982 351.142 390.718 284.081 408.25C233.973 421.354 209.074 438.311 235.165 449.423C267.084 463.059 388.359 427.597 394.849 452.08C398.734 466.69 332.468 478.422 306.111 492.899C283.199 505.561 273.927 519.905 317.987 544.299C346.86 560.282 331.32 585.163 332.644 632.534C332.6 632.534 337.545 713.907 338.163 731.041Z" fill="#C082B8"/>
</svg>
