<svg width="270" height="28" viewBox="0 0 270 28" fill="none" xmlns="http://www.w3.org/2000/svg">
<mask id="mask0_8202_12708" style="mask-type:luminance" maskUnits="userSpaceOnUse" x="0" y="0" width="270" height="28">
<path d="M270 0H0V28H270V0Z" fill="white"/>
</mask>
<g mask="url(#mask0_8202_12708)">
<path d="M53.7584 0V16.6354C53.7584 21.8099 51.218 24.4365 46.3292 24.4365C41.3532 24.4365 38.8215 21.8099 38.8215 16.6354V0H35.2422V17.0907C35.2422 27.2208 43.7015 28 46.3292 28C48.9046 28 57.3464 27.2208 57.3464 17.0907V0H53.7584Z" fill="white"/>
</g>
<mask id="mask1_8202_12708" style="mask-type:luminance" maskUnits="userSpaceOnUse" x="0" y="0" width="270" height="28">
<path d="M270 0H0V28H270V0Z" fill="white"/>
</mask>
<g mask="url(#mask1_8202_12708)">
<path d="M150.138 0V16.6354C150.138 21.8099 147.598 24.4365 142.7 24.4365C137.724 24.4365 135.193 21.8099 135.193 16.6354V0H131.613V17.0907C131.613 27.2208 140.073 28 142.7 28C145.284 28 153.726 27.2208 153.726 17.0907V0H150.138Z" fill="white"/>
</g>
<mask id="mask2_8202_12708" style="mask-type:luminance" maskUnits="userSpaceOnUse" x="0" y="0" width="270" height="28">
<path d="M270 0H0V28H270V0Z" fill="white"/>
</mask>
<g mask="url(#mask2_8202_12708)">
<path d="M112.843 0V16.6354C112.843 21.8099 110.303 24.4365 105.414 24.4365V28C107.981 28 116.431 27.2208 116.431 17.0907V0H112.843Z" fill="white"/>
</g>
<mask id="mask3_8202_12708" style="mask-type:luminance" maskUnits="userSpaceOnUse" x="0" y="0" width="270" height="28">
<path d="M270 0H0V28H270V0Z" fill="white"/>
</mask>
<g mask="url(#mask3_8202_12708)">
<path d="M93.4258 27.5797L87.3497 14.3852C88.5894 14.0175 89.637 13.4134 90.4663 12.5553C92.5528 10.4628 92.5528 7.66979 92.5528 7.41589C92.5528 7.15322 92.5528 4.36898 90.4663 2.27642C89.0433 0.805503 86.9918 0.0612883 84.3728 0H84.303H72.7969V3.10819H84.2768C85.1934 3.15197 86.6688 3.37961 87.664 4.3252C88.4584 5.04315 88.8513 6.0763 88.8513 7.41589C88.8513 8.76423 88.4671 9.78862 87.664 10.5066C86.6688 11.4522 85.1934 11.6798 84.2768 11.7236H76.3849H72.7969V14.8318V27.5797H76.3849V14.8318H83.9101L89.5322 27.5797H93.4258Z" fill="white"/>
</g>
<mask id="mask4_8202_12708" style="mask-type:luminance" maskUnits="userSpaceOnUse" x="0" y="0" width="270" height="28">
<path d="M270 0H0V28H270V0Z" fill="white"/>
</mask>
<g mask="url(#mask4_8202_12708)">
<path d="M192.599 0L182.175 14.8318L171.76 0H168.984V27.5797H172.572L172.581 6.11132L182.062 19.8136H182.298L191.778 6.11132L191.787 27.5797H195.375V0H192.599Z" fill="white"/>
</g>
<mask id="mask5_8202_12708" style="mask-type:luminance" maskUnits="userSpaceOnUse" x="0" y="0" width="270" height="28">
<path d="M270 0H0V28H270V0Z" fill="white"/>
</mask>
<g mask="url(#mask5_8202_12708)">
<path d="M236.022 27.5797L223.451 0H219.872L207.301 27.5797H210.889L221.653 3.93996L227.912 17.6685H221.452V20.8555H229.361L232.426 27.5797H236.022Z" fill="white"/>
</g>
<mask id="mask6_8202_12708" style="mask-type:luminance" maskUnits="userSpaceOnUse" x="0" y="0" width="270" height="28">
<path d="M270 0H0V28H270V0Z" fill="white"/>
</mask>
<g mask="url(#mask6_8202_12708)">
<path d="M266.411 0V21.4772L249.702 0H246.926V27.5797H250.523V6.11132L267.223 27.5797H269.999V0H266.411Z" fill="white"/>
</g>
<mask id="mask7_8202_12708" style="mask-type:luminance" maskUnits="userSpaceOnUse" x="0" y="0" width="270" height="28">
<path d="M270 0H0V28H270V0Z" fill="white"/>
</mask>
<g mask="url(#mask7_8202_12708)">
<path d="M14.8671 10.4803C13.8719 11.4171 12.3965 11.6798 11.4537 11.7235H3.58801V3.10816H11.4886C12.3965 3.15194 13.8806 3.37958 14.8758 4.33393C15.679 5.05187 16.0631 6.07626 16.0631 7.42461C16.0544 8.74668 15.6703 9.79734 14.8671 10.4803ZM18.9003 13.9912C18.4551 13.5359 17.9837 13.1419 17.4163 12.818C17.5036 12.7217 17.5821 12.6341 17.6694 12.5553C19.7559 10.4277 19.7559 7.65225 19.7559 7.4071C19.7559 7.14443 19.7559 4.36019 17.6694 2.26763C16.2552 0.796714 14.2036 0.0524992 11.5846 -0.00878906H11.5235H0V14.8055L12.7195 14.8142C13.6449 14.8668 15.0854 15.1119 16.1242 16.0487C16.9012 16.7755 17.3115 17.7911 17.3115 19.1394V20.1638C17.3115 21.4947 16.9012 22.5453 16.1242 23.2633C15.0941 24.1913 13.6449 24.4277 12.7195 24.4628H0V27.5709H12.7545H12.8068C15.4258 27.5272 17.5036 26.7567 18.9003 25.3033C21.0043 23.202 21.0043 20.4002 21.0043 20.1551V19.1307C21.0043 18.9118 21.0043 16.1275 18.9003 13.9912Z" fill="white"/>
</g>
</svg>
