<svg width="500" height="53" viewBox="0 0 500 53" fill="none" xmlns="http://www.w3.org/2000/svg">
<path d="M99.5453 0.873047V31.5376C99.5453 41.0795 94.8432 45.9193 85.8064 45.9193C76.6043 45.9193 71.9205 41.0795 71.9205 31.5376V0.873047H65.3083V32.3733C65.3083 51.0439 80.939 52.4949 85.8064 52.4949C90.5636 52.4949 106.185 51.0531 106.185 32.3733V0.873047H99.5453Z" fill="black"/>
<path d="M277.719 0.873047V31.5376C277.719 41.0795 273.008 45.9193 263.971 45.9193C254.76 45.9193 250.085 41.0795 250.085 31.5376V0.873047H243.473V32.3733C243.473 51.0439 259.104 52.4949 263.962 52.4949C268.719 52.4949 284.341 51.0531 284.341 32.3733V0.873047H277.719Z" fill="black"/>
<path d="M208.768 0.873047V31.5376C208.768 41.0795 204.066 45.9193 195.029 45.9193V52.4949C199.777 52.4949 215.398 51.0531 215.398 32.3733V0.873047H208.768Z" fill="black"/>
<path d="M172.868 51.7143L161.628 27.3957C163.933 26.7069 165.87 25.6049 167.395 24.0253C171.261 20.1681 171.261 15.0252 171.261 14.5477C171.261 14.0609 171.261 8.9272 167.395 5.07002C164.787 2.35163 160.985 0.983252 156.145 0.873047H134.747V6.60371H155.98C157.66 6.68636 160.406 7.10881 162.243 8.85373C163.721 10.167 164.429 12.068 164.429 14.5477C164.429 17.0181 163.721 18.9283 162.243 20.2416C160.406 21.9865 157.66 22.3998 155.98 22.4916H134.747V51.7235H141.387V28.2131H155.291L165.678 51.7143H172.868Z" fill="black"/>
<path d="M356.222 0.873047L336.954 28.2131L317.687 0.873047H312.553V51.7143H319.184L319.211 12.1415L336.725 37.3968H337.166L354.697 12.1415L354.707 51.7143H361.347V0.873047H356.222Z" fill="black"/>
<path d="M436.479 51.7143L413.244 0.873047H406.613L383.388 51.7143H390.018L409.929 8.13739L421.491 33.4478H409.543V39.3254H424.173L429.839 51.7143H436.479Z" fill="black"/>
<path d="M492.656 0.873047V40.455L461.78 0.873047H456.637V51.7143H463.277V12.1415L494.162 51.7143H499.286V0.873047H492.656Z" fill="black"/>
<path d="M35.0938 26.6702C34.2856 25.8253 33.404 25.0998 32.3478 24.5028C32.5131 24.3375 32.6693 24.1722 32.8162 24.0345C36.6734 20.113 36.6734 14.9977 36.6734 14.5477C36.6734 14.0701 36.6734 8.9272 32.8162 5.07002C30.208 2.36081 26.4059 0.983252 21.5661 0.873047H0.167969V28.1855L23.6784 28.1947C25.3774 28.2865 28.059 28.7457 29.9692 30.4631C31.4019 31.8131 32.1642 33.6774 32.1642 36.157V38.0581C32.1642 40.5193 31.4019 42.4479 29.9692 43.7703C28.059 45.4785 25.3774 45.9193 23.6784 45.9836H0.167969V51.7235H23.8437C28.6927 51.6408 32.5131 50.2173 35.0938 47.5357C38.9877 43.6693 38.9877 38.4897 38.9877 38.0489V36.1478C38.9877 35.7254 38.9877 30.6008 35.0938 26.6702ZM27.6549 20.2048C25.8182 21.9314 23.0722 22.4089 21.3549 22.4916H6.78945V6.60371H21.4008C23.0722 6.68636 25.8182 7.10881 27.6549 8.85373C29.1335 10.167 29.8407 12.068 29.8407 14.5477C29.8407 16.9905 29.1335 18.9283 27.6549 20.2048Z" fill="black"/>
</svg>
