<svg width="22" height="22" viewBox="0 0 22 22" fill="none" xmlns="http://www.w3.org/2000/svg">
<path d="M20.625 2.05962L15.1202 2.05964V0.689453C15.1202 0.309609 14.8125 0.00195312 14.4327 0.00195312C14.0528 0.00195312 13.7452 0.309609 13.7452 0.689453V2.0593H8.24519V0.689453C8.24519 0.309609 7.93753 0.00195312 7.55769 0.00195312C7.17784 0.00195312 6.87019 0.309609 6.87019 0.689453V2.0593H1.375C0.615656 2.0593 0 2.67495 0 3.4343V20.6218C0 21.3811 0.615656 21.9968 1.375 21.9968H20.625C21.3843 21.9968 22 21.3811 22 20.6218V3.4343C22 2.67528 21.3843 2.05962 20.625 2.05962ZM20.625 20.6218H1.375V3.4343H6.87019V4.12695C6.87019 4.50678 7.17784 4.81445 7.55769 4.81445C7.93753 4.81445 8.24519 4.50678 8.24519 4.12695V3.43464H13.7452V4.1273C13.7452 4.50714 14.0528 4.8148 14.4327 4.8148C14.8125 4.8148 15.1202 4.50714 15.1202 4.1273V3.43464H20.625V20.6218ZM15.8125 10.9971H17.1875C17.567 10.9971 17.875 10.6891 17.875 10.3096V8.93462C17.875 8.55512 17.567 8.24712 17.1875 8.24712H15.8125C15.433 8.24712 15.125 8.55512 15.125 8.93462V10.3096C15.125 10.6891 15.433 10.9971 15.8125 10.9971ZM15.8125 16.4968H17.1875C17.567 16.4968 17.875 16.1891 17.875 15.8093V14.4343C17.875 14.0548 17.567 13.7468 17.1875 13.7468H15.8125C15.433 13.7468 15.125 14.0548 15.125 14.4343V15.8093C15.125 16.1895 15.433 16.4968 15.8125 16.4968ZM11.6875 13.7468H10.3125C9.933 13.7468 9.625 14.0548 9.625 14.4343V15.8093C9.625 16.1891 9.933 16.4968 10.3125 16.4968H11.6875C12.067 16.4968 12.375 16.1891 12.375 15.8093V14.4343C12.375 14.0551 12.067 13.7468 11.6875 13.7468ZM11.6875 8.24712H10.3125C9.933 8.24712 9.625 8.55512 9.625 8.93462V10.3096C9.625 10.6891 9.933 10.9971 10.3125 10.9971H11.6875C12.067 10.9971 12.375 10.6891 12.375 10.3096V8.93462C12.375 8.55478 12.067 8.24712 11.6875 8.24712ZM6.1875 8.24712H4.8125C4.433 8.24712 4.125 8.55512 4.125 8.93462V10.3096C4.125 10.6891 4.433 10.9971 4.8125 10.9971H6.1875C6.567 10.9971 6.875 10.6891 6.875 10.3096V8.93462C6.875 8.55478 6.567 8.24712 6.1875 8.24712ZM6.1875 13.7468H4.8125C4.433 13.7468 4.125 14.0548 4.125 14.4343V15.8093C4.125 16.1891 4.433 16.4968 4.8125 16.4968H6.1875C6.567 16.4968 6.875 16.1891 6.875 15.8093V14.4343C6.875 14.0551 6.567 13.7468 6.1875 13.7468Z" fill="white"/>
</svg>
