<svg width="49" height="49" viewBox="0 0 49 49" fill="none" xmlns="http://www.w3.org/2000/svg">
<path fill-rule="evenodd" clip-rule="evenodd" d="M49 24.5C49 38.0314 38.0314 49 24.5 49C10.9686 49 0 38.0314 0 24.5C0 10.9686 10.9686 0 24.5 0C38.0314 0 49 10.9686 49 24.5ZM17.0765 17.0765C17.421 16.7324 17.8881 16.5391 18.375 16.5391C18.8619 16.5391 19.329 16.7324 19.6735 17.0765L24.5 21.903L29.3265 17.0765C29.6748 16.7519 30.1355 16.5752 30.6116 16.5836C31.0876 16.592 31.5418 16.7849 31.8785 17.1215C32.2151 17.4582 32.408 17.9124 32.4164 18.3884C32.4248 18.8645 32.2481 19.3252 31.9235 19.6735L27.097 24.5L31.9235 29.3265C32.2481 29.6748 32.4248 30.1355 32.4164 30.6116C32.408 31.0876 32.2151 31.5418 31.8785 31.8785C31.5418 32.2151 31.0876 32.408 30.6116 32.4164C30.1355 32.4248 29.6748 32.2481 29.3265 31.9235L24.5 27.097L19.6735 31.9235C19.3252 32.2481 18.8645 32.4248 18.3884 32.4164C17.9124 32.408 17.4582 32.2151 17.1215 31.8785C16.7849 31.5418 16.592 31.0876 16.5836 30.6116C16.5752 30.1355 16.7519 29.6748 17.0765 29.3265L21.903 24.5L17.0765 19.6735C16.7324 19.329 16.5391 18.8619 16.5391 18.375C16.5391 17.8881 16.7324 17.421 17.0765 17.0765Z" fill="black"/>
</svg>
