<svg width="37" height="37" viewBox="0 0 37 37" fill="none" xmlns="http://www.w3.org/2000/svg">
<path fill-rule="evenodd" clip-rule="evenodd" d="M36.4173 18.4998C36.4173 8.60482 28.3957 0.583172 18.5007 0.583172C8.60554 0.583172 0.583984 8.60482 0.583984 18.4998C0.583984 28.3949 8.60554 36.4165 18.5007 36.4165C28.3957 36.4165 36.4173 28.3949 36.4173 18.4998ZM13.0712 23.9292C13.596 24.454 14.4468 24.454 14.9716 23.9292L18.5007 20.4003L22.0295 23.9292C22.5543 24.4539 23.4052 24.4539 23.9299 23.9292C24.4547 23.4044 24.4547 22.5536 23.9299 22.0289L20.4009 18.4998L23.9299 14.971C24.4547 14.4462 24.4547 13.5953 23.9299 13.0706C23.4052 12.5458 22.5543 12.5458 22.0295 13.0706L18.5007 16.5994L14.9716 13.0706C14.4469 12.5458 13.596 12.5458 13.0713 13.0706C12.5465 13.5953 12.5465 14.4462 13.0713 14.9708L16.6002 18.4998L13.0712 22.0289C12.5465 22.5536 12.5465 23.4045 13.0712 23.9292Z" fill="white"/>
</svg>
