<svg width="92" height="123" viewBox="0 0 92 123" fill="none" xmlns="http://www.w3.org/2000/svg">
<g opacity="0.1">
<path d="M69.276 0.117565C69.8763 0.117565 70.4983 0.22043 71.0753 0.101324C73.4371 -0.38954 74.8109 0.974773 76.0369 2.64768C76.4173 3.16742 77.0086 3.45075 77.4287 3.8983C79.3182 5.90687 81.3176 7.80176 83.2593 9.75619C85.0496 11.559 86.8075 13.3907 88.6158 15.1755C89.0359 15.5888 88.6915 15.7278 88.4842 15.9461C87.2095 17.2942 85.8609 18.5791 84.5971 19.9236C82.6896 21.9538 80.6235 23.8198 78.707 25.841C77.3548 27.2667 76.0513 28.7844 74.5441 30.0386C72.6708 31.5978 71.2988 33.6389 69.3499 35.1205C68.407 35.837 67.8318 36.9793 66.8889 37.7318C65.0103 39.2297 63.6761 41.2852 61.747 42.7289C61.473 42.9328 61.2728 43.2306 60.9537 42.8047C60.0865 41.6497 58.9146 40.7925 57.9483 39.7278C56.524 38.1577 54.9663 36.7104 53.4662 35.2089C52.2186 33.9619 50.9836 32.7041 49.718 31.4769C49.2727 31.0456 49.1771 30.7497 49.6837 30.2534C53.0245 26.9797 56.3563 23.6989 59.643 20.3711C61.1611 18.8336 62.625 17.2437 64.2296 15.7927C64.4333 15.6087 64.5667 15.4661 64.2494 15.2405C63.2921 14.5547 62.5817 13.6073 61.738 12.8024C61.5415 12.6147 61.28 12.2159 61.033 12.6581C60.2344 14.0982 58.7271 14.8417 57.7409 16.0743C56.2553 17.9349 54.3605 19.3786 52.7613 21.1273C51.1098 22.9337 49.2564 24.5579 47.5942 26.3644C47.2101 26.7812 46.6296 26.9581 46.26 27.4129C46.1176 27.5879 45.9138 27.6276 45.7155 27.4273C44.3886 26.1009 43.0346 24.8015 41.7167 23.4643C40.7575 22.4916 39.7749 21.5297 38.8104 20.557C37.1968 18.9274 35.5056 17.3772 33.9768 15.661C33.023 14.5908 31.7844 13.7986 30.9118 12.6328C30.7532 12.4217 30.5819 12.4271 30.425 12.6869C29.8553 13.629 29.0098 14.3129 28.1714 14.9915C27.7513 15.3307 27.6918 15.5599 28.1191 15.9714C29.7796 17.5703 31.4599 19.1566 33.0212 20.8494C34.4455 22.3923 36.0844 23.7169 37.4546 25.2942C38.9871 27.0573 40.9072 28.4289 42.317 30.3111C42.6722 30.7839 42.7317 30.9734 42.3369 31.4697C41.1343 32.9838 39.564 34.1243 38.2911 35.5428C36.3296 37.73 34.1282 39.67 32.1288 41.8158C30.7964 43.245 30.8217 43.1205 29.4028 41.8428C27.6936 40.3017 26.1774 38.5746 24.5223 36.9811C22.8222 35.3443 21.1184 33.6984 19.5066 31.975C18.4068 30.7966 17.1268 29.8022 16.0973 28.5732C14.5252 26.6964 12.6952 25.065 10.9644 23.3614C9.28771 21.7102 7.77146 19.8857 5.9379 18.3806C5.04186 17.6461 4.3243 16.6914 3.51659 15.8451C3.26419 15.5798 3.25157 15.4246 3.54905 15.1232C7.34237 11.2865 11.1375 7.44985 14.9939 3.67453C16.0198 2.66934 17.0438 1.65152 18.0102 0.583165C18.3185 0.243891 18.652 0.112152 19.1118 0.113956C21.634 0.132003 24.1581 0.11937 26.6804 0.128393C26.8967 0.128393 27.2068 -0.017783 27.315 0.279984C27.3979 0.50376 27.1311 0.626476 27.0049 0.78348C25.8835 2.1875 24.4899 3.31901 23.226 4.58226C21.095 6.71355 19.1046 8.99282 16.8924 11.0339C15.4825 12.335 14.3359 13.8888 12.8304 15.0727C12.3581 15.4444 12.4825 15.6357 12.816 15.966C14.4332 17.5667 16.0847 19.1367 17.6316 20.8042C19.402 22.7118 21.2771 24.5218 23.116 26.3535C25.3192 28.5498 27.4701 30.8056 29.7453 32.9333C30.7514 33.8735 30.7225 33.906 31.743 32.8864C32.2316 32.3973 32.6787 31.8577 33.2141 31.4282C33.7893 30.968 33.6414 30.6955 33.1853 30.248C31.0705 28.1762 28.9953 26.0648 26.9003 23.9714C25.806 22.8796 24.6485 21.8455 23.6136 20.7014C22.1172 19.0447 20.3233 17.6804 18.9315 15.9209C18.6556 15.5726 18.6701 15.4246 18.9729 15.0691C19.8906 13.9917 20.9309 13.0406 21.9189 12.0373C24.47 9.45301 27.059 6.90845 29.6047 4.32059C30.7045 3.20171 30.7622 3.1999 31.889 4.35668C33.6847 6.19923 35.5814 7.94432 37.3212 9.83379C38.841 11.4832 40.5448 12.9378 42.0394 14.6179C43.1842 15.9064 44.5833 16.9748 45.6993 18.3192C46.0869 18.7866 46.3285 18.2669 46.5485 18.0467C49.1248 15.4823 51.694 12.9089 54.2595 10.3355C56.423 8.16629 58.6045 6.01154 60.732 3.80626C61.3468 3.16742 61.8516 3.55542 62.1689 3.92718C62.9838 4.88364 64.0241 5.62535 64.729 6.67746C64.8119 6.80198 64.8967 6.93913 65.0139 7.02215C66.6113 8.1699 67.7237 9.82116 69.1678 11.1007C70.5668 12.3404 71.7586 13.7589 73.1107 15.0258C73.5633 15.4499 73.4569 15.6231 73.1198 16.0039C71.8271 17.4638 70.3361 18.7325 69.0181 20.1546C67.0818 22.2443 65.0139 24.1988 63.0018 26.2019C61.646 27.5518 60.4255 29.037 58.9831 30.2967C58.4567 30.7551 58.5378 31.0727 58.994 31.5293C59.67 32.2042 60.4435 32.7943 60.9645 33.619C61.1575 33.924 61.3774 33.8897 61.6244 33.6479C62.7332 32.5597 63.8762 31.5076 64.9616 30.3941C66.8186 28.4902 68.7116 26.6242 70.5867 24.7384C71.5116 23.809 72.4761 22.9157 73.374 21.9538C74.4359 20.8169 75.5681 19.7467 76.6805 18.6585C77.5585 17.7995 78.3338 16.8412 79.2947 16.0634C79.7148 15.7242 79.6788 15.3813 79.2461 14.9572C75.9089 11.6799 72.5699 8.4027 69.2994 5.05869C67.9184 3.64746 66.4941 2.27953 65.1112 0.871908C64.949 0.705881 64.6785 0.545267 64.7651 0.289007C64.8624 -0.00695515 65.1797 0.126589 65.3979 0.124784C66.6924 0.110347 67.9851 0.117565 69.276 0.117565Z" fill="white"/>
<path d="M27.3312 122.843C26.9887 123.086 26.6497 122.974 26.3378 122.974C23.9346 122.985 21.5313 122.965 19.1298 122.989C18.5691 122.994 18.1238 122.812 17.7704 122.424C17.1232 121.715 16.3461 121.107 15.7584 120.377C14.3467 118.631 12.6519 117.156 11.0762 115.602C9.27148 113.825 7.64165 111.856 5.64583 110.262C4.83452 109.615 4.20531 108.739 3.48234 107.978C3.26599 107.75 3.31106 107.629 3.522 107.398C4.71192 106.095 5.8766 104.784 7.2396 103.639C8.30873 102.741 9.16692 101.593 10.1567 100.595C12.7962 97.9385 15.4519 95.3001 18.1148 92.6671C18.4177 92.3675 18.3437 92.1889 18.0895 91.9362C15.2049 89.0668 12.2769 86.2371 9.46079 83.2992C7.57314 81.3375 5.49258 79.5672 3.74376 77.4702C3.41743 77.0804 3.39039 76.844 3.72573 76.4163C4.30447 75.6782 4.96974 75.0357 5.626 74.3788C8.39888 71.6033 11.1159 68.7718 13.9627 66.0756C15.5889 64.5363 17.134 62.9085 18.7386 61.3529C20.3738 59.7666 22.0127 58.1442 23.5704 56.4551C25.6744 54.1722 28.0434 52.1383 30.1943 49.8952C31.9178 48.0977 33.6703 46.3346 35.4407 44.5859C37.4402 42.6098 39.4216 40.6139 41.4048 38.6215C42.7786 37.241 44.147 35.8568 45.5028 34.4582C45.7967 34.155 45.9769 34.0576 46.379 34.3698C47.1669 34.9834 47.8448 35.6944 48.5443 36.3964C50.9944 38.8579 53.5474 41.2238 55.8966 43.7774C57.5787 45.6055 59.5384 47.1467 61.1016 49.0993C61.9345 50.1406 63.137 50.8805 64.0024 51.9019C65.4953 53.6651 67.2459 55.1701 68.8685 56.7889C70.5795 58.4961 72.2526 60.2574 73.987 61.9466C76.0188 63.9263 78.0796 65.8861 79.9726 68.0138C81.2617 69.4629 82.8627 70.6071 84.0905 72.1374C84.8171 73.0434 85.8609 73.6515 86.6236 74.5466C87.2239 75.2523 87.8622 75.9254 88.5022 76.5967C88.7925 76.9017 88.6699 77.1147 88.4301 77.3547C87.123 78.663 85.9944 80.1338 84.5286 81.305C83.4613 82.1586 82.7293 83.3894 81.6728 84.2845C79.7725 85.8925 78.2563 87.8902 76.356 89.5126C75.5068 90.2381 74.8379 91.2017 73.9978 91.9705C73.6751 92.2665 73.8139 92.4072 74.0663 92.6707C75.8061 94.4826 77.6667 96.1808 79.3759 98.0143C81.049 99.8081 82.8699 101.45 84.5592 103.228C85.8321 104.567 87.1176 105.911 88.4535 107.196C88.8898 107.617 88.7762 107.814 88.4157 108.185C86.9192 109.728 85.257 111.136 83.8687 112.742C82.3723 114.471 80.5982 115.891 79.0946 117.606C77.6451 119.257 75.9179 120.681 74.4485 122.341C74.1005 122.734 73.6444 122.98 73.1035 122.982C70.4298 122.987 67.7579 122.983 65.0842 122.976C64.9778 122.976 64.8714 122.918 64.4333 122.794C65.4989 121.801 66.4364 120.978 67.3216 120.098C71.2826 116.16 75.222 112.201 79.1866 108.266C79.6211 107.835 79.6896 107.532 79.201 107.112C77.2683 105.449 75.5645 103.546 73.7652 101.75C71.4539 99.4418 69.1083 97.1607 66.8619 94.7858C66.2236 94.1126 65.5493 93.472 64.8769 92.8331C64.4676 92.4433 64.5776 92.1347 64.9364 91.781C66.4706 90.2669 67.9977 88.7456 69.5157 87.2135C71.4773 85.2356 73.4191 83.2378 75.3842 81.2653C76.6318 80.0129 77.8903 78.7695 79.1794 77.5604C79.6427 77.1273 79.6319 76.8458 79.1902 76.409C76.6264 73.8825 74.0771 71.3416 71.5422 68.788C69.202 66.4293 66.8979 64.0346 64.5541 61.6777C62.6971 59.8099 60.7951 57.9872 58.9345 56.123C57.0342 54.2191 55.1736 52.2755 53.2751 50.3698C51.694 48.7799 50.084 47.2207 48.4902 45.6416C47.8556 45.0118 47.2318 44.3693 46.6026 43.7341C46.1825 43.31 45.876 43.1837 45.4018 43.79C44.7257 44.6545 43.927 45.4196 43.0761 46.1451C42.0105 47.0528 41.1812 48.2385 40.1211 49.1553C38.311 50.7199 36.9011 52.6779 35.0152 54.1668C34.0561 54.9229 33.4287 56.0382 32.484 56.8376C30.6089 58.4239 28.9881 60.2809 27.2627 62.0152C25.2813 64.0075 23.2999 66.0125 21.3005 67.9849C19.4958 69.7661 17.8083 71.6682 15.8882 73.3484C14.7361 74.3572 13.7157 75.5717 12.6682 76.7231C12.4933 76.9162 12.4879 77.0262 12.7042 77.2265C14.078 78.497 15.2608 79.9534 16.6472 81.2256C17.5775 82.0792 18.5186 82.9653 19.3101 83.9994C20.1196 85.0569 21.3239 85.7589 22.1929 86.8002C23.5541 88.4316 25.2254 89.7634 26.6786 91.3154C27.4647 92.1564 27.4701 92.5751 26.675 93.2843C25.916 93.961 25.3048 94.8038 24.5439 95.4769C23.1936 96.6716 22.0848 98.1063 20.7326 99.2811C18.9693 100.813 17.4964 102.629 15.7548 104.19C14.682 105.152 13.6976 106.272 12.6916 107.337C12.2463 107.81 12.7349 108.003 12.9206 108.196C14.3142 109.638 15.7782 111.013 17.1484 112.477C19.0919 114.554 21.1797 116.487 23.1395 118.551C24.5061 119.993 26.0133 121.309 27.3312 122.843Z" fill="white"/>
<path d="M30.8109 64.899C31.0579 65.0849 31.3734 65.2708 31.6222 65.5216C33.1132 67.0213 34.505 68.6346 36.1006 70.0116C37.2797 71.0294 38.1289 72.3269 39.3567 73.3159C40.296 74.072 41.3074 74.9004 41.9276 76.0373C42.1079 76.3675 42.4126 76.6888 42.7407 76.8656C43.9144 77.4972 44.5779 78.645 45.51 79.5166C45.8273 79.8144 45.9824 79.957 46.3664 79.6087C48.4541 77.721 50.3742 75.6637 52.3809 73.693C54.09 72.0147 55.7686 70.3057 57.4543 68.6057C58.6135 67.4363 59.7692 66.2651 60.9123 65.0795C61.116 64.8665 61.2422 64.6482 61.5505 64.9333C62.6485 65.9421 63.8312 66.8588 64.7056 68.1022C65.0247 68.557 65.4953 68.9125 65.9262 69.2789C66.8384 70.0513 67.7056 70.8688 68.452 71.8072C69.3715 72.9622 70.6732 73.7201 71.5999 74.8679C71.7496 75.0519 71.9623 75.1909 72.0885 75.3876C72.4599 75.9633 73.3722 76.3982 73.2496 77.001C73.1162 77.647 72.4401 78.2335 71.8974 78.7316C69.6059 80.8395 67.5704 83.2017 65.241 85.2735C64.3576 86.0603 63.6941 87.1106 62.7566 87.8577C61.2728 89.0416 60.3119 90.7289 58.792 91.8695C58.426 92.1438 58.4098 92.4109 58.7614 92.7393C60.5859 94.4447 62.2987 96.2728 64.0403 98.0558C65.3907 99.4381 66.9376 100.633 68.1455 102.138C69.4653 103.78 71.2177 104.971 72.5428 106.604C73.4172 107.684 73.4118 107.573 72.5771 108.617C70.8517 110.773 68.7153 112.524 66.8204 114.511C65.4862 115.909 64.1268 117.31 62.7494 118.677C62.3924 119.031 61.8804 119.203 61.5469 119.607C61.3395 119.858 61.152 119.755 60.9501 119.553C56.1688 114.763 51.3749 109.985 46.6062 105.182C46.1194 104.691 45.9102 104.634 45.4072 105.218C44.5346 106.236 43.5015 107.124 42.5767 108.091C40.9468 109.795 39.1728 111.354 37.6096 113.128C36.4612 114.431 35.0261 115.462 33.9047 116.802C33.0537 117.82 31.9954 118.62 31.0651 119.553C30.8469 119.771 30.645 119.856 30.3782 119.592C27.9316 117.169 25.4346 114.792 23.0439 112.314C21.9441 111.174 20.7921 110.089 19.6707 108.974C18.5493 107.859 18.5997 107.292 19.777 106.222C21.0769 105.04 22.339 103.814 23.5271 102.51C24.6485 101.279 25.9124 100.18 27.0969 99.0068C29.1378 96.9856 31.1498 94.9355 33.2105 92.936C33.6955 92.465 33.7099 92.2178 33.2195 91.7359C30.0735 88.6464 26.9616 85.5225 23.8408 82.4077C22.4201 80.991 20.9976 79.5762 19.5895 78.1469C18.5294 77.0713 18.497 77.0244 19.5319 75.9092C20.6046 74.7524 21.7909 73.7039 22.8871 72.5687C25.2976 70.0765 27.7441 67.6186 30.2429 65.2166C30.3962 65.0722 30.5026 64.8683 30.8109 64.899ZM64.3648 76.9847C64.2206 76.8259 64.107 76.6942 63.9862 76.5715C63.5066 76.0752 63.0451 75.5572 62.5349 75.0934C62.1202 74.7163 61.8119 74.0648 61.262 74.0359C60.8185 74.0125 60.64 74.6928 60.3227 75.0393C59.0751 76.4054 57.5931 77.5207 56.4032 78.9662C55.3503 80.2475 53.935 81.2148 52.828 82.4853C51.3154 84.2214 49.4421 85.6073 47.9872 87.4084C47.5978 87.8902 47.0461 88.2385 46.5899 88.6734C46.1302 89.1119 45.8147 89.0632 45.3513 88.5922C42.5767 85.7625 39.7605 82.9743 36.9606 80.1717C35.0315 78.2408 33.1096 76.3044 31.1678 74.386C30.9911 74.211 30.8397 73.7129 30.4124 74.1785C29.6624 74.996 28.8835 75.79 28.0975 76.5751C27.809 76.8638 27.782 77.0046 28.1119 77.3402C31.1119 80.3973 34.1787 83.3894 37.1751 86.4465C38.9889 88.2981 40.9739 89.9872 42.6181 92.0048C42.784 92.2087 42.903 92.3242 42.6362 92.5841C41.9943 93.2103 41.3633 93.8582 40.8044 94.5584C40.0472 95.5076 38.9113 96.0851 38.2118 97.0271C36.829 98.8841 35.0026 100.29 33.4287 101.941C31.7069 103.749 29.9617 105.567 28.1047 107.254C27.7441 107.581 27.7621 107.792 28.1029 108.115C28.8024 108.774 29.5001 109.44 30.1294 110.163C30.5567 110.652 30.8649 110.641 31.2958 110.201C33.4431 108.019 35.6282 105.877 37.7899 103.71C40.3483 101.144 42.9012 98.5719 45.4559 96.0003C45.8309 95.6231 46.0382 95.6033 46.4854 95.9137C48.3496 97.2058 49.6603 99.0628 51.2829 100.6C53.185 102.401 55.1267 104.195 56.8341 106.198C58.1015 107.685 59.8377 108.7 60.9267 110.362C61.2206 110.811 61.5721 110.517 61.8317 110.266C62.5872 109.535 63.3137 108.777 64.071 108.048C64.3594 107.772 64.3306 107.59 64.0583 107.315C61.6406 104.894 59.2446 102.452 56.8269 100.028C54.4128 97.6082 51.986 95.199 49.5521 92.797C49.1897 92.4379 49.2078 92.1925 49.5665 91.8352C52.4169 89.0073 55.2547 86.1668 58.0925 83.3244C60.0577 81.3556 62.0174 79.3813 63.979 77.407C64.1034 77.2861 64.2152 77.1507 64.3648 76.9847Z" fill="white"/>
<path d="M0.141545 73.5884C0.141545 70.8778 0.179406 68.2953 0.11991 65.7165C0.100078 64.8828 0.365106 64.2692 0.927614 63.7242C1.50995 63.1611 2.10491 62.6107 2.67463 62.0368C5.09775 59.5988 7.45776 57.0957 9.95299 54.7334C11.6459 53.1291 13.1946 51.3858 14.9254 49.8158C16.0414 48.8033 17.0709 47.643 18.1184 46.5295C18.3545 46.2786 18.3582 46.1541 18.0895 45.8906C16.0594 43.9001 14.0564 41.8843 12.0462 39.8758C9.50767 37.3366 6.9277 34.8354 4.4505 32.2349C3.3327 31.0619 2.12475 29.9935 0.983505 28.8512C0.426405 28.2935 0.101881 27.7197 0.121713 26.8787C0.177603 24.5651 0.134334 22.2498 0.148757 19.9344C0.15056 19.6601 -0.0261254 19.2522 0.339865 19.1404C0.624725 19.0537 0.877133 19.3515 1.08266 19.5681C3.26238 21.8744 5.61518 24.0075 7.76245 26.3499C8.51967 27.1746 9.44997 27.8767 10.2018 28.723C11.8713 30.5981 13.8166 32.1952 15.4843 34.0828C16.402 35.1205 17.5721 35.9759 18.4988 37.0316C19.9429 38.6757 21.6268 40.0725 23.107 41.684C24.4159 43.1097 25.8853 44.4 27.2104 45.8275C27.5151 46.1559 27.5296 46.3057 27.2393 46.6107C26.0674 47.8487 24.9622 49.1426 23.6245 50.229C22.75 50.94 22.1244 51.9507 21.2717 52.696C19.3119 54.4086 17.738 56.5092 15.7043 58.1532C14.9525 58.7596 14.4368 59.6601 13.6904 60.3152C11.709 62.0531 9.92594 64.0003 8.07435 65.8645C5.94511 68.0084 3.72934 70.0747 1.70827 72.3269C1.27558 72.8124 0.738309 73.1751 0.141545 73.5884Z" fill="white"/>
<path d="M91.9403 18.8029C91.9403 21.7192 91.9458 24.5417 91.9367 27.3659C91.9349 28.1474 91.3093 28.6093 90.8406 29.0461C88.7564 30.9788 86.8057 33.047 84.7972 35.0519C82.5977 37.2482 80.436 39.4932 78.2094 41.6606C76.7707 43.061 75.5357 44.6581 73.978 45.9303C73.6192 46.2245 73.8211 46.3833 74.0266 46.5566C75.3644 47.6718 76.2893 49.1859 77.6793 50.2669C78.5213 50.9202 79.2767 51.7142 79.9113 52.6021C80.4396 53.3402 81.2491 53.7986 81.8819 54.4357C83.4613 56.031 85.1073 57.5721 86.6073 59.2288C88.1975 60.9847 90.1483 62.3725 91.5653 64.2908C91.7727 64.5706 91.9277 64.8088 91.9277 65.1661C91.9187 67.9597 91.9223 70.7533 91.9223 73.6876C91.4734 73.2978 91.0713 73.0109 90.745 72.6554C88.9421 70.6955 86.9535 68.9234 85.1434 66.9671C83.5821 65.2798 81.8495 63.7549 80.225 62.1253C78.5141 60.4108 76.8518 58.6459 75.1462 56.9261C74.0302 55.8 72.862 54.728 71.7369 53.6091C70.7399 52.6184 69.7772 51.5933 68.7892 50.5936C67.8012 49.5956 66.8006 48.6084 65.8018 47.6195C65.5043 47.3253 65.1743 47.0601 64.8913 46.7533C64.5451 46.3779 64.5974 46.0224 64.9724 45.6597C67.7056 43.0176 70.392 40.3287 73.0314 37.5893C74.7532 35.8027 76.6192 34.1532 78.323 32.3522C80.0502 30.5259 81.8513 28.77 83.6199 26.9888C85.9763 24.6139 88.3129 22.2119 90.7486 19.9145C91.1092 19.5735 91.3201 19.0754 91.9403 18.8029Z" fill="white"/>
<path d="M46.004 73.7093C45.6759 73.6389 45.6236 73.3592 45.4487 73.2058C42.9679 71.0294 40.7846 68.5516 38.3957 66.2795C37.0525 65.0037 35.7977 63.6357 34.4636 62.3508C33.8704 61.7806 33.9912 61.333 34.4924 60.8313C36.6018 58.7181 38.7004 56.5904 40.8206 54.488C42.3892 52.9324 43.9901 51.4111 45.5641 49.8591C45.885 49.5432 46.1068 49.5505 46.4745 49.8157C47.778 50.756 48.6597 52.1221 49.8478 53.1543C52.0005 55.024 53.7745 57.2671 55.9308 59.1277C56.6754 59.7702 57.265 60.5877 57.9537 61.2969C58.2331 61.5839 58.0997 61.73 57.8924 61.9484C55.3972 64.5742 52.8623 67.1566 50.2156 69.6308C49.2546 70.5295 48.4181 71.5617 47.4968 72.5056C47.1236 72.8882 46.6729 73.1968 46.2564 73.536C46.1644 73.61 46.0653 73.6678 46.004 73.7093ZM49.0094 61.6163C48.9319 61.5189 48.8742 61.4503 48.8201 61.3781C48.0863 60.3838 47.0479 59.6962 46.2294 58.7867C46.0058 58.5376 45.8075 58.6333 45.6488 58.8697C45.0448 59.7756 44.1812 60.4379 43.4366 61.2103C43.1301 61.5279 43.1356 61.6903 43.4475 61.9845C44.2065 62.7009 44.9817 63.4065 45.5965 64.2638C45.8868 64.6698 46.1825 64.5615 46.4836 64.2529C47.2354 63.486 47.9998 62.7298 48.7534 61.9628C48.8544 61.8636 48.9265 61.7318 49.0094 61.6163Z" fill="white"/>
<path d="M58.2908 0.074254C57.0162 1.38804 56.0624 2.7704 54.6868 3.76295C53.9548 4.29172 53.5113 5.13449 52.8478 5.721C50.6717 7.64836 48.831 9.91319 46.6386 11.8207C46.1464 12.2484 45.9175 12.2538 45.4072 11.7972C43.0292 9.66235 40.8783 7.29826 38.6103 5.05689C37.3266 3.78822 36.0159 2.54121 34.7448 1.2581C34.5771 1.08847 34.4095 0.91161 34.2724 0.716708C33.984 0.305249 33.9353 -0.0304156 34.6024 0.00748201C37.2995 0.160877 39.9985 0.0923004 42.6956 0.117565C42.9138 0.11937 43.1049 0.164486 43.2546 0.344951C43.9811 1.2166 44.9637 1.84461 45.6001 2.79747C45.8796 3.21434 46.0689 3.20712 46.4078 2.848C47.1885 2.02147 48.0142 1.23645 48.8219 0.435183C49.0347 0.22404 49.2312 -0.0177831 49.5756 0.00748201C52.4151 0.22404 55.2565 0.0832772 58.2908 0.074254Z" fill="white"/>
<path d="M91.5491 58.377C90.4584 57.195 89.3964 55.9876 88.2732 54.8399C86.2666 52.788 84.2239 50.7722 82.1956 48.7402C81.5213 48.0634 80.8561 47.3759 80.1655 46.7172C79.8158 46.3815 79.7401 46.1343 80.1565 45.7715C81.3987 44.696 82.439 43.4093 83.6434 42.3048C85.4697 40.6283 87.0599 38.7208 88.9349 37.093C89.7426 36.391 90.4187 35.5374 91.1615 34.7578C91.34 34.5719 91.5095 34.2543 91.7961 34.3517C92.0756 34.4456 91.9241 34.7758 91.9259 34.9942C91.9367 37.5171 91.9079 40.04 91.9458 42.5629C91.9602 43.4562 91.2318 43.8333 90.8298 44.4289C90.5016 44.9161 90.0293 45.3186 89.5803 45.7102C89.1801 46.0585 89.1206 46.3129 89.5208 46.728C90.2258 47.4589 91.0155 48.114 91.5996 48.9603C91.7528 49.1841 91.9349 49.3736 91.9349 49.6732C91.9313 52.4884 91.9331 55.3037 91.9331 58.1171C91.8015 58.2056 91.6753 58.2922 91.5491 58.377Z" fill="white"/>
<path d="M0.141545 53.5839C0.141545 52.5318 0.20645 51.4742 0.121713 50.4293C0.0477939 49.5216 0.408376 48.8737 1.00694 48.2854C1.56404 47.7386 2.11934 47.19 2.68365 46.6486C2.98293 46.3599 3.13077 46.1144 2.67463 45.813C0.462463 44.3531 -0.197402 42.2832 0.109093 39.7061C0.289384 38.1938 0.136137 36.6436 0.146954 35.1115C0.148757 34.8913 0.0243561 34.5827 0.321836 34.4799C0.545397 34.4023 0.671601 34.6603 0.833863 34.7812C2.2798 35.8694 3.29844 37.389 4.64702 38.5692C6.58515 40.2656 8.18794 42.2958 10.1405 43.9777C10.7931 44.5408 11.3034 45.2698 11.9037 45.8961C12.1543 46.1577 12.1021 46.3292 11.9019 46.5836C10.8941 47.8577 9.72402 48.9658 8.52328 50.054C7.59478 50.8949 6.82313 51.911 5.89824 52.7591C4.30627 54.2173 2.9 55.8559 1.34048 57.3429C1.14577 57.5288 0.940235 57.7057 0.722083 57.8627C0.332654 58.1424 0.134334 58.0558 0.137939 57.5487C0.148757 56.2295 0.141545 54.9067 0.141545 53.5839Z" fill="white"/>
<path d="M0.141545 80.1483C3.27861 83.0592 6.02444 86.0964 8.98302 88.9152C10.0269 89.9096 10.9824 90.9725 11.9759 92.0066C12.1219 92.1582 12.2823 92.2719 12.0588 92.5191C10.9139 93.7878 9.7763 95.0691 8.46378 96.1591C7.96618 96.5724 7.63264 97.0921 7.18732 97.5324C5.24919 99.4472 3.33089 101.382 1.40358 103.309C1.34048 103.372 1.27738 103.437 1.20887 103.497C0.9186 103.751 0.595879 104.165 0.240705 104.038C-0.208219 103.878 0.154166 103.403 0.15056 103.073C0.121713 100.73 0.143348 98.386 0.0982754 96.0454C0.0784434 94.968 0.889753 94.4519 1.51897 93.8889C3.18846 92.3946 3.28943 92.3639 1.66681 90.913C0.498522 89.8663 0.00272112 88.7564 0.105487 87.1665C0.251523 84.9017 0.141545 82.6242 0.141545 80.1483Z" fill="white"/>
<path d="M57.7734 122.978C54.7247 122.978 51.8797 122.98 49.0365 122.976C48.629 122.976 48.4127 122.653 48.1603 122.404C47.5653 121.814 46.9649 121.226 46.3844 120.621C46.0941 120.318 45.8922 120.275 45.6001 120.646C45.1188 121.256 44.5797 121.821 44.0659 122.406C43.7972 122.711 43.4493 122.951 43.0616 122.955C40.1608 122.978 37.2617 122.967 34.3049 122.873C34.9774 122.224 35.5399 121.511 36.1637 120.858C38.0694 118.862 40.0706 116.958 41.933 114.918C43.0833 113.659 44.3417 112.497 45.5316 111.271C45.8616 110.932 46.0833 110.851 46.489 111.208C47.5455 112.141 48.5028 113.153 49.4187 114.225C50.1921 115.13 51.218 115.821 51.9824 116.732C53.7637 118.854 56.0318 120.524 57.7734 122.978Z" fill="white"/>
<path d="M91.9223 80.141C91.9223 83.1133 91.9422 85.9574 91.9097 88.7997C91.9007 89.5739 91.1543 89.9728 90.7739 90.5593C90.6152 90.8047 90.3448 90.9762 90.1338 91.1873C88.9187 92.4054 88.8772 92.456 90.2384 93.5676C91.459 94.5638 92.0684 95.6899 91.9584 97.3321C91.8214 99.3642 91.9331 101.414 91.9205 103.455C91.9187 103.701 92.081 104.058 91.7583 104.172C91.5311 104.251 91.349 103.966 91.1867 103.804C87.9848 100.6 84.79 97.3899 81.5916 94.1812C81.1265 93.7138 80.6758 93.2302 80.1836 92.7916C79.7527 92.4072 79.8518 92.1456 80.2232 91.772C82.1181 89.8627 84.067 88.0093 85.9186 86.0531C87.8153 84.0463 89.8526 82.1677 91.9223 80.141Z" fill="white"/>
<path d="M12.0408 122.982C9.08759 122.982 6.26964 122.983 3.44989 122.976C3.30746 122.976 3.13438 122.94 3.0244 122.857C1.96789 122.058 1.06103 121.098 0.192027 120.105C-0.03514 119.845 0.0315677 119.475 0.0315677 119.145C0.0315677 116.739 0.0279619 114.334 0.0369764 111.928C0.0387793 111.674 -0.110862 111.304 0.179406 111.19C0.480492 111.073 0.714871 111.39 0.922206 111.592C1.69385 112.349 2.45107 113.123 3.21551 113.886C4.50639 115.176 5.85677 116.414 7.06833 117.775C7.80392 118.602 8.69816 119.241 9.43194 120.067C10.2613 121 11.2349 121.803 12.0408 122.982Z" fill="white"/>
<path d="M79.9312 122.835C83.939 118.827 87.8568 114.911 91.9241 110.845C91.9241 113.388 91.7384 115.734 91.9764 118.037C92.218 120.392 90.5539 121.413 89.2865 122.767C89.1008 122.965 88.8015 122.976 88.5238 122.976C85.796 122.974 83.07 122.976 80.3422 122.971C80.2611 122.973 80.18 122.922 79.9312 122.835Z" fill="white"/>
<path d="M80.1529 0.11937C80.7695 0.11937 81.5664 0.11937 82.3633 0.11937C84.3753 0.11937 86.3892 0.121175 88.4012 0.11937C88.733 0.11937 89.0323 0.112152 89.3009 0.400895C89.8093 0.945899 90.3754 1.43676 90.9001 1.96733C91.6952 2.7722 92.0179 3.69979 91.971 4.87823C91.8754 7.2766 91.9422 9.68039 91.9422 11.938C88.0298 8.0147 84.0706 4.04628 80.1529 0.11937Z" fill="white"/>
<path d="M0.141545 11.9398C0.141545 9.14802 0.141545 6.35623 0.139742 3.56444C0.139742 3.23961 0.285778 2.99778 0.511142 2.77581C1.30082 1.9944 2.08328 1.20577 2.86394 0.415332C3.04063 0.236672 3.23534 0.121175 3.49496 0.121175C6.3075 0.122979 9.12184 0.121175 11.9362 0.121175C11.9939 0.204189 12.0516 0.285398 12.1093 0.368411C8.21137 4.27728 4.31348 8.18614 0.413785 12.095C0.323639 12.0427 0.231691 11.9921 0.141545 11.9398Z" fill="white"/>
</g>
</svg>
