<svg width="233" height="24" viewBox="0 0 233 24" fill="none" xmlns="http://www.w3.org/2000/svg">
<path d="M46.3916 0V14.2565C46.3916 18.6928 44.1966 20.9429 39.978 20.9429C35.6822 20.9429 33.4958 18.6928 33.4958 14.2565V0H30.409V14.6451C30.409 23.3254 37.7058 24 39.978 24C42.1987 24 49.4912 23.3297 49.4912 14.6451V0H46.3916Z" fill="white"/>
<path d="M129.567 0V14.2565C129.567 18.6928 127.368 20.9429 123.149 20.9429C118.849 20.9429 116.667 18.6928 116.667 14.2565V0H113.58V14.6451C113.58 23.3254 120.877 24 123.145 24C125.366 24 132.658 23.3297 132.658 14.6451V0H129.567Z" fill="white"/>
<path d="M97.3791 0V14.2565C97.3791 18.6928 95.1841 20.9429 90.9655 20.9429V24C93.182 24 100.474 23.3297 100.474 14.6451V0H97.3791Z" fill="white"/>
<path d="M80.6206 23.6371L75.373 12.3309C76.4491 12.0107 77.3537 11.4983 78.0654 10.7639C79.8703 8.97065 79.8703 6.57961 79.8703 6.35759C79.8703 6.13129 79.8703 3.74453 78.0654 1.95125C76.8478 0.687422 75.0729 0.0512364 72.8136 0H62.8244V2.66429H72.7364C73.521 2.70272 74.8028 2.89913 75.6603 3.71037C76.3505 4.32094 76.6806 5.20477 76.6806 6.35759C76.6806 7.50614 76.3505 8.39424 75.6603 9.0048C74.8028 9.81605 73.521 10.0082 72.7364 10.0509H62.8244V23.6413H65.9241V12.7109H72.4149L77.2637 23.6371H80.6206Z" fill="white"/>
<path d="M166.214 0L157.22 12.7109L148.225 0H145.829V23.6371H148.924L148.937 5.23893L157.113 16.9806H157.318L165.503 5.23893L165.507 23.6371H168.606V0H166.214Z" fill="white"/>
<path d="M203.68 23.6371L192.833 0H189.738L178.896 23.6371H181.991L191.286 3.37734L196.683 15.1446H191.106V17.8772H197.935L200.58 23.6371H203.68Z" fill="white"/>
<path d="M229.905 0V18.4024L215.491 0H213.09V23.6371H216.19V5.23893L230.608 23.6371H233V0H229.905Z" fill="white"/>
<path d="M16.3042 11.9936C15.9269 11.6008 15.5153 11.2635 15.0223 10.9859C15.0995 10.9091 15.1724 10.8322 15.2409 10.7682C17.0416 8.94503 17.0416 6.5668 17.0416 6.35759C17.0416 6.13556 17.0416 3.74453 15.2409 1.95125C14.0234 0.691692 12.2485 0.0512364 9.98914 0H0V12.6981L10.9752 12.7024C11.7683 12.7451 13.0202 12.9585 13.9119 13.757C14.5807 14.3846 14.9366 15.2514 14.9366 16.4042V17.288C14.9366 18.4323 14.5807 19.3289 13.9119 19.9438C13.0202 20.7379 11.7683 20.9429 10.9752 20.9728H0V23.6413H11.0524C13.316 23.6029 15.0995 22.9411 16.3042 21.6944C18.1219 19.8968 18.1219 17.4887 18.1219 17.2838V16.3999C18.1219 16.2035 18.1219 13.821 16.3042 11.9936ZM12.8315 8.98772C11.9741 9.79043 10.6922 10.0125 9.89054 10.0509H3.09106V2.66429H9.91197C10.6922 2.70272 11.9741 2.89913 12.8315 3.71037C13.5218 4.32094 13.8519 5.20477 13.8519 6.35759C13.8519 7.49333 13.5218 8.39424 12.8315 8.98772Z" fill="white"/>
</svg>
