<svg width="546" height="58" viewBox="0 0 546 58" fill="none" xmlns="http://www.w3.org/2000/svg">
<path d="M108.712 0V34.4533C108.712 45.1742 103.568 50.612 93.6823 50.612C83.6159 50.612 78.4922 45.1742 78.4922 34.4533V0H71.2588V35.3923C71.2588 56.3697 88.3577 58 93.6823 58C98.8863 58 115.975 56.38 115.975 35.3923V0H108.712Z" fill="white"/>
<path d="M303.621 0V34.4533C303.621 45.1742 298.468 50.612 288.582 50.612C278.505 50.612 273.392 45.1742 273.392 34.4533V0H266.158V35.3923C266.158 56.3697 283.257 58 288.572 58C293.776 58 310.865 56.38 310.865 35.3923V0H303.621Z" fill="white"/>
<path d="M228.193 0V34.4533C228.193 45.1742 223.049 50.612 213.164 50.612V58C218.358 58 235.447 56.38 235.447 35.3923V0H228.193Z" fill="white"/>
<path d="M188.922 57.1229L176.625 29.7997C179.147 29.0258 181.267 27.7876 182.934 26.0128C187.164 21.6791 187.164 15.9007 187.164 15.3642C187.164 14.8173 187.164 9.04928 182.934 4.71553C180.081 1.66127 175.922 0.123821 170.628 0H147.22V6.43871H170.447C172.285 6.53158 175.289 7.00623 177.298 8.96673C178.916 10.4423 179.689 12.5782 179.689 15.3642C179.689 18.1398 178.916 20.2861 177.298 21.7616C175.289 23.7221 172.285 24.1864 170.447 24.2896H147.22V57.1332H154.483V30.718H169.693L181.056 57.1229H188.922Z" fill="white"/>
<path d="M389.498 0L368.42 30.718L347.343 0H341.727V57.1229H348.981L349.011 12.6607L368.169 41.0365H368.652L387.83 12.6607L387.84 57.1229H395.104V0H389.498Z" fill="white"/>
<path d="M477.293 57.1229L451.876 0H444.622L419.215 57.1229H426.468L448.249 8.16189L460.897 36.5995H447.827V43.2033H463.831L470.029 57.1229H477.293Z" fill="white"/>
<path d="M538.747 0V44.4725L504.971 0H499.345V57.1229H506.608V12.6607L540.394 57.1229H546V0H538.747Z" fill="white"/>
<path d="M38.2063 28.9845C37.3223 28.0352 36.3578 27.2201 35.2025 26.5494C35.3833 26.3636 35.5541 26.1779 35.7148 26.0231C39.9343 21.6171 39.9343 15.8698 39.9343 15.3642C39.9343 14.8276 39.9343 9.04928 35.7148 4.71553C32.8617 1.67159 28.7025 0.123821 23.408 0H0V30.6871L25.7187 30.6974C27.5773 30.8006 30.5108 31.3165 32.6005 33.246C34.1677 34.7629 35.0015 36.8575 35.0015 39.6435V41.7794C35.0015 44.5447 34.1677 46.7116 32.6005 48.1975C30.5108 50.1167 27.5773 50.612 25.7187 50.6842H0V57.1332H25.8995C31.204 57.0404 35.3833 55.441 38.2063 52.428C42.466 48.084 42.466 42.2644 42.466 41.7691V39.6332C42.466 39.1585 42.466 33.4008 38.2063 28.9845ZM30.0688 21.7203C28.0595 23.6602 25.0556 24.1968 23.177 24.2896H7.24343V6.43871H23.2272C25.0556 6.53158 28.0595 7.00623 30.0688 8.96673C31.6862 10.4423 32.4598 12.5782 32.4598 15.3642C32.4598 18.1089 31.6862 20.2861 30.0688 21.7203Z" fill="white"/>
</svg>
