<svg width="21" height="22" viewBox="0 0 21 22" fill="none" xmlns="http://www.w3.org/2000/svg">
<path d="M11.7553 19.1675C9.99205 19.1657 8.47461 17.5912 8.48049 15.7692C8.48637 14.0802 10.0091 12.5883 11.7335 12.583C13.5473 12.5777 15.0312 14.0689 15.0206 15.8868C15.0094 17.6875 13.5355 19.1692 11.7553 19.1675ZM11.6865 13.2031C10.0655 13.238 8.83324 14.77 9.14485 16.3645C9.24891 16.8978 9.47467 17.3691 9.8633 17.753C10.0156 17.9036 10.1925 17.9054 10.3354 17.7749C10.4765 17.6467 10.4871 17.4689 10.3613 17.3006C10.326 17.2534 10.2848 17.2114 10.2472 17.166C9.96912 16.8246 9.81097 16.4336 9.79039 15.9942C9.7363 14.8414 10.5294 13.9733 11.7006 13.8935C11.9622 13.8758 12.101 13.7394 12.0868 13.5132C12.0733 13.3065 11.9334 13.1978 11.6865 13.2031Z" fill="white"/>
<path d="M12.6004 19.7028C12.6004 19.916 12.6004 20.1268 12.6004 20.3607C12.5181 20.3648 12.4405 20.3725 12.3629 20.3731C8.79177 20.3737 5.22069 20.3737 1.64961 20.3731C1.15398 20.3731 1.01229 20.2272 1.01229 19.724C1.01229 16.917 1.01229 14.1099 1.01229 11.3029C1.01229 11.2237 1.01229 11.144 1.01229 11.0519C4.8938 11.0519 8.75473 11.0519 12.6315 11.0519C12.6315 11.3666 12.6315 11.6714 12.6315 11.9903C11.1999 11.7482 9.94411 12.0872 8.92111 13.1378C8.14387 13.9363 7.76525 14.9084 7.81816 16.0234C7.92399 18.2299 9.81477 20.2331 12.6004 19.7028Z" fill="white"/>
<path d="M12.4797 10.3934C12.3904 10.3934 12.3128 10.3934 12.2352 10.3934C8.55355 10.3934 4.87194 10.3922 1.19033 10.3969C1.01042 10.3969 0.923411 10.3532 0.864618 10.1701C0.599462 9.34391 0.314905 8.52418 0.0385779 7.70209C-0.104289 7.27686 0.0891398 6.99693 0.53185 6.99693C4.08823 6.99574 7.6452 6.99634 11.2016 6.99515C11.2998 6.99515 11.3797 6.99161 11.4209 7.118C11.766 8.17278 12.1188 9.2258 12.468 10.2794C12.478 10.3054 12.475 10.3349 12.4797 10.3934Z" fill="white"/>
<path d="M13.3238 11.0524C15.1758 11.0524 16.9948 11.0524 18.8327 11.0524C18.8327 11.1463 18.8327 11.2261 18.8327 11.3058C18.8327 14.1353 18.8262 16.9648 18.838 19.7943C18.8403 20.3465 18.5711 20.4776 18.1078 20.441C18.069 20.438 18.0219 20.4215 17.9955 20.3943C17.16 19.5451 16.3305 18.6905 15.4891 17.8471C15.3533 17.7107 15.3339 17.6115 15.408 17.4325C16.2158 15.4742 15.391 13.2524 13.5061 12.2992C13.3697 12.2301 13.3144 12.1545 13.3209 11.9991C13.3326 11.6909 13.3238 11.382 13.3238 11.0524Z" fill="white"/>
<path d="M13.5192 10.3751C13.5445 10.293 13.5615 10.2239 13.5868 10.1583C13.9666 9.15434 14.3505 8.15152 14.725 7.14575C14.7762 7.00815 14.8368 6.95441 14.9908 6.955C16.4824 6.96149 17.9745 6.95795 19.4661 6.95972C19.8941 6.96031 20.151 7.32765 19.9976 7.7328C19.6801 8.57202 19.3562 9.40829 19.0246 10.2416C18.9981 10.3078 18.8946 10.3869 18.8264 10.3869C17.0997 10.3946 15.3724 10.3928 13.6456 10.3922C13.6109 10.3922 13.5768 10.3833 13.5192 10.3751Z" fill="white"/>
<path d="M3.8471 2.43642C4.1493 2.43642 4.41328 2.43997 4.67667 2.43524C4.83718 2.43229 4.99474 2.46949 5.03413 2.62836C5.06353 2.74707 5.04765 2.91893 4.97828 3.01342C4.33508 3.90167 3.67837 4.77928 3.01989 5.65571C2.85174 5.87954 2.59658 5.88013 2.42431 5.65453C1.74878 4.77219 1.07619 3.88808 0.415949 2.99453C0.350689 2.90653 0.331875 2.72522 0.378322 2.63072C0.42418 2.53741 0.577042 2.4565 0.689924 2.44587C0.965075 2.41989 1.24434 2.4376 1.54242 2.4376C1.54712 2.33957 1.55418 2.26102 1.55418 2.18306C1.55536 1.61551 1.55359 1.04854 1.55477 0.480991C1.55536 0.105378 1.6553 0.00320677 2.01982 0.0020256C2.49016 0.000844423 2.96051 -0.000336749 3.43085 0.00261618C3.71835 0.00438794 3.84416 0.130773 3.84534 0.422523C3.84828 1.00425 3.84652 1.58657 3.84652 2.16889C3.8471 2.24743 3.8471 2.32657 3.8471 2.43642Z" fill="white"/>
<path d="M18.2919 2.43699C18.5823 2.43699 18.8451 2.44053 19.1074 2.43581C19.2655 2.43285 19.4301 2.46297 19.4683 2.62125C19.4983 2.74586 19.4801 2.92481 19.4078 3.02462C18.774 3.90046 18.1249 4.76508 17.4759 5.6297C17.2818 5.88778 17.0326 5.88601 16.8397 5.62792C16.1918 4.76271 15.5427 3.8981 14.909 3.02226C14.8372 2.92304 14.8096 2.72992 14.8572 2.62302C14.8995 2.52912 15.0712 2.45766 15.1935 2.44466C15.4469 2.41809 15.7056 2.4364 15.9872 2.4364C15.9913 2.34604 15.9984 2.26808 15.9984 2.19071C15.9996 1.60131 15.9972 1.01249 15.9996 0.423087C16.0007 0.130157 16.1242 0.0037711 16.4117 0.00199934C16.8967 -0.000953588 17.3812 -0.000363002 17.8662 0.00199934C18.1731 0.0037711 18.289 0.120117 18.2901 0.433127C18.2931 1.01485 18.2907 1.59658 18.2913 2.1789C18.2919 2.25745 18.2919 2.33541 18.2919 2.43699Z" fill="white"/>
<path d="M11.0682 2.437C11.3645 2.437 11.6368 2.41928 11.9043 2.44526C12.026 2.45708 12.1688 2.52972 12.2494 2.62185C12.3593 2.74705 12.2947 2.89883 12.2 3.02581C11.5533 3.89338 10.9095 4.76213 10.2604 5.62793C10.0646 5.88897 9.81712 5.89015 9.62369 5.63207C8.97462 4.76627 8.33025 3.89752 7.68352 3.03054C7.58887 2.90415 7.54242 2.77186 7.62238 2.62067C7.70175 2.47066 7.83462 2.43345 7.99336 2.43641C8.25675 2.44113 8.51956 2.43759 8.8147 2.43759C8.8147 2.34073 8.8147 2.26336 8.8147 2.18541C8.8147 1.596 8.81352 1.00601 8.81529 0.416601C8.81646 0.118355 8.92993 0.00496196 9.22919 0.0031902C9.70717 0.000827855 10.1846 0.000237269 10.6626 0.00378079C10.9354 0.00555254 11.0671 0.137844 11.0682 0.411876C11.07 1.07333 11.0682 1.73656 11.0682 2.437Z" fill="white"/>
<path d="M14.2148 19.1062C14.4853 18.8363 14.7387 18.5841 14.9915 18.3325C14.975 18.3107 14.9592 18.2894 14.9427 18.2676C14.9856 18.306 15.0303 18.342 15.0709 18.3827C15.7975 19.1103 16.526 19.8368 17.2474 20.5697C17.3367 20.6606 17.4179 20.7776 17.4549 20.8975C17.5325 21.1473 17.4273 21.3924 17.2262 21.5105C17.0046 21.641 16.7335 21.6156 16.536 21.4266C16.2702 21.1733 16.0157 20.9081 15.7558 20.6482C15.2261 20.1185 14.6964 19.5887 14.2148 19.1062Z" fill="white"/>
<path d="M14.5274 20.3923C14.0918 20.3923 13.7214 20.3923 13.3263 20.3923C13.3263 20.1189 13.3186 19.8555 13.3328 19.5932C13.3357 19.5424 13.4139 19.4798 13.4715 19.4539C13.5068 19.4379 13.5826 19.4657 13.6167 19.4981C13.9083 19.7781 14.1947 20.0633 14.5274 20.3923Z" fill="#BEBEBE"/>
<path d="M11.6881 13.2033C11.9357 13.198 12.0756 13.3067 12.0879 13.514C12.102 13.7402 11.9633 13.8766 11.7017 13.8943C10.5305 13.974 9.73739 14.8422 9.79148 15.995C9.81206 16.4344 9.97021 16.8254 10.2483 17.1667C10.2853 17.2122 10.3271 17.2541 10.3624 17.3014C10.4876 17.4703 10.4776 17.6475 10.3365 17.7756C10.1936 17.9062 10.0167 17.9044 9.86438 17.7538C9.47576 17.3699 9.25 16.898 9.14593 16.3653C8.83492 14.7707 10.0666 13.2387 11.6881 13.2033Z" fill="#F8485E"/>
</svg>
