<svg width="96" height="72" viewBox="0 0 96 72" fill="none" xmlns="http://www.w3.org/2000/svg">
<path d="M0.00499989 23.0569C0.484989 22.3487 0.857481 21.5228 1.46997 20.9547C3.01243 19.5257 7.23734 19.5407 8.73481 21.0123C9.36479 21.6329 9.86228 22.5264 10.0998 23.3848C11.7647 29.3586 13.3622 35.3499 14.9297 41.3487C15.1322 42.1271 15.4622 42.2972 16.2021 42.2897C19.7621 42.2522 23.3245 42.2697 26.8844 42.2747C30.4968 42.2772 32.5218 43.8364 33.4393 47.3075C33.5343 47.6679 33.6393 48.0283 33.7318 48.3912C34.5192 51.4869 33.1743 53.5341 29.9043 54.0421C30.3418 55.8165 30.7768 57.5833 31.2168 59.3502C32.0393 62.6462 32.8693 65.9397 33.6893 69.2356C33.9193 70.1566 33.7718 70.9825 32.9518 71.5706C32.2818 72.0536 31.4918 72.1712 30.8568 71.6682C30.3843 71.2953 29.9618 70.6872 29.8118 70.1065C28.5144 65.0988 27.2619 60.081 26.0569 55.0507C25.8494 54.1873 25.5194 53.9345 24.632 53.947C20.5095 54.0021 16.3871 53.9846 12.2622 53.957C11.6247 53.952 11.3572 54.0947 11.2098 54.7729C10.1273 59.8007 9.0148 64.821 7.84233 69.8263C7.68483 70.4945 7.24734 71.2027 6.73235 71.6582C6.12986 72.1912 5.30738 72.0536 4.6424 71.5706C3.95241 71.0676 3.66242 70.3693 3.84741 69.5184C4.5899 66.1399 5.34238 62.7638 6.09237 59.3852C6.50986 57.5033 6.92735 55.6238 7.35234 53.7043C4.6399 52.6281 3.44742 50.606 3.10743 47.8105C2.20495 40.4127 1.16997 33.03 0.182496 25.6422C0.149997 25.3994 0.0624986 25.1667 0 24.9264C0.00499989 24.3058 0.00499989 23.6826 0.00499989 23.0569Z" fill="#F67D5A"/>
<path d="M96.0009 24.9312C95.6909 27.0259 95.3584 29.1156 95.0784 31.2128C94.3009 37.0239 93.5584 42.8425 92.771 48.6537C92.4535 51.0112 91.226 52.4927 88.6535 53.704C88.981 55.2181 89.311 56.7622 89.6535 58.3013C90.4335 61.8 91.221 65.2962 92.0035 68.7949C92.0585 69.0377 92.106 69.2829 92.1485 69.5307C92.3385 70.6519 91.7285 71.6254 90.6685 71.8957C89.6435 72.1585 88.5685 71.5653 88.2986 70.4517C87.7011 67.9991 87.1761 65.529 86.6261 63.0639C86.0011 60.2659 85.3636 57.468 84.7686 54.6625C84.6561 54.132 84.4586 53.9543 83.9112 53.9568C79.5987 53.9768 75.2888 53.9818 70.9764 53.9543C70.3739 53.9493 70.199 54.1695 70.064 54.7201C68.854 59.6853 67.6065 64.643 66.3715 69.6033C66.3115 69.846 66.2565 70.0888 66.1865 70.329C65.8465 71.5003 64.8466 72.1585 63.7941 71.9107C62.6741 71.6454 62.0216 70.5918 62.3016 69.383C62.7241 67.5611 63.2016 65.7517 63.6566 63.9398C64.4216 60.8866 65.1866 57.8334 65.9465 54.7776C66.004 54.5449 66.0315 54.3021 66.0565 54.1495C65.2991 53.8767 64.5541 53.714 63.9191 53.3561C62.4241 52.5152 61.7341 50.7409 62.1291 48.989C62.2791 48.3208 62.4641 47.6601 62.6391 46.9969C63.4191 44.0238 65.6041 42.2995 68.6965 42.2795C72.4139 42.2569 76.1313 42.2469 79.8487 42.2945C80.6287 42.3045 80.9062 42.0567 81.0987 41.3184C82.6637 35.3496 84.2761 29.3934 85.8761 23.4321C86.5161 21.0446 87.8486 20.0235 90.336 20.0135C90.586 20.0135 90.8385 20.031 91.086 20.011C93.5684 19.8108 95.2309 20.8519 96.0009 23.2444C96.0009 23.8075 96.0009 24.3681 96.0009 24.9312Z" fill="#F67D5A"/>
<path d="M50.0794 3.9867C50.0794 4.73249 50.0794 5.37316 50.0794 6.03386C59.2992 7.56297 65.144 12.791 67.6565 21.9231C54.4943 21.9231 41.5121 21.9231 28.5273 21.9231C28.8773 14.8356 36.4047 7.9709 45.9145 6.0689C45.9145 5.42071 45.9145 4.75752 45.9145 3.9867C45.2545 3.9867 44.6345 4.00923 44.0195 3.9817C42.817 3.92914 41.982 3.07574 42.0095 1.96207C42.0345 0.893442 42.8695 0.0375396 44.0145 0.0225237C46.6694 -0.00750792 49.3269 -0.00750792 51.9818 0.0225237C53.1643 0.0350369 54.0193 0.945997 53.9943 2.04966C53.9718 3.1258 53.1518 3.92914 51.9893 3.9817C51.3743 4.00923 50.7544 3.9867 50.0794 3.9867ZM46.9419 12.4556C46.9619 11.0892 45.837 10.0981 44.577 10.3809C40.8221 11.2193 37.7371 13.1589 35.3697 16.1921C34.6147 17.1581 34.7647 18.3243 35.6422 19.0251C36.4972 19.7083 37.6496 19.6532 38.3996 18.7423C40.2871 16.4448 42.637 14.9408 45.5245 14.2275C46.4344 14.0048 46.8969 13.3115 46.9419 12.4556Z" fill="#F67D5A"/>
<path d="M47.0673 33.9709C38.2875 33.9709 29.5101 33.9709 20.7303 33.9709C18.5954 33.9709 18.0054 33.3803 18.0054 31.2481C18.0054 30.217 17.9904 29.1884 18.0104 28.1573C18.0354 26.8159 18.7654 26.0726 20.0879 26.0151C20.3378 26.005 20.5878 26.01 20.8378 26.01C38.3025 26.01 55.7646 26.01 73.2292 26.01C73.5092 26.01 73.7917 26.0025 74.0717 26.0226C75.2066 26.1026 75.9291 26.7959 75.9691 27.9346C76.0116 29.1809 75.9991 30.4322 75.9841 31.681C75.9666 33.2602 75.2716 33.9634 73.6842 33.9684C68.9968 33.9784 64.3119 33.9734 59.6245 33.9734C55.4396 33.9709 51.2547 33.9709 47.0673 33.9709Z" fill="#F67D5A"/>
<path d="M44.0186 38.0348C46.7136 38.0348 49.266 38.0348 51.9859 38.0348C51.9859 38.4002 51.9859 38.7555 51.9859 39.1134C51.9859 46.8216 52.0009 54.5297 51.9709 62.2353C51.9659 63.4541 52.3709 64.3075 53.4309 64.9356C54.6359 65.6539 55.7559 66.5123 56.9533 67.2406C58.1233 67.9513 58.1533 69.2552 57.8658 70.5991C57.6683 71.5201 56.8183 71.953 55.5634 71.953C50.5035 71.9556 45.4461 71.9556 40.3862 71.953C39.1637 71.953 38.2862 71.475 38.1188 70.5491C37.8613 69.1201 37.9013 67.9663 39.0187 67.2681C40.2362 66.5073 41.3887 65.6439 42.6162 64.9031C43.6386 64.285 44.0361 63.4541 44.0311 62.2728C44.0036 54.5973 44.0161 46.9192 44.0161 39.2436C44.0186 38.8732 44.0186 38.5053 44.0186 38.0348Z" fill="#F67D5A"/>
<path d="M46.9451 12.4555C46.9001 13.3089 46.4376 14.0046 45.5276 14.2273C42.6377 14.9406 40.2902 16.4447 38.4028 18.7421C37.6528 19.6531 36.5003 19.7081 35.6453 19.0249C34.7679 18.3242 34.6179 17.1579 35.3728 16.1919C37.7403 13.1562 40.8252 11.2192 44.5801 10.3808C45.8401 10.098 46.9651 11.089 46.9451 12.4555Z" fill="white"/>
</svg>
