<svg width="12" height="16" viewBox="0 0 12 16" fill="none" xmlns="http://www.w3.org/2000/svg">
<path d="M5.93627 16C5.71259 15.8446 5.46046 15.7182 5.27026 15.5299C3.70277 13.9712 2.1418 12.4077 0.587359 10.8394C0.172842 10.4223 0.136198 9.87766 0.490054 9.48526C0.869185 9.06632 1.47705 9.05747 1.89662 9.47578C2.91902 10.4948 3.93909 11.5166 4.95685 12.5411C5.01625 12.6005 5.0788 12.6567 5.17801 12.7508L5.17801 1.06539C5.17801 0.533338 5.41307 0.176322 5.84718 0.0417307C5.9832 -2.55621e-05 6.12689 -0.0106198 6.26757 0.0107342C6.40825 0.0320883 6.54232 0.0848433 6.65983 0.165084C6.77733 0.245325 6.87526 0.35099 6.94636 0.474247C7.01745 0.597504 7.05989 0.735187 7.07051 0.877082C7.07682 0.96365 7.07051 1.05022 7.07051 1.13742L7.07051 12.7515C7.16592 12.6611 7.23101 12.6024 7.2923 12.5411C8.31216 11.5187 9.33182 10.4963 10.3513 9.47389C10.6274 9.19586 10.9566 9.10171 11.3263 9.20976C11.492 9.25373 11.6415 9.34441 11.7572 9.47101C11.8728 9.59761 11.9496 9.75478 11.9784 9.92379C12.0529 10.277 11.9303 10.5715 11.6789 10.8236C10.5356 11.9681 9.39374 13.114 8.2534 14.2611C7.83004 14.6857 7.41615 15.1204 6.97825 15.5292C6.7811 15.7131 6.53593 15.8452 6.31224 16H5.93627Z" fill="white"/>
</svg>
