<svg width="100" height="100" viewBox="0 0 100 100" fill="none" xmlns="http://www.w3.org/2000/svg">
<circle cx="50" cy="50" r="49.5" fill="white" stroke="white"></circle>
<path d="M32.7305 43.8174H36.9932C38.874 43.8174 40.3418 44.377 41.3965 45.4961C42.4512 46.6094 42.9785 48.1621 42.9785 50.1543C42.9785 52.1523 42.4512 53.7109 41.3965 54.8301C40.3477 55.9434 38.8799 56.5 36.9932 56.5H32.7305V43.8174ZM34.3125 45.2412V55.0762H36.8877C38.3232 55.0762 39.4277 54.6543 40.2012 53.8105C40.9746 52.9609 41.3613 51.748 41.3613 50.1719C41.3613 48.584 40.9746 47.3652 40.2012 46.5156C39.4336 45.666 38.3291 45.2412 36.8877 45.2412H34.3125ZM44.71 56.5V47.3594H46.1514V48.8535H46.1865C46.3389 48.3438 46.6113 47.9424 47.0039 47.6494C47.4023 47.3506 47.8682 47.2012 48.4014 47.2012C48.5244 47.2012 48.7295 47.2217 49.0166 47.2627V48.748C48.8525 48.6895 48.5801 48.6602 48.1992 48.6602C47.6074 48.6602 47.1328 48.8564 46.7754 49.249C46.418 49.6416 46.2393 50.1602 46.2393 50.8047V56.5H44.71ZM53.1035 55.3574C53.8242 55.3574 54.4277 55.1348 54.9141 54.6895C55.4062 54.2383 55.6523 53.6846 55.6523 53.0283V52.2812L53.209 52.4307C52.5938 52.4717 52.1162 52.6211 51.7764 52.8789C51.4424 53.1367 51.2754 53.4824 51.2754 53.916C51.2754 54.3496 51.4424 54.6982 51.7764 54.9619C52.1104 55.2256 52.5527 55.3574 53.1035 55.3574ZM52.7607 56.6582C51.8525 56.6582 51.1172 56.4062 50.5547 55.9023C49.998 55.3984 49.7197 54.7363 49.7197 53.916C49.7197 53.1309 50.0068 52.5039 50.5811 52.0352C51.1611 51.5664 51.9785 51.3027 53.0332 51.2441L55.6523 51.0947V50.3301C55.6523 49.7734 55.4766 49.3369 55.125 49.0205C54.7734 48.7041 54.2812 48.5459 53.6484 48.5459C53.0684 48.5459 52.5967 48.6748 52.2334 48.9326C51.8701 49.1846 51.6387 49.5391 51.5391 49.9961H50.0625C50.1152 49.1816 50.4668 48.5137 51.1172 47.9922C51.7734 47.4648 52.6289 47.2012 53.6836 47.2012C54.7559 47.2012 55.6055 47.4707 56.2324 48.0098C56.8652 48.5488 57.1816 49.2725 57.1816 50.1807V56.5H55.7314V54.9268H55.6963C55.4209 55.4482 55.0166 55.8672 54.4834 56.1836C53.9502 56.5 53.376 56.6582 52.7607 56.6582ZM62.8418 55.2256C63.6387 55.2256 64.2803 54.9209 64.7666 54.3115C65.2529 53.7021 65.4961 52.8965 65.4961 51.8945C65.4961 50.8867 65.2529 50.0781 64.7666 49.4688C64.2803 48.8535 63.6387 48.5459 62.8418 48.5459C62.0508 48.5459 61.418 48.8506 60.9434 49.46C60.4746 50.0635 60.2402 50.875 60.2402 51.8945C60.2402 52.9141 60.4746 53.7256 60.9434 54.3291C61.418 54.9268 62.0508 55.2256 62.8418 55.2256ZM62.8945 59.9453C61.8926 59.9453 61.0312 59.6904 60.3105 59.1807C59.5898 58.6768 59.165 58.0352 59.0361 57.2559H60.6094C60.7617 57.6777 61.0488 58.0146 61.4707 58.2666C61.8926 58.5186 62.3877 58.6445 62.9561 58.6445C63.7412 58.6445 64.3594 58.4365 64.8105 58.0205C65.2676 57.6045 65.4961 57.0537 65.4961 56.3682V54.9268H65.4609C65.1738 55.4307 64.7725 55.832 64.2568 56.1309C63.7412 56.4238 63.167 56.5703 62.5342 56.5703C61.3682 56.5703 60.4336 56.1455 59.7305 55.2959C59.0273 54.4463 58.6758 53.3125 58.6758 51.8945C58.6758 50.4648 59.0273 49.3252 59.7305 48.4756C60.4395 47.626 61.3857 47.2012 62.5693 47.2012C63.2139 47.2012 63.7939 47.3506 64.3096 47.6494C64.8252 47.9482 65.2354 48.3643 65.54 48.8975H65.5664V47.3594H67.0254V56.3154C67.0254 57.4111 66.6504 58.29 65.9004 58.9521C65.1504 59.6143 64.1484 59.9453 62.8945 59.9453Z" fill="black"></path>
</svg>