<svg width="73" height="54" viewBox="0 0 73 54" fill="none" xmlns="http://www.w3.org/2000/svg">
<g clip-path="url(#clip0_2424_9864)">
<path d="M73.0013 10.5173C73.0013 21.5057 73.0013 32.4941 73.0013 43.4806C72.6698 43.4653 72.3403 43.4347 72.0089 43.4347C48.3441 43.4328 24.6794 43.4328 1.01459 43.4328C0.690781 43.4328 0.366972 43.4328 0.0507812 43.4328C0.0507812 32.429 0.0507812 21.5268 0.0507812 10.5633C0.427924 10.5633 0.757448 10.5633 1.08507 10.5633C24.7251 10.5633 48.367 10.5633 72.007 10.5614C72.3403 10.5633 72.6717 10.5346 73.0013 10.5173ZM27.4394 26.9664C27.4394 30.4282 27.4241 33.89 27.4451 37.3517C27.4584 39.4349 29.1936 40.4286 30.986 39.3909C36.8889 35.977 42.786 32.5573 48.6794 29.1281C50.6432 27.9851 50.6451 26.0129 48.6794 24.8699C42.786 21.4406 36.8851 18.0229 30.9841 14.609C30.7003 14.4444 30.386 14.2969 30.0698 14.2395C28.5879 13.9657 27.4508 15.0035 27.4432 16.652C27.4298 20.0908 27.4394 23.5296 27.4394 26.9664Z" fill="#F67D5A"/>
<path d="M73.0018 8.08192C69.1599 8.09341 65.316 8.10681 61.4741 8.1183C61.1237 8.12021 60.7732 8.1183 60.3789 8.1183C60.3789 5.40901 60.3789 2.77249 60.3789 0.061286C60.636 0.0478832 60.8856 0.0229922 61.1351 0.0229922C64.0303 0.0210776 66.9256 0.0670301 69.8189 0.00193065C71.4018 -0.0344484 72.4627 0.56102 73.0018 2.06214C73.0018 4.06873 73.0018 6.07533 73.0018 8.08192Z" fill="#F67D5A"/>
<path d="M73 51.9379C72.459 53.4371 71.4 54.0344 69.8171 53.9981C66.9485 53.933 64.0761 53.9789 61.2057 53.9789C60.9485 53.9789 60.6895 53.9789 60.3828 53.9789C60.3828 51.283 60.3828 48.6484 60.3828 45.9755C60.4514 45.9506 60.5352 45.8932 60.619 45.8932C64.7466 45.897 68.8742 45.9085 73 45.9162C73 47.9247 73 49.9313 73 51.9379Z" fill="#F67D5A"/>
<path d="M27.6971 0.0689697C27.6971 2.77443 27.6971 5.41095 27.6971 8.08386C23.5066 8.08386 19.3581 8.08386 15.1523 8.08386C15.1523 5.42819 15.1523 2.77443 15.1523 0.0689697C19.3162 0.0689697 23.4781 0.0689697 27.6971 0.0689697Z" fill="#F67D5A"/>
<path d="M45.293 8.06464C45.293 5.37068 45.293 2.73223 45.293 0.0593262C49.5006 0.0593262 53.6644 0.0593262 57.8644 0.0593262C57.8644 2.73606 57.8644 5.3745 57.8644 8.06464C53.6873 8.06464 49.5253 8.06464 45.293 8.06464Z" fill="#F67D5A"/>
<path d="M27.6933 53.9616C23.4609 53.9616 19.3352 53.9616 15.1523 53.9616C15.1523 51.2887 15.1523 48.6349 15.1523 45.9314C19.3181 45.9314 23.4819 45.9314 27.6933 45.9314C27.6933 48.6024 27.6933 51.2581 27.6933 53.9616Z" fill="#F67D5A"/>
<path d="M57.8683 45.9373C57.8683 48.6255 57.8683 51.262 57.8683 53.9387C53.6683 53.9387 49.5045 53.9387 45.2969 53.9387C45.2969 51.2658 45.2969 48.6293 45.2969 45.9373C49.4797 45.9373 53.6416 45.9373 57.8683 45.9373Z" fill="#F67D5A"/>
<path d="M42.7774 0.0650635C42.7774 2.75329 42.7774 5.39173 42.7774 8.07421C38.5946 8.07421 34.4479 8.07421 30.2422 8.07421C30.2422 5.42045 30.2422 2.76478 30.2422 0.0650635C34.4022 0.0650635 38.5489 0.0650635 42.7774 0.0650635Z" fill="#F67D5A"/>
<path d="M42.7774 45.9277C42.7774 48.614 42.7774 51.2525 42.7774 53.935C38.5946 53.935 34.4498 53.935 30.2422 53.935C30.2422 51.2812 30.2422 48.6274 30.2422 45.9277C34.4003 45.9277 38.5469 45.9277 42.7774 45.9277Z" fill="#F67D5A"/>
<path d="M12.6189 0.0478995C12.6189 2.75527 12.6189 5.39371 12.6189 8.07428C8.41131 8.07428 4.2456 8.07428 0.0265497 8.07428C0.0265497 6.10023 -0.0382123 4.14725 0.0513116 2.20193C0.104645 1.07417 1.1275 0.0823639 2.21512 0.0670464C5.65512 0.0172645 9.09703 0.0478995 12.6189 0.0478995Z" fill="#F67D5A"/>
<path d="M12.6123 53.9809C12.3056 53.9809 12.0485 53.9809 11.7913 53.9809C8.8218 53.9809 5.85418 53.9867 2.88466 53.979C0.995132 53.9733 0.00465608 52.9527 0.000846561 51.0419C-0.0010582 49.3512 0.000846561 47.6624 0.000846561 45.9277C4.22942 45.9277 8.39513 45.9277 12.6123 45.9277C12.6123 48.5834 12.6123 51.2219 12.6123 53.9809Z" fill="#F67D5A"/>
<path d="M29.9336 16.813C35.8079 20.2211 41.5888 23.5757 47.4879 26.9991C41.5831 30.4264 35.8003 33.7829 29.9336 37.1872C29.9336 30.3786 29.9336 23.6523 29.9336 16.813Z" fill="#F67D5A"/>
</g>
<defs>
<clipPath id="clip0_2424_9864">
<rect width="73" height="54" fill="white"/>
</clipPath>
</defs>
</svg>
