<svg width="72" height="75" viewBox="0 0 72 75" fill="none" xmlns="http://www.w3.org/2000/svg">
<path d="M56.6957 75C42.6172 75 28.6405 75 14.5195 75C17.1302 67.3659 19.7239 59.7852 22.3388 52.1447C31.1769 55.3214 39.9874 55.3364 48.8743 52.1489C51.4828 59.7702 54.0786 67.3552 56.6957 75Z" fill="#F67D5A"/>
<path d="M34.8399 51.9866C25.7471 51.7942 17.2868 48.2967 10.2826 41.2975C9.77529 40.7908 9.3232 40.2115 8.75437 39.7861C7.74618 39.0293 7.46813 38.0438 7.64218 36.8637C7.66977 36.6734 7.77165 36.496 7.83957 36.3121C8.01574 36.4062 8.22162 36.4661 8.3617 36.6007C9.95782 38.1207 11.4627 39.7476 13.1437 41.1628C20.1267 47.0375 28.2262 49.7846 37.2913 49.3549C46.3035 48.9274 54.0315 45.3893 60.4584 38.9994C61.2501 38.2126 62.0248 37.4088 62.825 36.6328C62.9757 36.4874 63.2113 36.4297 63.4066 36.3292C63.4617 36.5195 63.5403 36.7076 63.57 36.9022C63.7589 38.0951 63.3026 38.9438 62.4472 39.8267C58.7498 43.6427 54.6704 46.8772 49.7738 49.0022C45.2401 50.9711 40.5133 51.9417 34.8399 51.9866Z" fill="#F67D5A"/>
<path d="M39.4142 21.5568C38.8985 21.0309 38.4082 20.7231 38.198 20.2827C37.5634 18.9401 37.0731 17.527 36.4448 16.1802C36.2411 15.7398 35.8484 15.3229 35.4388 15.06C34.5495 14.4892 33.5858 14.0381 32.6668 13.5144C31.4952 12.8474 31.4931 11.7165 32.6498 11.0388C32.6732 11.0259 32.6965 11.0153 32.7199 11.0024C33.883 10.329 35.2923 9.8758 36.1413 8.91806C36.9734 7.97956 37.2323 6.52798 37.7438 5.30088C37.886 4.95669 38.0282 4.6125 38.1683 4.26832C38.3954 3.70393 38.7732 3.3234 39.4079 3.31913C40.0446 3.31485 40.4267 3.69324 40.6601 4.25335C41.2417 5.65148 41.7935 7.06457 42.4176 8.44346C42.5874 8.81758 42.9142 9.18315 43.2623 9.4012C44.2047 9.98696 45.2044 10.4787 46.1701 11.0302C47.3375 11.6972 47.3396 12.8324 46.1871 13.5122C45.7775 13.7538 45.3742 14.0296 44.9306 14.1899C43.1541 14.8355 42.1268 16.1075 41.6237 17.9161C41.3903 18.7541 41.0252 19.5729 40.6113 20.3382C40.3863 20.7551 39.9321 21.0459 39.4142 21.5568Z" fill="#F67D5A"/>
<path d="M24.7891 44.985C25.2836 43.542 25.7378 42.1588 26.2451 40.7949C26.3066 40.6281 26.6335 40.4635 26.8394 40.4635C32.6848 40.4464 38.528 40.4464 44.3733 40.4635C44.5771 40.4635 44.9018 40.6324 44.9634 40.7991C45.4686 42.1631 45.9249 43.5462 46.4173 44.9871C39.1775 47.467 32.0247 47.4691 24.7891 44.985Z" fill="#F67D5A"/>
<path d="M5.04133 69.8672C4.19657 69.8672 3.41125 69.8672 2.58984 69.8672C2.58984 58.7976 2.58984 47.7644 2.58984 36.6713C3.38154 36.6713 4.18384 36.6713 5.04133 36.6713C5.04133 47.7067 5.04133 58.757 5.04133 69.8672Z" fill="#F67D5A"/>
<path d="M66.168 36.6433C67.0042 36.6433 67.7896 36.6433 68.6131 36.6433C68.6131 47.7108 68.6131 58.7419 68.6131 69.8393C67.8299 69.8393 67.0276 69.8393 66.168 69.8393C66.168 58.8124 66.168 47.7599 66.168 36.6433Z" fill="#F67D5A"/>
<path d="M20.793 23.389C21.3745 22.8567 21.9582 22.3223 22.5101 21.8177C31.2229 28.911 39.9697 28.9131 48.793 21.7515C49.2833 22.2517 49.8351 22.8204 50.3891 23.3869C43.058 31.4422 28.8457 31.9146 20.793 23.389Z" fill="#F67D5A"/>
<path d="M7.62952 25.0607C7.64013 27.1536 5.95275 28.8873 3.87907 28.9173C1.76931 28.9472 0.0288576 27.2284 0.0118776 25.097C-0.0072249 23.0148 1.69926 21.2618 3.76233 21.2404C5.88058 21.2212 7.61891 22.9378 7.62952 25.0607Z" fill="#F67D5A"/>
<path d="M71.1958 25.1014C71.1873 27.1921 69.4829 28.9067 67.405 28.9152C65.2973 28.9238 63.576 27.1879 63.5781 25.0543C63.5802 22.9742 65.3037 21.2405 67.3689 21.2405C69.485 21.2426 71.2043 22.9764 71.1958 25.1014Z" fill="#F67D5A"/>
<path d="M17.8594 23.7374C18.6999 23.7374 19.4852 23.7374 20.3087 23.7374C20.3087 28.3829 20.3087 33.0711 20.3087 37.8235C19.5213 37.8235 18.719 37.8235 17.8594 37.8235C17.8594 33.1395 17.8594 28.4363 17.8594 23.7374Z" fill="#F67D5A"/>
<path d="M53.346 37.8491C52.4991 37.8491 51.7159 37.8491 50.8945 37.8491C50.8945 33.1032 50.8945 28.3979 50.8945 23.7374C51.7202 23.7374 52.5076 23.7374 53.346 23.7374C53.346 28.3872 53.346 33.0882 53.346 37.8491Z" fill="#F67D5A"/>
<path d="M19.0589 21.232C17.6729 21.2234 16.5416 20.0818 16.5352 18.6816C16.5267 17.3005 17.6792 16.1247 19.0482 16.1183C20.4703 16.1098 21.6313 17.2834 21.6122 18.7115C21.591 20.1054 20.4448 21.2405 19.0589 21.232Z" fill="#F67D5A"/>
<path d="M54.6709 18.6707C54.673 20.0667 53.5438 21.219 52.1578 21.2339C50.74 21.2468 49.5811 20.0774 49.5939 18.6429C49.6066 17.2619 50.7761 16.1053 52.1472 16.1181C53.5375 16.131 54.6687 17.2747 54.6709 18.6707Z" fill="#F67D5A"/>
<path d="M7.63196 75C5.05737 75 2.58254 75 0.0121973 75C0.0121973 74.5596 -0.00902772 74.1427 0.0164423 73.728C0.0631372 72.9669 0.523719 72.4881 1.28782 72.4774C2.97945 72.4517 4.67108 72.4517 6.36059 72.4774C7.12044 72.4881 7.5789 72.9712 7.62772 73.7344C7.65319 74.1299 7.63196 74.5275 7.63196 75Z" fill="#F67D5A"/>
<path d="M71.2004 74.9936C68.6428 74.9936 66.168 74.9936 63.5977 74.9936C63.5977 74.4998 63.5361 73.9974 63.6125 73.5185C63.7165 72.8665 64.1644 72.4838 64.8287 72.4774C66.5203 72.4581 68.212 72.4539 69.9015 72.4774C70.6995 72.4881 71.1559 72.9776 71.1962 73.79C71.2153 74.1598 71.2004 74.5318 71.2004 74.9936Z" fill="#F67D5A"/>
<path d="M3.80265 34.0459C3.00884 34.0459 2.2129 34.0587 1.41908 34.0416C0.553106 34.0224 0.00125665 33.5008 0.0118691 32.7482C0.0224816 31.9957 0.572208 31.4955 1.45092 31.4891C3.03855 31.4762 4.6283 31.4741 6.21593 31.4891C7.08191 31.4976 7.63376 32.0278 7.62527 32.7803C7.61466 33.5328 7.06493 34.0267 6.18409 34.0416C5.3924 34.0566 4.59646 34.0459 3.80265 34.0459Z" fill="#F67D5A"/>
<path d="M67.388 34.0439C66.5666 34.0439 65.7452 34.061 64.9259 34.0396C64.113 34.0161 63.5803 33.4944 63.5781 32.7676C63.576 32.0386 64.1066 31.502 64.9174 31.4913C66.5581 31.4699 68.2009 31.4721 69.8416 31.4913C70.6545 31.502 71.1873 32.0343 71.1915 32.759C71.1937 33.4838 70.6609 34.0139 69.8501 34.0375C69.0308 34.0631 68.2094 34.0439 67.388 34.0439Z" fill="#F67D5A"/>
<path d="M27.9882 3.31918C27.9882 2.49826 27.9882 1.67948 27.9882 0.802979C28.8181 0.802979 29.6183 0.802979 30.5055 0.802979C30.5055 1.641 30.5055 2.47902 30.5055 3.31918L30.5288 3.29781C29.6735 3.29781 28.8181 3.29781 27.9648 3.29781L27.9882 3.31918Z" fill="#F67D5A"/>
<path d="M27.9904 5.85657C27.1753 5.85657 26.3624 5.85657 25.4922 5.85657C25.4922 5.02068 25.4922 4.21473 25.4922 3.31899C26.3242 3.31899 27.1583 3.31899 27.9925 3.31899L27.9691 3.29761C27.9691 4.15915 27.9691 5.02068 27.9691 5.88222L27.9904 5.85657Z" fill="#F67D5A"/>
<path d="M30.5078 3.31929C31.3229 3.31929 32.1358 3.31929 33.006 3.31929C33.006 4.15518 33.006 4.96327 33.006 5.85688C32.1761 5.85688 31.342 5.85688 30.5078 5.85688L30.529 5.88039C30.529 5.01885 30.529 4.15731 30.529 3.29578L30.5078 3.31929Z" fill="#F67D5A"/>
<path d="M58.4497 3.35339C58.4497 4.17645 58.4497 4.96317 58.4497 5.81188C57.6516 5.81188 56.8493 5.81188 55.9961 5.81188C55.9961 5.01234 55.9961 4.20638 55.9961 3.35339C56.792 3.35339 57.5731 3.35339 58.4497 3.35339Z" fill="#F67D5A"/>
<path d="M16.4778 7.11811C15.6479 7.11811 14.8668 7.11811 14.0391 7.11811C14.0391 6.28009 14.0391 5.472 14.0391 4.62756C14.8541 4.62756 15.6352 4.62756 16.4778 4.62756C16.4778 5.42924 16.4778 6.23734 16.4778 7.11811Z" fill="#F67D5A"/>
<path d="M30.5076 5.85681C30.5076 6.67773 30.5076 7.49865 30.5076 8.37515C29.6756 8.37515 28.8754 8.37515 27.9861 8.37515C27.9861 7.53713 27.9861 6.69697 27.9861 5.85681L27.9648 5.88033C28.8202 5.88033 29.6756 5.88033 30.5288 5.88033L30.5076 5.85681Z" fill="#F67D5A"/>
<path d="M27.9883 19.9064C27.9883 19.0662 27.9883 18.2966 27.9883 17.4629C28.7948 17.4629 29.595 17.4629 30.4567 17.4629C30.4567 18.2411 30.4567 19.047 30.4567 19.9064C29.6608 19.9064 28.8606 19.9064 27.9883 19.9064Z" fill="#F67D5A"/>
</svg>
