<svg width="296" height="310" viewBox="0 0 296 310" fill="none" xmlns="http://www.w3.org/2000/svg">
<g style="mix-blend-mode:luminosity">
<path d="M286.809 302.7C291.821 308.309 293.877 310.466 294.936 309.47C296.12 308.33 292.644 305.182 288.357 300.054C281.64 292.111 253.859 263.147 250.417 257.82C234.027 232.298 226.979 235.42 217.171 237.084C200.009 239.974 203.41 228.708 215.388 206.313C221.221 195.459 232.713 175.998 223.005 169.528C212.077 162.285 170.608 228.317 164.875 223.511C154.557 214.937 196.301 175.185 231.177 99.0352C254.442 48.1796 245.243 15.5704 235.448 12.5013C222.221 8.33185 204.947 37.4844 195.246 71.3647C190.107 89.2845 188.189 112.103 184.884 124.941C184.184 127.641 182.12 128.068 181.725 124.451C178.913 100.86 176.848 76.9301 172.589 62.2467C163.57 31.0197 145.401 -0.633002 134.64 0.643416C122.33 2.16139 122.125 43.6216 131.655 74.0958C137.829 93.8412 148.947 117.311 155.934 131.763C156.832 134.119 155.653 135.14 154.227 132.893C145.971 120.174 134.352 100.997 122.474 86.7503C102.367 62.5936 62.0747 34.6156 53.8259 43.0126C46.922 50.0088 55.0913 83.6154 96.7441 122.2C105.528 130.344 123.509 144.336 134.563 152.81C136.272 154.025 135.409 156.015 132.896 154.734C119.89 147.214 97.156 133.673 73.9427 126.007C47.3294 117.213 8.76792 115.702 3.50576 126.493C-1.52446 136.757 28.8256 162.974 67.8379 171.628C85.245 175.469 108.181 176.805 122.515 177.502C125.718 177.666 125.102 179.802 123.179 180.071C106.731 182.338 78.8218 184.802 67.6563 187.135C36.224 193.707 -4.34229 212.891 0.631919 227.951C4.31561 239.038 43.3073 239.24 73.6422 229.406C95.4964 222.314 123.069 211.113 140.383 198.209C142.867 196.369 142.31 194.76 139.412 196.148C128.646 201.322 107.686 211.203 81.5244 218.797C59.1441 225.282 37.071 225.734 33.5402 218.342C26.0406 202.641 93.2668 188.431 129.544 181.697C142.82 179.238 143.757 177.266 129.846 175.439C116.395 173.678 97.245 170.428 74.1327 164.215C42.799 155.814 26.8964 144.501 28.1612 138.079C29.6371 130.576 48.8259 129.154 79.7112 138.252C104.654 145.625 125.914 155.648 138.402 160.664C149.203 164.99 150.966 163.608 140.974 154.393C129.03 143.384 112.099 126.886 95.2826 107.392C76.6889 85.8597 68.2265 69.2932 72.2784 63.6727C75.6319 59.0052 93.2708 68.8456 113.724 92.2568C131.139 109.314 146.939 128.477 157.368 142.044C163.655 150.266 165.92 150.715 161.18 138.503C154.202 120.437 144.694 93.5781 140.408 71.2775C135.249 44.3069 135.132 28.8156 139.708 25.8925C148.859 20.106 159.856 43.2863 165.929 72.2258C171.657 93.6379 175.895 118.415 179.392 133.452C181.391 142.071 183.97 144.237 186.087 135.032C189.621 119.696 195.674 95.1883 202.785 73.8061C212.008 46.086 223.782 29.4305 230.936 32.8247C238.193 36.2386 234.394 60.7764 226.007 85.0411C210.156 130.925 181.817 178.633 163.842 206.394C150.413 227.139 147.102 241.127 159.869 236.643C175.501 231.173 206.798 179.646 216.966 186.182C223.037 190.078 203.475 215.54 198.853 229.124C194.859 240.959 196.212 248.996 219.584 243.409C234.898 239.746 237.435 253.513 253.152 269.774C253.137 269.789 281.075 296.863 286.809 302.7Z" fill="url(#paint0_radial_10623_6010)" fill-opacity="0.4"/>
</g>
<defs>
<radialGradient id="paint0_radial_10623_6010" cx="0" cy="0" r="1" gradientUnits="userSpaceOnUse" gradientTransform="translate(171.731 178.659) rotate(47.5768) scale(179.677 160.076)">
<stop stop-color="#D9BD47"/>
<stop offset="1" stop-color="#D9BD47" stop-opacity="0"/>
</radialGradient>
</defs>
</svg>
