<svg width="520" height="620" viewBox="0 0 520 620" fill="none" xmlns="http://www.w3.org/2000/svg">
<g style="mix-blend-mode:luminosity">
<path d="M486.267 604.07C493.064 616.152 495.91 620.849 498.21 619.476C500.794 617.894 495.785 610.85 490.103 599.922C481.163 582.962 442.645 519.817 438.563 508.865C419.183 456.432 405.259 459.256 386.947 458.363C354.912 456.76 365.501 437.832 395.939 402.274C410.739 385.051 439.139 354.581 424.232 339.088C407.435 321.719 306.619 424.123 298.205 413.199C283.034 393.677 373.927 338.682 466.889 215.453C528.924 133.146 525.298 70.8087 508.884 61.4011C486.731 48.6526 444.083 94.273 413.191 151.405C396.837 181.62 384.338 221.929 373.298 243.725C370.968 248.307 367.084 248.257 367.807 241.589C372.1 198.015 377.871 154.127 376.027 126.011C372.175 66.2325 352.024 2.05998 332.15 0.0906763C309.393 -2.05779 292.585 72.4817 297.655 131.108C300.939 169.094 311.645 215.744 318.489 244.524C319.171 249.122 316.644 250.49 314.97 245.882C305.152 219.717 291.844 180.594 276.115 150.244C249.503 98.7941 188.077 32.4639 169.901 44.3064C154.702 54.1609 156.081 117.886 215.75 203.845C228.33 221.985 255.145 254.299 271.68 273.932C274.275 276.796 271.932 280.037 267.919 276.734C247.49 258.044 211.943 224.657 173.202 201.657C128.79 175.277 59.9851 157.27 46.2358 174.605C33.1128 191.084 77.3432 250.302 144.127 281.346C173.933 295.161 214.684 306.659 240.206 313.596C245.906 315.161 243.951 318.763 240.384 318.484C209.881 316.042 158.673 309.412 137.652 309.184C78.4737 308.55 -2.14408 326.993 0.83752 356.071C3.07146 377.487 73.1696 393.309 131.666 387.637C173.811 383.538 227.878 374.309 264.155 357.95C269.356 355.622 268.991 352.506 263.226 353.856C241.797 358.899 200.155 368.373 150.059 371.668C107.207 374.467 67.3003 366.528 63.8762 351.823C56.6032 320.592 183.232 321.671 251.195 323.933C276.064 324.772 278.532 321.593 254.219 312.79C230.708 304.287 197.53 290.845 158.395 270.5C105.332 242.955 81.1951 216.29 86.0176 205.232C91.6487 192.314 126.749 197.363 178.73 225.983C220.7 249.142 254.988 275.611 275.476 289.591C293.202 301.659 296.921 299.871 282.592 279.323C265.46 254.773 241.527 218.367 218.991 176.615C194.063 130.488 185.4 97.3162 194.921 88.8068C202.807 81.7358 230.653 106.44 258.182 156.685C282.763 194.29 303.602 235.044 316.994 263.597C325.05 280.888 328.948 282.594 325.259 258.735C319.862 223.454 313.398 171.342 314.526 129.506C315.936 78.9187 321.866 50.9905 331.262 47.544C350.026 40.7574 360.627 86.8378 360.083 141.331C361.904 182.14 359.708 228.415 360.04 256.864C360.221 273.171 364.003 278.092 371.463 262.364C383.904 236.162 404.515 194.453 425.791 158.788C453.382 112.554 481.176 87.2453 492.706 96.1905C504.414 105.212 487.847 147.87 463.133 188.217C416.411 264.515 346.491 339.144 303.133 381.982C270.738 413.995 259.233 437.858 283.989 434.85C314.292 431.203 391.051 350.872 406.759 366.667C416.142 376.087 370.839 414.158 357.134 436.773C345.254 456.491 344.502 471.493 388.782 470.702C417.797 470.181 416.905 495.965 438.746 531.465C438.712 531.485 478.262 591.291 486.267 604.07Z" fill="url(#paint0_radial_8604_11923)" fill-opacity="0.4"/>
</g>
<defs>
<radialGradient id="paint0_radial_8604_11923" cx="0" cy="0" r="1" gradientUnits="userSpaceOnUse" gradientTransform="translate(328.327 335.192) rotate(60) scale(331.139 295.014)">
<stop stop-color="#C4FFF1"/>
<stop offset="1" stop-color="#C4FFF1" stop-opacity="0"/>
</radialGradient>
</defs>
</svg>
