<svg width="266" height="136" viewBox="0 0 266 136" fill="none" xmlns="http://www.w3.org/2000/svg">
<path d="M125.354 132.034C125.322 134.88 125.346 136.008 125.896 136C126.518 135.984 126.35 134.217 126.462 131.69C126.613 127.756 126.247 112.571 126.645 110.205C128.582 98.8901 125.816 97.9625 122.651 95.9235C117.119 92.3493 120.945 90.0704 130.009 86.8719C134.41 85.3287 142.589 82.8259 141.529 78.54C140.325 73.7264 111.881 81.5865 111.506 78.7799C110.813 73.7503 132.624 73.3026 161.809 60.9326C181.292 52.6646 187.048 41.2062 185.095 37.8479C182.464 33.3061 170.195 37.0403 158.836 44.0289C152.825 47.7231 146.463 53.6082 142.262 56.3508C141.377 56.9266 140.692 56.5188 141.505 55.4073C146.742 48.0989 152.275 40.8864 154.834 35.6969C160.286 24.6703 163.292 11.1889 159.96 8.79806C156.133 6.07939 145.491 17.6098 140.373 28.5564C137.056 35.649 134.171 45.0444 132.433 50.8655C132.082 51.7531 131.492 51.7371 131.667 50.7456C132.608 45.0843 134.258 36.7604 134.577 29.7478C135.127 17.8656 131.014 -0.237523 126.565 0.00235973C122.85 0.194266 116.553 11.6687 118.338 33.0822C118.713 37.6 120.164 46.0998 121.089 51.2893C121.256 52.0649 120.507 52.4008 120.132 51.4013C118.418 45.9799 115.524 36.3926 110.996 28.3245C105.807 19.073 95.4192 8.80606 91.1941 10.4772C87.1683 12.0605 88.954 27.1331 97.6434 39.5111C101.526 45.0284 107.592 51.2573 111.419 55.1115C112.272 55.975 111.554 56.4148 110.948 55.999C105.775 52.4328 97.3484 45.9959 93.6335 43.797C83.1744 37.608 66.9437 32.6104 64.4883 38.0878C62.6867 42.1258 73.5285 52.1369 84.5137 57.1345C92.4298 60.7327 102.993 64.6428 111.124 65.4584C112.288 65.5783 112.543 64.9866 111.379 64.6348C107.05 63.3314 98.6718 60.7407 89.4244 56.1829C81.5163 52.2808 75.2344 46.7715 76.1353 43.805C78.0485 37.504 100.457 50.6976 112.312 58.078C116.648 60.7807 117.414 60.4688 113.994 56.4068C110.685 52.4807 106.165 46.6836 101.295 39.0473C94.6858 28.7003 93.1313 21.4799 95.1243 20.0086C97.4521 18.2894 103.176 22.7912 109.482 33.2181C114.568 41.646 117.948 49.874 120.156 54.4638C122.069 58.4298 122.914 58.4938 122.476 53.3683C121.95 47.2433 121.431 38.3117 121.711 28.5724C122.013 17.8097 123.879 11.021 126.446 10.4852C128.574 10.0375 130.99 17.2899 130.727 29.0522C131.237 38.2637 130.759 47.6511 130.209 54.1039C129.866 58.006 130.384 58.7097 132.178 54.088C134.84 47.2593 139.041 37.3281 143.538 30.0037C148.982 21.152 152.904 16.7942 154.929 17.146C158.963 17.8656 156.117 27.1491 150.425 36.7844C146.559 44.2288 141.417 52.2329 138.555 57.3264C136.913 60.2449 137.08 61.5083 140.022 59.4773C144.925 56.095 152.873 50.7936 160.318 46.6356C169.972 41.2462 177.514 39.599 178.646 42.3737C179.802 45.1803 172.475 51.0654 163.938 55.7032C147.795 64.4749 127.697 70.5679 115.588 73.7344C106.54 76.1012 102.044 79.1637 106.755 81.1707C112.519 83.6335 134.418 77.2287 135.59 81.6505C136.291 84.2892 124.325 86.4082 119.566 89.0229C115.429 91.3098 113.755 93.9005 121.711 98.3064C126.924 101.193 124.118 105.687 124.357 114.243C124.349 114.243 125.242 128.939 125.354 132.034Z" fill="#C082B8"/>
<path d="M54.3463 126.415C52.8907 127.053 50.6905 127.053 49.2349 127.053C43.7888 127.053 42.5841 126.25 42.467 122.462C42.4252 121.454 42.4503 118.926 42.4586 116.895L42.467 114.894V111.052C42.467 110.146 43.0693 110.13 43.3287 110.13H50.749C54.1539 110.13 54.5805 113.264 54.6056 113.438C54.6475 112.682 54.6056 107.634 54.6056 107.634C54.1455 108.476 53.1751 108.595 51.7278 108.595H43.3789C42.9689 108.595 42.467 108.461 42.467 107.594V95.2702C42.467 94.3409 43.1697 94.2385 43.3789 94.2385H49.6029C54.6307 94.2385 55.1327 96.5223 55.1661 96.0419L55.2414 95.2229C55.3418 93.6952 54.9235 92.7266 51.7362 92.7266H34.3857C36.36 93.1518 36.8201 94.2622 36.9289 95.9789C37.0293 97.546 37.0293 98.8926 37.0293 106.327V114.902C37.0293 119.391 37.0293 123.266 36.7699 125.337C36.5943 126.526 35.6573 128.266 33.3818 128.581H52.5309C55.9609 128.581 56.3039 127.416 56.8727 123.014C56.4461 124.841 55.7183 125.825 54.3463 126.415Z" fill="white"/>
<path d="M33.2172 128.55C32.3707 128.384 30.3172 127.897 27.6444 125.12C25.1441 122.477 22.3303 118.906 18.7562 114.39L16.7419 111.85C16.7419 111.85 23.9214 109.962 23.3649 100.994C23.169 97.8554 21.523 95.582 20.2846 94.7325C17.7138 92.9625 14.461 92.7266 11.6315 92.7266L0 92.7659C1.83408 93.1907 2.273 94.2684 2.3749 95.9832C2.46895 97.5643 2.46895 98.9016 2.46895 106.359V114.941C2.46895 119.44 2.46895 123.319 2.22598 125.403C2.06138 126.607 1.83408 128.235 0.407573 128.534C0.384059 128.542 0.352708 128.542 0.321356 128.55L10.0012 128.565C9.93068 128.558 9.83662 128.55 9.76608 128.534C7.88497 128.282 7.57146 126.78 7.42254 125.395C7.17956 123.326 7.17956 119.425 7.17956 114.902V114.217V110.213V95.3854C7.17956 95.1572 7.17956 94.4414 7.98687 94.2054C8.4885 94.056 9.30364 94.0009 10.7066 94.0009C13.6615 94.0009 18.6622 95.9832 18.6622 103.44C18.6622 108.2 16.734 110.323 15.5818 111.165C14.5629 111.905 13.9202 112.251 11.9372 112.471L11.8588 112.479C12.3291 112.565 13.1991 113.47 13.5832 113.934C13.9515 114.375 14.8372 115.617 15.9345 117.191L18.4192 120.699C21.2016 124.538 22.973 126.685 24.9012 127.716C26.1239 128.377 27.3152 128.581 29.8626 128.581H33.3818L33.3034 128.565C33.2878 128.565 33.2799 128.558 33.2642 128.558C33.2799 128.558 33.2956 128.55 33.3191 128.55H33.2172Z" fill="white"/>
<path d="M80.4519 126.415C79.0733 127.053 76.9818 127.053 75.6112 127.053C70.4536 127.053 69.3127 126.25 69.2018 122.462C69.1701 121.454 69.178 118.926 69.1939 116.895L69.2018 114.894V111.052C69.2018 110.146 69.7722 110.13 70.0099 110.13H77.0372C80.2538 110.13 80.6658 113.264 80.6896 113.438C80.7371 112.682 80.6896 107.634 80.6896 107.634C80.2538 108.476 79.3348 108.595 77.9642 108.595H70.0574C69.6613 108.595 69.1939 108.461 69.1939 107.594V95.2702C69.1939 94.3409 69.8515 94.2385 70.0574 94.2385H75.9519C80.7054 94.2385 81.1808 96.5223 81.2125 96.0419L81.2838 95.2229C81.3788 93.6952 80.9827 92.7266 77.9642 92.7266H61.5407C63.4104 93.1518 63.8461 94.2622 63.9412 95.9789C64.0363 97.546 64.0363 98.8926 64.0363 106.327V114.902C64.0363 119.391 64.0363 123.266 63.7907 125.337C63.6243 126.526 62.737 128.266 60.582 128.581H78.7168C81.9651 128.581 82.2899 127.416 82.8366 123.014C82.4404 124.841 81.7433 125.825 80.4519 126.415Z" fill="white"/>
<path d="M212.623 122.941C210.828 118.777 199.392 92.7266 199.392 92.7266L186.033 123.962C185.107 126.216 184.084 128.094 181.692 128.565C181.281 128.495 180.839 128.416 180.323 128.251C178.552 127.725 178.004 126.036 177.553 122.909L172.713 92.7894L172.705 92.8287C172.552 92.8287 158.604 120.01 158.604 120.01L143.521 92.758L138.319 124.331C138.134 125.659 137.747 128.102 136 128.581H143.103C142.966 128.558 142.837 128.542 142.7 128.518C141.146 128.141 140.816 127.198 140.816 126.444C140.816 125.612 140.872 124.936 140.969 124.095C140.977 124.088 143.795 104.479 143.795 104.479L156.76 128.526L169.484 104.393L172.914 125.588C172.971 125.934 173.011 126.342 173.011 126.727C173.011 127.411 172.6 128.385 171.505 128.573H181.612H181.724H189.262C188.287 128.204 188.086 127.411 188.086 126.735C188.086 126.114 188.521 124.952 189.061 123.624C189.061 123.632 191.984 116.609 191.984 116.609C192.056 116.428 192.225 115.886 192.934 115.886H203.379C203.846 115.886 204.192 116.122 204.377 116.554C204.385 116.562 208.637 126.892 208.637 126.892C208.71 127.081 208.742 127.269 208.742 127.458C208.742 127.662 208.71 127.858 208.621 128.039C208.532 128.228 208.339 128.424 208.162 128.55C208.194 128.55 217.6 128.573 217.6 128.573C217.6 128.573 217.366 128.51 217.278 128.503C215.949 128.173 214.524 127.34 212.623 122.941ZM203.016 114.213C202.952 114.315 202.759 114.48 202.404 114.48H193.876C193.659 114.48 193.465 114.409 193.329 114.252C193.232 114.134 193.135 113.93 193.216 113.616L193.232 113.592L198.233 101.58L203.145 113.506C203.169 113.592 203.193 113.82 203.193 113.89C203.193 114.032 203.097 114.11 203.016 114.213Z" fill="white"/>
<path d="M231.944 126.936C229.066 127.077 227.307 126.708 226.381 125.704C225.199 124.402 225.199 121.601 225.199 114.845V106.285C225.199 98.8466 225.199 97.5127 225.292 95.9357C225.393 94.2723 225.798 93.0953 227.354 92.7344L217.714 92.7266C219.55 93.1581 219.986 94.233 220.087 95.9435C220.188 97.5206 220.188 98.8544 220.188 106.293V114.853C220.188 119.341 220.126 123.201 219.939 125.288C219.799 126.85 219.006 128.152 217.621 128.419C217.582 128.427 217.605 128.435 217.621 128.435C218.477 128.435 219.854 127.917 222.865 127.862C228.505 127.728 230.458 129.047 235.095 128.403C239.367 127.807 240.036 124.143 239.818 122.848C239.771 123.758 237.523 126.669 231.944 126.936Z" fill="white"/>
<path d="M265.785 122.84C265.731 123.758 263.491 126.669 257.916 126.936C255.031 127.077 253.274 126.708 252.348 125.704C251.174 124.402 251.159 121.601 251.159 114.845V106.285C251.159 98.8466 251.159 97.5127 251.26 95.9357C251.361 94.2723 251.75 93.0953 253.313 92.7344L243.686 92.7266C245.529 93.1581 245.957 94.233 246.05 95.9435C246.151 97.5206 246.151 98.8544 246.151 106.293V114.853C246.151 119.341 246.097 123.201 245.902 125.288C245.77 126.85 244.969 128.152 243.577 128.419C243.554 128.427 243.57 128.435 243.57 128.435C244.44 128.435 245.825 127.917 248.826 127.862C254.471 127.728 256.423 129.047 261.05 128.403C265.326 127.791 265.995 124.127 265.785 122.84Z" fill="white"/>
<path d="M104.239 92.7266L87.7822 92.7816C89.6469 93.2063 90.0833 94.2916 90.1865 95.9904C90.2896 97.5633 90.2896 98.9002 90.2896 106.34V114.975H90.2737C90.2737 119.655 90.2737 123.351 90.0198 125.435C89.8532 126.639 89.6231 128.267 88.179 128.558C88.1393 128.565 88.0996 128.565 88.0679 128.581H98.2561C98.1847 128.565 98.1054 128.581 98.0419 128.565C96.1296 128.314 95.8201 126.812 95.6773 125.427C95.4551 123.587 95.4313 120.496 95.4155 116.572H95.4313V111.067C95.4313 110.162 96.0026 110.139 96.2486 110.139H103.295C106.516 110.139 106.929 113.269 106.961 113.45C106.992 112.687 106.961 107.661 106.961 107.661C106.516 108.495 105.596 108.621 104.223 108.621H96.3042C95.9074 108.621 95.4313 108.479 95.4313 107.622V95.314C95.4313 94.386 96.0979 94.268 96.3042 94.268H102.208C106.976 94.268 107.445 96.5566 107.476 96.0769L107.548 95.2511C107.659 93.7254 107.27 92.7266 104.239 92.7266Z" fill="white"/>
</svg>
