<svg width="19" height="19" viewBox="0 0 19 19" fill="none" xmlns="http://www.w3.org/2000/svg">
<g clip-path="url(#clip0_4003_10725)">
<path d="M6.67932 6.68052C5.39936 6.68052 4.11894 6.68191 2.83898 6.67959C2.4035 6.67866 2.12603 6.32226 2.26082 5.9431C2.3389 5.72424 2.50063 5.60529 2.72697 5.57183C2.76927 5.56579 2.81342 5.56765 2.85664 5.56765C5.39844 5.56765 7.94023 5.56719 10.4816 5.56765C10.8092 5.56765 11.0388 5.72935 11.0955 5.99468C11.1722 6.35247 10.9282 6.6689 10.5564 6.67819C10.198 6.68702 9.83925 6.68052 9.48045 6.68052C8.54674 6.68052 7.61303 6.68052 6.67932 6.68052Z" fill="#F8485E"/>
<path d="M5.56227 7.79297C6.47134 7.79297 7.38042 7.79344 8.2895 7.79297C8.53396 7.79297 8.72452 7.88916 8.83002 8.11312C8.92437 8.31293 8.90392 8.5118 8.76774 8.68977C8.64086 8.85565 8.46425 8.90816 8.26115 8.90769C7.16663 8.90537 6.07211 8.90676 4.97759 8.90676C4.25396 8.90676 3.53032 8.91095 2.80715 8.9049C2.37631 8.90119 2.10536 8.49368 2.28057 8.12149C2.38933 7.89055 2.5836 7.79251 2.83596 7.79297C3.74411 7.7939 4.65319 7.79297 5.56227 7.79297Z" fill="#F8485E"/>
<path d="M5.56084 11.1329C4.64572 11.1329 3.7306 11.1361 2.81502 11.1315C2.38232 11.1291 2.10718 10.7277 2.27775 10.3541C2.38372 10.1227 2.57567 10.0191 2.82896 10.0195C3.54609 10.0205 4.26369 10.02 4.98082 10.02C6.08138 10.02 7.1824 10.0186 8.28296 10.0209C8.62921 10.0214 8.86763 10.2351 8.88297 10.5465C8.8997 10.8843 8.65384 11.131 8.28761 11.1324C7.379 11.1347 6.46992 11.1333 5.56084 11.1329Z" fill="#F8485E"/>
<path d="M5.55733 13.3599C4.64222 13.3599 3.7271 13.3636 2.81151 13.358C2.37975 13.3557 2.10647 12.951 2.27889 12.5779C2.38579 12.3465 2.57913 12.2456 2.83196 12.2461C3.72849 12.2475 4.62548 12.2466 5.52201 12.2466C6.44364 12.2466 7.3648 12.2452 8.28643 12.2475C8.602 12.2484 8.83206 12.4301 8.87528 12.7029C8.93431 13.0727 8.68148 13.358 8.28457 13.359C7.37549 13.3617 6.46641 13.3599 5.55733 13.3599Z" fill="#F8485E"/>
<path d="M8.90813 15.5862C9.43378 15.5862 9.95896 15.5853 10.4846 15.5867C10.8643 15.5876 11.1116 15.8088 11.1116 16.1424C11.1116 16.4765 10.8643 16.6986 10.4855 16.6991C9.42216 16.7005 8.35878 16.7 7.2954 16.6991C6.91708 16.6986 6.66843 16.4761 6.66797 16.1434C6.66797 15.8107 6.91662 15.5876 7.29447 15.5867C7.83267 15.5853 8.3704 15.5862 8.90813 15.5862Z" fill="#F8485E"/>
<path d="M12.9884 19C9.15359 19 5.31929 19 1.48453 19C1.46826 18.9917 1.45246 18.9791 1.43526 18.9759C0.539661 18.8072 0.000999547 18.1632 0.000534783 17.2459C-0.000394744 12.0826 -0.000394744 6.91883 0.0028586 1.75551C0.0028586 1.59009 0.017731 1.4191 0.0609541 1.26065C0.27614 0.476298 0.902176 0.00280838 1.73039 0.00187905C4.43903 -0.00137358 7.14767 0.000485069 9.85631 0.000949731C9.90883 0.000949731 9.96181 0.00791965 10.0199 0.0121016C10.0199 1.28527 10.0194 2.54032 10.0199 3.79537C10.0199 4.25214 10.2202 4.45334 10.6724 4.45334C11.866 4.4538 13.0595 4.45334 14.253 4.45334C14.3236 4.45334 14.3943 4.45334 14.4709 4.45334C14.4709 5.21492 14.4677 5.94443 14.4742 6.67395C14.4756 6.80917 14.4352 6.9021 14.3394 6.99689C13.1492 8.17667 11.958 9.35551 10.7807 10.5478C10.5716 10.7597 10.368 11.0097 10.2593 11.2811C10.0083 11.9107 9.79217 12.557 9.60906 13.2099C9.46638 13.7182 9.62161 14.1829 10.0153 14.5397C10.4047 14.8929 10.8658 15.0072 11.3752 14.8441C11.8924 14.6787 12.4051 14.4988 12.9214 14.3306C13.2932 14.2098 13.6162 14.0137 13.8932 13.7387C14.0424 13.5904 14.193 13.4441 14.345 13.2982C14.3766 13.268 14.4152 13.2447 14.4677 13.2062C14.4677 14.6132 14.4765 15.9918 14.463 17.37C14.4579 17.8755 14.2358 18.2951 13.8398 18.6223C13.5888 18.8295 13.2918 18.9192 12.9884 19ZM6.68012 6.67999C7.61383 6.67999 8.54754 6.67999 9.48171 6.67999C9.84051 6.67999 10.1993 6.6865 10.5576 6.67767C10.9295 6.66838 11.1735 6.35194 11.0968 5.99415C11.0401 5.72883 10.8105 5.56713 10.4828 5.56713C7.94102 5.56666 5.39923 5.56666 2.8579 5.56713C2.81468 5.56713 2.77099 5.56527 2.72823 5.57131C2.50143 5.60477 2.33969 5.72372 2.26207 5.94257C2.12729 6.32174 2.40429 6.67813 2.84024 6.67906C4.11973 6.68139 5.40016 6.67999 6.68012 6.67999ZM5.56236 7.79332C4.65328 7.79332 3.74421 7.79425 2.83513 7.79286C2.58276 7.79239 2.38849 7.89044 2.27974 8.12137C2.10452 8.49357 2.37594 8.90107 2.80631 8.90479C3.52995 8.91083 4.25312 8.90665 4.97676 8.90665C6.07128 8.90665 7.1658 8.90526 8.26031 8.90758C8.46388 8.90804 8.64003 8.85554 8.76691 8.68965C8.90308 8.51169 8.92353 8.31328 8.82918 8.11301C8.72368 7.88904 8.53267 7.79286 8.28866 7.79286C7.38052 7.79379 6.47144 7.79332 5.56236 7.79332ZM5.55957 11.1333C6.46865 11.1333 7.37773 11.1352 8.28681 11.1324C8.65304 11.1314 8.8989 10.8847 8.88217 10.5464C8.86683 10.2347 8.62841 10.0214 8.28216 10.0209C7.1816 10.019 6.08057 10.02 4.98001 10.02C4.26288 10.02 3.54529 10.0209 2.82816 10.0195C2.57486 10.019 2.38291 10.1227 2.27695 10.3541C2.10638 10.7277 2.38198 11.1291 2.81421 11.1314C3.72933 11.1366 4.64445 11.1328 5.55957 11.1333ZM5.55632 13.3595C6.4654 13.3595 7.37447 13.3614 8.28355 13.3586C8.68093 13.3572 8.93329 13.0723 8.87427 12.7025C8.83104 12.4297 8.60099 12.248 8.28541 12.2471C7.36379 12.2448 6.44262 12.2462 5.521 12.2462C4.62447 12.2462 3.72747 12.2471 2.83095 12.2457C2.57811 12.2452 2.38524 12.3465 2.27788 12.5775C2.10498 12.9506 2.37873 13.3549 2.8105 13.3576C3.72562 13.3632 4.6412 13.3595 5.55632 13.3595ZM8.90634 15.5862C8.3686 15.5862 7.83041 15.5852 7.29268 15.5866C6.91482 15.5876 6.66617 15.8106 6.66617 16.1433C6.66617 16.476 6.91482 16.6986 7.29361 16.699C8.35698 16.6999 9.42036 16.7004 10.4837 16.699C10.863 16.6986 11.1102 16.4764 11.1098 16.1424C11.1098 15.8083 10.8625 15.5876 10.4828 15.5866C9.95763 15.5852 9.43198 15.5862 8.90634 15.5862Z" fill="white"/>
<path d="M19.0001 6.79153C18.8188 7.41278 18.2639 7.72596 17.8907 8.1711C17.3585 7.63907 16.8394 7.12051 16.2989 6.5801C16.6084 6.28737 16.9063 5.94073 17.2665 5.67959C17.8679 5.24327 18.7156 5.5611 18.9489 6.26971C18.962 6.30921 18.9829 6.34592 19.0001 6.38355C19.0001 6.51923 19.0001 6.65538 19.0001 6.79153Z" fill="white"/>
<path d="M15.5143 7.45647C16.0046 7.94808 16.5233 8.46757 17.028 8.97359C15.8308 10.171 14.6163 11.3852 13.4177 12.584C12.9204 12.0854 12.4027 11.5664 11.904 11.0669C13.0905 9.88014 14.3073 8.6632 15.5143 7.45647Z" fill="white"/>
<path d="M11.1149 0.00439304C11.6294 -0.00257688 12.0607 0.166095 12.4158 0.517379C12.9256 1.02107 13.4327 1.52755 13.9365 2.03729C14.286 2.39089 14.4677 2.81513 14.4454 3.32997C13.3351 3.32997 12.2317 3.32997 11.1149 3.32997C11.1149 2.2278 11.1149 1.12562 11.1149 0.00439304Z" fill="white"/>
<path d="M11.1594 12.0209C11.5912 12.4525 12.0179 12.8791 12.4529 13.314C11.9807 13.4701 11.4992 13.6374 11.0126 13.7861C10.8155 13.8465 10.631 13.6634 10.6914 13.4585C10.8369 12.9692 11.0061 12.4869 11.1594 12.0209Z" fill="white"/>
</g>
<defs>
<clipPath id="clip0_4003_10725">
<rect width="19" height="19" fill="white"/>
</clipPath>
</defs>
</svg>
