<svg width="24" height="23" viewBox="0 0 24 23" fill="none" xmlns="http://www.w3.org/2000/svg">
<path d="M1.10677 7.87582C0.45192 4.35225 2.87203 1.3 6.64455 1.01171C9.96627 0.760027 11.6129 4.64054 11.9451 5.38186C11.9487 5.39429 11.9565 5.40523 11.9672 5.41301C11.9779 5.4208 11.991 5.42501 12.0044 5.42501C12.0178 5.42501 12.0308 5.4208 12.0415 5.41301C12.0522 5.40523 12.06 5.39429 12.0637 5.38186C13.6059 1.30458 16.4151 1.13069 17.4022 1.03459C20.0595 0.760027 23.6233 2.74147 22.9067 7.35873C21.8817 13.7652 11.9356 21 11.9356 21C11.9356 21 2.40224 14.7628 1.10677 7.87582Z" stroke="#939393" stroke-width="2"/>
</svg>
