<svg width="24" height="24" viewBox="0 0 24 24" fill="none" xmlns="http://www.w3.org/2000/svg">
<g clip-path="url(#clip0_8640_2757)">
<path d="M12.0021 14.2471C11.652 14.2471 11.3672 14.5319 11.3672 14.882C11.3672 15.2321 11.652 15.517 12.0021 15.517C12.3522 15.517 12.637 15.2321 12.637 14.882C12.637 14.5319 12.3522 14.2471 12.0021 14.2471Z" fill="white"/>
<path d="M12.0021 11.4346C10.1012 11.4346 8.55469 12.9812 8.55469 14.8823C8.55469 16.1936 10.4948 18.8898 12.002 20.6445C13.5091 18.8888 15.4495 16.1919 15.4495 14.8823C15.4495 12.9812 13.903 11.4346 12.0021 11.4346ZM12.0021 16.9236C10.8766 16.9236 9.96098 16.0079 9.96098 14.8823C9.96098 13.7567 10.8766 12.841 12.0021 12.841C13.1276 12.841 14.0433 13.7567 14.0433 14.8823C14.0433 16.0079 13.1276 16.9236 12.0021 16.9236Z" fill="white"/>
<path d="M23.3512 22.6484H22.5806V8.15758C22.2666 8.24102 21.9369 8.2862 21.5967 8.2862C20.688 8.2862 19.8526 7.96853 19.1975 7.43945C18.5424 7.96853 17.707 8.2862 16.7983 8.2862C15.8896 8.2862 15.0542 7.96853 14.3991 7.43945C13.744 7.96853 12.9086 8.2862 11.9999 8.2862C11.0912 8.2862 10.2558 7.96853 9.6007 7.43945C8.94563 7.96853 8.11017 8.2862 7.2015 8.2862C6.29283 8.2862 5.45738 7.96853 4.8023 7.43945C4.14722 7.96853 3.31177 8.2862 2.40309 8.2862C2.06292 8.2862 1.7333 8.24102 1.41928 8.15758V22.6484H0.648844C0.290484 22.6484 0 22.9389 0 23.2973C0 23.6857 0.314812 24.0005 0.703125 24.0005H23.2969C23.6852 24.0005 24 23.6857 24 23.2973C24 22.9389 23.7095 22.6484 23.3512 22.6484ZM14.6429 19.5673C13.5945 21.0017 12.562 22.1329 12.5186 22.1803C12.3855 22.3258 12.1973 22.4087 12 22.4087C11.8027 22.4087 11.6145 22.3258 11.4814 22.1803C11.4379 22.1329 10.4055 21.0017 9.35709 19.5673C7.86952 17.532 7.14633 15.9996 7.14633 14.8825C7.14633 12.2059 9.32367 10.0285 12 10.0285C14.6763 10.0285 16.8537 12.206 16.8537 14.8825C16.8537 15.9996 16.1305 17.532 14.6429 19.5673Z" fill="white"/>
<path d="M23.7062 3.38227L22.2031 0.387703C22.0838 0.150047 21.8406 0 21.5747 0H2.51008C2.25006 0 2.01128 0.143484 1.88927 0.373078L0.281734 3.39689C0.281734 3.39689 0.00390625 4.11108 0.00390625 4.51111C0.00390625 5.81906 1.07805 6.87937 2.40311 6.87937C3.72812 6.87937 4.80231 5.81906 4.80231 4.51111C4.80231 5.81906 5.87645 6.87937 7.20151 6.87937C8.52653 6.87937 9.60072 5.81906 9.60072 4.51111C9.60072 5.81906 10.6749 6.87937 11.9999 6.87937C13.325 6.87937 14.3991 5.81906 14.3991 4.51111C14.3991 5.81906 15.4733 6.87937 16.7983 6.87937C18.1234 6.87937 19.1975 5.81906 19.1975 4.51111C19.1975 5.81906 20.2717 6.87937 21.5967 6.87937C22.9217 6.87937 23.9959 5.81906 23.9959 4.51111C23.9958 4.10236 23.8909 3.7178 23.7062 3.38227Z" fill="white"/>
</g>
<defs>
<clipPath id="clip0_8640_2757">
<rect width="24" height="24" fill="white"/>
</clipPath>
</defs>
</svg>
