<svg width="18" height="16" viewBox="0 0 18 16" fill="none" xmlns="http://www.w3.org/2000/svg">
<path d="M1.19314 8.59486C1.14621 8.55058 1.12283 8.50645 1.09944 8.48423C1.07606 8.46217 1.02912 8.39582 1.00574 8.32932C0.958805 8.21869 0.935421 8.10806 0.935421 7.99758C0.935421 7.88695 0.958805 7.77632 1.00574 7.66584C1.02912 7.5995 1.07606 7.53315 1.09944 7.51093C1.12282 7.48887 1.14637 7.44458 1.19314 7.4003L7.99173 0.985497C8.15591 0.830582 8.39025 0.742171 8.62474 0.742171C8.85924 0.742171 9.09357 0.830582 9.25776 0.985497C9.58596 1.29517 9.58596 1.87022 9.25776 2.1799L4.00643 7.1569L16.1736 7.1569C16.666 7.1569 17.0645 7.53292 17.0645 7.9975C17.0645 8.46208 16.6659 8.8381 16.1736 8.8381L4.00643 8.8381L9.2812 13.8151C9.63278 14.1468 9.63278 14.6778 9.2812 15.0095C8.92962 15.3412 8.36691 15.3412 8.01534 15.0095L1.19314 8.59486Z" fill="white"/>
</svg>
