<svg width="30" height="30" viewBox="0 0 30 30" fill="none" xmlns="http://www.w3.org/2000/svg">
<g clip-path="url(#clip0_4804_16031)">
<g clip-path="url(#clip1_4804_16031)">
<path opacity="0.4" d="M15.1478 29.9995C14.9211 29.9995 14.7036 29.9095 14.5433 29.7492C14.383 29.5889 14.293 29.3715 14.293 29.1447V23.7728C14.293 23.5461 14.383 23.3286 14.5433 23.1683C14.7036 23.008 14.9211 22.918 15.1478 22.918C15.3745 22.918 15.5919 23.008 15.7522 23.1683C15.9125 23.3286 16.0026 23.5461 16.0026 23.7728V29.146C16.0022 29.3725 15.912 29.5896 15.7517 29.7496C15.5915 29.9097 15.3743 29.9995 15.1478 29.9995Z" fill="black"/>
<path opacity="0.3" d="M7.28006 27.6706C7.12618 27.6705 6.97518 27.6289 6.843 27.5501C6.71081 27.4714 6.60234 27.3584 6.52903 27.2231C6.45572 27.0878 6.42029 26.9352 6.42647 26.7815C6.43265 26.6277 6.48023 26.4785 6.56417 26.3495L9.49398 21.8452C9.61827 21.6567 9.81209 21.525 10.0331 21.4789C10.2541 21.4328 10.4844 21.4761 10.6737 21.5992C10.8629 21.7223 10.9958 21.9153 11.0433 22.136C11.0908 22.3567 11.049 22.5873 10.927 22.7773L7.99724 27.2817C7.91958 27.4012 7.81329 27.4993 7.68804 27.5672C7.56279 27.6352 7.42255 27.6707 7.28006 27.6706Z" fill="black"/>
<path opacity="0.2" d="M2.04347 21.643C1.84869 21.6432 1.65965 21.577 1.50767 21.4551C1.35569 21.3333 1.24987 21.1632 1.20774 20.9731C1.16561 20.7829 1.18968 20.584 1.27599 20.4094C1.3623 20.2348 1.50564 20.0949 1.68231 20.0129L6.55466 17.7451C6.75965 17.6529 6.9927 17.6452 7.20334 17.7236C7.41397 17.802 7.58527 17.9602 7.68012 18.164C7.77498 18.3677 7.78577 18.6006 7.71015 18.8123C7.63454 19.024 7.47861 19.1973 7.27612 19.2948L2.40377 21.5626C2.29104 21.6156 2.16802 21.643 2.04347 21.643Z" fill="black"/>
<path opacity="0.1" d="M6.17125 14.2041C6.12905 14.2042 6.08691 14.201 6.04517 14.1948L0.729616 13.4075C0.505347 13.3743 0.30345 13.2533 0.168352 13.0713C0.0332548 12.8892 -0.0239869 12.6609 0.00922559 12.4366C0.0424381 12.2124 0.163391 12.0105 0.345458 11.8754C0.527525 11.7403 0.755797 11.683 0.980066 11.7163L6.29563 12.5035C6.50942 12.5347 6.70345 12.6458 6.8387 12.8143C6.97395 12.9828 7.04037 13.1962 7.02461 13.4117C7.00885 13.6272 6.91207 13.8287 6.75375 13.9757C6.59543 14.1228 6.38731 14.2044 6.17125 14.2041Z" fill="black"/>
<path d="M8.29607 9.59457C8.08997 9.5945 7.89084 9.51997 7.73533 9.38471L3.68187 5.85781C3.59614 5.78445 3.52577 5.69484 3.47484 5.59415C3.42391 5.49346 3.39342 5.38369 3.38513 5.27116C3.37683 5.15863 3.39089 5.04556 3.42651 4.93849C3.46213 4.83142 3.5186 4.73248 3.59265 4.64734C3.6667 4.5622 3.75687 4.49256 3.85797 4.44244C3.95907 4.39233 4.06908 4.36273 4.18168 4.35535C4.29427 4.34796 4.40721 4.36295 4.51399 4.39943C4.62076 4.43592 4.71926 4.49317 4.8038 4.56791L8.85768 8.09481C8.9891 8.20912 9.08245 8.36086 9.12526 8.5297C9.16806 8.69853 9.15827 8.87642 9.09719 9.03953C9.03611 9.20265 8.92665 9.34319 8.78348 9.44239C8.64031 9.54158 8.47025 9.59469 8.29607 9.59457Z" fill="black"/>
<path d="M12.5238 6.85544C12.3402 6.85532 12.1615 6.79607 12.0141 6.68645C11.8668 6.57683 11.7587 6.42268 11.7058 6.24682L10.156 1.1018C10.1224 0.993942 10.1104 0.880475 10.1208 0.767965C10.1313 0.655456 10.1639 0.546132 10.2169 0.44632C10.2699 0.346508 10.3421 0.258191 10.4294 0.186469C10.5167 0.114746 10.6174 0.0610407 10.7256 0.0284687C10.8338 -0.00410328 10.9474 -0.0148954 11.0597 -0.00329404C11.1721 0.00830734 11.2811 0.0420781 11.3804 0.0960637C11.4796 0.150049 11.5672 0.22318 11.638 0.311224C11.7089 0.399269 11.7615 0.500479 11.793 0.609005L13.3427 5.75403C13.3751 5.86151 13.386 5.97433 13.3748 6.08603C13.3636 6.19772 13.3305 6.30611 13.2774 6.40501C13.2243 6.50391 13.1522 6.59139 13.0653 6.66244C12.9784 6.73349 12.8784 6.78673 12.7709 6.81912C12.6907 6.84303 12.6075 6.85526 12.5238 6.85544Z" fill="black"/>
<path opacity="0.9" d="M17.7732 6.85543C17.6895 6.85524 17.6064 6.84302 17.5262 6.8191C17.4187 6.78672 17.3186 6.73348 17.2317 6.66243C17.1448 6.59138 17.0728 6.5039 17.0197 6.405C16.9666 6.3061 16.9335 6.19771 16.9222 6.08601C16.911 5.97432 16.9219 5.8615 16.9543 5.75402L18.5036 0.608565C18.536 0.501054 18.5892 0.400974 18.6603 0.314029C18.7313 0.227084 18.8187 0.154974 18.9177 0.101832C19.0166 0.0486902 19.125 0.0155489 19.2367 0.00430031C19.3484 -0.00694827 19.4612 0.00392508 19.5687 0.0362822C19.6762 0.0686393 19.7763 0.121847 19.8633 0.192884C19.9502 0.263921 20.0223 0.351392 20.0754 0.450294C20.1286 0.549195 20.1617 0.657589 20.173 0.769299C20.1842 0.881009 20.1734 0.993847 20.141 1.10136L18.5913 6.24638C18.5384 6.42232 18.4304 6.57657 18.283 6.68627C18.1357 6.79597 17.9569 6.85528 17.7732 6.85543Z" fill="black"/>
<path opacity="0.8" d="M22.0038 9.59328C21.8297 9.5934 21.6596 9.5403 21.5164 9.44111C21.3733 9.34191 21.2638 9.20136 21.2027 9.03825C21.1416 8.87513 21.1318 8.69725 21.1747 8.52842C21.2175 8.35958 21.3108 8.20784 21.4422 8.09352L25.4961 4.56663C25.6675 4.42002 25.8898 4.34706 26.1147 4.36364C26.3396 4.38022 26.5488 4.48499 26.6968 4.65514C26.8448 4.82529 26.9196 5.04703 26.9048 5.27205C26.8901 5.49708 26.787 5.70716 26.618 5.85652L22.5646 9.38342C22.4091 9.51869 22.2099 9.59322 22.0038 9.59328Z" fill="black"/>
<path opacity="0.7" d="M24.1291 14.2041C23.913 14.2044 23.7049 14.1228 23.5466 13.9757C23.3883 13.8287 23.2915 13.6272 23.2757 13.4117C23.26 13.1962 23.3264 12.9828 23.4616 12.8143C23.5969 12.6458 23.7909 12.5347 24.0047 12.5035L29.3203 11.7163C29.5445 11.683 29.7728 11.7403 29.9549 11.8754C30.1369 12.0105 30.2579 12.2124 30.2911 12.4366C30.3243 12.6609 30.2671 12.8892 30.132 13.0713C29.9969 13.2533 29.795 13.3743 29.5707 13.4075L24.2543 14.1948C24.2128 14.201 24.171 14.2041 24.1291 14.2041Z" fill="black"/>
<path opacity="0.6" d="M28.2556 21.643C28.1311 21.6427 28.0081 21.6153 27.8953 21.5626L23.0229 19.2948C22.8204 19.1973 22.6645 19.024 22.5889 18.8123C22.5133 18.6006 22.5241 18.3677 22.6189 18.164C22.7138 17.9602 22.8851 17.802 23.0957 17.7236C23.3063 17.6452 23.5394 17.6529 23.7444 17.7451L28.6167 20.0129C28.7934 20.0949 28.9368 20.2349 29.0231 20.4095C29.1094 20.5842 29.1334 20.7831 29.0913 20.9733C29.0491 21.1635 28.9432 21.3336 28.7911 21.4554C28.6391 21.5771 28.45 21.6433 28.2551 21.643H28.2556Z" fill="black"/>
<path opacity="0.5" d="M23.0206 27.6706C22.8781 27.6707 22.7379 27.6352 22.6126 27.5672C22.4874 27.4993 22.3811 27.4012 22.3034 27.2817L19.3736 22.7773C19.2517 22.5873 19.2099 22.3567 19.2574 22.136C19.3049 21.9153 19.4377 21.7223 19.627 21.5992C19.8163 21.4761 20.0465 21.4328 20.2676 21.4789C20.4886 21.525 20.6824 21.6567 20.8067 21.8452L23.7365 26.3495C23.8204 26.4785 23.868 26.6277 23.8742 26.7815C23.8804 26.9352 23.845 27.0878 23.7716 27.2231C23.6983 27.3584 23.5899 27.4714 23.4577 27.5501C23.3255 27.6289 23.1745 27.6705 23.0206 27.6706Z" fill="black"/>
</g>
</g>
<defs>
<clipPath id="clip0_4804_16031">
<rect width="30" height="30" fill="white"/>
</clipPath>
<clipPath id="clip1_4804_16031">
<rect width="30.2992" height="30" fill="white"/>
</clipPath>
</defs>
</svg>
