<svg width="19" height="22" viewBox="0 0 19 22" fill="none" xmlns="http://www.w3.org/2000/svg">
<g clip-path="url(#clip0_8798_4717)">
<path d="M9.45234 11C10.0573 11 10.5754 10.7844 11.0066 10.3532C11.4371 9.92273 11.6523 9.405 11.6523 8.8C11.6523 8.195 11.4371 7.6769 11.0066 7.2457C10.5754 6.81523 10.0573 6.6 9.45234 6.6C8.84734 6.6 8.32961 6.81523 7.89914 7.2457C7.46794 7.6769 7.25234 8.195 7.25234 8.8C7.25234 9.405 7.46794 9.92273 7.89914 10.3532C8.32961 10.7844 8.84734 11 9.45234 11ZM9.45234 22C6.50068 19.4883 4.29628 17.1552 2.83914 15.0007C1.38128 12.8469 0.652344 10.8533 0.652344 9.02C0.652344 6.27 1.53711 4.07917 3.30664 2.4475C5.07544 0.815833 7.12401 0 9.45234 0C11.7807 0 13.8292 0.815833 15.598 2.4475C17.3676 4.07917 18.2523 6.27 18.2523 9.02C18.2523 10.8533 17.5238 12.8469 16.0666 15.0007C14.6088 17.1552 12.404 19.4883 9.45234 22Z" fill="white"/>
</g>
<defs>
<clipPath id="clip0_8798_4717">
<rect width="18" height="22" fill="white" transform="translate(0.5)"/>
</clipPath>
</defs>
</svg>
