<svg width="196" height="100" viewBox="0 0 196 100" fill="none" xmlns="http://www.w3.org/2000/svg">
<path d="M92.1715 97.0837C92.148 99.1768 92.1656 100.006 92.5701 100C93.0273 99.9882 92.9042 98.6888 92.9862 96.8309C93.0976 93.9382 92.828 82.7731 93.1211 81.0328C94.5454 72.7133 92.5114 72.0313 90.1843 70.532C86.1163 67.9039 88.9299 66.2282 95.5947 63.8764C98.8303 62.7417 104.844 60.9014 104.065 57.75C103.18 54.2106 82.2652 59.9901 81.9897 57.9264C81.4798 54.2282 97.5173 53.8989 118.977 44.8034C133.303 38.724 137.535 30.2987 136.099 27.8293C134.165 24.4898 125.143 27.2355 116.79 32.3742C112.371 35.0905 107.693 39.4178 104.604 41.4344C103.953 41.8578 103.449 41.5579 104.047 40.7407C107.898 35.3668 111.966 30.0635 113.848 26.2477C117.857 18.1399 120.067 8.22713 117.617 6.46916C114.803 4.47014 106.978 12.9484 103.215 20.9974C100.776 26.2125 98.6545 33.1209 97.3766 37.4011C97.1187 38.0537 96.6849 38.042 96.8139 37.3129C97.5056 33.1503 98.719 27.0297 98.9534 21.8734C99.3579 13.1365 96.3332 -0.174649 93.0624 0.0017351C90.3309 0.142843 85.7002 8.5799 87.0132 24.3252C87.2887 27.6471 88.3555 33.8969 89.0355 37.7127C89.1586 38.283 88.6076 38.53 88.3321 37.795C87.0718 33.8088 84.944 26.7593 81.6146 20.8269C77.7986 14.0243 70.1609 6.47504 67.0542 7.70386C64.094 8.86799 65.407 19.9508 71.7963 29.0523C74.6509 33.1091 79.1116 37.6892 81.9252 40.5231C82.5524 41.1581 82.0249 41.4815 81.5794 41.1757C77.7752 38.5535 71.5794 33.8205 68.8478 32.2037C61.1573 27.6529 49.2229 23.9783 47.4176 28.0057C46.0928 30.9748 54.0647 38.336 62.1421 42.0106C67.9627 44.6564 75.7295 47.5315 81.7084 48.1312C82.5642 48.2194 82.7517 47.7843 81.8959 47.5256C78.713 46.5672 72.5524 44.6623 65.7529 41.311C59.9381 38.4418 55.3191 34.3908 55.9815 32.2095C57.3883 27.5765 73.8654 37.2776 82.5817 42.7044C85.7705 44.6917 86.3332 44.4624 83.8186 41.4756C81.386 38.5888 78.0624 34.3262 74.4809 28.7112C69.6216 21.1032 68.4786 15.794 69.944 14.7122C71.6556 13.4481 75.8643 16.7583 80.5009 24.4251C84.2406 30.6221 86.726 36.6721 88.3496 40.0469C89.7564 42.9631 90.3778 43.0101 90.0554 39.2414C89.6685 34.7377 89.2875 28.1703 89.4927 21.0091C89.7154 13.0953 91.0871 8.10366 92.9745 7.70974C94.5396 7.38048 96.3157 12.7132 96.1222 21.3619C96.4974 28.1351 96.1457 35.0376 95.7412 39.7823C95.4892 42.6515 95.8702 43.1689 97.189 39.7706C99.1469 34.7495 102.236 27.4472 105.542 22.0616C109.545 15.553 112.429 12.3486 113.918 12.6073C116.884 13.1365 114.792 19.9626 110.606 27.0474C107.764 32.5212 103.983 38.4065 101.878 42.1517C100.671 44.2978 100.794 45.2267 102.957 43.7333C106.562 41.2463 112.406 37.3482 117.881 34.2909C124.979 30.3281 130.524 29.1169 131.357 31.1571C132.207 33.2208 126.82 37.5481 120.542 40.9582C108.672 47.408 93.8948 51.8882 84.9909 54.2164C78.3379 55.9568 75.0319 58.2086 78.4962 59.6844C82.7342 61.4952 98.8362 56.7858 99.6978 60.0371C100.214 61.9774 91.4153 63.5354 87.9159 65.458C84.8737 67.1395 83.6427 69.0445 89.4927 72.2841C93.3262 74.4066 91.2629 77.7108 91.4387 84.0019C91.4329 84.0019 92.0894 94.8084 92.1715 97.0837Z" fill="#C082B8"/>
<path d="M39.9609 92.9529C38.8906 93.4219 37.2728 93.4219 36.2025 93.4219C32.1981 93.4219 31.3123 92.8313 31.2262 90.0461C31.1954 89.305 31.2139 87.4463 31.22 85.9523L31.2262 84.4816V81.6559C31.2262 80.99 31.6691 80.9784 31.8597 80.9784H37.3159C39.8195 80.9784 40.1332 83.283 40.1516 83.4104C40.1824 82.8545 40.1516 79.1428 40.1516 79.1428C39.8133 79.7624 39.0998 79.8493 38.0356 79.8493H31.8966C31.5952 79.8493 31.2262 79.7508 31.2262 79.1139V70.0519C31.2262 69.3687 31.7429 69.2934 31.8966 69.2934H36.4732C40.1701 69.2934 40.5392 70.9726 40.5638 70.6194L40.6191 70.0172C40.6929 68.8939 40.3854 68.1816 38.0418 68.1816H25.284C26.7357 68.4943 27.0741 69.3108 27.154 70.5731C27.2278 71.7254 27.2278 72.7155 27.2278 78.1816V84.4874C27.2278 87.7879 27.2278 90.6368 27.0372 92.1596C26.908 93.034 26.219 94.3137 24.5459 94.5453H38.6261C41.1481 94.5453 41.4003 93.6883 41.8186 90.4515C41.5049 91.7948 40.9698 92.5186 39.9609 92.9529Z" fill="black"/>
<path d="M24.4244 94.5221C23.802 94.4007 22.292 94.0421 20.3268 92.0003C18.4883 90.0569 16.4193 87.4309 13.7913 84.1109L12.3102 82.2426C12.3102 82.2426 17.5893 80.8545 17.1801 74.2607C17.036 71.9528 15.8257 70.2812 14.9152 69.6566C13.0248 68.3552 10.6331 68.1816 8.55258 68.1816L0 68.2106C1.34859 68.5229 1.67133 69.3153 1.74625 70.5762C1.81541 71.7388 1.81541 72.7221 1.81541 78.2054V84.5158C1.81541 87.8242 1.81541 90.6758 1.63675 92.2085C1.51572 93.0935 1.34859 94.2908 0.299686 94.5106C0.282397 94.5164 0.259344 94.5164 0.236291 94.5221L7.35384 94.5337C7.30197 94.5279 7.23281 94.5221 7.18094 94.5106C5.79778 94.3255 5.56725 93.2207 5.45775 92.2027C5.27909 90.6815 5.27909 87.8127 5.27909 84.4868V83.9836V81.0396V70.1366C5.27909 69.9689 5.27909 69.4426 5.8727 69.269C6.24154 69.1591 6.84091 69.1187 7.87253 69.1187C10.0453 69.1187 13.7222 70.5762 13.7222 76.0595C13.7222 79.5588 12.3044 81.1205 11.4572 81.7394C10.708 82.2831 10.2354 82.5376 8.77735 82.6996L8.71972 82.7054C9.06551 82.769 9.70522 83.4341 9.98762 83.7754C10.2585 84.0993 10.9097 85.0132 11.7166 86.17L13.5435 88.7497C15.5894 91.5723 16.8919 93.1513 18.3097 93.909C19.2087 94.3949 20.0847 94.5453 21.9578 94.5453H24.5455L24.4878 94.5337C24.4763 94.5337 24.4705 94.5279 24.459 94.5279C24.4705 94.5279 24.4821 94.5221 24.4993 94.5221H24.4244Z" fill="black"/>
<path d="M59.1561 92.9529C58.1425 93.4219 56.6045 93.4219 55.5967 93.4219C51.8044 93.4219 50.9655 92.8313 50.884 90.0461C50.8607 89.305 50.8665 87.4463 50.8781 85.9523L50.884 84.4816V81.6559C50.884 80.99 51.3034 80.9784 51.4782 80.9784H56.6453C59.0104 80.9784 59.3134 83.283 59.3308 83.4104C59.3658 82.8545 59.3308 79.1428 59.3308 79.1428C59.0104 79.7624 58.3347 79.8493 57.3269 79.8493H51.5131C51.2218 79.8493 50.8781 79.7508 50.8781 79.1139V70.0519C50.8781 69.3687 51.3617 69.2934 51.5131 69.2934H55.8472C59.3425 69.2934 59.692 70.9726 59.7153 70.6194L59.7678 70.0172C59.8377 68.8939 59.5464 68.1816 57.3269 68.1816H45.2508C46.6256 68.4943 46.946 69.3108 47.0159 70.5731C47.0858 71.7254 47.0858 72.7155 47.0858 78.1816V84.4874C47.0858 87.7879 47.0858 90.6368 46.9052 92.1596C46.7829 93.034 46.1304 94.3137 44.5459 94.5453H57.8803C60.2687 94.5453 60.5076 93.6883 60.9095 90.4515C60.6183 91.7948 60.1056 92.5186 59.1561 92.9529Z" fill="black"/>
<path d="M156.341 90.3978C155.02 87.3363 146.612 68.1816 146.612 68.1816L136.789 91.1487C136.108 92.8066 135.356 94.1871 133.597 94.5337C133.295 94.4817 132.97 94.424 132.591 94.3027C131.288 93.9156 130.885 92.6737 130.554 90.3747L126.995 68.2279L126.989 68.2567C126.877 68.2567 116.621 88.2432 116.621 88.2432L105.53 68.2047L101.705 91.4202C101.569 92.3964 101.285 94.1929 100 94.5453H105.223C105.122 94.5279 105.027 94.5164 104.926 94.4991C103.784 94.2218 103.541 93.5286 103.541 92.9741C103.541 92.3618 103.582 91.865 103.653 91.2469C103.659 91.2412 105.732 76.8232 105.732 76.8232L115.265 94.5048L124.621 76.7596L127.143 92.3445C127.184 92.5986 127.214 92.899 127.214 93.182C127.214 93.6846 126.912 94.4009 126.107 94.5395H133.538H133.621H139.163C138.447 94.268 138.299 93.6846 138.299 93.1878C138.299 92.7315 138.618 91.8766 139.015 90.9003C139.015 90.9061 141.165 85.742 141.165 85.742C141.218 85.6091 141.342 85.2106 141.863 85.2106H149.543C149.887 85.2106 150.141 85.3839 150.277 85.7016C150.283 85.7073 153.41 93.3033 153.41 93.3033C153.463 93.442 153.487 93.5806 153.487 93.7192C153.487 93.8694 153.463 94.0138 153.398 94.1467C153.333 94.2853 153.191 94.4297 153.06 94.5222C153.084 94.5222 160 94.5395 160 94.5395C160 94.5395 159.828 94.4933 159.763 94.4875C158.786 94.2449 157.738 93.6326 156.341 90.3978ZM149.277 83.9802C149.229 84.0553 149.087 84.1766 148.827 84.1766H142.556C142.396 84.1766 142.254 84.1246 142.153 84.0091C142.082 83.9224 142.011 83.7722 142.07 83.5412L142.082 83.5238L145.759 74.6917L149.371 83.4603C149.389 83.5238 149.407 83.6914 149.407 83.7433C149.407 83.8473 149.336 83.9051 149.277 83.9802Z" fill="black"/>
<path d="M170.548 93.3356C168.431 93.4394 167.138 93.1683 166.457 92.4298C165.588 91.4721 165.588 89.4125 165.588 84.4452V78.1509C165.588 72.6817 165.588 71.7009 165.656 70.5413C165.731 69.3182 166.028 68.4528 167.172 68.1874L160.084 68.1816C161.434 68.4989 161.755 69.2893 161.829 70.547C161.904 71.7067 161.904 72.6874 161.904 78.1567V84.4509C161.904 87.7509 161.858 90.5894 161.72 92.124C161.617 93.2721 161.034 94.2298 160.016 94.426C159.987 94.4317 160.004 94.4375 160.016 94.4375C160.645 94.4375 161.658 94.0567 163.871 94.0163C168.019 93.9183 169.455 94.8875 172.865 94.4144C176.005 93.976 176.497 91.2817 176.337 90.3298C176.303 90.999 174.649 93.1394 170.548 93.3356Z" fill="black"/>
<path d="M195.43 90.324C195.39 90.999 193.744 93.1394 189.644 93.3356C187.523 93.4394 186.231 93.1683 185.551 92.4298C184.687 91.4721 184.676 89.4125 184.676 84.4452V78.1509C184.676 72.6817 184.676 71.7009 184.75 70.5413C184.824 69.3182 185.11 68.4528 186.26 68.1874L179.181 68.1816C180.536 68.4989 180.851 69.2893 180.919 70.547C180.994 71.7067 180.994 72.6874 180.994 78.1567V84.4509C180.994 87.7509 180.954 90.5894 180.811 92.124C180.714 93.2721 180.125 94.2298 179.101 94.426C179.084 94.4317 179.096 94.4375 179.096 94.4375C179.736 94.4375 180.754 94.0567 182.961 94.0163C187.111 93.9183 188.547 94.8875 191.949 94.4144C195.093 93.9644 195.585 91.2702 195.43 90.324Z" fill="black"/>
<path d="M76.6454 68.1816L64.5449 68.2221C65.916 68.5344 66.2369 69.3324 66.3127 70.5815C66.3886 71.738 66.3886 72.7211 66.3886 78.1916V84.5411H66.3769C66.3769 87.9818 66.3769 90.6997 66.1902 92.2322C66.0677 93.1169 65.8985 94.314 64.8366 94.5279C64.8075 94.5337 64.7783 94.5337 64.755 94.5453H72.2463C72.1938 94.5337 72.1355 94.5453 72.0888 94.5337C70.6827 94.3487 70.4552 93.2441 70.3501 92.2264C70.1868 90.8732 70.1693 88.6006 70.1576 85.715H70.1693V81.6671C70.1693 81.002 70.5893 80.9847 70.7702 80.9847H75.9512C78.3199 80.9847 78.6233 83.2862 78.6466 83.4192C78.67 82.8583 78.6466 79.1631 78.6466 79.1631C78.3199 79.7761 77.6431 79.8686 76.6338 79.8686H70.8111C70.5193 79.8686 70.1693 79.7645 70.1693 79.1342V70.0842C70.1693 69.4018 70.6594 69.3151 70.8111 69.3151H75.1518C78.6583 69.3151 79.0025 70.9978 79.0259 70.6451L79.0784 70.0379C79.1601 68.9161 78.8742 68.1816 76.6454 68.1816Z" fill="black"/>
</svg>
