<svg width="378" height="143" viewBox="0 0 378 143" fill="none" xmlns="http://www.w3.org/2000/svg">
<mask id="mask0_8424_13699" style="mask-type:alpha" maskUnits="userSpaceOnUse" x="0" y="0" width="181" height="143">
<rect y="143" width="143" height="181" transform="rotate(-90 0 143)" fill="#D9D9D9"/>
</mask>
<g mask="url(#mask0_8424_13699)">
<g opacity="0.4">
<path d="M192.304 106.098C192.304 107.02 192.146 107.976 192.329 108.862C193.082 112.489 190.989 114.6 188.422 116.483C187.624 117.067 187.189 117.975 186.502 118.62C183.42 121.523 180.513 124.594 177.513 127.576C174.747 130.326 171.936 133.026 169.197 135.804C168.563 136.449 168.35 135.92 168.015 135.601C165.946 133.644 163.975 131.572 161.912 129.631C158.796 126.701 155.933 123.528 152.831 120.584C150.644 118.507 148.315 116.505 146.39 114.19C143.997 111.312 140.865 109.205 138.592 106.212C137.492 104.763 135.74 103.88 134.585 102.432C132.286 99.546 129.132 97.4967 126.917 94.5337C126.604 94.1127 126.147 93.8053 126.8 93.3152C128.573 91.9832 129.888 90.1832 131.522 88.6989C133.931 86.5112 136.152 84.1185 138.456 81.8145C140.37 79.8982 142.3 78.0013 144.183 76.0573C144.845 75.3733 145.299 75.2265 146.06 76.0047C151.084 81.1361 156.118 86.2536 161.225 91.3019C163.584 93.6336 166.024 95.8823 168.25 98.3469C168.533 98.6598 168.752 98.8647 169.098 98.3773C170.15 96.9069 171.604 95.8158 172.839 94.5198C173.127 94.218 173.739 93.8164 173.061 93.437C170.851 92.2103 169.71 89.8952 167.818 88.3804C164.963 86.0986 162.748 83.1881 160.065 80.7318C157.293 78.1952 154.8 75.3484 152.028 72.7951C151.389 72.2053 151.117 71.3136 150.419 70.7459C150.151 70.5271 150.09 70.2142 150.397 69.9096C152.433 67.8714 154.426 65.7917 156.478 63.7674C157.971 62.2942 159.447 60.785 160.94 59.3034C163.44 56.825 165.819 54.2274 168.453 51.8791C170.095 50.4142 171.31 48.5117 173.099 47.1714C173.423 46.9277 173.415 46.6646 173.016 46.4237C171.571 45.5486 170.521 44.2498 169.48 42.9622C168.959 42.3169 168.608 42.2255 167.976 42.8818C165.523 45.4323 163.089 48.0132 160.491 50.4114C158.123 52.5991 156.091 55.1163 153.67 57.221C150.965 59.5748 148.86 62.524 145.972 64.6896C145.246 65.2351 144.956 65.3265 144.194 64.7201C141.871 62.873 140.12 60.461 137.944 58.5059C134.588 55.493 131.611 52.1117 128.318 49.0406C126.125 46.9942 126.316 47.0329 128.276 44.8535C130.641 42.2283 133.292 39.8994 135.737 37.3572C138.248 34.7458 140.774 32.1289 143.419 29.6532C145.227 27.964 146.753 25.9978 148.639 24.4166C151.519 22.0018 154.022 19.191 156.636 16.5326C159.17 13.9572 161.97 11.6282 164.279 8.81192C165.406 7.43561 166.871 6.33345 168.17 5.09283C168.577 4.70514 168.815 4.68575 169.278 5.14268C175.165 10.9692 181.053 16.7984 186.846 22.7218C188.388 24.2975 189.95 25.8704 191.59 27.3547C192.11 27.8283 192.312 28.3406 192.31 29.0467C192.282 32.9209 192.301 36.7978 192.287 40.672C192.287 41.0043 192.512 41.4806 192.055 41.6468C191.711 41.7741 191.523 41.3643 191.282 41.1705C189.128 39.448 187.391 37.3074 185.453 35.3661C182.182 32.0929 178.685 29.0357 175.553 25.6378C173.556 23.4723 171.172 21.711 169.355 19.3987C168.785 18.6732 168.491 18.8643 167.985 19.3766C165.528 21.8606 163.119 24.3972 160.56 26.7732C157.633 29.4926 154.856 32.3726 152.045 35.1972C148.675 38.5812 145.213 41.8849 141.948 45.3797C140.505 46.9249 140.456 46.8806 142.02 48.448C142.771 49.1985 143.599 49.8852 144.258 50.7077C144.964 51.5911 145.382 51.364 146.069 50.6634C149.248 47.4151 152.488 44.2277 155.7 41.0098C157.376 39.3289 158.962 37.5511 160.718 35.9615C163.26 33.6631 165.354 30.9077 168.054 28.7698C168.588 28.3461 168.815 28.3683 169.361 28.8335C171.014 30.243 172.473 31.8409 174.013 33.3584C177.979 37.2769 181.883 41.2535 185.854 45.1637C187.571 46.8529 187.574 46.9415 185.799 48.6723C182.972 51.4305 180.294 54.3437 177.394 57.016C174.863 59.3505 172.631 61.9674 170.053 64.2631C168.076 66.0216 166.437 68.1705 164.373 69.8847C163.656 70.4801 164.454 70.8511 164.792 71.189C168.727 75.1462 172.676 79.0924 176.625 83.033C179.953 86.3561 183.26 89.7069 186.644 92.9746C187.624 93.9189 187.029 94.6943 186.458 95.1816C184.99 96.4333 183.852 98.0312 182.238 99.114C182.047 99.2413 181.836 99.3715 181.709 99.5515C179.948 102.005 177.414 103.714 175.45 105.932C173.548 108.081 171.371 109.911 169.427 111.988C168.777 112.683 168.511 112.52 167.926 112.002C165.686 110.016 163.739 107.726 161.557 105.702C158.35 102.728 155.351 99.5515 152.277 96.461C150.206 94.3786 147.927 92.5038 145.994 90.2884C145.291 89.4798 144.803 89.6044 144.103 90.305C143.067 91.3435 142.161 92.5315 140.896 93.3318C140.428 93.6281 140.48 93.966 140.852 94.3453C142.521 96.0484 144.136 97.8041 145.844 99.4712C148.766 102.324 151.629 105.231 154.523 108.111C155.949 109.532 157.32 111.013 158.796 112.392C160.541 114.024 162.183 115.763 163.853 117.471C165.171 118.82 166.641 120.011 167.835 121.487C168.356 122.132 168.882 122.076 169.533 121.412C174.561 116.286 179.59 111.157 184.722 106.134C186.887 104.013 188.986 101.825 191.146 99.701C191.401 99.4518 191.648 99.0364 192.041 99.1693C192.495 99.3189 192.29 99.8063 192.293 100.141C192.315 102.13 192.304 104.115 192.304 106.098Z" fill="#E8C5A2"/>
<path d="M3.982 41.6717C3.60815 41.1455 3.77985 40.6249 3.77985 40.1459C3.76323 36.4545 3.79369 32.7631 3.75769 29.0744C3.74938 28.2132 4.02908 27.5292 4.62446 26.9864C5.71277 25.9923 6.64601 24.7987 7.76478 23.896C10.4454 21.7277 12.7079 19.1246 15.0922 16.7043C17.8199 13.9323 20.8411 11.4289 23.2864 8.36332C24.2805 7.11716 25.6236 6.1507 26.7922 5.04024C27.1411 4.70793 27.3267 4.77716 27.6811 5.10116C29.6805 6.92885 31.6938 8.71778 33.4495 10.8113C34.8285 12.4535 36.5898 13.7716 38.1212 15.292C42.1975 19.3461 46.2461 23.4252 50.2864 27.5154C50.7461 27.9806 51.0203 27.8671 51.408 27.4766C55.811 23.0458 60.1532 18.5486 64.6615 14.223C67.6717 11.3236 70.3883 8.12793 73.6062 5.44177C74.2043 4.94054 74.5671 4.899 75.2234 5.41408C76.356 6.303 77.3419 7.32485 78.3499 8.33285C82.6089 12.5919 86.9539 16.7652 91.0911 21.1378C93.4533 23.6357 95.9511 26.0089 98.3382 28.4735C100.772 30.9852 103.262 33.5024 105.854 35.8951C109.357 39.1268 112.478 42.7655 115.92 46.0692C118.678 48.7166 121.384 51.4083 124.067 54.1277C127.1 57.1988 130.162 60.2422 133.22 63.2884C135.338 65.3985 137.462 67.5004 139.608 69.5828C140.073 70.0342 140.223 70.3111 139.744 70.9287C138.802 72.1388 137.711 73.1801 136.634 74.2545C132.857 78.0179 129.226 81.9392 125.308 85.5475C122.503 88.1312 120.138 91.1413 117.141 93.5423C115.543 94.8217 114.408 96.6687 112.841 97.998C110.135 100.291 107.826 102.98 105.342 105.472C102.722 108.1 100.019 110.67 97.4271 113.334C94.3893 116.455 91.3819 119.62 88.117 122.528C85.8933 124.508 84.1376 126.967 81.7893 128.853C80.3991 129.969 79.4659 131.572 78.0923 132.744C77.0096 133.666 75.9766 134.646 74.9465 135.629C74.4785 136.075 74.1517 135.887 73.7834 135.518C71.7757 133.511 69.5188 131.777 67.7215 129.526C66.4117 127.886 64.5231 126.762 63.1495 125.139C60.6821 122.221 57.6166 119.892 55.127 116.973C54.0138 115.668 52.535 114.641 51.3553 113.351C50.9012 112.855 50.6852 113.068 50.2809 113.456C47.5006 116.128 44.8947 118.986 42.0812 121.611C39.3286 124.181 36.8085 126.978 34.0808 129.573C32.0261 131.528 29.963 133.502 27.9913 135.554C27.3461 136.225 27.0442 136.05 26.4738 135.496C24.1061 133.198 21.9461 130.645 19.4814 128.512C16.8285 126.214 14.6491 123.489 12.0183 121.179C9.48449 118.953 7.29956 116.3 4.75186 114.043C4.14817 113.508 3.77156 112.808 3.76879 111.977C3.76048 107.87 3.76601 103.766 3.77708 99.6595C3.77708 99.4961 3.8657 99.3328 4.05678 98.6598C5.57986 100.296 6.84263 101.736 8.19402 103.096C14.2365 109.18 20.3122 115.231 26.3491 121.321C27.011 121.988 27.4762 122.093 28.1214 121.343C30.6719 118.374 33.5935 115.757 36.3489 112.993C39.8907 109.443 43.391 105.84 47.0353 102.39C48.0683 101.41 49.0514 100.374 50.0317 99.3411C50.6298 98.7124 51.1034 98.8814 51.6461 99.4325C53.9695 101.789 56.304 104.135 58.6551 106.466C61.6901 109.479 64.7557 112.462 67.7825 115.48C69.7043 117.396 71.6123 119.329 73.4677 121.309C74.1323 122.021 74.5643 122.005 75.2345 121.326C79.1114 117.388 83.0105 113.472 86.929 109.579C90.5484 105.984 94.2231 102.445 97.8398 98.8454C100.706 95.993 103.503 93.0715 106.363 90.2137C109.285 87.2949 112.267 84.437 115.192 81.521C117.632 79.0924 120.024 76.6195 122.447 74.1715C123.414 73.1967 124.4 72.2385 125.374 71.2721C126.025 70.6268 126.219 70.1561 125.288 69.4278C123.962 68.3893 122.788 67.1625 121.675 65.8554C120.282 64.2188 118.462 62.945 117.055 61.3167C114.655 58.5363 111.65 56.3708 109.365 53.4742C108.205 52.0009 106.494 51.0373 105.267 49.5862C102.833 46.7062 99.9831 44.2166 97.3219 41.5665C94.2647 38.5231 91.188 35.4797 88.1613 32.4086C85.428 29.6366 82.5093 27.0446 79.9311 24.0954C78.3831 22.3258 76.5194 20.7584 74.7526 19.1495C74.4563 18.8809 74.2874 18.8726 73.98 19.2049C72.0305 21.315 69.7957 23.1317 67.8434 25.2612C66.5335 26.6901 65.1738 28.1357 63.5871 29.3514C61.9643 30.5948 60.8871 32.4446 59.2892 33.7794C56.7858 35.8701 54.7421 38.4372 52.3606 40.6692C51.0701 41.8766 50.4277 41.8849 49.3393 40.6637C48.3009 39.4978 47.0076 38.5591 45.9747 37.3905C44.1415 35.3163 41.9399 33.6132 40.1372 31.5363C37.7861 28.828 35.0002 26.5655 32.6048 23.8904C31.1288 22.2427 29.4091 20.7307 27.7753 19.1855C27.0497 18.5015 26.7534 19.252 26.4571 19.5372C24.2445 21.6778 22.1343 23.9264 19.8885 26.0311C16.7011 29.0163 13.7353 32.2231 10.5673 35.2332C8.35463 37.3323 6.33585 39.6474 3.982 41.6717Z" fill="#E8C5A2"/>
<path d="M92.8967 47.0163C92.6114 47.3957 92.3262 47.8803 91.9413 48.2625C89.64 50.5526 87.1643 52.6905 85.0514 55.1413C83.4896 56.9523 81.4985 58.2567 79.9809 60.1425C78.8206 61.5853 77.5496 63.1388 75.8049 64.0914C75.2982 64.3684 74.8052 64.8364 74.5339 65.3404C73.5646 67.1431 71.8034 68.1622 70.4659 69.5939C70.0089 70.0813 69.7902 70.3195 70.3246 70.9093C73.2212 74.1161 76.3782 77.0653 79.4022 80.1475C81.9776 82.7727 84.6 85.3509 87.2087 87.9401C89.0031 89.7207 90.8004 91.4958 92.6198 93.2515C92.9465 93.5644 93.2816 93.7583 92.8441 94.2318C91.2961 95.9183 89.8893 97.7349 87.9813 99.078C87.2834 99.5681 86.7379 100.291 86.1757 100.953C84.9905 102.354 83.736 103.686 82.296 104.832C80.5237 106.245 79.3606 108.244 77.5994 109.668C77.317 109.897 77.1037 110.224 76.8019 110.418C75.9185 110.988 75.2511 112.39 74.3262 112.201C73.3348 111.996 72.4348 110.958 71.6705 110.124C68.436 106.605 64.8111 103.478 61.632 99.9004C60.4246 98.5435 58.8129 97.5244 57.6664 96.0844C55.8498 93.8054 53.2606 92.3294 51.5104 89.9949C51.0895 89.4327 50.6796 89.4078 50.1756 89.9478C47.5587 92.7503 44.7535 95.3811 42.0175 98.0561C39.8963 100.13 38.063 102.506 35.7535 104.362C33.2335 106.389 31.4058 109.08 28.8996 111.116C27.2436 112.459 27.4125 112.451 25.8119 111.168C22.5027 108.518 19.8165 105.237 16.7676 102.326C14.6214 100.277 12.4725 98.1891 10.3734 96.0734C9.83064 95.5251 9.56755 94.7386 8.94725 94.2263C8.56232 93.9078 8.72018 93.6198 9.03034 93.3097C16.3799 85.9657 23.7128 78.6023 31.0818 71.2776C31.835 70.5299 31.9236 70.2087 31.0264 69.4361C29.4645 68.0958 28.1021 66.509 26.6177 65.0884C24.0036 62.585 21.611 59.8601 18.8888 57.4591C16.8894 55.6951 15.3082 53.4908 13.2506 51.7683C11.6888 50.4613 10.462 48.8357 9.03033 47.4068C8.69525 47.0717 8.56509 46.7616 8.9694 46.3517C12.6885 42.5939 16.3356 38.7585 20.1377 35.0865C21.8879 33.3972 23.5522 31.6277 25.2636 29.9052C26.975 28.1828 27.8445 28.2603 29.4867 30.0686C31.3005 32.0652 33.1808 34.0037 35.183 35.8286C37.0716 37.5511 38.7581 39.4923 40.5581 41.3117C43.6596 44.4465 46.8055 47.5369 49.8738 50.7022C50.5966 51.4471 50.976 51.4693 51.7153 50.716C56.4563 45.8837 61.2498 41.104 66.0295 36.3105C68.2034 34.1283 70.3745 31.9434 72.5677 29.7806C74.2182 28.1523 74.2902 28.1024 76.0015 29.692C77.7766 31.3397 79.3856 33.1618 81.1274 34.8455C84.9517 38.548 88.7234 42.3059 92.4093 46.144C92.6308 46.3794 92.9437 46.5428 92.8967 47.0163ZM74.3511 98.5546C74.5948 98.3331 74.7969 98.1586 74.9853 97.9731C75.7468 97.2364 76.5416 96.5275 77.2533 95.7438C77.832 95.1069 78.8317 94.6334 78.876 93.7887C78.912 93.1075 77.868 92.8334 77.3363 92.346C75.24 90.4297 73.5286 88.1533 71.3105 86.3256C69.3443 84.7084 67.86 82.5346 65.9105 80.8343C63.2464 78.5109 61.1197 75.6336 58.356 73.3989C57.6166 72.8007 57.0821 71.9533 56.4147 71.2527C55.7418 70.5465 55.8166 70.0619 56.5394 69.3502C60.8815 65.0884 65.16 60.7628 69.4606 56.4622C72.4237 53.4991 75.3951 50.5471 78.3388 47.5646C78.6074 47.2932 79.3717 47.0606 78.6572 46.4043C77.4028 45.2523 76.1843 44.056 74.9797 42.8486C74.5366 42.4055 74.3206 42.364 73.8055 42.8708C69.1145 47.4788 64.5231 52.1893 59.832 56.7917C56.9907 59.5776 54.3987 62.6265 51.3027 65.1521C50.9898 65.4068 50.8126 65.5896 50.4138 65.1798C49.4529 64.1939 48.4587 63.2247 47.3843 62.3662C45.9276 61.2031 45.0415 59.4585 43.5959 58.3841C40.7464 56.26 38.5892 53.4548 36.0553 51.0373C33.2805 48.3926 30.4919 45.712 27.9027 42.8597C27.4014 42.3059 27.0774 42.3336 26.5817 42.8569C25.571 43.9314 24.5491 45.0031 23.4387 45.9696C22.6882 46.6259 22.7048 47.0994 23.3805 47.7613C26.7285 51.0594 30.0156 54.4157 33.3415 57.7361C37.2793 61.6656 41.2255 65.5868 45.1716 69.5108C45.7504 70.0868 45.7809 70.4053 45.3046 71.0921C43.3218 73.9555 40.4722 75.9687 38.1129 78.461C35.3492 81.3826 32.5965 84.365 29.5227 86.9875C27.2408 88.9343 25.6845 91.601 23.1341 93.2737C22.4445 93.7251 22.8959 94.2651 23.2808 94.6638C24.4024 95.8241 25.5655 96.9401 26.6842 98.1032C27.1079 98.5463 27.3876 98.502 27.8085 98.0838C31.5248 94.3703 35.2716 90.69 38.9907 86.9764C42.7042 83.2684 46.4012 79.541 50.087 75.8025C50.6381 75.2459 51.0147 75.2736 51.563 75.8247C55.9024 80.2029 60.2612 84.5616 64.6228 88.9204C67.644 91.9389 70.6735 94.949 73.7031 97.962C73.8886 98.1531 74.0963 98.3248 74.3511 98.5546Z" fill="#E8C5A2"/>
<path d="M79.5628 -0.0911681C83.7222 -0.0911686 87.685 -0.0330152 91.6422 -0.124401C92.9216 -0.154862 93.8631 0.252215 94.6994 1.11622C95.5634 2.01068 96.4081 2.92453 97.2887 3.79961C101.03 7.52146 104.871 11.1464 108.496 14.979C110.958 17.5793 113.633 19.9581 116.042 22.6166C117.595 24.3307 119.376 25.912 121.085 27.5209C121.47 27.8837 121.661 27.8892 122.065 27.4766C125.12 24.3584 128.213 21.2818 131.295 18.1941C135.191 14.295 139.029 10.3322 143.02 6.5273C144.82 4.81037 146.459 2.95498 148.212 1.20206C149.068 0.346362 149.948 -0.152101 151.239 -0.121639C154.789 -0.0357932 158.342 -0.102255 161.895 -0.0801019C162.316 -0.0773327 162.942 -0.348718 163.113 0.213437C163.246 0.650977 162.789 1.03867 162.457 1.35436C158.918 4.70237 155.645 8.31623 152.05 11.6144C150.785 12.7775 149.708 14.2064 148.409 15.3612C145.532 17.9255 143.081 20.9135 140.184 23.475C138.592 24.8846 137.279 26.6818 135.659 28.1052C133.136 30.3234 130.993 32.9098 128.52 35.1834C126.332 37.1938 124.352 39.4508 122.162 41.4862C121.658 41.9542 121.428 41.9763 120.96 41.5305C119.06 39.7305 117.075 38.0329 115.408 35.9781C114.317 34.6351 112.766 33.6741 111.622 32.3643C108.994 29.3541 105.771 26.9366 103.248 23.8129C102.318 22.6581 100.936 21.8661 99.9305 20.7196C97.2638 17.6763 94.2757 14.9375 91.4151 12.0935C88.1253 8.823 84.9545 5.41961 81.4985 2.3153C80.7536 1.65068 80.1969 0.825449 79.5628 -0.0911681Z" fill="#E8C5A2"/>
<path d="M163.631 140.91C159.156 140.91 154.825 140.918 150.491 140.905C149.292 140.902 148.583 139.941 147.913 139.221C144.947 136.02 141.774 133.023 138.697 129.938C135.327 126.56 131.882 123.24 128.556 119.82C126.407 117.61 123.956 115.713 122.004 113.32C121.553 112.769 121.309 113.079 121.043 113.395C119.332 115.45 117.008 116.87 115.35 119.005C114.347 120.299 113.129 121.459 111.766 122.434C110.634 123.245 109.93 124.489 108.953 125.461C106.505 127.886 104.14 130.415 101.598 132.719C98.9032 135.161 96.7736 138.157 93.8299 140.334C93.4007 140.653 93.0351 140.891 92.4868 140.891C88.2001 140.877 83.9133 140.882 79.4105 140.882C80.0086 140.193 80.449 139.575 80.9945 139.074C84.0019 136.305 86.7213 133.25 89.7231 130.47C92.3124 128.072 94.6524 125.411 97.153 122.916C99.7838 120.288 102.492 117.734 105.131 115.115C106.859 113.4 108.504 111.606 110.221 109.878C111.741 108.347 113.314 106.868 114.848 105.35C116.38 103.833 117.895 102.296 119.412 100.762C119.864 100.305 120.271 99.798 120.741 99.3632C121.317 98.8315 121.863 98.9118 122.42 99.4878C126.474 103.686 130.6 107.812 134.804 111.866C137.545 114.511 140.076 117.377 142.84 119.994C145.642 122.647 148.337 125.413 151.07 128.13C154.714 131.749 158.4 135.338 161.925 139.08C162.449 139.633 163.213 139.957 163.631 140.91Z" fill="#E8C5A2"/>
<path d="M79.3773 70.3527C79.4853 69.8487 79.9145 69.7684 80.1499 69.4998C83.4896 65.6893 87.2917 62.3357 90.7782 58.6665C92.7361 56.6034 94.8351 54.676 96.8068 52.6268C97.6819 51.7157 98.3687 51.9013 99.1385 52.6711C102.381 55.9111 105.646 59.1345 108.872 62.3911C111.259 64.8004 113.594 67.2594 115.976 69.677C116.46 70.1699 116.449 70.5105 116.042 71.0755C114.599 73.0776 112.503 74.4318 110.919 76.2567C108.05 79.5632 104.608 82.2881 101.753 85.6001C100.767 86.7438 99.5124 87.6493 98.4241 88.7072C97.9838 89.1364 97.7595 88.9315 97.4244 88.613C93.3951 84.7804 89.4324 80.8869 85.6357 76.8216C84.2567 75.3456 82.6727 74.0607 81.2243 72.6456C80.6373 72.0724 80.1637 71.3801 79.6431 70.7404C79.5296 70.5991 79.441 70.4468 79.3773 70.3527ZM97.9339 74.969C98.0835 74.8499 98.1887 74.7613 98.2995 74.6782C99.8253 73.5512 100.88 71.9561 102.276 70.6988C102.658 70.3555 102.511 70.0508 102.149 69.8071C100.759 68.8795 99.7422 67.553 98.557 66.4093C98.0696 65.9385 97.8204 65.9468 97.369 66.4259C96.2696 67.5918 95.1868 68.7825 93.8715 69.7268C93.2484 70.1727 93.4145 70.6268 93.8881 71.0893C95.065 72.2441 96.2253 73.4182 97.4022 74.5758C97.5545 74.7309 97.7567 74.8416 97.9339 74.969Z" fill="#E8C5A2"/>
<path d="M192.37 89.225C190.354 87.2672 188.233 85.8022 186.71 83.6893C185.899 82.565 184.606 81.8838 183.705 80.8647C180.748 77.5222 177.273 74.6948 174.345 71.3274C173.689 70.5714 173.681 70.2198 174.381 69.4361C177.657 65.7834 181.285 62.4797 184.725 58.996C186.671 57.0243 188.585 55.0111 190.554 53.0588C190.814 52.8012 191.086 52.5437 191.385 52.3332C192.016 51.8902 192.531 51.8154 192.473 52.84C192.238 56.9828 192.343 61.1283 192.304 65.2711C192.301 65.6062 192.232 65.8997 191.955 66.1296C190.618 67.2456 189.654 68.7548 188.192 69.7324C187.552 70.1616 187.563 70.4524 188.114 70.973C189.382 72.1721 190.587 73.4404 191.817 74.681C192.141 75.0078 192.512 75.3096 192.473 75.8385C192.141 80.2001 192.357 84.5644 192.37 89.225Z" fill="#E8C5A2"/>
<path d="M102.905 140.309C104.719 138.634 106.571 137.003 108.332 135.277C111.481 132.195 114.574 129.058 117.692 125.942C118.731 124.907 119.786 123.885 120.797 122.824C121.312 122.287 121.691 122.171 122.248 122.81C123.898 124.718 125.873 126.316 127.568 128.166C130.14 130.971 133.067 133.414 135.565 136.294C136.642 137.534 137.952 138.573 139.148 139.714C139.434 139.988 139.921 140.248 139.772 140.689C139.628 141.118 139.121 140.885 138.786 140.888C134.914 140.905 131.043 140.86 127.172 140.918C125.801 140.941 125.222 139.822 124.308 139.204C123.56 138.7 122.943 137.975 122.342 137.285C121.808 136.67 121.417 136.579 120.78 137.194C119.659 138.277 118.653 139.489 117.355 140.387C117.011 140.622 116.72 140.902 116.261 140.902C111.941 140.896 107.621 140.899 103.303 140.899C103.168 140.697 103.035 140.503 102.905 140.309Z" fill="#E8C5A2"/>
<path d="M110.26 -0.0911721C111.874 -0.0911723 113.497 0.00852002 115.1 -0.121634C116.493 -0.235173 117.487 0.318674 118.39 1.23806C119.229 2.09375 120.071 2.94668 120.902 3.81345C121.345 4.27314 121.722 4.50022 122.184 3.7996C124.424 0.40175 127.601 -0.611791 131.555 -0.141021C133.876 0.135902 136.255 -0.0994832 138.606 -0.0828681C138.944 -0.0800989 139.417 -0.271176 139.575 0.185748C139.694 0.529133 139.298 0.72298 139.112 0.972211C137.443 3.19314 135.111 4.75776 133.3 6.82915C130.697 9.80608 127.581 12.2679 125 15.267C124.136 16.2695 123.018 17.0532 122.057 17.9753C121.655 18.3603 121.392 18.2799 121.002 17.9726C119.047 16.4246 117.346 14.6273 115.676 12.783C114.386 11.3569 112.827 10.1716 111.525 8.751C109.288 6.30577 106.773 4.14576 104.491 1.75037C104.206 1.45129 103.935 1.1356 103.694 0.800523C103.265 0.202368 103.398 -0.102248 104.176 -0.0967098C106.2 -0.0800946 108.23 -0.0911718 110.26 -0.0911721Z" fill="#E8C5A2"/>
<path d="M69.4966 -0.0911668C65.0298 4.72731 60.3692 8.94486 56.0437 13.4892C54.5178 15.0926 52.8867 16.5603 51.3 18.0861C51.0673 18.3104 50.8929 18.5569 50.5135 18.2135C48.5667 16.455 46.6006 14.7076 44.9279 12.6916C44.2938 11.9273 43.4962 11.415 42.8205 10.731C39.8824 7.75409 36.9138 4.80762 33.9562 1.8473C33.8593 1.75038 33.7596 1.65346 33.6682 1.54823C33.2778 1.10238 32.6436 0.606686 32.8374 0.0611461C33.0839 -0.628394 33.8122 -0.0717774 34.319 -0.077316C37.9135 -0.121624 41.5107 -0.0883938 45.1024 -0.157625C46.7556 -0.188087 47.5476 1.05807 48.4116 2.02453C50.7046 4.58885 50.7516 4.74392 52.9781 2.25161C54.5843 0.457144 56.2873 -0.304396 58.727 -0.14655C62.2024 0.0777577 65.6972 -0.0911663 69.4966 -0.0911668Z" fill="#E8C5A2"/>
<path d="M3.77431 88.4303C3.77431 83.7475 3.77154 79.3776 3.77708 75.0106C3.77708 74.3847 4.27277 74.0524 4.65492 73.6647C5.56047 72.7509 6.46324 71.8287 7.39093 70.937C7.85616 70.4912 7.92262 70.181 7.35216 69.7324C6.41616 68.993 5.54938 68.165 4.65215 67.3758C4.18415 66.9632 3.81585 66.4287 3.81031 65.8333C3.77431 61.3776 3.79093 56.9247 3.93493 52.3831C4.93185 53.416 6.0257 54.28 7.02816 55.2382C10.0909 58.1653 13.0125 61.2391 16.1417 64.0998C18.0747 65.8665 19.858 67.7995 21.7383 69.6272C22.259 70.1339 22.3836 70.4745 21.8353 71.0976C20.4036 72.7204 18.85 74.1909 17.2051 75.5976C15.8177 76.7856 14.7571 78.3613 13.3586 79.5355C10.102 82.2715 7.54047 85.7552 3.77431 88.4303Z" fill="#E8C5A2"/>
<path d="M69.5077 140.882C64.9468 140.882 60.5825 140.913 56.2209 140.863C55.0329 140.849 54.4209 139.703 53.5209 139.118C53.1443 138.875 52.8812 138.459 52.5572 138.135C50.688 136.269 50.6104 136.205 48.9046 138.296C47.376 140.171 45.6479 141.107 43.1279 140.938C40.0098 140.727 36.8639 140.899 33.7319 140.88C33.3553 140.877 32.807 141.126 32.6325 140.63C32.5107 140.281 32.9482 140.002 33.1975 139.753C38.1129 134.834 43.0393 129.927 47.963 125.015C48.6803 124.3 49.4224 123.608 50.0954 122.852C50.6852 122.19 51.0867 122.342 51.66 122.913C54.5898 125.823 57.4338 128.817 60.4357 131.661C63.5151 134.574 66.3979 137.703 69.5077 140.882Z" fill="#E8C5A2"/>
<path d="M3.76878 18.1858C3.76877 13.6498 3.766 9.32148 3.77707 4.99039C3.77707 4.77162 3.83245 4.50578 3.95983 4.33685C5.18661 2.71408 6.65984 1.32115 8.18292 -0.0136201C8.58169 -0.362544 9.14939 -0.260082 9.65616 -0.260082C13.3475 -0.260083 17.039 -0.265622 20.7304 -0.251776C21.1208 -0.249007 21.6885 -0.478854 21.863 -0.0330065C22.043 0.429456 21.5556 0.789457 21.2454 1.10792C20.0851 2.29315 18.8971 3.45623 17.7257 4.63039C15.7457 6.61316 13.846 8.68732 11.758 10.5483C10.4897 11.6781 9.50939 13.0516 8.24108 14.1787C6.80939 15.4526 5.57709 16.948 3.76878 18.1858Z" fill="#E8C5A2"/>
<path d="M3.9931 122.464C10.1436 128.62 16.1528 134.638 22.3919 140.885C18.4901 140.885 14.89 140.6 11.3565 140.965C7.74264 141.337 6.17524 138.781 4.09831 136.834C3.7937 136.549 3.77709 136.089 3.77709 135.662C3.77986 131.473 3.7771 127.285 3.7854 123.096C3.78263 122.971 3.86017 122.846 3.9931 122.464Z" fill="#E8C5A2"/>
<path d="M192.301 122.805C192.301 123.752 192.301 124.976 192.301 126.2C192.301 129.29 192.298 132.384 192.301 135.474C192.301 135.984 192.312 136.443 191.869 136.856C191.033 137.637 190.28 138.506 189.466 139.312C188.23 140.533 186.807 141.029 184.999 140.957C181.318 140.81 177.63 140.913 174.165 140.913C180.186 134.904 186.275 128.822 192.301 122.805Z" fill="#E8C5A2"/>
<path d="M174.163 -0.0911805C178.447 -0.0911811 182.731 -0.0911816 187.015 -0.0939514C187.513 -0.0939515 187.884 0.130357 188.225 0.476511C189.424 1.68944 190.634 2.89129 191.847 4.09037C192.121 4.36175 192.298 4.66083 192.298 5.0596C192.296 9.37961 192.298 13.7024 192.298 18.0252C192.171 18.1138 192.046 18.2024 191.919 18.291C185.921 12.3039 179.923 6.31683 173.925 0.326974C174.005 0.188512 174.082 0.0472814 174.163 -0.0911805Z" fill="#E8C5A2"/>
</g>
</g>
<mask id="mask1_8424_13699" style="mask-type:alpha" maskUnits="userSpaceOnUse" x="181" y="0" width="197" height="143">
<rect x="181" y="143" width="143" height="197" transform="rotate(-90 181 143)" fill="#D9D9D9"/>
</mask>
<g mask="url(#mask1_8424_13699)">
<g opacity="0.4">
<path d="M380.046 106.098C380.046 107.02 379.888 107.976 380.071 108.862C380.824 112.489 378.731 114.6 376.164 116.483C375.366 117.067 374.931 117.975 374.245 118.62C371.162 121.523 368.255 124.594 365.256 127.576C362.489 130.326 359.678 133.026 356.94 135.804C356.306 136.449 356.092 135.92 355.757 135.601C353.689 133.644 351.717 131.572 349.654 129.631C346.538 126.701 343.675 123.528 340.573 120.584C338.386 118.507 336.057 116.505 334.132 114.19C331.74 111.312 328.608 109.205 326.334 106.212C325.235 104.763 323.482 103.88 322.327 102.432C320.028 99.546 316.874 97.4967 314.659 94.5337C314.346 94.1127 313.889 93.8053 314.543 93.3152C316.315 91.9832 317.63 90.1832 319.264 88.6989C321.673 86.5112 323.894 84.1185 326.198 81.8145C328.112 79.8982 330.042 78.0013 331.925 76.0573C332.587 75.3733 333.041 75.2265 333.803 76.0047C338.826 81.1361 343.861 86.2536 348.967 91.3019C351.326 93.6336 353.766 95.8823 355.993 98.3469C356.275 98.6598 356.494 98.8647 356.84 98.3773C357.892 96.9069 359.346 95.8158 360.581 94.5198C360.869 94.218 361.481 93.8164 360.803 93.437C358.593 92.2103 357.452 89.8952 355.561 88.3804C352.705 86.0986 350.49 83.1881 347.807 80.7318C345.035 78.1952 342.542 75.3484 339.77 72.7951C339.131 72.2053 338.859 71.3136 338.161 70.7459C337.893 70.5271 337.832 70.2142 338.139 69.9096C340.175 67.8714 342.169 65.7917 344.221 63.7674C345.713 62.2942 347.189 60.785 348.682 59.3034C351.182 56.825 353.561 54.2274 356.195 51.8791C357.837 50.4142 359.053 48.5117 360.842 47.1714C361.166 46.9277 361.157 46.6646 360.758 46.4237C359.313 45.5486 358.263 44.2498 357.222 42.9622C356.701 42.3169 356.35 42.2255 355.718 42.8818C353.265 45.4323 350.831 48.0132 348.233 50.4114C345.865 52.5991 343.833 55.1163 341.413 57.221C338.707 59.5748 336.602 62.524 333.714 64.6896C332.989 65.2351 332.698 65.3265 331.936 64.7201C329.613 62.873 327.863 60.461 325.686 58.5059C322.33 55.493 319.353 52.1117 316.06 49.0406C313.867 46.9942 314.058 47.0329 316.019 44.8535C318.384 42.2283 321.034 39.8994 323.479 37.3572C325.991 34.7458 328.516 32.1289 331.161 29.6532C332.969 27.964 334.495 25.9978 336.381 24.4166C339.261 22.0018 341.764 19.191 344.378 16.5326C346.912 13.9572 349.712 11.6282 352.021 8.81192C353.149 7.43561 354.613 6.33345 355.912 5.09283C356.319 4.70514 356.557 4.68575 357.02 5.14268C362.907 10.9692 368.795 16.7984 374.588 22.7218C376.13 24.2975 377.692 25.8704 379.332 27.3547C379.852 27.8283 380.054 28.3406 380.052 29.0467C380.024 32.9209 380.043 36.7978 380.03 40.672C380.03 41.0043 380.254 41.4806 379.797 41.6468C379.454 41.7741 379.265 41.3643 379.024 41.1705C376.87 39.448 375.134 37.3074 373.195 35.3661C369.925 32.0929 366.427 29.0357 363.295 25.6378C361.298 23.4723 358.914 21.711 357.097 19.3987C356.527 18.6732 356.233 18.8643 355.727 19.3766C353.27 21.8606 350.861 24.3972 348.302 26.7732C345.375 29.4926 342.598 32.3726 339.787 35.1972C336.417 38.5812 332.955 41.8849 329.69 45.3797C328.248 46.9249 328.198 46.8806 329.762 48.448C330.513 49.1985 331.341 49.8852 332 50.7077C332.706 51.5911 333.124 51.364 333.811 50.6634C336.99 47.4151 340.23 44.2277 343.442 41.0098C345.118 39.3289 346.705 37.5511 348.46 35.9615C351.002 33.6631 353.096 30.9077 355.796 28.7698C356.33 28.3461 356.557 28.3683 357.103 28.8335C358.756 30.243 360.216 31.8409 361.755 33.3584C365.721 37.2769 369.626 41.2535 373.597 45.1637C375.314 46.8529 375.316 46.9415 373.541 48.6723C370.714 51.4305 368.036 54.3437 365.137 57.016C362.606 59.3505 360.374 61.9674 357.795 64.2631C355.818 66.0216 354.179 68.1705 352.116 69.8847C351.398 70.4801 352.196 70.8511 352.534 71.189C356.469 75.1462 360.418 79.0924 364.367 83.033C367.695 86.3561 371.002 89.7069 374.386 92.9746C375.366 93.9189 374.771 94.6943 374.2 95.1816C372.733 96.4333 371.594 98.0312 369.98 99.114C369.789 99.2413 369.578 99.3715 369.451 99.5515C367.69 102.005 365.156 103.714 363.193 105.932C361.29 108.081 359.114 109.911 357.17 111.988C356.519 112.683 356.253 112.52 355.669 112.002C353.428 110.016 351.481 107.726 349.299 105.702C346.093 102.728 343.093 99.5515 340.02 96.461C337.948 94.3786 335.669 92.5038 333.736 90.2884C333.033 89.4798 332.545 89.6044 331.845 90.305C330.809 91.3435 329.904 92.5315 328.638 93.3318C328.17 93.6281 328.223 93.966 328.594 94.3453C330.264 96.0484 331.878 97.8041 333.587 99.4712C336.508 102.324 339.372 105.231 342.265 108.111C343.692 109.532 345.062 111.013 346.538 112.392C348.283 114.024 349.925 115.763 351.595 117.471C352.913 118.82 354.384 120.011 355.577 121.487C356.098 122.132 356.624 122.076 357.275 121.412C362.304 116.286 367.333 111.157 372.464 106.134C374.63 104.013 376.729 101.825 378.889 99.701C379.143 99.4518 379.39 99.0364 379.783 99.1693C380.237 99.3189 380.032 99.8063 380.035 100.141C380.057 102.13 380.046 104.115 380.046 106.098Z" fill="#E8C5A2"/>
<path d="M191.724 41.6717C191.35 41.1455 191.522 40.6249 191.522 40.1459C191.505 36.4545 191.536 32.7631 191.5 29.0744C191.492 28.2132 191.771 27.5292 192.367 26.9864C193.455 25.9923 194.388 24.7987 195.507 23.896C198.188 21.7277 200.45 19.1246 202.834 16.7043C205.562 13.9323 208.583 11.4289 211.029 8.36332C212.023 7.11716 213.366 6.1507 214.534 5.04024C214.883 4.70793 215.069 4.77716 215.423 5.10116C217.423 6.92885 219.436 8.71778 221.192 10.8113C222.571 12.4535 224.332 13.7716 225.863 15.292C229.94 19.3461 233.988 23.4252 238.029 27.5154C238.488 27.9806 238.762 27.8671 239.15 27.4766C243.553 23.0458 247.895 18.5486 252.404 14.223C255.414 11.3236 258.13 8.12793 261.348 5.44177C261.947 4.94054 262.309 4.899 262.966 5.41408C264.098 6.303 265.084 7.32485 266.092 8.33285C270.351 12.5919 274.696 16.7652 278.833 21.1378C281.195 23.6357 283.693 26.0089 286.08 28.4735C288.515 30.9852 291.004 33.5024 293.596 35.8951C297.099 39.1268 300.22 42.7655 303.662 46.0692C306.42 48.7166 309.126 51.4083 311.809 54.1277C314.842 57.1988 317.904 60.2422 320.962 63.2884C323.08 65.3985 325.204 67.5004 327.35 69.5828C327.816 70.0342 327.965 70.3111 327.486 70.9287C326.545 72.1388 325.453 73.1801 324.376 74.2545C320.599 78.0179 316.968 81.9392 313.05 85.5475C310.245 88.1312 307.88 91.1413 304.884 93.5423C303.286 94.8217 302.15 96.6687 300.583 97.998C297.877 100.291 295.568 102.98 293.084 105.472C290.464 108.1 287.761 110.67 285.169 113.334C282.131 116.455 279.124 119.62 275.859 122.528C273.635 124.508 271.88 126.967 269.531 128.853C268.141 129.969 267.208 131.572 265.835 132.744C264.752 133.666 263.719 134.646 262.689 135.629C262.221 136.075 261.894 135.887 261.526 135.518C259.518 133.511 257.261 131.777 255.464 129.526C254.154 127.886 252.265 126.762 250.892 125.139C248.424 122.221 245.359 119.892 242.869 116.973C241.756 115.668 240.277 114.641 239.098 113.351C238.643 112.855 238.427 113.068 238.023 113.456C235.243 116.128 232.637 118.986 229.823 121.611C227.071 124.181 224.551 126.978 221.823 129.573C219.768 131.528 217.705 133.502 215.733 135.554C215.088 136.225 214.786 136.05 214.216 135.496C211.848 133.198 209.688 130.645 207.224 128.512C204.571 126.214 202.391 123.489 199.761 121.179C197.227 118.953 195.042 116.3 192.494 114.043C191.89 113.508 191.514 112.808 191.511 111.977C191.503 107.87 191.508 103.766 191.519 99.6595C191.519 99.4961 191.608 99.3328 191.799 98.6598C193.322 100.296 194.585 101.736 195.936 103.096C201.979 109.18 208.054 115.231 214.091 121.321C214.753 121.988 215.218 122.093 215.864 121.343C218.414 118.374 221.336 115.757 224.091 112.993C227.633 109.443 231.133 105.84 234.778 102.39C235.81 101.41 236.794 100.374 237.774 99.3411C238.372 98.7124 238.846 98.8814 239.388 99.4325C241.712 101.789 244.046 104.135 246.397 106.466C249.432 109.479 252.498 112.462 255.525 115.48C257.447 117.396 259.355 119.329 261.21 121.309C261.875 122.021 262.307 122.005 262.977 121.326C266.854 117.388 270.753 113.472 274.671 109.579C278.291 105.984 281.965 102.445 285.582 98.8454C288.448 95.993 291.245 93.0715 294.106 90.2137C297.027 87.2949 300.01 84.437 302.934 81.521C305.374 79.0924 307.766 76.6195 310.189 74.1715C311.156 73.1967 312.142 72.2385 313.116 71.2721C313.767 70.6268 313.961 70.1561 313.031 69.4278C311.704 68.3893 310.53 67.1625 309.417 65.8554C308.024 64.2188 306.204 62.945 304.798 61.3167C302.397 58.5363 299.392 56.3708 297.108 53.4742C295.947 52.0009 294.236 51.0373 293.009 49.5862C290.575 46.7062 287.725 44.2166 285.064 41.5665C282.007 38.5231 278.93 35.4797 275.903 32.4086C273.17 29.6366 270.251 27.0446 267.673 24.0954C266.125 22.3258 264.262 20.7584 262.495 19.1495C262.198 18.8809 262.03 18.8726 261.722 19.2049C259.773 21.315 257.538 23.1317 255.586 25.2612C254.276 26.6901 252.916 28.1357 251.329 29.3514C249.706 30.5948 248.629 32.4446 247.031 33.7794C244.528 35.8701 242.484 38.4372 240.103 40.6692C238.812 41.8766 238.17 41.8849 237.082 40.6637C236.043 39.4978 234.75 38.5591 233.717 37.3905C231.884 35.3163 229.682 33.6132 227.879 31.5363C225.528 28.828 222.742 26.5655 220.347 23.8904C218.871 22.2427 217.151 20.7307 215.517 19.1855C214.792 18.5015 214.496 19.252 214.199 19.5372C211.987 21.6778 209.877 23.9264 207.631 26.0311C204.443 29.0163 201.477 32.2231 198.309 35.2332C196.097 37.3323 194.078 39.6474 191.724 41.6717Z" fill="#E8C5A2"/>
<path d="M280.639 47.0163C280.354 47.3957 280.068 47.8803 279.683 48.2625C277.382 50.5526 274.907 52.6905 272.794 55.1413C271.232 56.9523 269.241 58.2567 267.723 60.1425C266.563 61.5853 265.292 63.1388 263.547 64.0914C263.04 64.3684 262.547 64.8364 262.276 65.3404C261.307 67.1431 259.546 68.1622 258.208 69.5939C257.751 70.0813 257.532 70.3195 258.067 70.9093C260.963 74.1161 264.12 77.0653 267.144 80.1475C269.72 82.7727 272.342 85.3509 274.951 87.9401C276.745 89.7207 278.543 91.4958 280.362 93.2515C280.689 93.5644 281.024 93.7583 280.586 94.2318C279.038 95.9183 277.631 97.7349 275.723 99.078C275.026 99.5681 274.48 100.291 273.918 100.953C272.733 102.354 271.478 103.686 270.038 104.832C268.266 106.245 267.103 108.244 265.342 109.668C265.059 109.897 264.846 110.224 264.544 110.418C263.661 110.988 262.993 112.39 262.068 112.201C261.077 111.996 260.177 110.958 259.413 110.124C256.178 106.605 252.553 103.478 249.374 99.9004C248.167 98.5435 246.555 97.5244 245.409 96.0844C243.592 93.8054 241.003 92.3294 239.253 89.9949C238.832 89.4327 238.422 89.4078 237.918 89.9478C235.301 92.7503 232.496 95.3811 229.76 98.0561C227.638 100.13 225.805 102.506 223.496 104.362C220.976 106.389 219.148 109.08 216.642 111.116C214.986 112.459 215.155 112.451 213.554 111.168C210.245 108.518 207.559 105.237 204.51 102.326C202.364 100.277 200.215 98.1891 198.116 96.0734C197.573 95.5251 197.31 94.7386 196.689 94.2263C196.305 93.9078 196.462 93.6198 196.773 93.3097C204.122 85.9657 211.455 78.6023 218.824 71.2776C219.577 70.5299 219.666 70.2087 218.769 69.4361C217.207 68.0958 215.844 66.509 214.36 65.0884C211.746 62.585 209.353 59.8601 206.631 57.4591C204.632 55.6951 203.05 53.4908 200.993 51.7683C199.431 50.4613 198.204 48.8357 196.773 47.4068C196.437 47.0717 196.307 46.7616 196.712 46.3517C200.431 42.5939 204.078 38.7585 207.88 35.0865C209.63 33.3972 211.294 31.6277 213.006 29.9052C214.717 28.1828 215.587 28.2603 217.229 30.0686C219.043 32.0652 220.923 34.0037 222.925 35.8286C224.814 37.5511 226.5 39.4923 228.3 41.3117C231.402 44.4465 234.548 47.5369 237.616 50.7022C238.339 51.4471 238.718 51.4693 239.458 50.716C244.198 45.8837 248.992 41.104 253.772 36.3105C255.946 34.1283 258.117 31.9434 260.31 29.7806C261.96 28.1523 262.032 28.1024 263.744 29.692C265.519 31.3397 267.128 33.1618 268.87 34.8455C272.694 38.548 276.466 42.3059 280.151 46.144C280.373 46.3794 280.686 46.5428 280.639 47.0163ZM262.093 98.5546C262.337 98.3331 262.539 98.1586 262.727 97.9731C263.489 97.2364 264.284 96.5275 264.995 95.7438C265.574 95.1069 266.574 94.6334 266.618 93.7887C266.654 93.1075 265.61 92.8334 265.079 92.346C262.982 90.4297 261.271 88.1533 259.053 86.3256C257.086 84.7084 255.602 82.5346 253.653 80.8343C250.989 78.5109 248.862 75.6336 246.098 73.3989C245.359 72.8007 244.824 71.9533 244.157 71.2527C243.484 70.5465 243.559 70.0619 244.282 69.3502C248.624 65.0884 252.902 60.7628 257.203 56.4622C260.166 53.4991 263.137 50.5471 266.081 47.5646C266.35 47.2932 267.114 47.0606 266.399 46.4043C265.145 45.2523 263.927 44.056 262.722 42.8486C262.279 42.4055 262.063 42.364 261.548 42.8708C256.857 47.4788 252.265 52.1893 247.574 56.7917C244.733 59.5776 242.141 62.6265 239.045 65.1521C238.732 65.4068 238.555 65.5896 238.156 65.1798C237.195 64.1939 236.201 63.2247 235.126 62.3662C233.67 61.2031 232.784 59.4585 231.338 58.3841C228.489 56.26 226.331 53.4548 223.797 51.0373C221.023 48.3926 218.234 45.712 215.645 42.8597C215.144 42.3059 214.82 42.3336 214.324 42.8569C213.313 43.9314 212.291 45.0031 211.181 45.9696C210.43 46.6259 210.447 47.0994 211.123 47.7613C214.471 51.0594 217.758 54.4157 221.084 57.7361C225.022 61.6656 228.968 65.5868 232.914 69.5108C233.493 70.0868 233.523 70.4053 233.047 71.0921C231.064 73.9555 228.214 75.9687 225.855 78.461C223.091 81.3826 220.339 84.365 217.265 86.9875C214.983 88.9343 213.427 91.601 210.876 93.2737C210.187 93.7251 210.638 94.2651 211.023 94.6638C212.145 95.8241 213.308 96.9401 214.426 98.1032C214.85 98.5463 215.13 98.502 215.551 98.0838C219.267 94.3703 223.014 90.69 226.733 86.9764C230.446 83.2684 234.143 79.541 237.829 75.8025C238.38 75.2459 238.757 75.2736 239.305 75.8247C243.645 80.2029 248.003 84.5616 252.365 88.9204C255.386 91.9389 258.416 94.949 261.445 97.962C261.631 98.1531 261.839 98.3248 262.093 98.5546Z" fill="#E8C5A2"/>
<path d="M267.305 -0.0911681C271.464 -0.0911686 275.427 -0.0330152 279.384 -0.124401C280.664 -0.154862 281.605 0.252215 282.442 1.11622C283.306 2.01068 284.15 2.92453 285.031 3.79961C288.772 7.52146 292.613 11.1464 296.238 14.979C298.7 17.5793 301.375 19.9581 303.784 22.6166C305.338 24.3307 307.118 25.912 308.827 27.5209C309.212 27.8837 309.403 27.8892 309.807 27.4766C312.862 24.3584 315.955 21.2818 319.037 18.1941C322.933 14.295 326.772 10.3322 330.762 6.5273C332.562 4.81037 334.201 2.95498 335.954 1.20206C336.81 0.346362 337.691 -0.152101 338.981 -0.121639C342.531 -0.0357932 346.084 -0.102255 349.637 -0.0801019C350.058 -0.0773327 350.684 -0.348718 350.856 0.213437C350.989 0.650977 350.532 1.03867 350.199 1.35436C346.66 4.70237 343.387 8.31623 339.793 11.6144C338.527 12.7775 337.45 14.2064 336.151 15.3612C333.274 17.9255 330.823 20.9135 327.926 23.475C326.334 24.8846 325.021 26.6818 323.401 28.1052C320.879 30.3234 318.735 32.9098 316.262 35.1834C314.075 37.1938 312.095 39.4508 309.904 41.4862C309.4 41.9542 309.17 41.9763 308.702 41.5305C306.803 39.7305 304.817 38.0329 303.15 35.9781C302.059 34.6351 300.508 33.6741 299.364 32.3643C296.736 29.3541 293.513 26.9366 290.99 23.8129C290.06 22.6581 288.678 21.8661 287.673 20.7196C285.006 17.6763 282.018 14.9375 279.157 12.0935C275.867 8.823 272.697 5.41961 269.241 2.3153C268.496 1.65068 267.939 0.825449 267.305 -0.0911681Z" fill="#E8C5A2"/>
<path d="M351.373 140.91C346.898 140.91 342.567 140.918 338.233 140.905C337.034 140.902 336.325 139.941 335.655 139.221C332.689 136.02 329.516 133.023 326.439 129.938C323.069 126.56 319.624 123.24 316.298 119.82C314.149 117.61 311.699 115.713 309.746 113.32C309.295 112.769 309.051 113.079 308.785 113.395C307.074 115.45 304.751 116.87 303.092 119.005C302.089 120.299 300.871 121.459 299.508 122.434C298.376 123.245 297.672 124.489 296.695 125.461C294.247 127.886 291.882 130.415 289.34 132.719C286.645 135.161 284.516 138.157 281.572 140.334C281.143 140.653 280.777 140.891 280.229 140.891C275.942 140.877 271.655 140.882 267.153 140.882C267.751 140.193 268.191 139.575 268.737 139.074C271.744 136.305 274.463 133.25 277.465 130.47C280.055 128.072 282.395 125.411 284.895 122.916C287.526 120.288 290.234 117.734 292.873 115.115C294.601 113.4 296.246 111.606 297.963 109.878C299.484 108.347 301.056 106.868 302.591 105.35C304.122 103.833 305.637 102.296 307.154 100.762C307.606 100.305 308.013 99.798 308.484 99.3632C309.06 98.8315 309.605 98.9118 310.162 99.4878C314.216 103.686 318.342 107.812 322.546 111.866C325.287 114.511 327.818 117.377 330.582 119.994C333.385 122.647 336.079 125.413 338.812 128.13C342.457 131.749 346.142 135.338 349.668 139.08C350.191 139.633 350.955 139.957 351.373 140.91Z" fill="#E8C5A2"/>
<path d="M267.119 70.3527C267.227 69.8487 267.657 69.7684 267.892 69.4998C271.232 65.6893 275.034 62.3357 278.52 58.6665C280.478 56.6034 282.577 54.676 284.549 52.6268C285.424 51.7157 286.111 51.9013 286.881 52.6711C290.124 55.9111 293.388 59.1345 296.615 62.3911C299.002 64.8004 301.336 67.2594 303.718 69.677C304.202 70.1699 304.191 70.5105 303.784 71.0755C302.341 73.0776 300.245 74.4318 298.661 76.2567C295.792 79.5632 292.35 82.2881 289.495 85.6001C288.509 86.7438 287.255 87.6493 286.166 88.7072C285.726 89.1364 285.502 88.9315 285.167 88.613C281.137 84.7804 277.175 80.8869 273.378 76.8216C271.999 75.3456 270.415 74.0607 268.967 72.6456C268.379 72.0724 267.906 71.3801 267.385 70.7404C267.272 70.5991 267.183 70.4468 267.119 70.3527ZM285.676 74.969C285.826 74.8499 285.931 74.7613 286.042 74.6782C287.568 73.5512 288.623 71.9561 290.018 70.6988C290.4 70.3555 290.254 70.0508 289.891 69.8071C288.501 68.8795 287.484 67.553 286.299 66.4093C285.812 65.9385 285.563 65.9468 285.111 66.4259C284.012 67.5918 282.929 68.7825 281.614 69.7268C280.991 70.1727 281.157 70.6268 281.63 71.0893C282.807 72.2441 283.967 73.4182 285.144 74.5758C285.297 74.7309 285.499 74.8416 285.676 74.969Z" fill="#E8C5A2"/>
<path d="M380.113 89.225C378.097 87.2672 375.975 85.8022 374.452 83.6893C373.641 82.565 372.348 81.8838 371.448 80.8647C368.49 77.5222 365.015 74.6948 362.088 71.3274C361.431 70.5714 361.423 70.2198 362.124 69.4361C365.4 65.7834 369.027 62.4797 372.467 58.996C374.414 57.0243 376.327 55.0111 378.296 53.0588C378.556 52.8012 378.828 52.5437 379.127 52.3332C379.758 51.8902 380.273 51.8154 380.215 52.84C379.98 56.9828 380.085 61.1283 380.046 65.2711C380.043 65.6062 379.974 65.8997 379.697 66.1296C378.36 67.2456 377.396 68.7548 375.934 69.7324C375.294 70.1616 375.305 70.4524 375.856 70.973C377.125 72.1721 378.329 73.4404 379.559 74.681C379.883 75.0078 380.254 75.3096 380.215 75.8385C379.883 80.2001 380.099 84.5644 380.113 89.225Z" fill="#E8C5A2"/>
<path d="M290.647 140.309C292.461 138.634 294.313 137.003 296.075 135.277C299.223 132.195 302.316 129.058 305.435 125.942C306.473 124.907 307.528 123.885 308.539 122.824C309.054 122.287 309.433 122.171 309.99 122.81C311.64 124.718 313.615 126.316 315.31 128.166C317.882 130.971 320.809 133.414 323.307 136.294C324.385 137.534 325.694 138.573 326.891 139.714C327.176 139.988 327.663 140.248 327.514 140.689C327.37 141.118 326.863 140.885 326.528 140.888C322.657 140.905 318.785 140.86 314.914 140.918C313.543 140.941 312.964 139.822 312.05 139.204C311.303 138.7 310.685 137.975 310.084 137.285C309.55 136.67 309.159 136.579 308.522 137.194C307.401 138.277 306.396 139.489 305.097 140.387C304.753 140.622 304.463 140.902 304.003 140.902C299.683 140.896 295.363 140.899 291.046 140.899C290.91 140.697 290.777 140.503 290.647 140.309Z" fill="#E8C5A2"/>
<path d="M298.002 -0.0911721C299.616 -0.0911723 301.239 0.00852002 302.843 -0.121634C304.236 -0.235173 305.23 0.318674 306.132 1.23806C306.972 2.09375 307.813 2.94668 308.644 3.81345C309.087 4.27314 309.464 4.50022 309.926 3.7996C312.167 0.40175 315.343 -0.611791 319.297 -0.141021C321.618 0.135902 323.997 -0.0994832 326.348 -0.0828681C326.686 -0.0800989 327.159 -0.271176 327.317 0.185748C327.436 0.529133 327.04 0.72298 326.855 0.972211C325.185 3.19314 322.853 4.75776 321.042 6.82915C318.439 9.80608 315.324 12.2679 312.743 15.267C311.879 16.2695 310.76 17.0532 309.799 17.9753C309.397 18.3603 309.134 18.2799 308.744 17.9726C306.789 16.4246 305.088 14.6273 303.419 12.783C302.128 11.3569 300.569 10.1716 299.268 8.751C297.03 6.30577 294.515 4.14576 292.234 1.75037C291.948 1.45129 291.677 1.1356 291.436 0.800523C291.007 0.202368 291.14 -0.102248 291.918 -0.0967098C293.942 -0.0800946 295.972 -0.0911718 298.002 -0.0911721Z" fill="#E8C5A2"/>
<path d="M257.239 -0.0911668C252.772 4.72731 248.111 8.94486 243.786 13.4892C242.26 15.0926 240.629 16.5603 239.042 18.0861C238.81 18.3104 238.635 18.5569 238.256 18.2135C236.309 16.455 234.343 14.7076 232.67 12.6916C232.036 11.9273 231.238 11.415 230.563 10.731C227.625 7.75409 224.656 4.80762 221.698 1.8473C221.601 1.75038 221.502 1.65346 221.41 1.54823C221.02 1.10238 220.386 0.606686 220.58 0.0611461C220.826 -0.628394 221.554 -0.0717774 222.061 -0.077316C225.656 -0.121624 229.253 -0.0883938 232.845 -0.157625C234.498 -0.188087 235.29 1.05807 236.154 2.02453C238.447 4.58885 238.494 4.74392 240.72 2.25161C242.326 0.457144 244.03 -0.304396 246.469 -0.14655C249.945 0.0777577 253.439 -0.0911663 257.239 -0.0911668Z" fill="#E8C5A2"/>
<path d="M191.516 88.4303C191.516 83.7475 191.514 79.3776 191.519 75.0106C191.519 74.3847 192.015 74.0524 192.397 73.6647C193.303 72.7509 194.205 71.8287 195.133 70.937C195.598 70.4912 195.665 70.181 195.094 69.7324C194.158 68.993 193.292 68.165 192.394 67.3758C191.926 66.9632 191.558 66.4287 191.552 65.8333C191.516 61.3776 191.533 56.9247 191.677 52.3831C192.674 53.416 193.768 54.28 194.77 55.2382C197.833 58.1653 200.755 61.2391 203.884 64.0998C205.817 65.8665 207.6 67.7995 209.481 69.6272C210.001 70.1339 210.126 70.4745 209.577 71.0976C208.146 72.7204 206.592 74.1909 204.947 75.5976C203.56 76.7856 202.499 78.3613 201.101 79.5355C197.844 82.2715 195.283 85.7552 191.516 88.4303Z" fill="#E8C5A2"/>
<path d="M257.25 140.882C252.689 140.882 248.325 140.913 243.963 140.863C242.775 140.849 242.163 139.703 241.263 139.118C240.886 138.875 240.623 138.459 240.299 138.135C238.43 136.269 238.353 136.205 236.647 138.296C235.118 140.171 233.39 141.107 230.87 140.938C227.752 140.727 224.606 140.899 221.474 140.88C221.097 140.877 220.549 141.126 220.375 140.63C220.253 140.281 220.69 140.002 220.94 139.753C225.855 134.834 230.782 129.927 235.705 125.015C236.422 124.3 237.165 123.608 237.838 122.852C238.427 122.19 238.829 122.342 239.402 122.913C242.332 125.823 245.176 128.817 248.178 131.661C251.257 134.574 254.14 137.703 257.25 140.882Z" fill="#E8C5A2"/>
<path d="M191.511 18.1858C191.511 13.6498 191.508 9.32148 191.519 4.99039C191.519 4.77162 191.575 4.50578 191.702 4.33685C192.929 2.71408 194.402 1.32115 195.925 -0.0136201C196.324 -0.362544 196.892 -0.260082 197.398 -0.260082C201.09 -0.260083 204.781 -0.265622 208.473 -0.251776C208.863 -0.249007 209.431 -0.478854 209.605 -0.0330065C209.785 0.429456 209.298 0.789457 208.988 1.10792C207.827 2.29315 206.639 3.45623 205.468 4.63039C203.488 6.61316 201.588 8.68732 199.5 10.5483C198.232 11.6781 197.252 13.0516 195.983 14.1787C194.552 15.4526 193.319 16.948 191.511 18.1858Z" fill="#E8C5A2"/>
<path d="M191.735 122.464C197.886 128.62 203.895 134.638 210.134 140.885C206.232 140.885 202.632 140.6 199.099 140.965C195.485 141.337 193.917 138.781 191.841 136.834C191.536 136.549 191.519 136.089 191.519 135.662C191.522 131.473 191.519 127.285 191.528 123.096C191.525 122.971 191.602 122.846 191.735 122.464Z" fill="#E8C5A2"/>
<path d="M380.043 122.805C380.043 123.752 380.043 124.976 380.043 126.2C380.043 129.29 380.041 132.384 380.043 135.474C380.043 135.984 380.054 136.443 379.611 136.856C378.775 137.637 378.022 138.506 377.208 139.312C375.973 140.533 374.549 141.029 372.741 140.957C369.061 140.81 365.372 140.913 361.908 140.913C367.928 134.904 374.018 128.822 380.043 122.805Z" fill="#E8C5A2"/>
<path d="M361.905 -0.0911805C366.189 -0.0911811 370.473 -0.0911816 374.757 -0.0939514C375.255 -0.0939515 375.626 0.130357 375.967 0.476511C377.166 1.68944 378.376 2.89129 379.589 4.09037C379.863 4.36175 380.041 4.66083 380.041 5.0596C380.038 9.37961 380.041 13.7024 380.041 18.0252C379.913 18.1138 379.789 18.2024 379.661 18.291C373.663 12.3039 367.665 6.31683 361.667 0.326974C361.747 0.188512 361.825 0.0472814 361.905 -0.0911805Z" fill="#E8C5A2"/>
</g>
</g>
</svg>
