<svg width="10" height="17" viewBox="0 0 10 17" fill="none" xmlns="http://www.w3.org/2000/svg">
<path d="M4.99997 0.000134804C2.25582 0.000134804 0 2.15051 0 5.21801C0 6.41532 0.660504 7.97702 1.05772 8.8536L4.65145 16.777L4.65158 16.7769C4.71476 16.9131 4.85065 17 5.00007 17C5.14949 17 5.28539 16.9131 5.34855 16.7769L8.94228 8.85347C9.33946 7.97685 10 6.41529 10 5.21787C10 2.1504 7.74414 0 5.00003 0L4.99997 0.000134804ZM4.99997 2.70563C6.27444 2.70563 7.30761 3.74389 7.30761 5.02465C7.30761 6.30541 6.27444 7.34367 4.99997 7.34367C3.72549 7.34367 2.69232 6.30541 2.69232 5.02465C2.69232 3.74389 3.72549 2.70563 4.99997 2.70563Z" fill="white"/>
</svg>
