<svg width="35" height="32" viewBox="0 0 35 32" fill="none" xmlns="http://www.w3.org/2000/svg">
<path d="M17.5 0C13.2714 0 9.84375 3.42769 9.84375 7.65625C9.84375 11.0748 14.8477 17.3056 16.7648 19.5672C17.153 20.0253 17.8476 20.0253 18.2352 19.5672C20.1523 17.3056 25.1562 11.0748 25.1562 7.65625C25.1562 3.42769 21.7286 0 17.5 0ZM17.5 10.2083C16.0903 10.2083 14.9479 9.06597 14.9479 7.65625C14.9479 6.24653 16.0903 5.10417 17.5 5.10417C18.9097 5.10417 20.0521 6.24653 20.0521 7.65625C20.0521 9.06597 18.9097 10.2083 17.5 10.2083ZM1.22257 13.122C0.86174 13.2663 0.552423 13.5154 0.334511 13.8372C0.116599 14.159 8.64189e-05 14.5386 0 14.9273L0 30.1377C0 30.8255 0.694531 31.2958 1.33316 31.0406L9.72222 27.2222V13.0594C9.18507 12.0884 8.74575 11.1429 8.43099 10.2387L1.22257 13.122ZM17.5 21.8549C16.6451 21.8549 15.8363 21.4794 15.2815 20.8244C14.0869 19.4147 12.8163 17.8093 11.6667 16.1626V27.2216L23.3333 31.1105V16.1632C22.1837 17.8093 20.9137 19.4153 19.7185 20.825C19.1637 21.4794 18.3549 21.8549 17.5 21.8549ZM33.6668 9.79271L25.2778 13.6111V31.1111L33.7774 27.7114C34.1383 27.5671 34.4477 27.318 34.6656 26.9962C34.8835 26.6744 35 26.2947 35 25.9061V10.6957C35 10.0078 34.3055 9.5375 33.6668 9.79271Z" fill="#F8485E"/>
</svg>
