<svg width="24" height="24" viewBox="0 0 24 24" fill="none" xmlns="http://www.w3.org/2000/svg">
<g clip-path="url(#clip0_8798_4739)">
<path fill-rule="evenodd" clip-rule="evenodd" d="M16.551 22.1335C15.111 22.0805 11.03 21.5165 6.75602 17.2435C2.48302 12.9695 1.92002 8.88946 1.86602 7.44846C1.78602 5.25246 3.46802 3.11946 5.41102 2.28646C5.645 2.18543 5.90122 2.14696 6.15455 2.17484C6.40788 2.20271 6.64961 2.29597 6.85602 2.44546C8.45602 3.61146 9.56002 5.37546 10.508 6.76246C10.7166 7.06719 10.8058 7.43801 10.7586 7.80426C10.7114 8.17051 10.5311 8.50659 10.252 8.74846L8.30102 10.1975C8.20677 10.2655 8.14042 10.3655 8.1143 10.4788C8.08818 10.5921 8.10407 10.711 8.15902 10.8135C8.60102 11.6165 9.38702 12.8125 10.287 13.7125C11.188 14.6125 12.44 15.4505 13.299 15.9425C13.4067 16.0029 13.5335 16.0198 13.6533 15.9897C13.7731 15.9596 13.8767 15.8847 13.943 15.7805L15.213 13.8475C15.4465 13.5373 15.7909 13.3295 16.1742 13.2676C16.5575 13.2058 16.9498 13.2946 17.269 13.5155C18.676 14.4895 20.318 15.5745 21.52 17.1135C21.6817 17.3214 21.7845 17.5689 21.8177 17.8301C21.851 18.0913 21.8134 18.3567 21.709 18.5985C20.872 20.5515 18.754 22.2145 16.551 22.1335Z" fill="white"/>
</g>
<defs>
<clipPath id="clip0_8798_4739">
<rect width="24" height="24" fill="white"/>
</clipPath>
</defs>
</svg>
