<svg width="185" height="248" viewBox="0 0 185 248" fill="none" xmlns="http://www.w3.org/2000/svg">
<g opacity="0.2">
<path d="M139.305 0.237043C140.512 0.237043 141.763 0.444445 142.923 0.204295C147.672 -0.785415 150.435 1.9654 152.9 5.33841C153.665 6.38634 154.854 6.95761 155.699 7.85999C159.498 11.9098 163.519 15.7304 167.424 19.671C171.024 23.306 174.558 26.9992 178.195 30.5978C179.039 31.4311 178.347 31.7113 177.93 32.1515C175.367 34.8696 172.655 37.4603 170.114 40.1711C166.278 44.2646 162.123 48.0269 158.269 52.1022C155.55 54.9767 152.929 58.0368 149.898 60.5657C146.132 63.7095 143.373 67.8248 139.454 70.8121C137.557 72.2566 136.401 74.5599 134.505 76.0772C130.727 79.0973 128.044 83.2417 124.165 86.1526C123.614 86.5637 123.212 87.1641 122.57 86.3054C120.826 83.9767 118.47 82.2483 116.526 80.1015C113.662 76.9359 110.53 74.0177 107.514 70.9904C105.005 68.4761 102.521 65.9399 99.9764 63.4657C99.0809 62.596 98.8887 61.9993 99.9075 60.9987C106.625 54.3982 113.325 47.7831 119.934 41.0735C122.987 37.9734 125.931 34.7677 129.157 31.8423C129.567 31.4711 129.835 31.1837 129.197 30.7288C127.272 29.3461 125.844 27.4359 124.147 25.813C123.752 25.4346 123.226 24.6305 122.729 25.5219C121.123 28.4256 118.093 29.9247 116.109 32.4099C113.122 36.1613 109.312 39.0722 106.096 42.5981C102.775 46.2403 99.0483 49.5151 95.7056 53.1574C94.9334 53.9979 93.766 54.3545 93.0228 55.2715C92.7364 55.6244 92.3267 55.7044 91.928 55.3006C89.2596 52.6262 86.537 50.0063 83.8868 47.3101C81.9581 45.3489 79.9822 43.4095 78.0426 41.4483C74.7979 38.1626 71.3972 35.037 68.3229 31.5766C66.405 29.4189 63.9143 27.8216 62.1596 25.471C61.8406 25.0453 61.4962 25.0562 61.1808 25.5802C60.0351 27.4795 58.3348 28.8586 56.649 30.2267C55.8043 30.9108 55.6847 31.3729 56.5439 32.2025C59.8829 35.4263 63.2618 38.6247 66.4014 42.0377C69.2655 45.1488 72.561 47.8195 75.3163 50.9997C78.3979 54.5546 82.259 57.32 85.094 61.1151C85.8083 62.0684 85.9279 62.4505 85.1339 63.4511C82.7158 66.5039 79.558 68.8036 76.9985 71.6635C73.054 76.0735 68.6274 79.9851 64.6068 84.3114C61.9276 87.1932 61.9784 86.9422 59.1252 84.366C55.6883 81.2586 52.6393 77.7764 49.3112 74.5635C45.8924 71.2633 42.4664 67.9448 39.2253 64.4699C37.0137 62.0939 34.4397 60.089 32.3696 57.6111C29.2082 53.8269 25.5284 50.5376 22.048 47.1027C18.6764 43.7734 15.6274 40.0947 11.9403 37.0601C10.1385 35.5791 8.6956 33.6543 7.07141 31.9478C6.56385 31.4129 6.53848 31.1 7.13667 30.4923C14.7646 22.7566 22.3961 15.0208 30.1508 7.4088C32.2137 5.38208 34.2729 3.32989 36.2162 1.17581C36.8361 0.491747 37.5068 0.226127 38.4313 0.229765C43.5032 0.266152 48.5788 0.240681 53.6508 0.258874C54.0858 0.258874 54.7094 -0.0358553 54.9269 0.56452C55.0937 1.01571 54.5571 1.26314 54.3034 1.5797C52.0484 4.41056 49.2459 6.69199 46.7045 9.23903C42.4192 13.5363 38.4168 18.1319 33.9684 22.2472C31.1333 24.8706 28.8275 28.0035 25.8003 30.3904C24.8505 31.14 25.1006 31.5257 25.7713 32.1916C29.0233 35.419 32.3442 38.5847 35.4548 41.9468C39.015 45.7928 42.7854 49.4424 46.4833 53.1356C50.9136 57.5638 55.2387 62.1121 59.814 66.402C61.837 68.2978 61.779 68.3633 63.831 66.3074C64.8134 65.3214 65.7126 64.2334 66.7893 63.3674C67.9458 62.4396 67.6485 61.8901 66.7313 60.9878C62.4787 56.8106 58.3058 52.5534 54.0931 48.3326C51.8925 46.1312 49.5649 44.0462 47.484 41.7394C44.4749 38.3991 40.8676 35.6483 38.0687 32.1006C37.514 31.3983 37.5431 31.1 38.1521 30.3832C39.9975 28.2109 42.0893 26.2933 44.0761 24.2702C49.206 19.0597 54.4121 13.9292 59.5312 8.71143C61.7427 6.45548 61.8587 6.45184 64.1246 8.7842C67.7355 12.4993 71.5495 16.0178 75.048 19.8275C78.1042 23.1532 81.5303 26.0859 84.5357 29.4735C86.8379 32.0715 89.6512 34.2256 91.8953 36.9364C92.6748 37.8788 93.1606 36.8308 93.6029 36.3869C98.7836 31.2164 103.95 26.0277 109.109 20.839C113.459 16.4654 117.846 12.1208 122.124 7.67442C123.36 6.38634 124.375 7.16865 125.014 7.91821C126.652 9.84669 128.744 11.3422 130.162 13.4635C130.328 13.7146 130.499 13.9911 130.734 14.1585C133.947 16.4726 136.183 19.802 139.087 22.3818C141.901 24.8815 144.297 27.7415 147.016 30.2958C147.926 31.1509 147.712 31.5002 147.034 32.268C144.435 35.2116 141.437 37.7696 138.786 40.6368C134.893 44.8504 130.734 48.791 126.688 52.8299C123.962 55.5516 121.508 58.5462 118.607 61.086C117.549 62.0102 117.712 62.6506 118.629 63.5712C119.989 64.932 121.544 66.1219 122.592 67.7847C122.98 68.3997 123.422 68.3305 123.919 67.8429C126.148 65.6488 128.447 63.5275 130.629 61.2825C134.363 57.4437 138.17 53.6814 141.941 49.879C143.8 48.0051 145.74 46.204 147.545 44.2646C149.681 41.9722 151.958 39.8145 154.195 37.6204C155.96 35.8884 157.519 33.9563 159.451 32.3881C160.296 31.704 160.224 31.0126 159.353 30.1576C152.643 23.5498 145.929 16.942 139.352 10.1996C136.575 7.35422 133.711 4.59613 130.93 1.75799C130.604 1.42324 130.06 1.0994 130.234 0.582713C130.43 -0.0140234 131.068 0.255236 131.507 0.251597C134.11 0.222488 136.709 0.237043 139.305 0.237043Z" fill="#E8C5A2"/>
<path d="M54.9596 247.683C54.2707 248.174 53.5892 247.948 52.962 247.948C48.1293 247.97 43.2966 247.93 38.4675 247.977C37.34 247.988 36.4445 247.621 35.734 246.839C34.4324 245.409 32.8699 244.182 31.688 242.712C28.8493 239.19 25.4414 236.217 22.2728 233.084C18.6437 229.5 15.3664 225.531 11.353 222.318C9.72159 221.011 8.45632 219.247 7.00253 217.711C6.56748 217.253 6.65811 217.009 7.08229 216.543C9.47506 213.916 11.8171 211.271 14.5579 208.964C16.7078 207.152 18.4335 204.838 20.4238 202.826C25.7314 197.469 31.0717 192.15 36.4264 186.841C37.0355 186.237 36.8869 185.877 36.3757 185.367C30.575 179.582 24.6873 173.877 19.0244 167.953C15.2286 163.998 11.0449 160.428 7.52821 156.2C6.87201 155.414 6.81763 154.937 7.49196 154.075C8.65572 152.587 9.9935 151.291 11.3132 149.967C16.889 144.371 22.3526 138.662 28.0771 133.226C31.3472 130.122 34.4542 126.84 37.6808 123.703C40.9691 120.505 44.2646 117.234 47.3969 113.828C51.6278 109.225 56.3916 105.124 60.7167 100.602C64.1826 96.9775 67.7065 93.4226 71.2667 89.8967C75.2873 85.9124 79.2716 81.8881 83.2596 77.871C86.0221 75.0875 88.7738 72.2966 91.5002 69.4767C92.0911 68.8654 92.4536 68.6689 93.2621 69.2984C94.8464 70.5355 96.2096 71.9692 97.6162 73.3846C102.543 78.3477 107.677 83.118 112.401 88.2666C115.783 91.9526 119.724 95.06 122.867 98.997C124.542 101.096 126.96 102.588 128.701 104.648C131.702 108.203 135.223 111.237 138.486 114.501C141.926 117.943 145.29 121.495 148.778 124.9C152.864 128.892 157.008 132.844 160.815 137.134C163.407 140.055 166.626 142.362 169.095 145.448C170.556 147.274 172.655 148.501 174.189 150.305C175.396 151.728 176.679 153.085 177.966 154.439C178.55 155.054 178.304 155.483 177.821 155.967C175.193 158.605 172.923 161.571 169.976 163.932C167.83 165.653 166.358 168.135 164.233 169.94C160.412 173.182 157.363 177.21 153.542 180.481C151.834 181.943 150.489 183.886 148.8 185.436C148.151 186.033 148.43 186.317 148.938 186.848C152.436 190.501 156.178 193.925 159.615 197.622C162.979 201.239 166.641 204.55 170.038 208.134C172.597 210.834 175.182 213.545 177.868 216.136C178.746 216.983 178.517 217.38 177.792 218.13C174.783 221.241 171.441 224.079 168.649 227.317C165.64 230.803 162.073 233.667 159.049 237.123C156.134 240.453 152.661 243.324 149.706 246.671C149.007 247.464 148.089 247.959 147.002 247.963C141.625 247.974 136.252 247.966 130.876 247.952C130.662 247.952 130.448 247.835 129.567 247.584C131.71 245.583 133.595 243.924 135.375 242.148C143.34 234.209 151.262 226.226 159.234 218.293C160.108 217.424 160.245 216.812 159.263 215.965C155.376 212.613 151.95 208.775 148.332 205.154C143.684 200.5 138.968 195.901 134.45 191.113C133.167 189.756 131.811 188.464 130.459 187.176C129.636 186.39 129.857 185.768 130.579 185.054C133.664 182.002 136.734 178.934 139.787 175.845C143.732 171.857 147.636 167.829 151.588 163.852C154.097 161.327 156.627 158.82 159.219 156.382C160.151 155.509 160.129 154.941 159.241 154.06C154.086 148.966 148.959 143.843 143.862 138.695C139.156 133.939 134.523 129.11 129.81 124.358C126.076 120.592 122.251 116.917 118.51 113.159C114.688 109.32 110.947 105.401 107.129 101.559C103.95 98.3529 100.712 95.2092 97.5075 92.0253C96.2313 90.7555 94.9769 89.4601 93.7117 88.1793C92.8669 87.3242 92.2506 87.0695 91.2971 88.2921C89.9376 90.035 88.3315 91.5778 86.6203 93.0405C84.4777 94.8708 82.81 97.2613 80.6783 99.1098C77.0384 102.264 74.2033 106.212 70.4111 109.214C68.4824 110.739 67.2207 112.988 65.321 114.599C61.5506 117.798 58.2913 121.542 54.8218 125.039C50.8375 129.056 46.8531 133.098 42.8325 137.075C39.2035 140.667 35.8101 144.502 31.949 147.889C29.6324 149.923 27.5804 152.372 25.474 154.694C25.1224 155.083 25.1115 155.305 25.5465 155.709C28.3091 158.27 30.6874 161.207 33.4753 163.772C35.3461 165.493 37.2385 167.28 38.8301 169.365C40.4579 171.497 42.8797 172.912 44.6271 175.012C47.3643 178.301 50.7251 180.986 53.6472 184.116C55.2278 185.811 55.2387 186.655 53.6399 188.085C52.1136 189.45 50.8846 191.149 49.3547 192.506C46.6392 194.915 44.4096 197.808 41.6905 200.177C38.1449 203.266 35.1829 206.926 31.6808 210.074C29.5236 212.013 27.5441 214.273 25.5212 216.419C24.6257 217.373 25.6082 217.762 25.9816 218.151C28.784 221.059 31.7279 223.831 34.4832 226.782C38.3914 230.97 42.5896 234.867 46.5305 239.03C49.2785 241.937 52.3094 244.59 54.9596 247.683Z" fill="#E8C5A2"/>
<path d="M61.9566 130.853C62.4533 131.228 63.0877 131.603 63.5881 132.109C66.5863 135.132 69.3851 138.385 72.5936 141.162C74.9646 143.214 76.6722 145.83 79.1411 147.824C81.0299 149.348 83.0638 151.019 84.311 153.311C84.6735 153.977 85.2862 154.624 85.946 154.981C88.3062 156.255 89.6403 158.569 91.5147 160.326C92.1527 160.927 92.4645 161.214 93.2367 160.512C97.435 156.706 101.296 152.558 105.331 148.584C108.768 145.2 112.143 141.755 115.533 138.327C117.864 135.969 120.188 133.608 122.487 131.217C122.896 130.788 123.15 130.347 123.77 130.922C125.978 132.956 128.356 134.805 130.114 137.312C130.756 138.229 131.702 138.946 132.569 139.684C134.403 141.242 136.147 142.89 137.648 144.782C139.497 147.111 142.115 148.639 143.978 150.953C144.279 151.324 144.707 151.604 144.961 152.001C145.707 153.162 147.542 154.039 147.295 155.254C147.027 156.557 145.668 157.739 144.576 158.743C139.968 162.993 135.875 167.756 131.191 171.933C129.415 173.52 128.081 175.638 126.195 177.144C123.212 179.531 121.279 182.933 118.223 185.233C117.487 185.786 117.455 186.324 118.161 186.987C121.83 190.425 125.275 194.111 128.777 197.706C131.492 200.493 134.603 202.902 137.032 205.937C139.686 209.248 143.209 211.649 145.874 214.942C147.632 217.118 147.622 216.896 145.943 218.999C142.474 223.347 138.177 226.877 134.367 230.883C131.684 233.703 128.951 236.527 126.181 239.285C125.463 239.998 124.433 240.344 123.763 241.159C123.346 241.664 122.969 241.457 122.563 241.049C112.948 231.392 103.308 221.757 93.7189 212.075C92.74 211.085 92.3195 210.969 91.308 212.148C89.5533 214.2 87.4759 215.99 85.6161 217.94C82.3387 221.375 78.7713 224.519 75.6281 228.096C73.3187 230.723 70.4328 232.801 68.1778 235.504C66.4666 237.556 64.3385 239.168 62.4678 241.049C62.0291 241.49 61.6231 241.661 61.0865 241.129C56.1668 236.243 51.1456 231.451 46.3383 226.455C44.1268 224.155 41.8102 221.968 39.5552 219.72C37.3002 217.471 37.4017 216.329 39.7691 214.171C42.383 211.787 44.9208 209.317 47.3099 206.686C49.5649 204.205 52.1064 201.989 54.4883 199.624C58.5922 195.548 62.6382 191.415 66.7821 187.383C67.7573 186.433 67.7863 185.935 66.8002 184.963C60.4738 178.734 54.2164 172.436 47.9408 166.155C45.0839 163.299 42.2235 160.446 39.392 157.564C37.2603 155.396 37.195 155.301 39.276 153.053C41.4331 150.72 43.8187 148.606 46.0229 146.317C50.8701 141.293 55.7898 136.337 60.8146 131.494C61.1228 131.203 61.3367 130.791 61.9566 130.853ZM129.429 155.221C129.139 154.901 128.911 154.635 128.668 154.388C127.704 153.387 126.775 152.343 125.749 151.408C124.916 150.647 124.296 149.334 123.19 149.276C122.298 149.228 121.939 150.6 121.301 151.299C118.792 154.053 115.812 156.302 113.419 159.216C111.302 161.8 108.456 163.75 106.23 166.312C103.189 169.812 99.4217 172.607 96.496 176.238C95.7129 177.21 94.6035 177.912 93.6863 178.789C92.7618 179.673 92.1273 179.575 91.1956 178.625C85.6161 172.92 79.9532 167.298 74.3229 161.647C70.4437 157.754 66.579 153.849 62.6744 149.982C62.3192 149.629 62.0146 148.624 61.1554 149.563C59.6472 151.211 58.081 152.812 56.5004 154.395C55.9203 154.977 55.8659 155.261 56.5294 155.938C62.5621 162.102 68.7289 168.135 74.7543 174.299C78.4015 178.032 82.3931 181.438 85.6995 185.506C86.033 185.917 86.2723 186.15 85.7357 186.674C84.4451 187.936 83.1762 189.242 82.0523 190.654C80.5296 192.568 78.2456 193.733 76.839 195.632C74.0583 199.376 70.3857 202.211 67.2207 205.54C63.7585 209.186 60.2491 212.85 56.5149 216.252C55.7898 216.911 55.826 217.336 56.5112 217.988C57.9179 219.316 59.3209 220.658 60.5862 222.118C61.4454 223.104 62.0654 223.082 62.9319 222.194C67.2497 217.795 71.6437 213.476 75.9906 209.106C81.1351 203.932 86.2687 198.747 91.4059 193.562C92.16 192.801 92.5769 192.761 93.476 193.387C97.2247 195.992 99.8604 199.736 103.123 202.836C106.948 206.468 110.853 210.085 114.286 214.123C116.835 217.122 120.326 219.167 122.516 222.518C123.107 223.424 123.814 222.831 124.336 222.325C125.855 220.851 127.316 219.323 128.838 217.853C129.418 217.296 129.36 216.929 128.813 216.376C123.951 211.493 119.133 206.57 114.271 201.683C109.417 196.804 104.537 191.946 99.6428 187.103C98.9141 186.379 98.9504 185.884 99.6719 185.164C105.404 179.462 111.11 173.735 116.816 168.004C120.768 164.034 124.709 160.053 128.653 156.073C128.904 155.829 129.128 155.556 129.429 155.221Z" fill="#E8C5A2"/>
<path d="M0.284629 148.373C0.284629 142.908 0.360763 137.701 0.241124 132.502C0.201244 130.82 0.734181 129.583 1.86531 128.484C3.03632 127.349 4.23271 126.239 5.37834 125.082C10.2509 120.167 14.9966 115.12 20.0142 110.357C23.4184 107.122 26.5327 103.607 30.0131 100.442C32.2572 98.4002 34.3273 96.0606 36.4337 93.8155C36.9086 93.3098 36.9159 93.0587 36.3757 92.5275C32.2934 88.514 28.2656 84.4497 24.2233 80.3999C19.1187 75.2803 13.9307 70.2372 8.94938 64.9939C6.70162 62.6288 4.27259 60.4747 1.9777 58.1714C0.857445 57.0471 0.20487 55.89 0.244749 54.1944C0.357137 49.5297 0.270127 44.8613 0.299131 40.1929C0.302756 39.6399 -0.0525348 38.8175 0.683425 38.5919C1.25624 38.4173 1.7638 39.0177 2.1771 39.4543C6.56023 44.1045 11.2914 48.4053 15.6093 53.1283C17.1319 54.7911 19.0027 56.2066 20.5145 57.9131C23.8716 61.6936 27.7834 64.9138 31.1369 68.7199C32.9823 70.8121 35.3352 72.5368 37.1986 74.6654C40.1026 77.9802 43.4887 80.7965 46.4652 84.0458C49.0973 86.9203 52.052 89.5219 54.7167 92.4001C55.3294 93.0623 55.3584 93.3644 54.7747 93.9793C52.4181 96.4754 50.1958 99.0843 47.5057 101.275C45.7474 102.708 44.4894 104.746 42.7745 106.249C38.8337 109.702 35.6687 113.937 31.5792 117.252C30.0674 118.475 29.0306 120.29 27.5296 121.611C23.5453 125.115 19.9598 129.041 16.2365 132.8C11.9548 137.123 7.49921 141.289 3.43512 145.83C2.56502 146.809 1.48464 147.54 0.284629 148.373Z" fill="#E8C5A2"/>
<path d="M184.88 37.9115C184.88 43.7915 184.891 49.4824 184.873 55.1768C184.869 56.7524 183.611 57.6839 182.669 58.5644C178.478 62.4614 174.555 66.6313 170.516 70.6738C166.093 75.102 161.746 79.6285 157.269 83.9985C154.376 86.8221 151.892 90.0423 148.76 92.6075C148.039 93.2006 148.445 93.5208 148.858 93.8701C151.548 96.1188 153.408 99.1716 156.203 101.351C157.896 102.668 159.415 104.269 160.691 106.06C161.754 107.548 163.381 108.472 164.654 109.756C167.83 112.973 171.14 116.08 174.156 119.421C177.354 122.961 181.276 125.759 184.126 129.627C184.543 130.191 184.855 130.671 184.855 131.392C184.837 137.024 184.844 142.657 184.844 148.573C183.941 147.787 183.133 147.209 182.476 146.492C178.851 142.541 174.852 138.967 171.212 135.023C168.073 131.621 164.589 128.546 161.322 125.261C157.882 121.804 154.539 118.245 151.109 114.778C148.865 112.507 146.516 110.346 144.254 108.09C142.249 106.092 140.313 104.026 138.326 102.01C136.339 99.9976 134.327 98.0073 132.319 96.0133C131.721 95.4202 131.057 94.8853 130.488 94.2667C129.792 93.5099 129.897 92.7931 130.651 92.0617C136.147 86.7348 141.549 81.3132 146.857 75.7897C150.319 72.1875 154.071 68.8618 157.497 65.2304C160.97 61.5481 164.592 58.0077 168.149 54.4164C172.887 49.6279 177.586 44.7849 182.484 40.1529C183.209 39.4652 183.633 38.4609 184.88 37.9115Z" fill="#E8C5A2"/>
<path d="M92.508 148.617C91.8482 148.475 91.7431 147.911 91.3914 147.602C86.4028 143.214 82.0124 138.218 77.2088 133.637C74.5078 131.064 71.9845 128.306 69.3017 125.715C68.109 124.566 68.3519 123.663 69.3597 122.652C73.6015 118.391 77.8214 114.101 82.0849 109.862C85.2391 106.725 88.4584 103.658 91.6234 100.529C92.2687 99.8921 92.7147 99.9066 93.4542 100.442C96.0754 102.337 97.8483 105.092 100.237 107.173C104.566 110.943 108.134 115.465 112.47 119.217C113.967 120.512 115.152 122.161 116.537 123.591C117.099 124.169 116.831 124.464 116.414 124.904C111.396 130.198 106.299 135.405 100.977 140.394C99.0446 142.206 97.3625 144.287 95.5099 146.19C94.7594 146.961 93.8531 147.584 93.0156 148.268C92.8307 148.417 92.6313 148.533 92.508 148.617ZM98.5516 124.235C98.3957 124.038 98.2797 123.9 98.1709 123.754C96.6954 121.749 94.6071 120.363 92.9612 118.529C92.5117 118.027 92.1128 118.22 91.7938 118.697C90.5793 120.523 88.8427 121.859 87.3454 123.416C86.7291 124.056 86.74 124.384 87.3672 124.977C88.8935 126.421 90.4524 127.844 91.6887 129.572C92.2724 130.391 92.8669 130.173 93.4724 129.551C94.9842 128.004 96.5214 126.48 98.0368 124.933C98.2398 124.733 98.3848 124.467 98.5516 124.235Z" fill="#E8C5A2"/>
<path d="M117.215 0.149715C114.652 2.79864 112.734 5.58584 109.968 7.58709C108.496 8.65321 107.604 10.3525 106.27 11.535C101.894 15.4211 98.1927 19.9876 93.7842 23.8336C92.7944 24.696 92.334 24.7069 91.308 23.7863C86.5261 19.4818 82.201 14.7152 77.6402 10.196C75.0589 7.63803 72.4232 5.12373 69.8673 2.53666C69.5301 2.19463 69.193 1.83804 68.9174 1.44507C68.3374 0.615461 68.2395 -0.0613257 69.5809 0.0150857C75.0045 0.32437 80.4317 0.186102 85.8554 0.237043C86.2941 0.240681 86.6783 0.331647 86.9793 0.695511C88.4403 2.45297 90.4162 3.71922 91.6959 5.64042C92.2579 6.48095 92.6385 6.46639 93.3201 5.7423C94.8899 4.07581 96.5504 2.493 98.1746 0.877443C98.6023 0.451722 98.9975 -0.0358553 99.69 0.0150857C105.4 0.451722 111.114 0.167908 117.215 0.149715Z" fill="#E8C5A2"/>
<path d="M184.093 117.703C181.9 115.32 179.765 112.886 177.506 110.571C173.471 106.434 169.363 102.37 165.285 98.2729C163.929 96.9084 162.591 95.5221 161.202 94.194C160.499 93.5172 160.347 93.0187 161.184 92.2873C163.682 90.1187 165.774 87.5243 168.196 85.2975C171.868 81.9172 175.066 78.0712 178.836 74.7891C180.461 73.3737 181.82 71.6526 183.314 70.0807C183.673 69.7059 184.014 69.0655 184.59 69.262C185.152 69.4512 184.847 70.1171 184.851 70.5574C184.873 75.6442 184.815 80.731 184.891 85.8178C184.92 87.6189 183.455 88.3794 182.647 89.5802C181.987 90.5626 181.037 91.374 180.134 92.1636C179.33 92.8659 179.21 93.3789 180.015 94.2158C181.432 95.6894 183.02 97.0103 184.195 98.7168C184.503 99.168 184.869 99.55 184.869 100.154C184.862 105.83 184.866 111.507 184.866 117.179C184.601 117.358 184.347 117.532 184.093 117.703Z" fill="#E8C5A2"/>
<path d="M0.284629 108.039C0.284629 105.918 0.415144 103.785 0.244749 101.679C0.0961073 99.8484 0.821191 98.5421 2.02483 97.3559C3.14508 96.2534 4.26171 95.1473 5.39647 94.0557C5.99829 93.4735 6.29557 92.9787 5.37834 92.371C0.929954 89.4274 -0.39695 85.2538 0.219372 80.0579C0.581913 77.0087 0.273753 73.8831 0.295505 70.7939C0.299131 70.35 0.0489769 69.7278 0.647171 69.5204C1.09672 69.3639 1.3505 69.8842 1.67679 70.128C4.58438 72.3221 6.63274 75.3858 9.34455 77.7655C13.2419 81.1858 16.4649 85.2793 20.3912 88.6705C21.7036 89.8058 22.7296 91.2758 23.9369 92.5384C24.4408 93.066 24.3357 93.4117 23.9332 93.9247C21.9066 96.4936 19.5537 98.7277 17.1392 100.922C15.2721 102.617 13.7204 104.666 11.8606 106.376C8.65934 109.316 5.83152 112.62 2.69553 115.618C2.30399 115.993 1.89069 116.35 1.45201 116.666C0.668923 117.23 0.270127 117.056 0.277378 116.033C0.299131 113.373 0.284629 110.706 0.284629 108.039Z" fill="#E8C5A2"/>
<path d="M0.284629 161.6C6.59286 167.469 12.1144 173.593 18.0637 179.276C20.1628 181.281 22.0843 183.424 24.0819 185.509C24.3755 185.815 24.6982 186.044 24.2486 186.543C21.9465 189.101 19.6589 191.684 17.0196 193.882C16.0189 194.715 15.3482 195.763 14.4528 196.651C10.5554 200.511 6.69799 204.412 2.82242 208.298C2.69553 208.425 2.56864 208.556 2.43088 208.676C1.84718 209.189 1.19823 210.023 0.484027 209.768C-0.418702 209.444 0.310007 208.487 0.302756 207.821C0.244749 203.098 0.288254 198.372 0.197619 193.653C0.157739 191.48 1.78918 190.44 3.05445 189.304C6.41159 186.292 6.61461 186.23 3.35173 183.304C1.00246 181.194 0.00547183 178.956 0.212121 175.75C0.50578 171.184 0.284629 166.592 0.284629 161.6Z" fill="#E8C5A2"/>
<path d="M116.175 247.956C110.044 247.956 104.323 247.959 98.606 247.952C97.7866 247.952 97.3516 247.301 96.844 246.798C95.6476 245.609 94.4404 244.422 93.273 243.204C92.6893 242.592 92.2832 242.505 91.6959 243.254C90.7279 244.484 89.6439 245.623 88.6107 246.802C88.0705 247.417 87.3708 247.901 86.5913 247.908C80.758 247.956 74.9284 247.934 68.9827 247.745C70.335 246.435 71.4661 244.997 72.7205 243.68C76.5526 239.656 80.5768 235.817 84.3218 231.705C86.6348 229.166 89.1654 226.822 91.5582 224.352C92.2216 223.668 92.6675 223.504 93.4833 224.224C95.6078 226.106 97.5329 228.147 99.3746 230.308C100.93 232.131 102.993 233.525 104.53 235.362C108.112 239.641 112.673 243.007 116.175 247.956Z" fill="#E8C5A2"/>
<path d="M184.844 161.585C184.844 167.578 184.884 173.313 184.818 179.043C184.8 180.604 183.299 181.408 182.534 182.591C182.215 183.086 181.672 183.432 181.247 183.857C178.804 186.313 178.72 186.415 181.458 188.657C183.912 190.665 185.137 192.936 184.916 196.247C184.641 200.344 184.866 204.477 184.84 208.593C184.837 209.088 185.163 209.808 184.514 210.037C184.057 210.197 183.691 209.622 183.365 209.295C176.926 202.836 170.502 196.363 164.07 189.894C163.135 188.951 162.228 187.976 161.239 187.092C160.372 186.317 160.572 185.789 161.318 185.036C165.129 181.187 169.048 177.45 172.771 173.505C176.585 169.459 180.682 165.671 184.844 161.585Z" fill="#E8C5A2"/>
<path d="M24.2124 247.963C18.274 247.963 12.6074 247.966 6.93727 247.952C6.65086 247.952 6.30282 247.879 6.08167 247.712C3.95718 246.1 2.13359 244.164 0.386141 242.163C-0.070662 241.639 0.0634785 240.893 0.0634785 240.227C0.0634785 235.377 0.0562277 230.526 0.0743548 225.676C0.0779802 225.163 -0.22293 224.417 0.360763 224.188C0.966208 223.951 1.43751 224.592 1.85444 224.999C3.40611 226.524 4.92879 228.085 6.46597 229.624C9.06177 232.226 11.7772 234.722 14.2135 237.465C15.6927 239.132 17.4909 240.42 18.9664 242.086C20.6341 243.968 22.5918 245.587 24.2124 247.963Z" fill="#E8C5A2"/>
<path d="M160.731 247.668C168.79 239.587 176.668 231.691 184.847 223.493C184.847 228.62 184.474 233.35 184.953 237.993C185.438 242.741 182.092 244.801 179.543 247.53C179.17 247.93 178.568 247.952 178.01 247.952C172.525 247.948 167.043 247.952 161.558 247.941C161.395 247.945 161.231 247.843 160.731 247.668Z" fill="#E8C5A2"/>
<path d="M161.177 0.240681C162.417 0.240681 164.019 0.240681 165.622 0.240681C169.668 0.240681 173.717 0.24432 177.763 0.240681C178.43 0.240681 179.032 0.226127 179.572 0.808309C180.595 1.90718 181.733 2.89689 182.788 3.96665C184.387 5.58948 185.036 7.45974 184.942 9.83577C184.75 14.6715 184.884 19.5182 184.884 24.0701C177.017 16.1597 169.055 8.15836 161.177 0.240681Z" fill="#E8C5A2"/>
<path d="M0.284629 24.0738C0.284629 18.4448 0.284629 12.8158 0.281004 7.18684C0.281004 6.53189 0.574662 6.04431 1.02784 5.59676C2.61577 4.02123 4.1892 2.43114 5.75901 0.837418C6.1143 0.477193 6.50585 0.24432 7.02791 0.24432C12.6836 0.247959 18.3428 0.24432 24.0021 0.24432C24.1181 0.411697 24.2341 0.575436 24.3502 0.742813C16.512 8.6241 8.67385 16.5054 0.832067 24.3867C0.650796 24.2812 0.4659 24.1793 0.284629 24.0738Z" fill="#E8C5A2"/>
</g>
</svg>
