<svg width="23" height="23" viewBox="0 0 23 23" fill="none" xmlns="http://www.w3.org/2000/svg">
<path d="M5.87244 0H19.8594C19.8714 0.00909426 19.8844 0.0165507 19.8984 0.0221631C21.0674 0.321619 21.6076 1.01696 21.6076 2.23035V14.2745C20.9596 14.2637 20.335 14.2367 19.7109 14.2463C18.7443 14.2619 17.8974 15.0003 17.801 15.9652C17.7339 16.633 17.765 17.3103 17.762 17.9835C17.762 18.1213 17.7237 18.1871 17.5913 18.2476C17.3173 18.3738 17.0751 18.5599 16.8825 18.7922C16.69 19.0245 16.5522 19.2971 16.4791 19.5898C16.406 19.8826 16.3996 20.188 16.4604 20.4835C16.5211 20.779 16.6475 21.0571 16.8301 21.2973C16.9697 21.4818 17.1296 21.6519 17.2769 21.8297C17.6003 22.2198 17.9231 22.6099 18.2454 23H5.87244C5.85365 22.9877 5.83357 22.9774 5.81255 22.9695C4.70397 22.7041 4.12362 21.9729 4.12362 20.8361C4.12362 18.8825 4.12362 16.9288 4.12362 14.9752V14.6901H15.5688C17.2158 14.6901 18.3795 13.5282 18.3801 11.883C18.3801 9.86188 18.3801 7.84075 18.3801 5.81962C18.3801 4.17202 17.2182 3.01193 15.5694 3.01193H4.12482C4.12482 2.65558 4.11644 2.32078 4.12482 1.98599C4.14518 1.33378 4.40212 0.783377 4.94114 0.416244C5.21903 0.22579 5.56041 0.134755 5.87244 0Z" fill="#F8485E"/>
<path d="M20.1732 22.9992C20.0073 22.8542 19.8235 22.7248 19.6791 22.5607C19.1126 21.9145 18.5604 21.2551 17.998 20.6053C17.7914 20.3657 17.6848 20.1118 17.8261 19.8052C17.9674 19.4985 18.2328 19.3895 18.5604 19.4045C18.7305 19.4117 18.9017 19.4045 19.1042 19.4045V19.1535C19.1042 18.2252 19.1042 17.2973 19.1042 16.3698C19.1042 15.8487 19.3701 15.5876 19.8935 15.5864C20.2223 15.5864 20.5523 15.5864 20.8794 15.5864C21.3285 15.5864 21.6058 15.8643 21.607 16.3147C21.607 17.3329 21.607 18.351 21.607 19.3949C22.1041 19.4332 22.6905 19.2548 22.9522 19.898V20.2573C22.8785 20.3759 22.7985 20.4905 22.7126 20.6005C22.1538 21.2593 21.5957 21.9181 21.0255 22.5667C20.8823 22.7302 20.6955 22.8548 20.529 22.9974L20.1732 22.9992Z" fill="#F8485E"/>
<path d="M8.50934 13.3411H1.47392C0.549201 13.3411 0 12.7889 0 11.86C0 9.84685 0 7.8339 0 5.82116C0 4.91021 0.555192 4.35742 1.46793 4.35742H15.5615C16.488 4.35742 17.0354 4.90722 17.0354 5.83793C17.0354 7.85067 17.0354 9.86361 17.0354 11.8768C17.0354 12.7883 16.4808 13.3405 15.5675 13.3405L8.50934 13.3411ZM6.89228 8.83489H6.89946C6.89946 9.56795 6.89946 10.3004 6.89946 11.0335C6.89946 11.3737 7.07135 11.542 7.41153 11.5432C7.80681 11.5432 8.20269 11.5468 8.59797 11.5372C9.42687 11.5174 10.0707 11.1539 10.4648 10.4244C10.9966 9.44038 11.0098 8.41325 10.5534 7.40229C10.1851 6.58597 9.51611 6.17392 8.61774 6.15595C8.22964 6.14756 7.83915 6.15595 7.45346 6.15595C7.03961 6.15595 6.89228 6.30568 6.89168 6.72791C6.89287 7.42944 6.89367 8.13176 6.89407 8.83489H6.89228ZM3.45153 9.57813C3.76715 9.57813 4.06481 9.5925 4.36068 9.57813C5.25545 9.52782 5.93342 8.84207 5.99031 7.9449C6.0105 7.52972 5.87637 7.12174 5.61376 6.79953C5.35115 6.47732 4.97862 6.26366 4.5679 6.19967C4.09955 6.1308 3.61563 6.16314 3.1383 6.15775C2.70888 6.15295 2.55615 6.30807 2.55555 6.7345C2.55555 7.6696 2.55555 8.6047 2.55555 9.5398C2.55555 10.0411 2.55256 10.5424 2.55555 11.0431C2.55555 11.3365 2.73523 11.5354 2.98857 11.545C3.25389 11.5545 3.44793 11.3527 3.45033 11.052C3.45632 10.5723 3.45332 10.095 3.45332 9.57813H3.45153ZM12.6688 7.05252C13.109 7.05252 13.5336 7.05252 13.9582 7.05252C14.2649 7.05252 14.4691 6.87285 14.4745 6.61173C14.4799 6.3506 14.2703 6.15655 13.9516 6.15536C13.3987 6.15296 12.8459 6.15296 12.2933 6.15536C11.9375 6.15536 11.7698 6.31946 11.759 6.67162C11.7554 6.7914 11.759 6.91118 11.759 7.03096V10.87C11.759 11.3216 11.9022 11.5384 12.2028 11.5438C12.5035 11.5492 12.6556 11.3353 12.6556 10.885V9.25651C13.0718 9.25651 13.4587 9.25651 13.8456 9.25651C13.936 9.26313 14.0262 9.24217 14.1044 9.1964C14.1826 9.15063 14.245 9.08221 14.2834 9.00019C14.4332 8.70073 14.22 8.36893 13.8642 8.36054C13.4701 8.35096 13.076 8.36054 12.6664 8.36054L12.6688 7.05252Z" fill="#F8485E"/>
<path d="M7.8125 7.05788C8.13112 7.05788 8.43716 7.04051 8.74081 7.06208C9.21395 7.09502 9.55593 7.35015 9.74519 7.78077C10.0572 8.48749 10.0626 9.20498 9.72902 9.90631C9.49544 10.3962 9.09537 10.6454 8.54677 10.643H7.8125V7.05788Z" fill="#F8485E"/>
<path d="M3.46094 8.67562V7.0376C3.8095 7.05557 4.16047 7.03759 4.49586 7.10108C4.88216 7.17594 5.1337 7.57302 5.09477 7.93537C5.07609 8.1264 4.99122 8.3049 4.85483 8.43997C4.71845 8.57504 4.53914 8.65819 4.34793 8.67502C4.09638 8.69538 3.84245 8.6858 3.58911 8.68819C3.54619 8.6863 3.5034 8.68211 3.46094 8.67562Z" fill="#F8485E"/>
</svg>
