<svg width="22" height="22" viewBox="0 0 22 22" fill="none" xmlns="http://www.w3.org/2000/svg">
<path d="M5.95205 16.0146C-1.10371 8.95694 -0.766092 3.61949 2.46181 1.19887L3.17697 0.666149C3.35944 0.531882 3.56701 0.435638 3.78738 0.383129C4.00775 0.33062 4.23642 0.322915 4.45982 0.360472C4.68322 0.398029 4.8968 0.480082 5.08789 0.601763C5.27898 0.723443 5.44369 0.882272 5.57223 1.06883L7.37324 3.66055C7.61424 4.00741 7.71844 4.43116 7.6658 4.85025C7.61316 5.26933 7.40739 5.65413 7.08809 5.9306L5.35438 7.42951C4.92095 7.80481 4.7088 8.37403 4.90384 8.91359C5.26427 9.91743 6.13911 11.689 8.20816 13.7571C10.2772 15.8264 12.0474 16.7013 13.0512 17.0629C13.5918 17.2569 14.161 17.0458 14.5362 16.6112L16.035 14.8796C16.3114 14.5603 16.6962 14.3545 17.1152 14.3018C17.5342 14.2492 17.9579 14.3534 18.3048 14.5944L20.9008 16.3967C21.0871 16.5249 21.2458 16.6892 21.3675 16.8799C21.4891 17.0705 21.5712 17.2837 21.6088 17.5067C21.6465 17.7297 21.639 17.9581 21.5867 18.1781C21.5344 18.3982 21.4385 18.6055 21.3045 18.7877L20.7685 19.5098C18.3493 22.7358 13.0101 23.0723 5.95205 16.0146Z" fill="white"/>
</svg>
