<svg width="136" height="40" viewBox="0 0 136 40" fill="none" xmlns="http://www.w3.org/2000/svg">
<g clip-path="url(#clip0_4801_13969)">
<path fill-rule="evenodd" clip-rule="evenodd" d="M130.83 40H5.83387C3.07715 40 0.832031 37.7456 0.832031 35V5C0.832031 2.24439 3.07715 0 5.83387 0H130.83C133.584 0 135.832 2.24439 135.832 5V35C135.832 37.7456 133.584 40 130.83 40Z" fill="black"/>
<path fill-rule="evenodd" clip-rule="evenodd" d="M130.83 0.800499C133.142 0.800499 135.035 2.68828 135.035 5V35C135.035 37.3117 133.155 39.1995 130.83 39.1995H5.83387C3.5217 39.1995 1.62925 37.3117 1.62925 35V5C1.62925 2.68828 3.50928 0.800499 5.83387 0.800499H130.83ZM130.83 0H5.83387C3.07715 0 0.832031 2.25436 0.832031 5V35C0.832031 37.7556 3.07715 40 5.83387 40H130.83C133.584 40 135.832 37.7556 135.832 35V5C135.832 2.25436 133.584 0 130.83 0Z" fill="black"/>
<path d="M71.9512 13.232C71.0497 13.232 70.2897 12.9153 69.6887 12.2918C69.0926 11.6858 68.7598 10.8504 68.7747 9.99755C68.7747 9.08732 69.0827 8.31675 69.6887 7.70577C70.2872 7.08233 71.0472 6.76562 71.9487 6.76562C72.8403 6.76562 73.6002 7.08233 74.2112 7.70577C74.8172 8.3367 75.1251 9.10727 75.1251 9.99755C75.1152 10.9103 74.8072 11.6808 74.2112 12.2893C73.6127 12.9177 72.8527 13.232 71.9512 13.232ZM45.1267 13.232C44.245 13.232 43.4801 12.9202 42.8543 12.3043C42.2334 11.6908 41.918 10.9153 41.918 10C41.918 9.08483 42.2334 8.30927 42.8543 7.6958C43.4677 7.07984 44.2326 6.76812 45.1267 6.76812C45.5638 6.76812 45.9885 6.8554 46.3958 7.03246C46.7956 7.20453 47.1209 7.43894 47.3618 7.72572L47.4214 7.79804L46.7484 8.46139L46.6789 8.37909C46.2989 7.92523 45.7898 7.70328 45.1167 7.70328C44.5157 7.70328 43.9917 7.91774 43.5596 8.34169C43.125 8.76812 42.9039 9.32672 42.9039 10.0025C42.9039 10.6783 43.125 11.2369 43.5596 11.6634C43.9917 12.0873 44.5157 12.3018 45.1167 12.3018C45.7575 12.3018 46.2964 12.0873 46.7161 11.6634C46.9645 11.414 47.1185 11.0649 47.1731 10.6235H45.0149V9.69081H48.0994L48.1119 9.7756C48.1342 9.93271 48.1566 10.0948 48.1566 10.2444C48.1566 11.1048 47.8983 11.8005 47.3867 12.3143C46.8055 12.9227 46.0456 13.232 45.1267 13.232ZM80.7925 13.0998H79.8413L76.9281 8.41899L76.953 9.26188V13.0973H76.0018V6.90029H77.0871L77.1169 6.94767L79.8562 11.3566L79.8314 10.5162V6.90029H80.7925V13.0998ZM64.8036 13.0998H63.84V7.83296H62.1686V6.90029H66.4725V7.83296H64.8011V13.0998H64.8036ZM61.3838 13.0998H60.4227V6.90029H61.3838V13.0998ZM55.9821 13.0998H55.021V7.83296H53.3496V6.90029H57.6535V7.83296H55.9821V13.0998ZM52.7411 13.0898H49.0556V6.90029H52.7411V7.83296H50.0192V9.5337H52.4754V10.4564H50.0192V12.1571H52.7411V13.0898ZM70.394 11.6509C70.8237 12.0823 71.3452 12.2993 71.9512 12.2993C72.5745 12.2993 73.0837 12.0873 73.5083 11.6509C73.9305 11.227 74.1441 10.6709 74.1441 10C74.1441 9.32922 73.9305 8.77061 73.5108 8.34917C73.0812 7.91774 72.5572 7.70079 71.9537 7.70079C71.3303 7.70079 70.8212 7.91276 70.399 8.34917C69.9768 8.77311 69.7632 9.32922 69.7632 10C69.7632 10.6709 69.9743 11.2295 70.394 11.6509Z" fill="white"/>
<path fill-rule="evenodd" clip-rule="evenodd" d="M68.6829 21.7554C66.3359 21.7554 64.4336 23.5434 64.4336 26.0098C64.4336 28.4537 66.3484 30.2641 68.6829 30.2641C71.0298 30.2641 72.9322 28.4636 72.9322 26.0098C72.9322 23.5434 71.0298 21.7554 68.6829 21.7554ZM68.6829 28.5784C67.3989 28.5784 66.2937 27.511 66.2937 25.9998C66.2937 24.4661 67.4014 23.4213 68.6829 23.4213C69.9669 23.4213 71.0721 24.4661 71.0721 25.9998C71.0745 27.521 69.9669 28.5784 68.6829 28.5784ZM59.4118 21.7554C57.0649 21.7554 55.1625 23.5434 55.1625 26.0098C55.1625 28.4537 57.0773 30.2641 59.4118 30.2641C61.7588 30.2641 63.6612 28.4636 63.6612 26.0098C63.6612 23.5434 61.7563 21.7554 59.4118 21.7554ZM59.4118 28.5784C58.1279 28.5784 57.0227 27.511 57.0227 25.9998C57.0227 24.4661 58.1303 23.4213 59.4118 23.4213C60.6958 23.4213 61.801 24.4661 61.801 25.9998C61.801 27.521 60.6958 28.5784 59.4118 28.5784ZM48.38 23.0547V24.8552H52.6839C52.5523 25.8651 52.2195 26.6108 51.7104 27.122C51.0796 27.7554 50.106 28.4437 48.3899 28.4437C45.7449 28.4437 43.6761 26.2991 43.6761 23.6432C43.6761 20.9873 45.7449 18.8427 48.3899 18.8427C49.8179 18.8427 50.8585 19.4088 51.6309 20.132L52.9025 18.8552C51.8296 17.8227 50.4016 17.0322 48.3998 17.0322C44.7714 17.0322 41.7266 19.9998 41.7266 23.6332C41.7266 27.2766 44.7689 30.2342 48.3998 30.2342C50.3593 30.2342 51.8296 29.5908 52.9919 28.3789C54.1765 27.1893 54.5516 25.511 54.5516 24.1569C54.5516 23.7355 54.5193 23.3564 54.4522 23.0347H48.3775C48.38 23.0322 48.38 23.0547 48.38 23.0547ZM93.5034 24.4562C93.1482 23.5011 92.0753 21.7454 89.8749 21.7454C87.6944 21.7454 85.8814 23.4686 85.8814 25.9998C85.8814 28.3888 87.6745 30.2542 90.086 30.2542C92.0232 30.2542 93.1507 29.0646 93.6151 28.3664L92.1772 27.3988C91.7003 28.1095 91.0372 28.5759 90.096 28.5759C89.1448 28.5759 88.4792 28.142 88.0371 27.2866L93.7021 24.93C93.7021 24.9325 93.5034 24.4562 93.5034 24.4562ZM87.7267 25.8776C87.682 24.2342 88.9982 23.3988 89.9395 23.3988C90.6821 23.3988 91.3005 23.7654 91.5116 24.2991L87.7267 25.8776ZM83.1247 29.9998H84.9848V17.5011H83.1247V29.9998ZM80.0699 22.7006H80.0029C79.5831 22.1993 78.7859 21.7454 77.7677 21.7454C75.6542 21.7454 73.7071 23.6133 73.7071 26.0123C73.7071 28.4013 75.6442 30.2467 77.7677 30.2467C78.7735 30.2467 79.5831 29.7903 80.0029 29.2791H80.0699V29.8901C80.0699 31.5135 79.2056 32.3888 77.8124 32.3888C76.6724 32.3888 75.9646 31.5659 75.6765 30.8776L74.0598 31.5559C74.5242 32.6781 75.7635 34.0671 77.8099 34.0671C79.9904 34.0671 81.8382 32.7779 81.8382 29.6332V21.9998H80.0798V22.7006C80.0823 22.7006 80.0699 22.7006 80.0699 22.7006ZM77.9341 28.5784C76.6501 28.5784 75.5772 27.5011 75.5772 26.0123C75.5772 24.511 76.6501 23.4237 77.9341 23.4237C79.2056 23.4237 80.1916 24.5235 80.1916 26.0123C80.204 27.5011 79.2081 28.5784 77.9341 28.5784ZM102.213 17.5011H97.7651V29.9998H99.6253V25.2666H102.216C104.274 25.2666 106.299 23.7679 106.299 21.3888C106.299 19.0098 104.282 17.5011 102.213 17.5011ZM102.268 23.521H99.6228V19.2317H102.268C103.661 19.2317 104.448 20.3863 104.448 21.3764C104.448 22.3564 103.651 23.521 102.268 23.521ZM113.754 21.733C112.403 21.733 111.01 22.334 110.434 23.6432L112.083 24.3315C112.438 23.6432 113.089 23.4088 113.776 23.4088C114.74 23.4088 115.714 23.9873 115.736 25.0198V25.1519C115.403 24.9624 114.673 24.6731 113.799 24.6731C112.018 24.6731 110.213 25.6507 110.213 27.4836C110.213 29.1619 111.673 30.2392 113.3 30.2392C114.549 30.2392 115.237 29.6731 115.666 29.0173H115.734V29.9848H117.527V25.1968C117.527 22.9674 115.878 21.733 113.754 21.733ZM113.521 28.5784C112.912 28.5784 112.06 28.2791 112.06 27.511C112.06 26.5434 113.123 26.1769 114.03 26.1769C114.849 26.1769 115.237 26.3539 115.724 26.5983C115.589 27.7205 114.646 28.5684 113.521 28.5784ZM124.068 21.9998L121.932 27.4213H121.865L119.653 21.9998H117.651L120.971 29.5784L119.079 33.7903H121.016L126.125 21.9998H124.068ZM107.324 29.9998H109.184V17.5011H107.324V29.9998Z" fill="white"/>
<path fill-rule="evenodd" clip-rule="evenodd" d="M11.224 7.53364C10.9359 7.84536 10.7695 8.32167 10.7695 8.94511V31.0573C10.7695 31.6808 10.9359 32.1571 11.234 32.4563L11.3109 32.5237L23.6491 20.1346V19.8578L11.301 7.46631L11.224 7.53364Z" fill="url(#paint0_linear_4801_13969)"/>
<path fill-rule="evenodd" clip-rule="evenodd" d="M27.752 24.2768L23.6367 20.1446V19.8553L27.752 15.7231L27.8414 15.778L32.7091 18.5561C34.1024 19.3441 34.1024 20.6458 32.7091 21.4438L27.8414 24.2219L27.752 24.2768Z" fill="url(#paint1_linear_4801_13969)"/>
<path fill-rule="evenodd" clip-rule="evenodd" d="M27.8425 24.2219L23.6378 20L11.2227 32.4663C11.6771 32.9551 12.4396 33.01 13.2914 32.5337L27.8425 24.2219Z" fill="url(#paint2_linear_4801_13969)"/>
<path fill-rule="evenodd" clip-rule="evenodd" d="M27.8425 15.7779L13.2914 7.47869C12.4396 6.98992 11.6747 7.05725 11.2227 7.54603L23.6378 19.9999L27.8425 15.7779Z" fill="url(#paint3_linear_4801_13969)"/>
<path opacity="0.2" fill-rule="evenodd" clip-rule="evenodd" d="M27.7549 24.1323L13.3032 32.3767C12.496 32.843 11.7758 32.8106 11.3114 32.3867L11.2344 32.464L11.3114 32.5313C11.7758 32.9527 12.496 32.9877 13.3032 32.5213L27.8543 24.2221L27.7549 24.1323Z" fill="black"/>
<path opacity="0.12" fill-rule="evenodd" clip-rule="evenodd" d="M32.7117 21.2993L27.7422 24.1322L27.8316 24.2219L32.6993 21.4439C33.3972 21.0449 33.7399 20.5212 33.7399 20C33.6977 20.4788 33.3426 20.9327 32.7117 21.2993Z" fill="black"/>
<path opacity="0.25" fill-rule="evenodd" clip-rule="evenodd" d="M13.2928 7.62329L32.7116 18.7006C33.3424 19.0572 33.6975 19.5235 33.7522 19.9999C33.7522 19.4787 33.4094 18.955 32.7116 18.556L13.2928 7.47866C11.8995 6.67816 10.7695 7.34649 10.7695 8.94499V9.08963C10.7695 7.48863 11.8995 6.83277 13.2928 7.62329Z" fill="white"/>
</g>
<defs>
<linearGradient id="paint0_linear_4801_13969" x1="22.5424" y1="8.70654" x2="2.76802" y2="13.9538" gradientUnits="userSpaceOnUse">
<stop stop-color="#00A0FF"/>
<stop offset="0.00657" stop-color="#00A1FF"/>
<stop offset="0.2601" stop-color="#00BEFF"/>
<stop offset="0.5122" stop-color="#00D2FF"/>
<stop offset="0.7604" stop-color="#00DFFF"/>
<stop offset="1" stop-color="#00E3FF"/>
</linearGradient>
<linearGradient id="paint1_linear_4801_13969" x1="34.5261" y1="20" x2="10.4283" y2="20" gradientUnits="userSpaceOnUse">
<stop stop-color="#FFE000"/>
<stop offset="0.4087" stop-color="#FFBD00"/>
<stop offset="0.7754" stop-color="#FFA500"/>
<stop offset="1" stop-color="#FF9C00"/>
</linearGradient>
<linearGradient id="paint2_linear_4801_13969" x1="25.5562" y1="22.2973" x2="9.59339" y2="49.0538" gradientUnits="userSpaceOnUse">
<stop stop-color="#FF3A44"/>
<stop offset="1" stop-color="#C31162"/>
</linearGradient>
<linearGradient id="paint3_linear_4801_13969" x1="8.09637" y1="0.178683" x2="15.218" y2="12.1286" gradientUnits="userSpaceOnUse">
<stop stop-color="#32A071"/>
<stop offset="0.0685" stop-color="#2DA771"/>
<stop offset="0.4762" stop-color="#15CF74"/>
<stop offset="0.8009" stop-color="#06E775"/>
<stop offset="1" stop-color="#00F076"/>
</linearGradient>
<clipPath id="clip0_4801_13969">
<rect width="135" height="40" fill="white" transform="translate(0.832031)"/>
</clipPath>
</defs>
</svg>
