<svg width="19" height="19" viewBox="0 0 19 19" fill="none" xmlns="http://www.w3.org/2000/svg">
<path fill-rule="evenodd" clip-rule="evenodd" d="M6.1101 5.61538C6.04437 5.74875 5.94856 5.86501 5.83025 5.955C5.71039 6.0457 5.5717 6.10828 5.42442 6.13812L0.783002 7.07748C0.600776 7.11296 0.432528 7.19998 0.298209 7.32823C0.16389 7.45648 0.0691371 7.62058 0.0251593 7.80108C-0.017002 7.98074 -0.00600104 8.1688 0.0568463 8.34231C0.119694 8.51581 0.231663 8.66725 0.379069 8.77813L3.99041 11.5198C4.13129 11.6254 4.24019 11.768 4.30506 11.9317C4.36949 12.0945 4.38705 12.2721 4.35572 12.4443L3.38134 17.872C3.34927 18.053 3.37034 18.2394 3.44197 18.4086C3.51361 18.5779 3.63274 18.7227 3.78495 18.8256C3.93891 18.9305 4.11904 18.9904 4.30514 18.9986C4.49123 19.0067 4.67591 18.9629 4.83846 18.8718L9.01074 16.5252C9.16024 16.4415 9.32869 16.3975 9.5 16.3975C9.67131 16.3975 9.83974 16.4415 9.98924 16.5252L14.1618 18.8718C14.3242 18.9631 14.5089 19.0072 14.695 18.999C14.8811 18.9909 15.0612 18.9308 15.215 18.8256C15.3672 18.7227 15.4864 18.5779 15.558 18.4086C15.6297 18.2394 15.6507 18.053 15.6187 17.872L14.6443 12.4453C14.613 12.273 14.6305 12.0954 14.6949 11.9327C14.7598 11.7689 14.8687 11.6264 15.0096 11.5208L18.6209 8.77908C18.7683 8.66819 18.8803 8.51676 18.9432 8.34325C19.006 8.16975 19.017 7.98169 18.9748 7.80203C18.9308 7.62158 18.8361 7.45754 18.7019 7.3293C18.5676 7.20106 18.3995 7.114 18.2173 7.07842L13.5765 6.13907C13.4293 6.10947 13.2906 6.04686 13.171 5.95595C13.0527 5.86589 12.9568 5.74965 12.8908 5.61633L10.3843 0.54319C10.3014 0.379763 10.1749 0.242503 10.0188 0.146626C9.86271 0.0507495 9.68314 0 9.5 0C9.31686 0 9.13729 0.0507495 8.9812 0.146626C8.82511 0.242503 8.6986 0.379763 8.61568 0.54319L6.1101 5.61538Z" fill="#FFC107"/>
</svg>
