<svg xmlns="http://www.w3.org/2000/svg" width="18" height="16" viewBox="0 0 18 16" fill="none">
<path d="M16.8069 8.59486C16.8538 8.55058 16.8772 8.50645 16.9006 8.48423C16.9239 8.46217 16.9709 8.39582 16.9943 8.32932C17.0412 8.21869 17.0646 8.10806 17.0646 7.99758C17.0646 7.88695 17.0412 7.77632 16.9943 7.66584C16.9709 7.5995 16.9239 7.53315 16.9006 7.51093C16.8772 7.48887 16.8536 7.44458 16.8069 7.4003L10.0083 0.985497C9.84409 0.830582 9.60975 0.742171 9.37526 0.742171C9.14076 0.742171 8.90643 0.830582 8.74224 0.985497C8.41404 1.29517 8.41404 1.87022 8.74224 2.1799L13.9936 7.1569L1.82644 7.1569C1.33404 7.1569 0.935547 7.53292 0.935547 7.9975C0.935547 8.46208 1.33406 8.8381 1.82644 8.8381L13.9936 8.8381L8.7188 13.8151C8.36722 14.1468 8.36722 14.6778 8.7188 15.0095C9.07038 15.3412 9.63309 15.3412 9.98466 15.0095L16.8069 8.59486Z" fill="#333"/>
</svg>