<svg width="375" height="141" viewBox="0 0 375 141" fill="none" xmlns="http://www.w3.org/2000/svg">
<mask id="mask0_8472_13819" style="mask-type:alpha" maskUnits="userSpaceOnUse" x="0" y="0" width="189" height="141">
<rect y="141" width="141" height="189" transform="rotate(-90 0 141)" fill="#D9D9D9"/>
</mask>
<g mask="url(#mask0_8472_13819)">
<g opacity="0.4">
<path d="M187.304 106.098C187.304 107.02 187.146 107.976 187.329 108.862C188.082 112.489 185.989 114.6 183.422 116.483C182.624 117.067 182.189 117.975 181.502 118.62C178.42 121.523 175.513 124.594 172.513 127.576C169.747 130.326 166.936 133.026 164.197 135.804C163.563 136.449 163.35 135.92 163.015 135.601C160.946 133.644 158.975 131.572 156.912 129.631C153.796 126.701 150.933 123.528 147.831 120.584C145.644 118.507 143.315 116.505 141.39 114.19C138.997 111.312 135.865 109.205 133.592 106.212C132.492 104.763 130.74 103.88 129.585 102.432C127.286 99.546 124.132 97.4967 121.917 94.5337C121.604 94.1127 121.147 93.8053 121.8 93.3152C123.573 91.9832 124.888 90.1832 126.522 88.6989C128.931 86.5112 131.152 84.1185 133.456 81.8145C135.37 79.8982 137.3 78.0013 139.183 76.0573C139.845 75.3733 140.299 75.2265 141.06 76.0047C146.084 81.1361 151.118 86.2536 156.225 91.3019C158.584 93.6336 161.024 95.8823 163.25 98.3469C163.533 98.6598 163.752 98.8647 164.098 98.3773C165.15 96.9069 166.604 95.8158 167.839 94.5198C168.127 94.218 168.739 93.8164 168.061 93.437C165.851 92.2103 164.71 89.8952 162.818 88.3804C159.963 86.0986 157.748 83.1881 155.065 80.7318C152.293 78.1952 149.8 75.3484 147.028 72.7951C146.389 72.2053 146.117 71.3136 145.419 70.7459C145.151 70.5271 145.09 70.2142 145.397 69.9096C147.433 67.8714 149.426 65.7917 151.478 63.7674C152.971 62.2942 154.447 60.785 155.94 59.3034C158.44 56.825 160.819 54.2274 163.453 51.8791C165.095 50.4142 166.31 48.5117 168.099 47.1714C168.423 46.9277 168.415 46.6646 168.016 46.4237C166.571 45.5486 165.521 44.2498 164.48 42.9622C163.959 42.3169 163.608 42.2255 162.976 42.8818C160.523 45.4323 158.089 48.0132 155.491 50.4114C153.123 52.5991 151.091 55.1163 148.67 57.221C145.965 59.5748 143.86 62.524 140.972 64.6896C140.246 65.2351 139.956 65.3265 139.194 64.7201C136.871 62.873 135.12 60.461 132.944 58.5059C129.588 55.493 126.611 52.1117 123.318 49.0406C121.125 46.9942 121.316 47.0329 123.276 44.8535C125.641 42.2283 128.292 39.8994 130.737 37.3572C133.248 34.7458 135.774 32.1289 138.419 29.6532C140.227 27.964 141.753 25.9978 143.639 24.4166C146.519 22.0018 149.022 19.191 151.636 16.5326C154.17 13.9572 156.97 11.6282 159.279 8.81192C160.406 7.43561 161.871 6.33345 163.17 5.09283C163.577 4.70514 163.815 4.68575 164.278 5.14268C170.165 10.9692 176.053 16.7984 181.846 22.7218C183.388 24.2975 184.95 25.8704 186.59 27.3547C187.11 27.8283 187.312 28.3406 187.31 29.0467C187.282 32.9209 187.301 36.7978 187.287 40.672C187.287 41.0043 187.512 41.4806 187.055 41.6468C186.711 41.7741 186.523 41.3643 186.282 41.1705C184.128 39.448 182.391 37.3074 180.453 35.3661C177.182 32.0929 173.685 29.0357 170.553 25.6378C168.556 23.4723 166.172 21.711 164.355 19.3987C163.785 18.6732 163.491 18.8643 162.985 19.3766C160.528 21.8606 158.119 24.3972 155.56 26.7732C152.633 29.4926 149.856 32.3726 147.045 35.1972C143.675 38.5812 140.213 41.8849 136.948 45.3797C135.505 46.9249 135.456 46.8806 137.02 48.448C137.771 49.1985 138.599 49.8852 139.258 50.7077C139.964 51.5911 140.382 51.364 141.069 50.6634C144.248 47.4151 147.488 44.2277 150.7 41.0098C152.376 39.3289 153.962 37.5511 155.718 35.9615C158.26 33.6631 160.354 30.9077 163.054 28.7698C163.588 28.3461 163.815 28.3683 164.361 28.8335C166.014 30.243 167.473 31.8409 169.013 33.3584C172.979 37.2769 176.883 41.2535 180.854 45.1637C182.571 46.8529 182.574 46.9415 180.799 48.6723C177.972 51.4305 175.294 54.3437 172.394 57.016C169.863 59.3505 167.631 61.9674 165.053 64.2631C163.076 66.0216 161.437 68.1705 159.373 69.8847C158.656 70.4801 159.454 70.8511 159.792 71.189C163.727 75.1462 167.676 79.0924 171.625 83.033C174.953 86.3561 178.26 89.7069 181.644 92.9746C182.624 93.9189 182.029 94.6943 181.458 95.1816C179.99 96.4333 178.852 98.0312 177.238 99.114C177.047 99.2413 176.836 99.3715 176.709 99.5515C174.948 102.005 172.414 103.714 170.45 105.932C168.548 108.081 166.371 109.911 164.427 111.988C163.777 112.683 163.511 112.52 162.926 112.002C160.686 110.016 158.739 107.726 156.557 105.702C153.35 102.728 150.351 99.5515 147.277 96.461C145.206 94.3786 142.927 92.5038 140.994 90.2884C140.291 89.4798 139.803 89.6044 139.103 90.305C138.067 91.3435 137.161 92.5315 135.896 93.3318C135.428 93.6281 135.48 93.966 135.852 94.3453C137.521 96.0484 139.136 97.8041 140.844 99.4712C143.766 102.324 146.629 105.231 149.523 108.111C150.949 109.532 152.32 111.013 153.796 112.392C155.541 114.024 157.183 115.763 158.853 117.471C160.171 118.82 161.641 120.011 162.835 121.487C163.356 122.132 163.882 122.076 164.533 121.412C169.561 116.286 174.59 111.157 179.722 106.134C181.887 104.013 183.986 101.825 186.146 99.701C186.401 99.4518 186.648 99.0364 187.041 99.1693C187.495 99.3189 187.29 99.8063 187.293 100.141C187.315 102.13 187.304 104.115 187.304 106.098Z" fill="#E8C5A2"/>
<path d="M-1.018 41.6717C-1.39185 41.1455 -1.22015 40.6249 -1.22015 40.1459C-1.23677 36.4545 -1.20631 32.7631 -1.24231 29.0744C-1.25062 28.2132 -0.970925 27.5292 -0.375539 26.9864C0.712771 25.9923 1.64601 24.7987 2.76478 23.896C5.4454 21.7277 7.70786 19.1246 10.0922 16.7043C12.8199 13.9323 15.8411 11.4289 18.2864 8.36332C19.2805 7.11716 20.6236 6.1507 21.7922 5.04024C22.1411 4.70793 22.3267 4.77716 22.6811 5.10116C24.6805 6.92885 26.6938 8.71778 28.4495 10.8113C29.8285 12.4535 31.5898 13.7716 33.1212 15.292C37.1975 19.3461 41.2461 23.4252 45.2864 27.5154C45.7461 27.9806 46.0203 27.8671 46.408 27.4766C50.811 23.0458 55.1532 18.5486 59.6615 14.223C62.6717 11.3236 65.3883 8.12793 68.6062 5.44177C69.2043 4.94054 69.5671 4.899 70.2234 5.41408C71.356 6.303 72.3419 7.32485 73.3499 8.33285C77.6089 12.5919 81.9539 16.7652 86.0911 21.1378C88.4533 23.6357 90.9511 26.0089 93.3382 28.4735C95.7724 30.9852 98.2619 33.5024 100.854 35.8951C104.357 39.1268 107.478 42.7655 110.92 46.0692C113.678 48.7166 116.384 51.4083 119.067 54.1277C122.1 57.1988 125.162 60.2422 128.22 63.2884C130.338 65.3985 132.462 67.5004 134.608 69.5828C135.073 70.0342 135.223 70.3111 134.744 70.9287C133.802 72.1388 132.711 73.1801 131.634 74.2545C127.857 78.0179 124.226 81.9392 120.308 85.5475C117.503 88.1312 115.138 91.1413 112.141 93.5423C110.543 94.8217 109.408 96.6687 107.841 97.998C105.135 100.291 102.826 102.98 100.342 105.472C97.7219 108.1 95.0192 110.67 92.4271 113.334C89.3893 116.455 86.3819 119.62 83.117 122.528C80.8933 124.508 79.1376 126.967 76.7893 128.853C75.3991 129.969 74.4659 131.572 73.0923 132.744C72.0096 133.666 70.9766 134.646 69.9465 135.629C69.4785 136.075 69.1517 135.887 68.7834 135.518C66.7757 133.511 64.5188 131.777 62.7215 129.526C61.4117 127.886 59.5231 126.762 58.1495 125.139C55.6821 122.221 52.6166 119.892 50.127 116.973C49.0138 115.668 47.535 114.641 46.3553 113.351C45.9012 112.855 45.6852 113.068 45.2809 113.456C42.5006 116.128 39.8947 118.986 37.0812 121.611C34.3286 124.181 31.8085 126.978 29.0808 129.573C27.0261 131.528 24.963 133.502 22.9913 135.554C22.3461 136.225 22.0442 136.05 21.4738 135.496C19.1061 133.198 16.9461 130.645 14.4814 128.512C11.8285 126.214 9.64912 123.489 7.01834 121.179C4.48449 118.953 2.29956 116.3 -0.248137 114.043C-0.85183 113.508 -1.22844 112.808 -1.23121 111.977C-1.23952 107.87 -1.23399 103.766 -1.22292 99.6595C-1.22292 99.4961 -1.1343 99.3328 -0.94322 98.6598C0.579861 100.296 1.84263 101.736 3.19402 103.096C9.2365 109.18 15.3122 115.231 21.3491 121.321C22.011 121.988 22.4762 122.093 23.1214 121.343C25.6719 118.374 28.5935 115.757 31.3489 112.993C34.8907 109.443 38.391 105.84 42.0353 102.39C43.0683 101.41 44.0514 100.374 45.0317 99.3411C45.6298 98.7124 46.1034 98.8814 46.6461 99.4325C48.9695 101.789 51.304 104.135 53.6551 106.466C56.6901 109.479 59.7557 112.462 62.7825 115.48C64.7043 117.396 66.6123 119.329 68.4677 121.309C69.1323 122.021 69.5643 122.005 70.2345 121.326C74.1114 117.388 78.0105 113.472 81.929 109.579C85.5484 105.984 89.2231 102.445 92.8398 98.8454C95.7059 95.993 98.5029 93.0715 101.363 90.2137C104.285 87.2949 107.267 84.437 110.192 81.521C112.632 79.0924 115.024 76.6195 117.447 74.1715C118.414 73.1967 119.4 72.2385 120.374 71.2721C121.025 70.6268 121.219 70.1561 120.288 69.4278C118.962 68.3893 117.788 67.1625 116.675 65.8554C115.282 64.2188 113.462 62.945 112.055 61.3167C109.655 58.5363 106.65 56.3708 104.365 53.4742C103.205 52.0009 101.494 51.0373 100.267 49.5862C97.8327 46.7062 94.9831 44.2166 92.3219 41.5665C89.2647 38.5231 86.188 35.4797 83.1613 32.4086C80.428 29.6366 77.5093 27.0446 74.9311 24.0954C73.3831 22.3258 71.5194 20.7584 69.7526 19.1495C69.4563 18.8809 69.2874 18.8726 68.98 19.2049C67.0305 21.315 64.7957 23.1317 62.8434 25.2612C61.5335 26.6901 60.1738 28.1357 58.5871 29.3514C56.9643 30.5948 55.8871 32.4446 54.2892 33.7794C51.7858 35.8701 49.7421 38.4372 47.3606 40.6692C46.0701 41.8766 45.4277 41.8849 44.3393 40.6637C43.3009 39.4978 42.0076 38.5591 40.9747 37.3905C39.1415 35.3163 36.9399 33.6132 35.1372 31.5363C32.7861 28.828 30.0002 26.5655 27.6048 23.8904C26.1288 22.2427 24.4091 20.7307 22.7753 19.1855C22.0497 18.5015 21.7534 19.252 21.4571 19.5372C19.2445 21.6778 17.1343 23.9264 14.8885 26.0311C11.7011 29.0163 8.73526 32.2231 5.56725 35.2332C3.35463 37.3323 1.33585 39.6474 -1.018 41.6717Z" fill="#E8C5A2"/>
<path d="M87.8967 47.0163C87.6114 47.3957 87.3262 47.8803 86.9413 48.2625C84.64 50.5526 82.1643 52.6905 80.0514 55.1413C78.4896 56.9523 76.4985 58.2567 74.9809 60.1425C73.8206 61.5853 72.5496 63.1388 70.8049 64.0914C70.2982 64.3684 69.8052 64.8364 69.5339 65.3404C68.5646 67.1431 66.8034 68.1622 65.4659 69.5939C65.0089 70.0813 64.7902 70.3195 65.3246 70.9093C68.2212 74.1161 71.3782 77.0653 74.4022 80.1475C76.9776 82.7727 79.6 85.3509 82.2087 87.9401C84.0031 89.7207 85.8004 91.4958 87.6198 93.2515C87.9465 93.5644 88.2816 93.7583 87.8441 94.2318C86.2961 95.9183 84.8893 97.7349 82.9813 99.078C82.2834 99.5681 81.7379 100.291 81.1757 100.953C79.9905 102.354 78.736 103.686 77.296 104.832C75.5237 106.245 74.3606 108.244 72.5994 109.668C72.317 109.897 72.1037 110.224 71.8019 110.418C70.9185 110.988 70.2511 112.39 69.3262 112.201C68.3348 111.996 67.4348 110.958 66.6705 110.124C63.436 106.605 59.8111 103.478 56.632 99.9004C55.4246 98.5435 53.8129 97.5244 52.6664 96.0844C50.8498 93.8054 48.2606 92.3294 46.5104 89.9949C46.0895 89.4327 45.6796 89.4078 45.1756 89.9478C42.5587 92.7503 39.7535 95.3811 37.0175 98.0561C34.8963 100.13 33.063 102.506 30.7535 104.362C28.2335 106.389 26.4058 109.08 23.8996 111.116C22.2436 112.459 22.4125 112.451 20.8119 111.168C17.5027 108.518 14.8165 105.237 11.7676 102.326C9.62141 100.277 7.47249 98.1891 5.37341 96.0734C4.83064 95.5251 4.56755 94.7386 3.94725 94.2263C3.56232 93.9078 3.72018 93.6198 4.03034 93.3097C11.3799 85.9657 18.7128 78.6023 26.0818 71.2776C26.835 70.5299 26.9236 70.2087 26.0264 69.4361C24.4645 68.0958 23.1021 66.509 21.6177 65.0884C19.0036 62.585 16.611 59.8601 13.8888 57.4591C11.8894 55.6951 10.3082 53.4908 8.25064 51.7683C6.68879 50.4613 5.46203 48.8357 4.03033 47.4068C3.69525 47.0717 3.56509 46.7616 3.9694 46.3517C7.68848 42.5939 11.3356 38.7585 15.1377 35.0865C16.8879 33.3972 18.5522 31.6277 20.2636 29.9052C21.975 28.1828 22.8445 28.2603 24.4867 30.0686C26.3005 32.0652 28.1808 34.0037 30.183 35.8286C32.0716 37.5511 33.7581 39.4923 35.5581 41.3117C38.6596 44.4465 41.8055 47.5369 44.8738 50.7022C45.5966 51.4471 45.976 51.4693 46.7153 50.716C51.4563 45.8837 56.2498 41.104 61.0295 36.3105C63.2034 34.1283 65.3745 31.9434 67.5677 29.7806C69.2182 28.1523 69.2902 28.1024 71.0015 29.692C72.7766 31.3397 74.3856 33.1618 76.1274 34.8455C79.9517 38.548 83.7234 42.3059 87.4093 46.144C87.6308 46.3794 87.9437 46.5428 87.8967 47.0163ZM69.3511 98.5546C69.5948 98.3331 69.7969 98.1586 69.9853 97.9731C70.7468 97.2364 71.5416 96.5275 72.2533 95.7438C72.832 95.1069 73.8317 94.6334 73.876 93.7887C73.912 93.1075 72.868 92.8334 72.3363 92.346C70.24 90.4297 68.5286 88.1533 66.3105 86.3256C64.3443 84.7084 62.86 82.5346 60.9105 80.8343C58.2464 78.5109 56.1197 75.6336 53.356 73.3989C52.6166 72.8007 52.0821 71.9533 51.4147 71.2527C50.7418 70.5465 50.8166 70.0619 51.5394 69.3502C55.8815 65.0884 60.16 60.7628 64.4606 56.4622C67.4237 53.4991 70.3951 50.5471 73.3388 47.5646C73.6074 47.2932 74.3717 47.0606 73.6572 46.4043C72.4028 45.2523 71.1843 44.056 69.9797 42.8486C69.5366 42.4055 69.3206 42.364 68.8055 42.8708C64.1145 47.4788 59.5231 52.1893 54.832 56.7917C51.9907 59.5776 49.3987 62.6265 46.3027 65.1521C45.9898 65.4068 45.8126 65.5896 45.4138 65.1798C44.4529 64.1939 43.4587 63.2247 42.3843 62.3662C40.9276 61.2031 40.0415 59.4585 38.5959 58.3841C35.7464 56.26 33.5892 53.4548 31.0553 51.0373C28.2805 48.3926 25.4919 45.712 22.9027 42.8597C22.4014 42.3059 22.0774 42.3336 21.5817 42.8569C20.571 43.9314 19.5491 45.0031 18.4387 45.9696C17.6882 46.6259 17.7048 47.0994 18.3805 47.7613C21.7285 51.0594 25.0156 54.4157 28.3415 57.7361C32.2793 61.6656 36.2255 65.5868 40.1716 69.5108C40.7504 70.0868 40.7809 70.4053 40.3046 71.0921C38.3218 73.9555 35.4722 75.9687 33.1129 78.461C30.3492 81.3826 27.5965 84.365 24.5227 86.9875C22.2408 88.9343 20.6845 91.601 18.1341 93.2737C17.4445 93.7251 17.8959 94.2651 18.2808 94.6638C19.4024 95.8241 20.5655 96.9401 21.6842 98.1032C22.1079 98.5463 22.3876 98.502 22.8085 98.0838C26.5248 94.3703 30.2716 90.69 33.9907 86.9764C37.7042 83.2684 41.4012 79.541 45.087 75.8025C45.6381 75.2459 46.0147 75.2736 46.563 75.8247C50.9024 80.2029 55.2612 84.5616 59.6228 88.9204C62.644 91.9389 65.6735 94.949 68.7031 97.962C68.8886 98.1531 69.0963 98.3248 69.3511 98.5546Z" fill="#E8C5A2"/>
<path d="M74.5628 -0.0911681C78.7222 -0.0911686 82.685 -0.0330152 86.6422 -0.124401C87.9216 -0.154862 88.8631 0.252215 89.6994 1.11622C90.5634 2.01068 91.4081 2.92453 92.2887 3.79961C96.0299 7.52146 99.8708 11.1464 103.496 14.979C105.958 17.5793 108.633 19.9581 111.042 22.6166C112.595 24.3307 114.376 25.912 116.085 27.5209C116.47 27.8837 116.661 27.8892 117.065 27.4766C120.12 24.3584 123.213 21.2818 126.295 18.1941C130.191 14.295 134.029 10.3322 138.02 6.5273C139.82 4.81037 141.459 2.95498 143.212 1.20206C144.068 0.346362 144.948 -0.152101 146.239 -0.121639C149.789 -0.0357932 153.342 -0.102255 156.895 -0.0801019C157.316 -0.0773327 157.942 -0.348718 158.113 0.213437C158.246 0.650977 157.789 1.03867 157.457 1.35436C153.918 4.70237 150.645 8.31623 147.05 11.6144C145.785 12.7775 144.708 14.2064 143.409 15.3612C140.532 17.9255 138.081 20.9135 135.184 23.475C133.592 24.8846 132.279 26.6818 130.659 28.1052C128.136 30.3234 125.993 32.9098 123.52 35.1834C121.332 37.1938 119.352 39.4508 117.162 41.4862C116.658 41.9542 116.428 41.9763 115.96 41.5305C114.06 39.7305 112.075 38.0329 110.408 35.9781C109.317 34.6351 107.766 33.6741 106.622 32.3643C103.994 29.3541 100.771 26.9366 98.2481 23.8129C97.3176 22.6581 95.9358 21.8661 94.9305 20.7196C92.2638 17.6763 89.2757 14.9375 86.4151 12.0935C83.1253 8.823 79.9545 5.41961 76.4985 2.3153C75.7536 1.65068 75.1969 0.825449 74.5628 -0.0911681Z" fill="#E8C5A2"/>
<path d="M158.631 140.91C154.156 140.91 149.825 140.918 145.491 140.905C144.292 140.902 143.583 139.941 142.913 139.221C139.947 136.02 136.774 133.023 133.697 129.938C130.327 126.56 126.882 123.24 123.556 119.82C121.407 117.61 118.956 115.713 117.004 113.32C116.553 112.769 116.309 113.079 116.043 113.395C114.332 115.45 112.008 116.87 110.35 119.005C109.347 120.299 108.129 121.459 106.766 122.434C105.634 123.245 104.93 124.489 103.953 125.461C101.505 127.886 99.1398 130.415 96.5976 132.719C93.9032 135.161 91.7736 138.157 88.8299 140.334C88.4007 140.653 88.0351 140.891 87.4868 140.891C83.2001 140.877 78.9133 140.882 74.4105 140.882C75.0086 140.193 75.449 139.575 75.9945 139.074C79.0019 136.305 81.7213 133.25 84.7231 130.47C87.3124 128.072 89.6524 125.411 92.153 122.916C94.7838 120.288 97.4921 117.734 100.131 115.115C101.859 113.4 103.504 111.606 105.221 109.878C106.741 108.347 108.314 106.868 109.848 105.35C111.38 103.833 112.895 102.296 114.412 100.762C114.864 100.305 115.271 99.798 115.741 99.3632C116.317 98.8315 116.863 98.9118 117.42 99.4878C121.474 103.686 125.6 107.812 129.804 111.866C132.545 114.511 135.076 117.377 137.84 119.994C140.642 122.647 143.337 125.413 146.07 128.13C149.714 131.749 153.4 135.338 156.925 139.08C157.449 139.633 158.213 139.957 158.631 140.91Z" fill="#E8C5A2"/>
<path d="M74.3773 70.3527C74.4853 69.8487 74.9145 69.7684 75.1499 69.4998C78.4896 65.6893 82.2917 62.3357 85.7782 58.6665C87.7361 56.6034 89.8351 54.676 91.8068 52.6268C92.6819 51.7157 93.3687 51.9013 94.1385 52.6711C97.3813 55.9111 100.646 59.1345 103.872 62.3911C106.259 64.8004 108.594 67.2594 110.976 69.677C111.46 70.1699 111.449 70.5105 111.042 71.0755C109.599 73.0776 107.503 74.4318 105.919 76.2567C103.05 79.5632 99.6078 82.2881 96.7527 85.6001C95.7669 86.7438 94.5124 87.6493 93.4241 88.7072C92.9838 89.1364 92.7595 88.9315 92.4244 88.613C88.3951 84.7804 84.4324 80.8869 80.6357 76.8216C79.2567 75.3456 77.6727 74.0607 76.2243 72.6456C75.6373 72.0724 75.1637 71.3801 74.6431 70.7404C74.5296 70.5991 74.441 70.4468 74.3773 70.3527ZM92.9339 74.969C93.0835 74.8499 93.1887 74.7613 93.2995 74.6782C94.8253 73.5512 95.8804 71.9561 97.2761 70.6988C97.6582 70.3555 97.5115 70.0508 97.1487 69.8071C95.7585 68.8795 94.7422 67.553 93.557 66.4093C93.0696 65.9385 92.8204 65.9468 92.369 66.4259C91.2696 67.5918 90.1868 68.7825 88.8715 69.7268C88.2484 70.1727 88.4145 70.6268 88.8881 71.0893C90.065 72.2441 91.2253 73.4182 92.4022 74.5758C92.5545 74.7309 92.7567 74.8416 92.9339 74.969Z" fill="#E8C5A2"/>
<path d="M187.37 89.225C185.354 87.2672 183.233 85.8022 181.71 83.6893C180.899 82.565 179.606 81.8838 178.705 80.8647C175.748 77.5222 172.273 74.6948 169.345 71.3274C168.689 70.5714 168.681 70.2198 169.381 69.4361C172.657 65.7834 176.285 62.4797 179.725 58.996C181.671 57.0243 183.585 55.0111 185.554 53.0588C185.814 52.8012 186.086 52.5437 186.385 52.3332C187.016 51.8902 187.531 51.8154 187.473 52.84C187.238 56.9828 187.343 61.1283 187.304 65.2711C187.301 65.6062 187.232 65.8997 186.955 66.1296C185.618 67.2456 184.654 68.7548 183.192 69.7324C182.552 70.1616 182.563 70.4524 183.114 70.973C184.382 72.1721 185.587 73.4404 186.817 74.681C187.141 75.0078 187.512 75.3096 187.473 75.8385C187.141 80.2001 187.357 84.5644 187.37 89.225Z" fill="#E8C5A2"/>
<path d="M97.9047 140.309C99.7186 138.634 101.571 137.003 103.332 135.277C106.481 132.195 109.574 129.058 112.692 125.942C113.731 124.907 114.786 123.885 115.797 122.824C116.312 122.287 116.691 122.171 117.248 122.81C118.898 124.718 120.873 126.316 122.568 128.166C125.14 130.971 128.067 133.414 130.565 136.294C131.642 137.534 132.952 138.573 134.148 139.714C134.434 139.988 134.921 140.248 134.772 140.689C134.628 141.118 134.121 140.885 133.786 140.888C129.914 140.905 126.043 140.86 122.172 140.918C120.801 140.941 120.222 139.822 119.308 139.204C118.56 138.7 117.943 137.975 117.342 137.285C116.808 136.67 116.417 136.579 115.78 137.194C114.659 138.277 113.653 139.489 112.355 140.387C112.011 140.622 111.72 140.902 111.261 140.902C106.941 140.896 102.621 140.899 98.3035 140.899C98.1678 140.697 98.0349 140.503 97.9047 140.309Z" fill="#E8C5A2"/>
<path d="M105.26 -0.0911721C106.874 -0.0911723 108.497 0.00852002 110.1 -0.121634C111.493 -0.235173 112.487 0.318674 113.39 1.23806C114.229 2.09375 115.071 2.94668 115.902 3.81345C116.345 4.27314 116.722 4.50022 117.184 3.7996C119.424 0.40175 122.601 -0.611791 126.555 -0.141021C128.876 0.135902 131.255 -0.0994832 133.606 -0.0828681C133.944 -0.0800989 134.417 -0.271176 134.575 0.185748C134.694 0.529133 134.298 0.72298 134.112 0.972211C132.443 3.19314 130.111 4.75776 128.3 6.82915C125.697 9.80608 122.581 12.2679 120 15.267C119.136 16.2695 118.018 17.0532 117.057 17.9753C116.655 18.3603 116.392 18.2799 116.002 17.9726C114.047 16.4246 112.346 14.6273 110.676 12.783C109.386 11.3569 107.827 10.1716 106.525 8.751C104.288 6.30577 101.773 4.14576 99.4915 1.75037C99.2062 1.45129 98.9348 1.1356 98.6939 0.800523C98.2647 0.202368 98.3976 -0.102248 99.1758 -0.0967098C101.2 -0.0800946 103.23 -0.0911718 105.26 -0.0911721Z" fill="#E8C5A2"/>
<path d="M64.4966 -0.0911668C60.0298 4.72731 55.3692 8.94486 51.0437 13.4892C49.5178 15.0926 47.8867 16.5603 46.3 18.0861C46.0673 18.3104 45.8929 18.5569 45.5135 18.2135C43.5667 16.455 41.6006 14.7076 39.9279 12.6916C39.2938 11.9273 38.4962 11.415 37.8205 10.731C34.8824 7.75409 31.9138 4.80762 28.9562 1.8473C28.8593 1.75038 28.7596 1.65346 28.6682 1.54823C28.2778 1.10238 27.6436 0.606686 27.8374 0.0611461C28.0839 -0.628394 28.8122 -0.0717774 29.319 -0.077316C32.9135 -0.121624 36.5107 -0.0883938 40.1024 -0.157625C41.7556 -0.188087 42.5476 1.05807 43.4116 2.02453C45.7046 4.58885 45.7516 4.74392 47.9781 2.25161C49.5843 0.457144 51.2873 -0.304396 53.727 -0.14655C57.2024 0.0777577 60.6972 -0.0911663 64.4966 -0.0911668Z" fill="#E8C5A2"/>
<path d="M-1.22569 88.4303C-1.22569 83.7475 -1.22846 79.3776 -1.22292 75.0106C-1.22292 74.3847 -0.72723 74.0524 -0.345075 73.6647C0.560465 72.7509 1.46324 71.8287 2.39093 70.937C2.85616 70.4912 2.92262 70.181 2.35216 69.7324C1.41616 68.993 0.549385 68.165 -0.347848 67.3758C-0.815849 66.9632 -1.18415 66.4287 -1.18969 65.8333C-1.22569 61.3776 -1.20907 56.9247 -1.06507 52.3831C-0.0681475 53.416 1.0257 54.28 2.02816 55.2382C5.09094 58.1653 8.01249 61.2391 11.1417 64.0998C13.0747 65.8665 14.858 67.7995 16.7383 69.6272C17.259 70.1339 17.3836 70.4745 16.8353 71.0976C15.4036 72.7204 13.85 74.1909 12.2051 75.5976C10.8177 76.7856 9.7571 78.3613 8.35864 79.5355C5.10201 82.2715 2.54047 85.7552 -1.22569 88.4303Z" fill="#E8C5A2"/>
<path d="M64.5077 140.882C59.9468 140.882 55.5825 140.913 51.2209 140.863C50.0329 140.849 49.4209 139.703 48.5209 139.118C48.1443 138.875 47.8812 138.459 47.5572 138.135C45.688 136.269 45.6104 136.205 43.9046 138.296C42.376 140.171 40.6479 141.107 38.1279 140.938C35.0098 140.727 31.8639 140.899 28.7319 140.88C28.3553 140.877 27.807 141.126 27.6325 140.63C27.5107 140.281 27.9482 140.002 28.1975 139.753C33.1129 134.834 38.0393 129.927 42.963 125.015C43.6803 124.3 44.4224 123.608 45.0954 122.852C45.6852 122.19 46.0867 122.342 46.66 122.913C49.5898 125.823 52.4338 128.817 55.4357 131.661C58.5151 134.574 61.3979 137.703 64.5077 140.882Z" fill="#E8C5A2"/>
<path d="M-1.23122 18.1858C-1.23123 13.6498 -1.234 9.32148 -1.22293 4.99039C-1.22293 4.77162 -1.16755 4.50578 -1.04017 4.33685C0.186606 2.71408 1.65984 1.32115 3.18292 -0.0136201C3.58169 -0.362544 4.14939 -0.260082 4.65616 -0.260082C8.34755 -0.260083 12.039 -0.265622 15.7304 -0.251776C16.1208 -0.249007 16.6885 -0.478854 16.863 -0.0330065C17.043 0.429456 16.5556 0.789457 16.2454 1.10792C15.0851 2.29315 13.8971 3.45623 12.7257 4.63039C10.7457 6.61316 8.84602 8.68732 6.75802 10.5483C5.48971 11.6781 4.50939 13.0516 3.24108 14.1787C1.80939 15.4526 0.577087 16.948 -1.23122 18.1858Z" fill="#E8C5A2"/>
<path d="M-1.0069 122.464C5.14357 128.62 11.1528 134.638 17.3919 140.885C13.4901 140.885 9.89004 140.6 6.35649 140.965C2.74264 141.337 1.17524 138.781 -0.901686 136.834C-1.2063 136.549 -1.22291 136.089 -1.22291 135.662C-1.22014 131.473 -1.2229 127.285 -1.2146 123.096C-1.21737 122.971 -1.13983 122.846 -1.0069 122.464Z" fill="#E8C5A2"/>
<path d="M187.301 122.805C187.301 123.752 187.301 124.976 187.301 126.2C187.301 129.29 187.298 132.384 187.301 135.474C187.301 135.984 187.312 136.443 186.869 136.856C186.033 137.637 185.28 138.506 184.466 139.312C183.23 140.533 181.807 141.029 179.999 140.957C176.318 140.81 172.63 140.913 169.165 140.913C175.186 134.904 181.275 128.822 187.301 122.805Z" fill="#E8C5A2"/>
<path d="M169.163 -0.0911805C173.447 -0.0911811 177.731 -0.0911816 182.015 -0.0939514C182.513 -0.0939515 182.884 0.130357 183.225 0.476511C184.424 1.68944 185.634 2.89129 186.847 4.09037C187.121 4.36175 187.298 4.66083 187.298 5.0596C187.296 9.37961 187.298 13.7024 187.298 18.0252C187.171 18.1138 187.046 18.2024 186.919 18.291C180.921 12.3039 174.923 6.31683 168.925 0.326974C169.005 0.188512 169.082 0.0472814 169.163 -0.0911805Z" fill="#E8C5A2"/>
</g>
</g>
<mask id="mask1_8472_13819" style="mask-type:alpha" maskUnits="userSpaceOnUse" x="171" y="0" width="204" height="141">
<rect x="171" y="141" width="141" height="204" transform="rotate(-90 171 141)" fill="#D9D9D9"/>
</mask>
<g mask="url(#mask1_8472_13819)">
<g opacity="0.4">
<path d="M372.088 106.098C372.088 107.02 371.932 107.976 372.112 108.862C372.855 112.489 370.792 114.6 368.262 116.483C367.476 117.067 367.047 117.975 366.37 118.62C363.333 121.523 360.467 124.594 357.512 127.576C354.785 130.326 352.015 133.026 349.316 135.804C348.691 136.449 348.481 135.92 348.151 135.601C346.112 133.644 344.169 131.572 342.136 129.631C339.066 126.701 336.244 123.528 333.187 120.584C331.031 118.507 328.736 116.505 326.839 114.19C324.481 111.312 321.395 109.205 319.154 106.212C318.071 104.763 316.343 103.88 315.205 102.432C312.94 99.546 309.832 97.4967 307.648 94.5337C307.34 94.1127 306.89 93.8053 307.534 93.3152C309.28 91.9832 310.577 90.1832 312.187 88.6989C314.561 86.5112 316.75 84.1185 319.02 81.8145C320.906 79.8982 322.808 78.0013 324.664 76.0573C325.316 75.3733 325.764 75.2265 326.515 76.0047C331.465 81.1361 336.427 86.2536 341.459 91.3019C343.784 93.6336 346.189 95.8823 348.383 98.3469C348.661 98.6598 348.877 98.8647 349.218 98.3773C350.255 96.9069 351.688 95.8158 352.905 94.5198C353.189 94.218 353.792 93.8164 353.123 93.437C350.945 92.2103 349.821 89.8952 347.957 88.3804C345.143 86.0986 342.96 83.1881 340.316 80.7318C337.584 78.1952 335.128 75.3484 332.396 72.7951C331.765 72.2053 331.498 71.3136 330.81 70.7459C330.545 70.5271 330.485 70.2142 330.788 69.9096C332.794 67.8714 334.759 65.7917 336.781 63.7674C338.252 62.2942 339.707 60.785 341.178 59.3034C343.642 56.825 345.987 54.2274 348.582 51.8791C350.2 50.4142 351.399 48.5117 353.162 47.1714C353.481 46.9277 353.473 46.6646 353.08 46.4237C351.655 45.5486 350.621 44.2498 349.595 42.9622C349.082 42.3169 348.735 42.2255 348.113 42.8818C345.695 45.4323 343.296 48.0132 340.736 50.4114C338.403 52.5991 336.399 55.1163 334.014 57.221C331.348 59.5748 329.274 62.524 326.427 64.6896C325.712 65.2351 325.426 65.3265 324.675 64.7201C322.385 62.873 320.661 60.461 318.516 58.5059C315.208 55.493 312.274 52.1117 309.029 49.0406C306.868 46.9942 307.056 47.0329 308.988 44.8535C311.319 42.2283 313.931 39.8994 316.34 37.3572C318.816 34.7458 321.305 32.1289 323.911 29.6532C325.693 27.964 327.197 25.9978 329.055 24.4166C331.894 22.0018 334.361 19.191 336.937 16.5326C339.434 13.9572 342.193 11.6282 344.469 8.81192C345.58 7.43561 347.024 6.33345 348.304 5.09283C348.705 4.70514 348.94 4.68575 349.395 5.14268C355.197 10.9692 360.999 16.7984 366.709 22.7218C368.229 24.2975 369.768 25.8704 371.384 27.3547C371.897 27.8283 372.096 28.3406 372.093 29.0467C372.066 32.9209 372.085 36.7978 372.071 40.672C372.071 41.0043 372.293 41.4806 371.842 41.6468C371.504 41.7741 371.318 41.3643 371.081 41.1705C368.958 39.448 367.246 37.3074 365.336 35.3661C362.113 32.0929 358.666 29.0357 355.579 25.6378C353.612 23.4723 351.262 21.711 349.472 19.3987C348.91 18.6732 348.62 18.8643 348.121 19.3766C345.7 21.8606 343.326 24.3972 340.804 26.7732C337.919 29.4926 335.182 32.3726 332.412 35.1972C329.091 38.5812 325.679 41.8849 322.462 45.3797C321.04 46.9249 320.991 46.8806 322.533 48.448C323.272 49.1985 324.088 49.8852 324.738 50.7077C325.434 51.5911 325.846 51.364 326.523 50.6634C329.656 47.4151 332.849 44.2277 336.015 41.0098C337.666 39.3289 339.229 37.5511 340.96 35.9615C343.465 33.6631 345.528 30.9077 348.189 28.7698C348.716 28.3461 348.94 28.3683 349.477 28.8335C351.106 30.243 352.545 31.8409 354.062 33.3584C357.97 37.2769 361.818 41.2535 365.732 45.1637C367.424 46.8529 367.427 46.9415 365.677 48.6723C362.891 51.4305 360.252 54.3437 357.394 57.016C354.9 59.3505 352.7 61.9674 350.159 64.2631C348.211 66.0216 346.595 68.1705 344.562 69.8847C343.855 70.4801 344.641 70.8511 344.974 71.189C348.852 75.1462 352.744 79.0924 356.636 83.033C359.916 86.3561 363.175 89.7069 366.51 92.9746C367.476 93.9189 366.889 94.6943 366.327 95.1816C364.88 96.4333 363.759 98.0312 362.168 99.114C361.979 99.2413 361.772 99.3715 361.646 99.5515C359.911 102.005 357.413 103.714 355.479 105.932C353.604 108.081 351.459 109.911 349.543 111.988C348.901 112.683 348.639 112.52 348.064 112.002C345.856 110.016 343.937 107.726 341.787 105.702C338.626 102.728 335.671 99.5515 332.641 96.461C330.6 94.3786 328.354 92.5038 326.449 90.2884C325.756 89.4798 325.276 89.6044 324.585 90.305C323.564 91.3435 322.672 92.5315 321.425 93.3318C320.964 93.6281 321.015 93.966 321.381 94.3453C323.027 96.0484 324.618 97.8041 326.302 99.4712C329.181 102.324 332.003 105.231 334.855 108.111C336.26 109.532 337.611 111.013 339.066 112.392C340.785 114.024 342.403 115.763 344.049 117.471C345.348 118.82 346.797 120.011 347.973 121.487C348.487 122.132 349.005 122.076 349.646 121.412C354.602 116.286 359.559 111.157 364.616 106.134C366.75 104.013 368.818 101.825 370.947 99.701C371.198 99.4518 371.441 99.0364 371.829 99.1693C372.276 99.3189 372.074 99.8063 372.077 100.141C372.099 102.13 372.088 104.115 372.088 106.098Z" fill="#E8C5A2"/>
<path d="M186.495 41.6717C186.127 41.1455 186.296 40.6249 186.296 40.1459C186.28 36.4545 186.31 32.7631 186.274 29.0744C186.266 28.2132 186.542 27.5292 187.128 26.9864C188.201 25.9923 189.121 24.7987 190.223 23.896C192.865 21.7277 195.095 19.1246 197.444 16.7043C200.132 13.9323 203.11 11.4289 205.52 8.36332C206.499 7.11716 207.823 6.1507 208.975 5.04023C209.319 4.70793 209.502 4.77716 209.851 5.10116C211.821 6.92885 213.805 8.71778 215.536 10.8113C216.895 12.4535 218.63 13.7716 220.14 15.292C224.157 19.3461 228.147 23.4252 232.129 27.5154C232.582 27.9806 232.852 27.8671 233.234 27.4766C237.573 23.0458 241.852 18.5486 246.295 14.223C249.262 11.3236 251.939 8.12793 255.11 5.44177C255.7 4.94054 256.057 4.899 256.704 5.41408C257.82 6.303 258.792 7.32485 259.785 8.33285C263.983 12.5919 268.265 16.7652 272.342 21.1378C274.67 23.6357 277.131 26.0089 279.484 28.4735C281.883 30.9852 284.336 33.5024 286.891 35.8951C290.343 39.1268 293.419 42.7655 296.811 46.0692C299.529 48.7166 302.196 51.4083 304.84 54.1277C307.828 57.1988 310.847 60.2422 313.86 63.2884C315.947 65.3985 318.041 67.5004 320.156 69.5828C320.614 70.0342 320.762 70.3111 320.289 70.9287C319.362 72.1388 318.286 73.1801 317.225 74.2545C313.502 78.0179 309.924 81.9392 306.063 85.5475C303.298 88.1312 300.967 91.1413 298.015 93.5423C296.44 94.8217 295.321 96.6687 293.776 97.998C291.11 100.291 288.834 102.98 286.386 105.472C283.804 108.1 281.14 110.67 278.586 113.334C275.592 116.455 272.628 119.62 269.411 122.528C267.219 124.508 265.489 126.967 263.175 128.853C261.805 129.969 260.885 131.572 259.531 132.744C258.464 133.666 257.446 134.646 256.431 135.629C255.97 136.075 255.648 135.887 255.285 135.518C253.306 133.511 251.082 131.777 249.311 129.526C248.02 127.886 246.159 126.762 244.805 125.139C242.374 122.221 239.352 119.892 236.899 116.973C235.802 115.668 234.345 114.641 233.182 113.351C232.734 112.855 232.522 113.068 232.123 113.456C229.383 116.128 226.815 118.986 224.042 121.611C221.329 124.181 218.846 126.978 216.158 129.573C214.133 131.528 212.1 133.502 210.157 135.554C209.521 136.225 209.223 136.05 208.661 135.496C206.328 133.198 204.199 130.645 201.77 128.512C199.155 126.214 197.008 123.489 194.415 121.179C191.918 118.953 189.765 116.3 187.254 114.043C186.659 113.508 186.288 112.808 186.285 111.977C186.277 107.87 186.282 103.766 186.293 99.6595C186.293 99.4961 186.381 99.3328 186.569 98.6598C188.07 100.296 189.314 101.736 190.646 103.096C196.601 109.18 202.589 115.231 208.538 121.321C209.19 121.988 209.649 122.093 210.285 121.343C212.798 118.374 215.677 115.757 218.393 112.993C221.883 109.443 225.333 105.84 228.925 102.39C229.943 101.41 230.911 100.374 231.877 99.3411C232.467 98.7124 232.934 98.8814 233.469 99.4325C235.758 101.789 238.059 104.135 240.376 106.466C243.367 109.479 246.388 112.462 249.371 115.48C251.265 117.396 253.145 119.329 254.974 121.309C255.629 122.021 256.055 122.005 256.715 121.326C260.536 117.388 264.378 113.472 268.24 109.579C271.807 105.984 275.428 102.445 278.993 98.8454C281.817 95.993 284.574 93.0715 287.393 90.2137C290.272 87.2949 293.211 84.437 296.093 81.521C298.498 79.0924 300.856 76.6195 303.243 74.1715C304.196 73.1967 305.168 72.2385 306.128 71.2721C306.769 70.6268 306.961 70.1561 306.044 69.4278C304.736 68.3893 303.579 67.1625 302.482 65.8554C301.109 64.2188 299.316 62.945 297.93 61.3167C295.564 58.5363 292.603 56.3708 290.351 53.4742C289.208 52.0009 287.521 51.0373 286.312 49.5862C283.913 46.7062 281.105 44.2166 278.482 41.5665C275.469 38.5231 272.437 35.4797 269.454 32.4086C266.761 29.6366 263.884 27.0446 261.344 24.0954C259.818 22.3258 257.981 20.7584 256.24 19.1495C255.948 18.8809 255.782 18.8726 255.479 19.2049C253.557 21.315 251.355 23.1317 249.431 25.2612C248.14 26.6901 246.8 28.1357 245.236 29.3514C243.637 30.5948 242.576 32.4446 241.001 33.7794C238.534 35.8701 236.52 38.4372 234.173 40.6692C232.901 41.8766 232.268 41.8849 231.195 40.6637C230.172 39.4978 228.897 38.5591 227.879 37.3905C226.073 35.3163 223.903 33.6132 222.126 31.5363C219.809 28.828 217.064 26.5655 214.703 23.8904C213.249 22.2427 211.554 20.7307 209.944 19.1855C209.229 18.5015 208.937 19.252 208.645 19.5372C206.464 21.6778 204.384 23.9264 202.171 26.0311C199.03 29.0163 196.107 32.2231 192.985 35.2332C190.804 37.3323 188.815 39.6474 186.495 41.6717Z" fill="#E8C5A2"/>
<path d="M274.121 47.0163C273.84 47.3957 273.559 47.8803 273.18 48.2625C270.912 50.5526 268.472 52.6905 266.39 55.1413C264.85 56.9523 262.888 58.2567 261.393 60.1425C260.249 61.5853 258.997 63.1388 257.277 64.0914C256.778 64.3684 256.292 64.8364 256.025 65.3404C255.069 67.1431 253.334 68.1622 252.015 69.5939C251.565 70.0813 251.35 70.3195 251.876 70.9093C254.731 74.1161 257.842 77.0653 260.822 80.1475C263.36 82.7727 265.945 85.3509 268.516 87.9401C270.284 89.7207 272.055 91.4958 273.848 93.2515C274.17 93.5644 274.501 93.7583 274.069 94.2318C272.544 95.9183 271.157 97.7349 269.277 99.078C268.589 99.5681 268.052 100.291 267.498 100.953C266.33 102.354 265.093 103.686 263.674 104.832C261.928 106.245 260.781 108.244 259.046 109.668C258.767 109.897 258.557 110.224 258.26 110.418C257.389 110.988 256.731 112.39 255.82 112.201C254.843 111.996 253.956 110.958 253.203 110.124C250.015 106.605 246.443 103.478 243.31 99.9004C242.12 98.5435 240.531 97.5244 239.402 96.0844C237.611 93.8054 235.06 92.3294 233.335 89.9949C232.92 89.4327 232.516 89.4078 232.019 89.9478C229.44 92.7503 226.676 95.3811 223.979 98.0561C221.889 100.13 220.082 102.506 217.806 104.362C215.323 106.389 213.521 109.08 211.052 111.116C209.42 112.459 209.586 112.451 208.009 111.168C204.747 108.518 202.1 105.237 199.095 102.326C196.98 100.277 194.863 98.1891 192.794 96.0734C192.259 95.5251 192 94.7386 191.388 94.2263C191.009 93.9078 191.165 93.6198 191.47 93.3097C198.713 85.9657 205.94 78.6023 213.202 71.2776C213.944 70.5299 214.032 70.2087 213.148 69.4361C211.608 68.0958 210.266 66.509 208.803 65.0884C206.227 62.585 203.869 59.8601 201.186 57.4591C199.216 55.6951 197.657 53.4908 195.629 51.7683C194.09 50.4613 192.881 48.8357 191.47 47.4068C191.14 47.0717 191.012 46.7616 191.41 46.3517C195.075 42.5939 198.67 38.7585 202.417 35.0865C204.142 33.3972 205.782 31.6277 207.468 29.9052C209.155 28.1828 210.012 28.2603 211.63 30.0686C213.418 32.0652 215.271 34.0037 217.244 35.8286C219.105 37.5511 220.767 39.4923 222.541 41.3117C225.598 44.4465 228.698 47.5369 231.722 50.7022C232.434 51.4471 232.808 51.4693 233.537 50.716C238.209 45.8837 242.933 41.104 247.643 36.3105C249.786 34.1283 251.925 31.9434 254.087 29.7806C255.713 28.1523 255.784 28.1024 257.471 29.692C259.22 31.3397 260.806 33.1618 262.523 34.8455C266.291 38.548 270.008 42.3059 273.641 46.144C273.859 46.3794 274.168 46.5428 274.121 47.0163ZM255.844 98.5546C256.085 98.3331 256.284 98.1586 256.469 97.9731C257.22 97.2364 258.003 96.5275 258.705 95.7438C259.275 95.1069 260.26 94.6334 260.304 93.7887C260.339 93.1075 259.31 92.8334 258.786 92.346C256.72 90.4297 255.034 88.1533 252.848 86.3256C250.91 84.7084 249.447 82.5346 247.526 80.8343C244.901 78.5109 242.805 75.6336 240.081 73.3989C239.352 72.8007 238.826 71.9533 238.168 71.2527C237.505 70.5465 237.579 70.0619 238.291 69.3502C242.57 65.0884 246.787 60.7628 251.025 56.4622C253.945 53.4991 256.873 50.5471 259.774 47.5646C260.039 47.2932 260.792 47.0606 260.088 46.4043C258.852 45.2523 257.651 44.056 256.464 42.8486C256.027 42.4055 255.814 42.364 255.307 42.8708C250.684 47.4788 246.159 52.1893 241.536 56.7917C238.736 59.5776 236.181 62.6265 233.13 65.1521C232.822 65.4068 232.647 65.5896 232.254 65.1798C231.307 64.1939 230.327 63.2247 229.268 62.3662C227.833 61.2031 226.96 59.4585 225.535 58.3841C222.727 56.26 220.601 53.4548 218.104 51.0373C215.369 48.3926 212.621 45.712 210.069 42.8597C209.575 42.3059 209.256 42.3336 208.767 42.8569C207.771 43.9314 206.764 45.0031 205.67 45.9696C204.93 46.6259 204.947 47.0994 205.613 47.7613C208.912 51.0594 212.151 54.4157 215.429 57.7361C219.31 61.6656 223.199 65.5868 227.088 69.5108C227.658 70.0868 227.688 70.4053 227.219 71.0921C225.265 73.9555 222.457 75.9687 220.131 78.461C217.408 81.3826 214.695 84.365 211.666 86.9875C209.417 88.9343 207.883 91.601 205.37 93.2737C204.69 93.7251 205.135 94.2651 205.514 94.6638C206.62 95.8241 207.766 96.9401 208.868 98.1032C209.286 98.5463 209.562 98.502 209.976 98.0838C213.639 94.3703 217.331 90.69 220.996 86.9764C224.656 83.2684 228.3 79.541 231.932 75.8025C232.475 75.2459 232.846 75.2736 233.387 75.8247C237.663 80.2029 241.959 84.5616 246.257 88.9204C249.235 91.9389 252.22 94.949 255.206 97.962C255.389 98.1531 255.593 98.3248 255.844 98.5546Z" fill="#E8C5A2"/>
<path d="M260.981 -0.0911682C265.08 -0.0911687 268.985 -0.0330152 272.885 -0.124401C274.146 -0.154862 275.074 0.252215 275.898 1.11622C276.749 2.01068 277.582 2.92453 278.45 3.79961C282.137 7.52146 285.922 11.1464 289.494 14.979C291.92 17.5793 294.557 19.9581 296.931 22.6166C298.462 24.3307 300.217 25.912 301.901 27.5209C302.28 27.8837 302.468 27.8892 302.867 27.4766C305.877 24.3584 308.925 21.2818 311.963 18.1941C315.803 14.295 319.585 10.3322 323.518 6.5273C325.292 4.81037 326.908 2.95498 328.635 1.20206C329.478 0.346362 330.346 -0.152101 331.618 -0.121639C335.117 -0.0357932 338.618 -0.102255 342.12 -0.0801019C342.534 -0.0773328 343.151 -0.348718 343.32 0.213437C343.451 0.650977 343.001 1.03867 342.674 1.35436C339.186 4.70237 335.96 8.31623 332.418 11.6144C331.17 12.7775 330.109 14.2064 328.829 15.3612C325.993 17.9255 323.578 20.9135 320.723 23.475C319.154 24.8846 317.861 26.6818 316.264 28.1052C313.778 30.3234 311.665 32.9098 309.228 35.1834C307.072 37.1938 305.121 39.4508 302.962 41.4862C302.466 41.9542 302.239 41.9763 301.778 41.5305C299.906 39.7305 297.949 38.0329 296.306 35.9781C295.231 34.6351 293.703 33.6741 292.575 32.3643C289.985 29.3541 286.809 26.9366 284.323 23.8129C283.406 22.6581 282.044 21.8661 281.053 20.7196C278.425 17.6763 275.48 14.9375 272.661 12.0935C269.419 8.823 266.294 5.41961 262.888 2.3153C262.154 1.65068 261.606 0.825449 260.981 -0.0911682Z" fill="#E8C5A2"/>
<path d="M343.831 140.91C339.42 140.91 335.152 140.918 330.881 140.905C329.699 140.902 329.001 139.941 328.34 139.221C325.417 136.02 322.29 133.023 319.258 129.938C315.937 126.56 312.542 123.24 309.264 119.82C307.146 117.61 304.731 115.713 302.807 113.32C302.362 112.769 302.122 113.079 301.86 113.395C300.173 115.45 297.884 116.87 296.249 119.005C295.261 120.299 294.06 121.459 292.717 122.434C291.601 123.245 290.908 124.489 289.945 125.461C287.532 127.886 285.201 130.415 282.696 132.719C280.041 135.161 277.942 138.157 275.041 140.334C274.618 140.653 274.258 140.891 273.717 140.891C269.493 140.877 265.268 140.882 260.83 140.882C261.42 140.193 261.854 139.575 262.392 139.074C265.355 136.305 268.035 133.25 270.994 130.47C273.545 128.072 275.851 125.411 278.316 122.916C280.909 120.288 283.578 117.734 286.178 115.115C287.881 113.4 289.502 111.606 291.194 109.878C292.693 108.347 294.243 106.868 295.755 105.35C297.264 103.833 298.757 102.296 300.252 100.762C300.697 100.305 301.098 99.798 301.562 99.3632C302.13 98.8315 302.668 98.9118 303.216 99.4878C307.212 103.686 311.278 107.812 315.421 111.866C318.123 114.511 320.617 117.377 323.341 119.994C326.102 122.647 328.758 125.413 331.452 128.13C335.043 131.749 338.675 135.338 342.15 139.08C342.665 139.633 343.419 139.957 343.831 140.91Z" fill="#E8C5A2"/>
<path d="M260.798 70.3527C260.904 69.8487 261.327 69.7684 261.559 69.4998C264.85 65.6893 268.598 62.3357 272.033 58.6665C273.963 56.6034 276.032 54.676 277.975 52.6268C278.837 51.7157 279.514 51.9013 280.273 52.6711C283.468 55.9111 286.686 59.1345 289.865 62.3911C292.218 64.8004 294.519 67.2594 296.866 69.677C297.343 70.1699 297.332 70.5105 296.931 71.0755C295.509 73.0776 293.443 74.4318 291.882 76.2567C289.055 79.5632 285.663 82.2881 282.849 85.6001C281.877 86.7438 280.641 87.6493 279.569 88.7072C279.135 89.1364 278.914 88.9315 278.583 88.613C274.612 84.7804 270.707 80.8869 266.966 76.8216C265.606 75.3456 264.045 74.0607 262.618 72.6456C262.039 72.0724 261.573 71.3801 261.06 70.7404C260.948 70.5991 260.861 70.4468 260.798 70.3527ZM279.085 74.969C279.233 74.8499 279.337 74.7613 279.446 74.6782C280.949 73.5512 281.989 71.9561 283.365 70.6988C283.741 70.3555 283.597 70.0508 283.239 69.8071C281.869 68.8795 280.868 67.553 279.7 66.4093C279.219 65.9385 278.974 65.9468 278.529 66.4259C277.445 67.5918 276.378 68.7825 275.082 69.7268C274.468 70.1727 274.632 70.6268 275.098 71.0893C276.258 72.2441 277.402 73.4182 278.561 74.5758C278.712 74.7309 278.911 74.8416 279.085 74.969Z" fill="#E8C5A2"/>
<path d="M372.153 89.225C370.167 87.2672 368.076 85.8022 366.575 83.6893C365.775 82.565 364.501 81.8838 363.614 80.8647C360.699 77.5222 357.274 74.6948 354.39 71.3274C353.743 70.5714 353.735 70.2198 354.425 69.4361C357.654 65.7834 361.229 62.4797 364.618 58.996C366.537 57.0243 368.423 55.0111 370.363 53.0588C370.62 52.8012 370.887 52.5437 371.182 52.3332C371.804 51.8902 372.312 51.8154 372.254 52.84C372.022 56.9828 372.126 61.1283 372.088 65.2711C372.085 65.6062 372.017 65.8997 371.744 66.1296C370.426 67.2456 369.476 68.7548 368.035 69.7324C367.405 70.1616 367.416 70.4524 367.959 70.973C369.209 72.1721 370.396 73.4404 371.608 74.681C371.927 75.0078 372.293 75.3096 372.254 75.8385C371.927 80.2001 372.14 84.5644 372.153 89.225Z" fill="#E8C5A2"/>
<path d="M283.984 140.309C285.772 138.634 287.598 137.003 289.333 135.277C292.436 132.195 295.485 129.058 298.558 125.942C299.581 124.907 300.621 123.885 301.617 122.824C302.125 122.287 302.498 122.171 303.047 122.81C304.674 124.718 306.619 126.316 308.29 128.166C310.825 130.971 313.71 133.414 316.171 136.294C317.233 137.534 318.524 138.573 319.703 139.714C319.984 139.988 320.464 140.248 320.317 140.689C320.175 141.118 319.675 140.885 319.345 140.888C315.53 140.905 311.715 140.86 307.899 140.918C306.548 140.941 305.978 139.822 305.077 139.204C304.341 138.7 303.732 137.975 303.14 137.285C302.613 136.67 302.228 136.579 301.601 137.194C300.495 138.277 299.505 139.489 298.225 140.387C297.886 140.622 297.6 140.902 297.147 140.902C292.889 140.896 288.632 140.899 284.377 140.899C284.243 140.697 284.112 140.503 283.984 140.309Z" fill="#E8C5A2"/>
<path d="M291.233 -0.0911722C292.824 -0.0911724 294.423 0.00851997 296.003 -0.121634C297.376 -0.235173 298.356 0.318674 299.245 1.23806C300.072 2.09375 300.902 2.94668 301.721 3.81345C302.157 4.27314 302.528 4.50022 302.984 3.7996C305.192 0.40175 308.322 -0.611791 312.219 -0.141021C314.506 0.135902 316.851 -0.0994833 319.168 -0.0828681C319.501 -0.0800989 319.967 -0.271176 320.123 0.185748C320.24 0.529133 319.85 0.72298 319.667 0.972211C318.022 3.19314 315.724 4.75776 313.939 6.82915C311.373 9.80608 308.303 12.2679 305.76 15.267C304.908 16.2695 303.806 17.0532 302.859 17.9753C302.463 18.3603 302.204 18.2799 301.819 17.9726C299.892 16.4246 298.216 14.6273 296.571 12.783C295.299 11.3569 293.763 10.1716 292.48 8.751C290.275 6.30577 287.797 4.14576 285.548 1.75037C285.267 1.45129 284.999 1.1356 284.762 0.800523C284.339 0.202368 284.47 -0.102248 285.237 -0.0967098C287.232 -0.0800947 289.232 -0.0911719 291.233 -0.0911722Z" fill="#E8C5A2"/>
<path d="M251.06 -0.0911668C246.658 4.72731 242.065 8.94486 237.802 13.4892C236.299 15.0926 234.691 16.5603 233.127 18.0861C232.898 18.3104 232.726 18.5569 232.352 18.2135C230.434 16.455 228.496 14.7076 226.848 12.6916C226.223 11.9273 225.437 11.415 224.771 10.731C221.875 7.75409 218.95 4.80762 216.035 1.8473C215.939 1.75038 215.841 1.65346 215.751 1.54823C215.366 1.10238 214.741 0.606686 214.932 0.061146C215.175 -0.628394 215.893 -0.0717775 216.392 -0.0773161C219.935 -0.121624 223.48 -0.0883939 227.02 -0.157625C228.649 -0.188087 229.429 1.05807 230.281 2.02453C232.541 4.58885 232.587 4.74392 234.781 2.25161C236.364 0.457144 238.042 -0.304396 240.447 -0.14655C243.872 0.0777576 247.316 -0.0911663 251.06 -0.0911668Z" fill="#E8C5A2"/>
<path d="M186.29 88.4303C186.29 83.7475 186.288 79.3776 186.293 75.0106C186.293 74.3847 186.782 74.0524 187.158 73.6647C188.051 72.7509 188.94 71.8287 189.855 70.937C190.313 70.4912 190.379 70.181 189.816 69.7324C188.894 68.993 188.04 68.165 187.156 67.3758C186.694 66.9632 186.331 66.4287 186.326 65.8333C186.29 61.3776 186.307 56.9247 186.449 52.3831C187.431 53.416 188.509 54.28 189.497 55.2382C192.516 58.1653 195.395 61.2391 198.479 64.0998C200.384 65.8665 202.141 67.7995 203.994 69.6272C204.507 70.1339 204.63 70.4745 204.09 71.0976C202.679 72.7204 201.148 74.1909 199.527 75.5976C198.159 76.7856 197.114 78.3613 195.736 79.5355C192.526 82.2715 190.002 85.7552 186.29 88.4303Z" fill="#E8C5A2"/>
<path d="M251.071 140.882C246.576 140.882 242.275 140.913 237.977 140.863C236.806 140.849 236.203 139.703 235.316 139.118C234.945 138.875 234.686 138.459 234.366 138.135C232.524 136.269 232.448 136.205 230.767 138.296C229.26 140.171 227.557 141.107 225.074 140.938C222.001 140.727 218.901 140.899 215.814 140.88C215.443 140.877 214.902 141.126 214.73 140.63C214.61 140.281 215.042 140.002 215.287 139.753C220.131 134.834 224.986 129.927 229.839 125.015C230.546 124.3 231.277 123.608 231.94 122.852C232.522 122.19 232.917 122.342 233.482 122.913C236.37 125.823 239.172 128.817 242.131 131.661C245.165 134.574 248.006 137.703 251.071 140.882Z" fill="#E8C5A2"/>
<path d="M186.285 18.1858C186.285 13.6498 186.282 9.32148 186.293 4.99039C186.293 4.77162 186.348 4.50578 186.473 4.33685C187.682 2.71408 189.134 1.32115 190.635 -0.0136202C191.028 -0.362544 191.588 -0.260082 192.087 -0.260083C195.725 -0.260083 199.363 -0.265622 203.001 -0.251776C203.386 -0.249007 203.945 -0.478854 204.117 -0.0330066C204.294 0.429456 203.814 0.789457 203.508 1.10792C202.365 2.29315 201.194 3.45623 200.04 4.63039C198.088 6.61316 196.216 8.68732 194.158 10.5482C192.909 11.6781 191.942 13.0516 190.693 14.1787C189.282 15.4526 188.067 16.948 186.285 18.1858Z" fill="#E8C5A2"/>
<path d="M186.506 122.464C192.567 128.62 198.49 134.638 204.638 140.885C200.793 140.885 197.245 140.6 193.763 140.965C190.201 141.337 188.657 138.781 186.61 136.834C186.31 136.549 186.293 136.089 186.293 135.662C186.296 131.473 186.293 127.285 186.301 123.096C186.299 122.971 186.375 122.846 186.506 122.464Z" fill="#E8C5A2"/>
<path d="M372.085 122.805C372.085 123.752 372.085 124.976 372.085 126.2C372.085 129.29 372.082 132.384 372.085 135.474C372.085 135.984 372.096 136.443 371.659 136.856C370.835 137.637 370.093 138.506 369.291 139.312C368.073 140.533 366.671 141.029 364.888 140.957C361.262 140.81 357.626 140.913 354.212 140.913C360.145 134.904 366.147 128.822 372.085 122.805Z" fill="#E8C5A2"/>
<path d="M354.209 -0.0911805C358.431 -0.0911811 362.653 -0.0911816 366.875 -0.0939514C367.366 -0.0939515 367.732 0.130357 368.068 0.476511C369.25 1.68944 370.442 2.89129 371.638 4.09037C371.908 4.36175 372.082 4.66083 372.082 5.0596C372.08 9.37961 372.082 13.7024 372.082 18.0252C371.957 18.1138 371.834 18.2024 371.708 18.291C365.797 12.3039 359.886 6.31683 353.975 0.326974C354.054 0.188512 354.13 0.0472814 354.209 -0.0911805Z" fill="#E8C5A2"/>
</g>
</g>
</svg>
