<svg width="22" height="22" viewBox="0 0 22 22" fill="none" xmlns="http://www.w3.org/2000/svg">
<path d="M21.5914 2.27819C21.5352 2.74406 21.4963 3.21246 21.4182 3.67452C21.3311 4.19154 21.2086 4.70265 21.1021 5.21163C18.8351 5.08904 16.5322 2.77745 16.3734 0.530126C17.0232 0.396961 17.6782 0.252804 18.3374 0.131898C18.6872 0.0676405 19.0443 0.0431211 19.3984 0.000423598C19.834 0.000423598 20.2701 0.000423598 20.7057 0.000423598C20.7666 0.011415 20.827 0.0279022 20.8887 0.0333979C21.3151 0.070177 21.5293 0.286624 21.5568 0.707258C21.5614 0.781661 21.5796 0.854796 21.5914 0.928777C21.5914 1.37816 21.5914 1.82838 21.5914 2.27819Z" fill="#F67D5A"/>
<path d="M21.5914 0.928777C21.5796 0.854796 21.5614 0.781661 21.5568 0.707258C21.5293 0.286624 21.3151 0.070177 20.8887 0.0333979C20.827 0.0279022 20.7666 0.011415 20.7057 0.000423598C21.0011 0.000423598 21.2961 0 21.5914 0C21.5914 0.309451 21.5914 0.619326 21.5914 0.928777Z" fill="white"/>
<path d="M15.0985 1.03193C15.8671 3.95945 17.6976 5.78065 20.6758 6.50143C20.3855 7.08778 20.1155 7.69739 19.7914 8.27655C18.4709 10.6363 16.6408 12.5539 14.5623 14.2521C13.5292 15.0963 11.7029 16.3679 10.8219 16.841C10.7687 16.7645 10.712 16.6554 10.6301 16.5709C10.3022 16.2331 9.97554 15.8928 9.62948 15.574C9.4575 15.4155 9.41609 15.2827 9.50609 15.0549C9.67258 14.6343 9.73258 14.187 9.70385 13.7317C9.63328 12.6089 8.83213 11.8505 7.70603 11.8953C7.27799 11.9126 6.85206 12.031 6.42994 12.1244C6.30148 12.1527 6.21951 12.1633 6.11852 12.0589C5.73315 11.6594 5.33849 11.2683 4.94214 10.8798C4.85298 10.7927 4.83312 10.731 4.90453 10.6143C6.3712 8.22244 8.08168 6.03092 10.1906 4.16744C11.637 2.88948 13.2224 1.82542 15.0039 1.06659C15.0364 1.05349 15.0698 1.04292 15.0985 1.03193ZM17.0625 7.6847C17.0537 5.93664 15.6195 4.50902 13.8888 4.52551C12.1343 4.54242 10.7306 5.96285 10.7442 7.70796C10.7581 9.46659 12.1707 10.8621 13.9226 10.8485C15.6643 10.8354 17.071 9.41797 17.0625 7.6847Z" fill="#F67D5A"/>
<path d="M8.45395 14.0551C8.41381 14.6326 8.16323 15.2138 7.69632 15.6814C6.63783 16.7417 5.52864 17.7453 4.25973 18.5548C4.02352 18.7057 3.77802 18.8431 3.53041 18.975C3.20462 19.1488 2.90672 19.1171 2.69587 18.9019C2.48967 18.6914 2.46432 18.406 2.62911 18.0839C3.08969 17.1843 3.67999 16.3722 4.33832 15.6116C4.83482 15.0384 5.34821 14.4787 5.87767 13.9359C6.34416 13.4573 6.92812 13.1897 7.59955 13.1458C8.19028 13.1069 8.46198 13.3766 8.45395 14.0551Z" fill="#F67D5A"/>
<path d="M5.80204 7.05777C5.68034 7.22391 5.56203 7.3706 5.45977 7.52744C4.74017 8.63293 4.02057 9.73841 3.30984 10.8498C3.22068 10.9889 3.15561 11.0443 2.97096 11.0215C2.34347 10.9428 1.72697 11.0527 1.11681 11.1982C0.980752 11.2307 0.843001 11.2603 0.704828 11.2806C0.439467 11.3199 0.234531 11.2066 0.0984699 10.9889C-0.0346331 10.7767 -0.0325203 10.5501 0.103118 10.3324C0.128893 10.2909 0.155514 10.2478 0.190163 10.2136C0.9423 9.47589 1.67331 8.71452 2.45503 8.01022C3.09603 7.43275 3.87352 7.08187 4.73299 6.94659C5.08582 6.89163 5.44329 6.88022 5.80204 7.05777Z" fill="#F67D5A"/>
<path d="M14.5416 15.8894C14.7081 16.2758 14.6781 16.6541 14.6101 17.0257C14.4326 17.9993 13.9856 18.8402 13.2972 19.5478C12.6993 20.1625 12.0917 20.7683 11.4811 21.3699C11.097 21.7482 10.5156 21.6252 10.3935 21.1391C10.3571 20.9953 10.3795 20.8326 10.3952 20.6804C10.4522 20.1287 10.5181 19.5779 10.5794 19.0266C10.5849 18.978 10.5954 18.9235 10.5802 18.8799C10.4653 18.5455 10.666 18.4174 10.9178 18.2585C12.0507 17.5419 13.1679 16.8 14.2902 16.0669C14.3709 16.0141 14.4478 15.9558 14.5416 15.8894Z" fill="#F67D5A"/>
<path d="M6.89009 18.1777C7.50236 17.6066 8.10703 17.0426 8.69311 16.4965C9.01931 16.822 9.35778 17.1602 9.71018 17.5123C9.08227 17.8378 8.43789 18.1866 7.77913 18.5066C7.45504 18.6639 7.19771 18.5485 6.89009 18.1777Z" fill="#F67D5A"/>
<path d="M3.42182 14.707C3.05927 14.4022 2.998 14.1481 3.20378 13.7414C3.51267 13.1297 3.83 12.5222 4.13592 11.9282C4.46594 12.2597 4.78581 12.581 5.10187 12.898C4.56059 13.4806 3.99437 14.0902 3.42182 14.707Z" fill="#F67D5A"/>
</svg>
