<svg width="18" height="18" viewBox="0 0 18 18" fill="none" xmlns="http://www.w3.org/2000/svg">
<path fill-rule="evenodd" clip-rule="evenodd" d="M13.926 15.1988C12.4574 16.3878 10.5868 17.1001 8.54983 17.1001C3.82787 17.1001 0 13.2721 0 8.54985C0 3.82787 3.82794 0 8.54983 0C13.2722 0 17.1 3.82795 17.1 8.54985C17.1 10.5868 16.3878 12.4572 15.1987 13.926L17.7365 16.4636C18.0878 16.8151 18.0878 17.385 17.7365 17.7365C17.385 18.0878 16.8151 18.0878 16.4636 17.7365L13.926 15.1988ZM1.79976 8.54973C1.79976 4.82183 4.82194 1.79965 8.54983 1.79965C12.2777 1.79965 15.2999 4.82183 15.2999 8.54973C15.2999 10.3614 14.5862 12.0064 13.4246 13.2189C13.3858 13.2469 13.3486 13.2784 13.3136 13.3135C13.2785 13.3484 13.247 13.3856 13.219 13.4245C12.0065 14.586 10.3615 15.2998 8.54987 15.2998C4.82198 15.2998 1.7998 12.2776 1.7998 8.54969L1.79976 8.54973Z" fill="black"/>
</svg>
