<svg width="19" height="20" viewBox="0 0 19 20" fill="none" xmlns="http://www.w3.org/2000/svg">
<path id="Vector" fill-rule="evenodd" clip-rule="evenodd" d="M14.6996 16.5431C13.1495 17.7983 11.175 18.5501 9.02482 18.5501C4.04053 18.5501 0 14.5095 0 9.52484C0 4.54053 4.04061 0.5 9.02482 0.5C14.0095 0.5 18.05 4.54062 18.05 9.52484C18.05 11.6749 17.2982 13.6492 16.0431 15.1997L18.7218 17.8782C19.0927 18.2493 19.0927 18.8508 18.7218 19.2218C18.3508 19.5927 17.7493 19.5927 17.3783 19.2218L14.6996 16.5431ZM1.89975 9.52471C1.89975 5.58971 5.08982 2.39963 9.02482 2.39963C12.9598 2.39963 16.1499 5.58971 16.1499 9.52471C16.1499 11.437 15.3965 13.1735 14.1705 14.4532C14.1294 14.4828 14.0901 14.5161 14.0532 14.5531C14.0162 14.59 13.983 14.6293 13.9534 14.6703C12.6735 15.8964 10.9371 16.6498 9.02486 16.6498C5.08987 16.6498 1.89979 13.4597 1.89979 9.52467L1.89975 9.52471Z" fill="#989898"/>
</svg>
