<svg width="23" height="25" viewBox="0 0 23 25" fill="none" xmlns="http://www.w3.org/2000/svg">
<path d="M10.916 1.9375C14.3072 1.9375 17.6788 1.9375 21.07 1.9375C21.07 4.17107 21.07 6.40072 21.07 8.64411C18.4378 8.64411 15.8076 8.64411 13.1599 8.64411C13.0155 8.18443 12.7482 7.81708 12.2682 7.64617C11.8097 7.48313 11.3648 7.53224 10.9141 7.76208C10.916 5.81728 10.916 3.88819 10.916 1.9375ZM14.9179 6.58145C14.9003 6.56377 14.8828 6.54412 14.8633 6.52644C14.8555 6.52448 14.8476 6.52448 14.8418 6.52055C14.5452 6.23374 14.2486 5.943 13.9501 5.65619C13.7569 5.46957 13.5657 5.45582 13.4194 5.61101C13.275 5.76227 13.2984 5.95086 13.4955 6.14141C13.8428 6.47733 14.194 6.81325 14.5433 7.14721C14.8203 7.41241 14.9315 7.41241 15.2067 7.13738C16.1218 6.22981 17.0388 5.32224 17.9539 4.41663C18.1705 4.2025 18.391 3.99231 18.5998 3.77033C18.7461 3.61317 18.7364 3.42458 18.59 3.291C18.4359 3.15153 18.2798 3.16921 18.1315 3.30279C18.0964 3.33422 18.0632 3.36762 18.03 3.40101C17.4037 4.02374 16.7735 4.64058 16.1549 5.27116C15.7354 5.70138 15.3296 6.14338 14.9179 6.58145Z" fill="white"/>
<path d="M5.33673 24.0978C4.95625 23.9937 4.67137 23.7501 4.39821 23.4731C3.0714 22.1255 1.73289 20.7897 0.404138 19.4441C-0.274873 18.7565 -0.0680479 17.627 0.798277 17.2793C1.34656 17.0592 1.83826 17.185 2.25581 17.5995C3.30945 18.6465 4.35918 19.6955 5.41087 20.7445C5.74257 21.0765 6.06647 21.4164 6.40988 21.7346C7.25084 22.5165 6.91328 23.8523 5.84208 24.0703C5.82842 24.0723 5.81672 24.088 5.80501 24.0978C5.64892 24.0978 5.49282 24.0978 5.33673 24.0978Z" fill="white"/>
<path d="M7.02871 21.4496C5.62191 20.0018 4.23852 18.5796 2.84342 17.1455C3.89511 15.7351 4.10194 13.9612 4.49412 12.2521C4.58583 11.8474 4.66778 11.4408 4.77119 11.04C4.95655 10.3289 5.58288 9.9478 6.24434 10.1285C6.91944 10.3132 7.30968 10.9968 7.13407 11.6883C7.10481 11.8003 7.07554 11.9122 7.04432 12.0242C7.06773 12.0458 7.09115 12.0674 7.11261 12.089C7.15749 12.0203 7.19066 11.9397 7.24724 11.8828C8.44137 10.6766 9.63744 9.47633 10.8296 8.27016C11.1047 7.99121 11.4306 7.85174 11.8169 7.88317C12.2813 7.92246 12.6364 8.14444 12.7945 8.60019C12.9642 9.08541 12.8745 9.5333 12.5135 9.90262C12.0003 10.4291 11.4755 10.9438 10.9525 11.4585C10.8921 11.5174 10.814 11.5586 10.7125 11.6274C11.3916 11.9358 11.5828 12.4289 11.4872 13.0595C12.3671 13.5545 12.5467 13.9454 12.2774 14.8019C12.6052 14.9453 12.8901 15.1398 13.0188 15.4993C13.1788 15.9452 13.1164 16.3715 12.7866 16.6996C11.7486 17.7368 10.7672 18.8428 9.52817 19.6522C9.11452 19.9232 8.64624 20.1079 8.20527 20.3377C8.11747 20.3829 8.02771 20.436 7.95747 20.5047C7.65504 20.8092 7.35456 21.1176 7.02871 21.4496Z" fill="white"/>
<path d="M9.03016 9.62185C9.03016 9.47844 9.03016 9.40183 9.03016 9.32718C9.03016 6.38641 9.03016 3.44367 9.03016 0.502898C9.03016 0.0805422 9.11211 0 9.53747 0C13.8613 0 18.1851 0 22.5089 0C22.9148 0 23.0006 0.0864356 23.0006 0.497004C23.0006 3.69708 23.0006 6.89716 23.0006 10.0972C23.0006 10.4941 22.9109 10.5884 22.5265 10.5884C19.2075 10.5884 15.8886 10.5884 12.5696 10.5884C12.5013 10.5884 12.4311 10.5884 12.3062 10.5884C12.4799 10.4037 12.6359 10.2662 12.7589 10.1031C12.8994 9.91848 13.0379 9.724 13.1218 9.50988C13.1823 9.35468 13.2447 9.31343 13.4008 9.31343C16.0115 9.31736 18.6202 9.31736 21.2309 9.31736C21.6563 9.31736 21.7402 9.23485 21.7402 8.81446C21.7402 6.46892 21.7402 4.12337 21.7402 1.77782C21.7402 1.3535 21.6582 1.271 21.2368 1.271C17.7383 1.271 14.2398 1.271 10.7413 1.271C10.3218 1.271 10.2418 1.3535 10.2418 1.78175C10.2418 3.91514 10.2399 6.04852 10.2438 8.18191C10.2438 8.33514 10.2028 8.44515 10.0936 8.55123C9.7482 8.88715 9.41455 9.23289 9.03016 9.62185Z" fill="white"/>
<path d="M14.9207 6.58059C15.3324 6.14449 15.7382 5.70052 16.1597 5.27227C16.7782 4.64365 17.4085 4.02485 18.0348 3.40212C18.068 3.36873 18.1011 3.33533 18.1362 3.3039C18.2845 3.17032 18.4406 3.15264 18.5948 3.29211C18.7411 3.42373 18.7509 3.61428 18.6045 3.77144C18.3958 3.99342 18.1753 4.20362 17.9587 4.41774C17.0436 5.32531 16.1285 6.23289 15.2114 7.1385C14.9344 7.41155 14.8251 7.41155 14.548 7.14832C14.1988 6.8124 13.8475 6.47844 13.5002 6.14252C13.3051 5.95394 13.2798 5.76535 13.4241 5.61212C13.5705 5.4589 13.7597 5.47068 13.9549 5.6573C14.2534 5.94411 14.55 6.23289 14.8466 6.52166C14.8505 6.52559 14.8602 6.52559 14.868 6.52755C14.8836 6.54327 14.9012 6.56095 14.9207 6.58059Z" fill="#F8485E"/>
</svg>
