<svg width="22" height="24" viewBox="0 0 22 24" fill="none" xmlns="http://www.w3.org/2000/svg">
<path fill-rule="evenodd" clip-rule="evenodd" d="M12.6704 4.59202C12.6704 2.54757 14.3371 0.888683 16.3904 0.888683C16.8779 0.887514 17.3609 0.982377 17.8117 1.16785C18.2626 1.35333 18.6724 1.62579 19.018 1.96968C19.3635 2.31357 19.6379 2.72214 19.8256 3.17209C20.0132 3.62203 20.1104 4.10452 20.1115 4.59202C20.1115 6.63757 18.4449 8.29646 16.3904 8.29646C15.8978 8.29707 15.4099 8.19974 14.9551 8.01014C14.5004 7.82054 14.0879 7.54244 13.7415 7.19202L8.59155 10.6987C8.73497 11.4131 8.66463 12.154 8.38932 12.8287L14.036 16.5398C14.7011 15.9974 15.5333 15.7018 16.3915 15.7031C16.879 15.7021 17.362 15.7971 17.8127 15.9827C18.2635 16.1683 18.6733 16.4409 19.0188 16.7849C19.3642 17.1289 19.6385 17.5376 19.826 17.9876C20.0135 18.4376 20.1105 18.9201 20.1115 19.4076C20.1115 21.452 18.4449 23.1109 16.3904 23.1109C15.4061 23.113 14.4612 22.724 13.7636 22.0295C13.066 21.335 12.6728 20.3919 12.6704 19.4076C12.6696 18.8883 12.779 18.3747 12.9915 17.9009L7.38932 14.222C6.71089 14.8119 5.84168 15.136 4.94266 15.1342C4.45512 15.1354 3.97213 15.0405 3.52128 14.8549C3.07044 14.6694 2.66058 14.3968 2.31511 14.0528C1.96965 13.7088 1.69536 13.3 1.50791 12.85C1.32046 12.3999 1.22353 11.9173 1.22266 11.4298C1.22368 10.9424 1.32071 10.4599 1.50823 10.0099C1.69574 9.56001 1.97006 9.15143 2.31551 8.80752C2.66095 8.46362 3.07077 8.19115 3.52154 8.00565C3.97231 7.82016 4.45521 7.72529 4.94266 7.72646C6.12488 7.72646 7.17599 8.27424 7.8571 9.12757L12.8493 5.72868C12.7306 5.3615 12.6702 4.97793 12.6704 4.59202Z" fill="white"/>
</svg>
