<svg width="69" height="71" viewBox="0 0 69 71" fill="none" xmlns="http://www.w3.org/2000/svg">
<path d="M17.8065 31.0625C20.2649 31.0625 22.2581 29.0756 22.2581 26.625V0H13.3548V26.625C13.3548 29.0756 15.348 31.0625 17.8065 31.0625Z" fill="#F67D5A"/>
<path d="M57.871 26.625C57.871 29.0756 59.8642 31.0625 62.3226 31.0625H66.7742C68.2343 31.0625 69 30.3004 69 28.8438V4.4375C69 1.98467 67.009 0 64.5484 0H57.871V26.625Z" fill="#F67D5A"/>
<path d="M28.9355 31.0625C31.3939 31.0625 33.3871 29.0756 33.3871 26.625V0H24.4839V26.625C24.4839 29.0756 26.4771 31.0625 28.9355 31.0625Z" fill="#F67D5A"/>
<path d="M6.67742 31.0625C9.13582 31.0625 11.129 29.0756 11.129 26.625V0H4.45161C1.99098 0 0 1.98467 0 4.4375V28.8438C0 30.3004 0.903678 31.0625 2.22581 31.0625H6.67742Z" fill="#F67D5A"/>
<path d="M40.0645 31.0625C42.5229 31.0625 44.5161 29.0756 44.5161 26.625V0H35.6129V26.625C35.6129 29.0756 37.6061 31.0625 40.0645 31.0625Z" fill="#F67D5A"/>
<path d="M51.1936 31.0625C53.652 31.0625 55.6452 29.0756 55.6452 26.625V0H46.7419V26.625C46.7419 29.0756 48.7351 31.0625 51.1936 31.0625Z" fill="#F67D5A"/>
<path d="M12.2419 71H25.5968V55.4688H24.4839C23.8684 55.4688 23.371 54.9729 23.371 54.3594C23.371 53.7459 23.8684 53.25 24.4839 53.25H25.5968V42.1562H12.2419V71Z" fill="#F67D5A"/>
<path d="M32.2742 62.125H56.7581V42.1562H32.2742V62.125ZM51.5196 44.7C51.9548 44.2663 52.6581 44.2663 53.0933 44.7L54.2062 45.8094C54.6413 46.2432 54.6413 46.9443 54.2062 47.3781C53.9892 47.5944 53.7043 47.7031 53.4194 47.7031C53.1345 47.7031 52.8496 47.5944 52.6325 47.3781L51.5196 46.2687C51.0845 45.8349 51.0845 45.1338 51.5196 44.7ZM45.9551 44.7C46.3903 44.2663 47.0936 44.2663 47.5288 44.7L54.2062 51.3563C54.6413 51.7901 54.6413 52.4912 54.2062 52.9249C53.9892 53.1413 53.7043 53.25 53.4194 53.25C53.1345 53.25 52.8496 53.1413 52.6325 52.9249L45.9551 46.2687C45.52 45.8349 45.52 45.1338 45.9551 44.7Z" fill="#F67D5A"/>
<path d="M62.3226 33.2812C59.9988 33.2812 57.9533 32.0964 56.7581 30.3004C55.5628 32.0964 53.5173 33.2812 51.1936 33.2812C48.8698 33.2812 46.8243 32.0964 45.629 30.3004C44.4338 32.0964 42.3883 33.2812 40.0645 33.2812C37.7408 33.2812 35.6953 32.0964 34.5 30.3004C33.3047 32.0964 31.2592 33.2812 28.9355 33.2812C26.6117 33.2812 24.5662 32.0964 23.371 30.3004C22.1757 32.0964 20.1302 33.2812 17.8065 33.2812C15.4827 33.2812 13.4372 32.0964 12.2419 30.3004C11.0467 32.0964 9.00116 33.2812 6.67742 33.2812H3.33871V66.5625C3.33871 69.0153 5.32969 71 7.79032 71H10.0161V41.0469C10.0161 40.4334 10.5136 39.9375 11.129 39.9375H26.7097C27.3251 39.9375 27.8226 40.4334 27.8226 41.0469V71H61.2097C63.6703 71 65.6613 69.0153 65.6613 66.5625V33.2812H62.3226ZM58.9839 63.2344C58.9839 63.8479 58.4864 64.3438 57.871 64.3438H31.1613C30.5459 64.3438 30.0484 63.8479 30.0484 63.2344V41.0469C30.0484 40.4334 30.5459 39.9375 31.1613 39.9375H57.871C58.4864 39.9375 58.9839 40.4334 58.9839 41.0469V63.2344Z" fill="#F67D5A"/>
</svg>
