<svg width="46" height="265" viewBox="0 0 46 265" fill="none" xmlns="http://www.w3.org/2000/svg">
<mask id="mask0_4917_18399" style="mask-type:alpha" maskUnits="userSpaceOnUse" x="0" y="0" width="96" height="266">
<rect y="0.0410156" width="96" height="264.96" fill="#D9D9D9"/>
</mask>
<g mask="url(#mask0_4917_18399)">
<g opacity="0.4">
<path d="M-39.802 266.339C-40.9823 266.339 -42.2052 266.137 -43.3395 266.371C-47.983 267.335 -50.684 264.656 -53.0943 261.37C-53.8422 260.349 -55.0049 259.792 -55.8308 258.913C-59.5455 254.968 -63.4765 251.246 -67.2941 247.408C-70.8139 243.866 -74.2699 240.269 -77.8252 236.763C-78.651 235.951 -77.974 235.678 -77.5664 235.25C-75.0604 232.602 -72.409 230.078 -69.9242 227.437C-66.174 223.449 -62.1118 219.784 -58.3439 215.814C-55.6854 213.014 -53.1227 210.033 -50.1594 207.57C-46.4765 204.507 -43.779 200.498 -39.9473 197.588C-38.0935 196.181 -36.9627 193.937 -35.1089 192.459C-31.4154 189.517 -28.7924 185.479 -24.9996 182.644C-24.4609 182.243 -24.0674 181.658 -23.44 182.495C-21.735 184.763 -19.431 186.447 -17.5311 188.538C-14.7309 191.622 -11.6683 194.465 -8.71917 197.414C-6.26629 199.864 -3.83823 202.334 -1.3499 204.744C-0.474386 205.592 -0.28652 206.173 -1.28256 207.148C-7.85074 213.578 -14.4012 220.022 -20.8631 226.558C-23.8476 229.578 -26.7259 232.701 -29.8806 235.551C-30.2811 235.912 -30.5434 236.192 -29.9196 236.635C-28.0374 237.982 -26.6408 239.843 -24.9819 241.424C-24.5955 241.793 -24.0816 242.576 -23.5959 241.708C-22.0257 238.879 -19.0624 237.419 -17.1235 234.998C-14.2027 231.343 -10.4773 228.508 -7.33323 225.073C-4.08635 221.525 -0.442494 218.335 2.82565 214.786C3.58065 213.968 4.72203 213.62 5.44868 212.727C5.7287 212.383 6.12924 212.305 6.51915 212.699C9.12799 215.304 11.79 217.856 14.3811 220.483C16.2669 222.393 18.1987 224.282 20.0951 226.193C23.2675 229.394 26.5924 232.439 29.5982 235.81C31.4733 237.912 33.9085 239.468 35.6241 241.757C35.936 242.172 36.2727 242.162 36.5811 241.651C37.7012 239.801 39.3636 238.457 41.0119 237.125C41.8378 236.458 41.9548 236.008 41.1147 235.2C37.8501 232.059 34.5465 228.944 31.4768 225.619C28.6766 222.588 25.4545 219.986 22.7606 216.888C19.7477 213.425 15.9727 210.731 13.2008 207.034C12.5025 206.106 12.3855 205.733 13.1618 204.759C15.526 201.785 18.6134 199.545 21.1159 196.758C24.9725 192.462 29.3004 188.652 33.2314 184.437C35.8509 181.63 35.8013 181.875 38.5909 184.384C41.9512 187.411 44.9322 190.803 48.1862 193.933C51.5288 197.148 54.8785 200.381 58.0473 203.766C60.2096 206.081 62.7262 208.034 64.7502 210.448C67.8411 214.134 71.4389 217.339 74.8418 220.685C78.1383 223.928 81.1193 227.512 84.7242 230.468C86.4859 231.91 87.8966 233.786 89.4846 235.448C89.9809 235.969 90.0057 236.274 89.4208 236.866C81.9629 244.402 74.5015 251.938 66.9195 259.353C64.9026 261.327 62.8893 263.326 60.9894 265.425C60.3833 266.091 59.7275 266.35 58.8236 266.346C53.8647 266.311 48.9022 266.336 43.9433 266.318C43.5179 266.318 42.9083 266.605 42.6956 266.02C42.5325 265.581 43.0571 265.34 43.3053 265.031C45.51 262.274 48.25 260.051 50.7348 257.57C54.9245 253.384 58.8378 248.907 63.1871 244.898C65.9589 242.342 68.2133 239.29 71.1731 236.965C72.1018 236.235 71.8572 235.859 71.2014 235.211C68.0219 232.066 64.775 228.983 61.7338 225.707C58.2529 221.961 54.5665 218.405 50.951 214.808C46.6195 210.494 42.3907 206.063 37.9174 201.884C35.9395 200.037 35.9962 199.973 33.99 201.976C33.0294 202.937 32.1503 203.997 31.0976 204.84C29.9668 205.744 30.2575 206.279 31.1543 207.158C35.3121 211.228 39.392 215.375 43.5108 219.487C45.6624 221.631 47.9381 223.662 49.9727 225.909C52.9147 229.163 56.4416 231.843 59.1781 235.299C59.7204 235.983 59.6921 236.274 59.0966 236.972C57.2923 239.088 55.2471 240.956 53.3046 242.927C48.289 248.003 43.1989 253.001 38.1939 258.084C36.0317 260.282 35.9183 260.285 33.7029 258.013C30.1724 254.394 26.4435 250.966 23.0229 247.255C20.0348 244.015 16.6851 241.158 13.7466 237.858C11.4958 235.327 8.74518 233.229 6.55105 230.588C5.78896 229.67 5.31398 230.691 4.88154 231.124C-0.183726 236.16 -5.23481 241.215 -10.2788 246.27C-14.5324 250.53 -18.8214 254.763 -23.004 259.094C-24.2127 260.349 -25.2052 259.587 -25.8291 258.857C-27.4312 256.978 -29.4765 255.521 -30.8624 253.455C-31.0255 253.21 -31.1921 252.941 -31.4225 252.778C-34.563 250.523 -36.7501 247.28 -39.5893 244.767C-42.3399 242.332 -44.6829 239.546 -47.3414 237.057C-48.2311 236.224 -48.022 235.884 -47.3591 235.136C-44.8176 232.268 -41.8862 229.777 -39.2951 226.983C-35.4882 222.879 -31.4225 219.04 -27.4667 215.105C-24.8011 212.454 -22.4014 209.537 -19.5657 207.063C-18.5307 206.162 -18.6902 205.538 -19.587 204.642C-20.9162 203.316 -22.4369 202.157 -23.4613 200.537C-23.8405 199.938 -24.273 200.005 -24.7586 200.48C-26.9385 202.618 -29.1858 204.684 -31.3197 206.871C-34.9707 210.611 -38.6925 214.276 -42.3789 217.98C-44.1973 219.806 -46.0937 221.56 -47.8589 223.449C-49.9467 225.683 -52.1727 227.785 -54.3597 229.922C-56.086 231.609 -57.6102 233.491 -59.4995 235.019C-60.3254 235.686 -60.2545 236.359 -59.4038 237.192C-52.8427 243.629 -46.278 250.066 -39.8481 256.634C-37.1329 259.406 -34.3326 262.093 -31.6139 264.858C-31.2949 265.184 -30.7632 265.499 -30.9333 266.003C-31.1247 266.584 -31.7486 266.322 -32.1775 266.325C-34.7225 266.354 -37.264 266.339 -39.802 266.339Z" fill="#E8C5A2"/>
<path d="M42.6637 25.2873C43.3371 24.8088 44.0035 25.0285 44.6167 25.0285C49.3417 25.0073 54.0667 25.0462 58.7882 25.0002C59.8905 24.9895 60.7661 25.3475 61.4608 26.1096C62.7333 27.5027 64.2611 28.6972 65.4166 30.1292C68.192 33.5604 71.524 36.4564 74.622 39.5083C78.1702 42.9997 81.3745 46.8669 85.2984 49.9968C86.8935 51.2694 88.1306 52.9885 89.5519 54.4843C89.9773 54.931 89.8887 55.1684 89.474 55.6222C87.1345 58.1814 84.8447 60.7583 82.165 63.0056C80.063 64.7708 78.3757 67.0252 76.4298 68.9854C71.2404 74.2031 66.0192 79.3853 60.7838 84.5569C60.1883 85.1453 60.3336 85.4962 60.8334 85.9925C66.5048 91.6285 72.2613 97.1864 77.798 102.957C81.5092 106.81 85.5997 110.287 89.038 114.406C89.6796 115.172 89.7327 115.636 89.0734 116.476C87.9356 117.926 86.6276 119.188 85.3374 120.478C79.8858 125.93 74.544 131.491 68.9471 136.787C65.7498 139.811 62.7121 143.008 59.5573 146.063C56.3424 149.179 53.1203 152.366 50.0578 155.683C45.9212 160.167 41.2636 164.162 37.0348 168.568C33.6462 172.098 30.2008 175.562 26.72 178.996C22.789 182.878 18.8934 186.798 14.9944 190.711C12.2934 193.423 9.60298 196.142 6.93742 198.889C6.35964 199.484 6.00518 199.676 5.21473 199.062C3.66573 197.857 2.33295 196.461 0.957635 195.082C-3.85951 190.247 -8.87869 185.6 -13.4973 180.584C-16.8045 176.994 -20.6575 173.967 -23.7307 170.131C-25.3683 168.086 -27.7325 166.633 -29.434 164.626C-32.3689 161.163 -35.8108 158.207 -39.0009 155.028C-42.3648 151.674 -45.6542 148.215 -49.0641 144.897C-53.0589 141.009 -57.1104 137.159 -60.8323 132.98C-63.3667 130.134 -66.5143 127.886 -68.9282 124.881C-70.3567 123.101 -72.409 121.907 -73.9084 120.148C-75.0887 118.763 -76.3435 117.44 -77.6019 116.122C-78.1725 115.523 -77.9315 115.104 -77.4601 114.633C-74.8902 112.063 -72.6713 109.174 -69.7895 106.874C-67.6911 105.197 -66.252 102.78 -64.1748 101.022C-60.4388 97.8634 -57.4578 93.9395 -53.7217 90.7529C-52.0522 89.328 -50.7372 87.4352 -49.0854 85.9252C-48.4509 85.3438 -48.7238 85.0673 -49.2201 84.5498C-52.6406 80.991 -56.2987 77.6555 -59.659 74.0542C-62.9484 70.5309 -66.5285 67.3053 -69.8498 63.8138C-72.3523 61.1837 -74.8796 58.5429 -77.5062 56.0192C-78.364 55.1933 -78.1406 54.8069 -77.4317 54.0767C-74.4897 51.0461 -71.2215 48.2813 -68.4922 45.1265C-65.5501 41.7308 -62.0622 38.9412 -59.106 35.5738C-56.2562 32.3305 -52.8604 29.5338 -49.9715 26.2727C-49.2874 25.5 -48.3906 25.0179 -47.3272 25.0144C-42.0706 25.0037 -36.8174 25.0108 -31.5608 25.025C-31.3516 25.025 -31.1425 25.1384 -30.2811 25.383C-32.376 27.3325 -34.2192 28.9489 -35.9596 30.6787C-43.7472 38.413 -51.4922 46.1899 -59.2868 53.9172C-60.1411 54.7644 -60.2757 55.3599 -59.3152 56.1858C-55.5153 59.4503 -52.1657 63.1899 -48.6281 66.7168C-44.0839 71.2504 -39.4724 75.7308 -35.0558 80.3955C-33.8009 81.7177 -32.4753 82.976 -31.1531 84.2308C-30.3485 84.9965 -30.5647 85.6026 -31.2701 86.2973C-34.2866 89.2713 -37.2889 92.2594 -40.2734 95.2688C-44.13 99.1537 -47.9475 103.078 -51.8112 106.952C-54.2641 109.412 -56.7382 111.854 -59.2726 114.229C-60.1836 115.08 -60.1623 115.633 -59.2939 116.49C-54.2534 121.453 -49.2413 126.444 -44.2576 131.459C-39.6567 136.092 -35.1266 140.796 -30.5186 145.425C-26.8677 149.094 -23.1281 152.674 -19.47 156.336C-15.734 160.075 -12.0759 163.893 -8.34345 167.636C-5.23482 170.759 -2.06948 173.821 1.06396 176.923C2.31168 178.16 3.53812 179.422 4.77519 180.669C5.60109 181.502 6.20368 181.751 7.13592 180.56C8.46515 178.862 10.0354 177.359 11.7085 175.934C13.8034 174.151 15.4339 171.822 17.5181 170.021C21.0769 166.948 23.8488 163.102 27.5565 160.178C29.4422 158.693 30.6758 156.502 32.5331 154.932C36.2196 151.816 39.4062 148.169 42.7984 144.762C46.6939 140.849 50.5895 136.911 54.5204 133.037C58.0686 129.538 61.3864 125.802 65.1614 122.502C67.4264 120.521 69.4327 118.135 71.4921 115.874C71.8359 115.494 71.8466 115.278 71.4212 114.885C68.7202 112.389 66.3949 109.529 63.6691 107.03C61.8401 105.353 59.9898 103.613 58.4337 101.582C56.8422 99.5046 54.4744 98.1257 52.7658 96.0805C50.0897 92.8761 46.8038 90.2602 43.9468 87.2118C42.4014 85.56 42.3907 84.7377 43.9539 83.3447C45.4462 82.0154 46.6478 80.3601 48.1437 79.0379C50.7986 76.6914 52.9785 73.8734 55.637 71.5659C59.1036 68.5565 61.9996 64.9906 65.4237 61.9245C67.5327 60.0352 69.4681 57.834 71.446 55.7427C72.3215 54.814 71.3609 54.4347 70.9958 54.0554C68.2558 51.2233 65.3776 48.5223 62.6837 45.6476C58.8626 41.5677 54.7579 37.7714 50.9049 33.7164C48.2181 30.8842 45.2548 28.3002 42.6637 25.2873Z" fill="#E8C5A2"/>
<path d="M35.8225 139.098C35.3369 138.733 34.7166 138.368 34.2275 137.875C31.2961 134.93 28.5596 131.761 25.4226 129.056C23.1044 127.057 21.4349 124.508 19.021 122.566C17.1743 121.081 15.1857 119.454 13.9664 117.221C13.6119 116.572 13.0129 115.941 12.3678 115.594C10.0602 114.353 8.7558 112.099 6.92323 110.387C6.29938 109.802 5.99453 109.522 5.23953 110.206C1.13485 113.913 -2.64016 117.954 -6.58533 121.825C-9.94563 125.122 -13.2457 128.478 -16.5599 131.817C-18.8391 134.114 -21.1112 136.415 -23.3585 138.744C-23.759 139.162 -24.0072 139.591 -24.6133 139.031C-26.772 137.049 -29.0972 135.249 -30.8164 132.806C-31.4438 131.913 -32.3689 131.215 -33.2161 130.495C-35.0097 128.978 -36.7146 127.372 -38.1821 125.529C-39.9899 123.261 -42.5491 121.772 -44.371 119.518C-44.6652 119.156 -45.0835 118.883 -45.3316 118.497C-46.0618 117.366 -47.8554 116.512 -47.6143 115.328C-47.352 114.059 -46.0228 112.907 -44.9559 111.929C-40.4507 107.788 -36.4488 103.148 -31.8691 99.0793C-30.1323 97.5338 -28.8278 95.4708 -26.9846 94.0034C-24.0674 91.6781 -22.1781 88.3639 -19.19 86.1237C-18.4705 85.5849 -18.4386 85.0603 -19.1298 84.4151C-22.7169 81.0655 -26.0843 77.4748 -29.5084 73.9727C-32.1633 71.2575 -35.2046 68.911 -37.5795 65.9548C-40.1742 62.7292 -43.6196 60.3897 -46.2249 57.1818C-47.944 55.0621 -47.9334 55.2783 -46.2922 53.2296C-42.9 48.9937 -38.6996 45.5554 -34.9742 41.6528C-32.3512 38.9057 -29.6786 36.1551 -26.9705 33.4683C-26.2686 32.7735 -25.262 32.4368 -24.6062 31.6428C-24.1986 31.1501 -23.8299 31.3521 -23.4329 31.7491C-14.0326 41.1566 -4.60743 50.5427 4.76809 59.975C5.72514 60.9391 6.13632 61.0525 7.12526 59.9041C8.84086 57.9049 10.8719 56.1609 12.6903 54.261C15.8947 50.9149 19.3826 47.8523 22.4558 44.368C24.7137 41.8088 27.5352 39.7848 29.74 37.1511C31.413 35.152 33.4937 33.5817 35.3227 31.7491C35.7516 31.3202 36.1486 31.1536 36.6732 31.6711C41.4833 36.4316 46.3926 41.0998 51.0928 45.9666C53.255 48.2068 55.52 50.3371 57.7248 52.5277C59.9295 54.7183 59.8303 55.8313 57.5156 57.9333C54.96 60.255 52.4787 62.6618 50.1428 65.2245C47.9381 67.642 45.4533 69.8007 43.1245 72.1047C39.112 76.0746 35.1562 80.1013 31.1047 84.0288C30.1511 84.9539 30.1228 85.4395 31.0869 86.386C37.2723 92.4544 43.3903 98.5901 49.5261 104.708C52.3192 107.491 55.1159 110.27 57.8843 113.077C59.9685 115.19 60.0323 115.282 57.9977 117.472C55.8887 119.744 53.5563 121.804 51.4012 124.033C46.662 128.929 41.852 133.756 36.9391 138.474C36.6378 138.758 36.4287 139.158 35.8225 139.098ZM-30.1464 115.36C-29.8629 115.672 -29.6396 115.93 -29.4021 116.171C-28.4592 117.146 -27.5518 118.164 -26.5487 119.074C-25.7334 119.815 -25.1273 121.095 -24.0461 121.152C-23.1742 121.198 -22.8232 119.861 -22.1994 119.181C-19.7465 116.498 -16.8328 114.307 -14.4934 111.468C-12.4233 108.951 -9.6408 107.051 -7.4644 104.556C-4.49046 101.146 -0.807594 98.4235 2.05292 94.886C2.81855 93.9395 3.90321 93.2554 4.8 92.4012C5.70387 91.5398 6.32419 91.6355 7.23516 92.5607C12.6903 98.1187 18.227 103.595 23.7318 109.1C27.5246 112.893 31.3032 116.696 35.1207 120.464C35.4681 120.808 35.7658 121.786 36.6059 120.872C38.0805 119.266 39.6117 117.706 41.1572 116.164C41.7243 115.597 41.7775 115.321 41.1288 114.661C35.2306 108.657 29.2012 102.78 23.31 96.7752C19.7441 93.1385 15.8415 89.8207 12.6088 85.8578C12.2827 85.4573 12.0488 85.2304 12.5734 84.72C13.8352 83.49 15.0759 82.2175 16.1747 80.8422C17.6634 78.9777 19.8966 77.8434 21.2719 75.9931C23.9906 72.3457 27.5813 69.5844 30.6757 66.3411C34.0609 62.7894 37.4921 59.2199 41.143 55.9057C41.8519 55.2641 41.8165 54.8494 41.1466 54.2149C39.7713 52.9211 38.3995 51.6132 37.1624 50.1918C36.3223 49.2312 35.7162 49.2525 34.869 50.1173C30.6474 54.4028 26.3513 58.6103 22.1013 62.8674C17.0715 67.9078 12.0523 72.9589 7.02957 78.01C6.29229 78.7508 5.88466 78.7898 5.00559 78.1802C1.34045 75.6422 -1.2365 71.9948 -4.42666 68.9748C-8.16624 65.4372 -11.9838 61.9139 -15.3406 57.9793C-17.8324 55.0586 -21.2459 53.0665 -23.3869 49.8019C-23.9646 48.9193 -24.6558 49.4971 -25.1663 49.9898C-26.6515 51.4253 -28.0799 52.9141 -29.5687 54.3461C-30.1358 54.8884 -30.0791 55.2464 -29.5439 55.7852C-24.7905 60.5421 -20.0797 65.338 -15.3264 70.0984C-10.5801 74.8517 -5.80906 79.5838 -1.02382 84.3017C-0.311349 85.0071 -0.346802 85.4892 -1.05218 86.191C-6.65623 91.7454 -12.2355 97.3247 -17.8147 102.907C-21.6783 106.775 -25.5313 110.652 -29.3879 114.53C-29.6325 114.768 -29.8522 115.034 -30.1464 115.36Z" fill="#E8C5A2"/>
<path d="M96.1201 122.031C96.1201 127.355 96.0457 132.427 96.1627 137.492C96.2017 139.13 95.6806 140.335 94.5747 141.406C93.4298 142.512 92.26 143.593 91.1399 144.72C86.376 149.509 81.7361 154.425 76.8303 159.065C73.5019 162.216 70.4571 165.64 67.0542 168.724C64.8601 170.713 62.8361 172.992 60.7767 175.179C60.3124 175.671 60.3053 175.916 60.8334 176.434C64.8247 180.343 68.7627 184.303 72.715 188.248C77.7058 193.235 82.7782 198.148 87.6485 203.256C89.8462 205.56 92.2211 207.658 94.4648 209.902C95.5601 210.997 96.1981 212.124 96.1591 213.776C96.0493 218.32 96.1343 222.868 96.106 227.416C96.1024 227.955 96.4498 228.756 95.7302 228.976C95.1702 229.146 94.6739 228.561 94.2699 228.135C89.9844 223.605 85.3587 219.416 81.137 214.815C79.6483 213.195 77.8193 211.816 76.3411 210.154C73.0588 206.471 69.2342 203.334 65.9554 199.626C64.1512 197.588 61.8507 195.908 60.0288 193.834C57.1895 190.605 53.8789 187.861 50.9687 184.696C48.3953 181.896 45.5065 179.361 42.9012 176.558C42.3021 175.913 42.2738 175.618 42.8445 175.019C45.1485 172.588 47.3213 170.046 49.9514 167.912C51.6706 166.516 52.9005 164.531 54.5772 163.067C58.4302 159.703 61.5246 155.577 65.523 152.348C67.0011 151.157 68.0148 149.388 69.4823 148.101C73.3778 144.688 76.8835 140.863 80.5238 137.202C84.71 132.991 89.0663 128.932 93.0399 124.508C93.8906 123.555 94.9469 122.842 96.1201 122.031Z" fill="#E8C5A2"/>
<path d="M-84.3614 229.638C-84.3614 223.91 -84.3721 218.366 -84.3543 212.819C-84.3508 211.284 -83.1208 210.377 -82.1992 209.519C-78.1016 205.723 -74.2664 201.661 -70.3176 197.723C-65.9932 193.409 -61.7432 188.999 -57.3656 184.742C-54.537 181.992 -52.1089 178.855 -49.0464 176.356C-48.341 175.778 -48.738 175.466 -49.1421 175.126C-51.7722 172.935 -53.5906 169.961 -56.3235 167.838C-57.9788 166.555 -59.464 164.995 -60.7117 163.251C-61.7503 161.801 -63.3418 160.901 -64.586 159.65C-67.6911 156.516 -70.9273 153.489 -73.8765 150.235C-77.0028 146.786 -80.8381 144.061 -83.6242 140.293C-84.0318 139.743 -84.3366 139.275 -84.3366 138.573C-84.3189 133.086 -84.326 127.599 -84.326 121.836C-83.4434 122.601 -82.6529 123.165 -82.0114 123.863C-78.4667 127.713 -74.557 131.194 -70.9982 135.036C-67.9286 138.35 -64.5222 141.345 -61.3285 144.546C-57.9646 147.914 -54.6965 151.38 -51.3433 154.758C-49.1492 156.97 -46.8523 159.076 -44.6404 161.273C-42.6802 163.219 -40.7874 165.233 -38.8449 167.196C-36.9025 169.156 -34.9352 171.095 -32.9715 173.038C-32.3866 173.616 -31.738 174.137 -31.1815 174.739C-30.5009 175.477 -30.6037 176.175 -31.341 176.887C-36.7146 182.077 -41.9961 187.358 -47.1854 192.739C-50.5706 196.248 -54.2392 199.488 -57.5889 203.025C-60.9847 206.612 -64.5257 210.061 -68.003 213.56C-72.6358 218.225 -77.2296 222.943 -82.0184 227.455C-82.7274 228.125 -83.1421 229.103 -84.3614 229.638Z" fill="#E8C5A2"/>
<path d="M5.95201 121.793C6.59712 121.931 6.69992 122.481 7.04375 122.782C11.9212 127.057 16.2137 131.924 20.9103 136.386C23.5511 138.892 26.0181 141.579 28.6411 144.103C29.8073 145.223 29.5698 146.102 28.5844 147.088C24.4372 151.238 20.3113 155.418 16.1428 159.547C13.059 162.602 9.91135 165.591 6.81689 168.639C6.18595 169.259 5.74997 169.245 5.02686 168.724C2.4641 166.877 0.730773 164.194 -1.60513 162.166C-5.83741 158.494 -9.32532 154.088 -13.5647 150.434C-15.0286 149.172 -16.1877 147.566 -17.5418 146.173C-18.0912 145.61 -17.8289 145.322 -17.4212 144.894C-12.5155 139.736 -7.53174 134.664 -2.32823 129.804C-0.438946 128.039 1.20575 126.011 3.01705 124.157C3.75079 123.406 4.63695 122.8 5.45576 122.133C5.63653 121.988 5.83148 121.875 5.95201 121.793ZM0.043126 145.546C0.195538 145.737 0.308965 145.872 0.415303 146.014C1.85797 147.967 3.89967 149.317 5.50892 151.104C5.94846 151.593 6.33837 151.405 6.6503 150.941C7.83774 149.161 9.53562 147.86 10.9995 146.343C11.6021 145.719 11.5915 145.4 10.9783 144.823C9.486 143.415 7.96181 142.029 6.75309 140.346C6.18241 139.548 5.60109 139.761 5.00914 140.367C3.53103 141.873 2.0281 143.359 0.546452 144.865C0.347958 145.06 0.206174 145.319 0.043126 145.546Z" fill="#E8C5A2"/>
<path d="M-18.2046 266.424C-15.6985 263.844 -13.8234 261.129 -11.1189 259.179C-9.67978 258.141 -8.80779 256.485 -7.50337 255.333C-3.22502 251.548 0.394049 247.099 4.70431 243.353C5.67199 242.512 6.12215 242.502 7.12528 243.399C11.8006 247.592 16.0294 252.235 20.4885 256.638C23.0123 259.13 25.5892 261.579 28.0882 264.099C28.4178 264.432 28.7475 264.78 29.0169 265.163C29.584 265.971 29.6797 266.63 28.3682 266.556C23.0655 266.254 17.7592 266.389 12.4564 266.339C12.0275 266.336 11.6518 266.247 11.3576 265.893C9.92908 264.181 7.99726 262.947 6.74601 261.076C6.19659 260.257 5.82441 260.271 5.15802 260.976C3.6232 262.6 1.99976 264.142 0.411766 265.716C-0.00650028 266.13 -0.39286 266.605 -1.06989 266.556C-6.65266 266.13 -12.239 266.407 -18.2046 266.424Z" fill="#E8C5A2"/>
<path d="M-83.5923 151.908C-81.4478 154.23 -79.36 156.601 -77.1517 158.856C-73.2065 162.886 -69.1905 166.845 -65.2028 170.837C-63.8771 172.166 -62.5691 173.516 -61.2115 174.81C-60.5239 175.469 -60.375 175.955 -61.1938 176.668C-63.636 178.78 -65.6813 181.307 -68.0491 183.477C-71.6398 186.77 -74.7662 190.516 -78.4526 193.714C-80.0406 195.092 -81.3698 196.769 -82.8302 198.3C-83.1811 198.665 -83.5143 199.289 -84.0779 199.098C-84.6273 198.914 -84.3296 198.265 -84.3331 197.836C-84.3544 192.881 -84.2977 187.925 -84.3721 182.97C-84.4004 181.215 -82.9684 180.474 -82.178 179.305C-81.5328 178.348 -80.6041 177.557 -79.7215 176.788C-78.9346 176.104 -78.8177 175.604 -79.6046 174.789C-80.9905 173.353 -82.5431 172.067 -83.6915 170.404C-83.9928 169.965 -84.3508 169.592 -84.3508 169.004C-84.3437 163.474 -84.3473 157.945 -84.3473 152.419C-84.0885 152.245 -83.8404 152.075 -83.5923 151.908Z" fill="#E8C5A2"/>
<path d="M96.1201 161.323C96.1201 163.389 95.9925 165.466 96.1591 167.519C96.3045 169.302 95.5955 170.574 94.4187 171.73C93.3234 172.804 92.2317 173.881 91.1222 174.945C90.5338 175.512 90.2432 175.994 91.1399 176.586C95.4892 179.454 96.7865 183.519 96.1839 188.581C95.8295 191.551 96.1308 194.596 96.1095 197.606C96.106 198.038 96.3505 198.644 95.7657 198.846C95.3261 198.999 95.078 198.492 94.759 198.254C91.9162 196.117 89.9135 193.132 87.2621 190.814C83.4517 187.482 80.3005 183.494 76.4617 180.191C75.1785 179.085 74.1754 177.653 72.995 176.423C72.5023 175.909 72.6051 175.572 72.9986 175.072C74.98 172.57 77.2805 170.394 79.6412 168.256C81.4667 166.604 82.9838 164.609 84.8022 162.943C87.9321 160.079 90.6969 156.86 93.763 153.939C94.1458 153.574 94.5499 153.227 94.9788 152.919C95.7444 152.369 96.1343 152.539 96.1272 153.535C96.106 156.126 96.1201 158.725 96.1201 161.323Z" fill="#E8C5A2"/>
<path d="M96.1201 109.146C89.9525 103.428 84.554 97.4629 78.7373 91.9262C76.685 89.9731 74.8063 87.8853 72.8532 85.8543C72.5661 85.5565 72.2506 85.3332 72.6902 84.8476C74.941 82.3557 77.1777 79.839 79.7582 77.6981C80.7365 76.8863 81.3922 75.8655 82.2677 75.0006C86.0782 71.2398 89.8497 67.4399 93.6389 63.6543C93.763 63.5302 93.887 63.4026 94.0217 63.2856C94.5924 62.7858 95.2269 61.9741 95.9252 62.2222C96.8078 62.5377 96.0953 63.4699 96.1024 64.1186C96.1591 68.7195 96.1166 73.324 96.2052 77.9214C96.2442 80.0375 94.6491 81.0513 93.412 82.1572C90.1297 85.0921 89.9312 85.1524 93.1214 88.0023C95.4183 90.0582 96.3931 92.2381 96.191 95.3609C95.9039 99.8094 96.1201 104.283 96.1201 109.146Z" fill="#E8C5A2"/>
<path d="M-17.1873 25.0214C-11.1933 25.0214 -5.59994 25.0179 -0.010069 25.025C0.791017 25.025 1.21638 25.6594 1.71263 26.1486C2.88236 27.3077 4.06272 28.4632 5.20408 29.6507C5.77477 30.2462 6.17176 30.3313 6.74599 29.6011C7.69241 28.403 8.75225 27.2935 9.76246 26.1451C10.2906 25.546 10.9747 25.0746 11.7368 25.0675C17.4401 25.0214 23.1399 25.0427 28.9531 25.227C27.6309 26.5031 26.525 27.9032 25.2985 29.1864C21.5519 33.1067 17.6174 36.8463 13.9558 40.8517C11.6943 43.3259 9.22014 45.6086 6.88069 48.0154C6.23202 48.6818 5.79603 48.8413 4.99849 48.1395C2.92134 46.3069 1.03915 44.3184 -0.761525 42.2129C-2.28216 40.437 -4.29905 39.0794 -5.80198 37.2894C-9.30407 33.1209 -13.7632 29.8421 -17.1873 25.0214Z" fill="#E8C5A2"/>
<path d="M-84.326 109.16C-84.326 103.322 -84.365 97.7358 -84.3012 92.1531C-84.2835 90.6324 -82.816 89.8491 -82.0681 88.6971C-81.7562 88.215 -81.2245 87.8783 -80.8098 87.4635C-78.4207 85.0709 -78.3392 84.9717 -81.0153 82.7882C-83.4151 80.8315 -84.6131 78.6197 -84.3969 75.3941C-84.1275 71.4028 -84.3473 67.3761 -84.3225 63.3672C-84.3189 62.8851 -84.6379 62.1833 -84.0035 61.96C-83.5568 61.804 -83.1988 62.364 -82.8798 62.6831C-76.5846 68.9748 -70.3035 75.2807 -64.0153 81.583C-63.1008 82.5011 -62.2146 83.451 -61.247 84.3124C-60.3998 85.0674 -60.5948 85.5813 -61.325 86.3151C-65.0504 90.0653 -68.8821 93.7056 -72.5224 97.548C-76.2514 101.49 -80.2568 105.18 -84.326 109.16Z" fill="#E8C5A2"/>
<path d="M72.7256 25.0143C78.5317 25.0143 84.072 25.0108 89.6157 25.025C89.8958 25.025 90.2361 25.0958 90.4523 25.2589C92.5294 26.8292 94.3124 28.7149 96.0209 30.6644C96.4675 31.1749 96.3364 31.9015 96.3364 32.5502C96.3364 37.2752 96.3434 42.0002 96.3257 46.7252C96.3222 47.225 96.6164 47.9516 96.0457 48.1749C95.4537 48.4053 94.9929 47.7814 94.5853 47.3845C93.0682 45.8993 91.5795 44.3786 90.0765 42.8792C87.5386 40.3448 84.8837 37.9132 82.5017 35.2406C81.0555 33.6171 79.2973 32.3623 77.8547 30.7389C76.2242 28.9063 74.3101 27.329 72.7256 25.0143Z" fill="#E8C5A2"/>
<path d="M-60.7507 25.3015C-68.6304 33.1741 -76.3329 40.8659 -84.3296 48.8519C-84.3296 43.8576 -83.9645 39.2496 -84.4324 34.7266C-84.9073 30.1009 -81.6357 28.0946 -79.1438 25.4361C-78.7787 25.0462 -78.1903 25.025 -77.6444 25.025C-72.2814 25.0285 -66.9219 25.025 -61.5589 25.0356C-61.3994 25.0321 -61.2399 25.1313 -60.7507 25.3015Z" fill="#E8C5A2"/>
<path d="M-61.1867 266.336C-62.399 266.336 -63.9657 266.336 -65.5324 266.336C-69.4882 266.336 -73.4476 266.332 -77.4034 266.336C-78.0556 266.336 -78.644 266.35 -79.1721 265.783C-80.1717 264.712 -81.2847 263.748 -82.3162 262.706C-83.8794 261.125 -84.5139 259.303 -84.4217 256.989C-84.2338 252.278 -84.365 247.556 -84.365 243.122C-76.6732 250.828 -68.8892 258.623 -61.1867 266.336Z" fill="#E8C5A2"/>
<path d="M96.1201 243.119C96.1202 248.602 96.1202 254.086 96.1237 259.569C96.1237 260.207 95.8366 260.682 95.3935 261.118C93.841 262.653 92.3026 264.202 90.7678 265.755C90.4204 266.105 90.0376 266.332 89.5272 266.332C83.9975 266.329 78.4644 266.332 72.9312 266.332C72.8178 266.169 72.7044 266.01 72.5909 265.847C80.2544 258.169 87.9179 250.491 95.5849 242.814C95.7621 242.917 95.9429 243.016 96.1201 243.119Z" fill="#E8C5A2"/>
</g>
</g>
</svg>
