<svg width="19" height="19" viewBox="0 0 19 19" fill="none" xmlns="http://www.w3.org/2000/svg">
<path d="M9.5 0C4.25348 0 0 4.25348 0 9.5C0 14.7465 4.25348 19 9.5 19C14.7465 19 19 14.7465 19 9.5C19 4.25348 14.7465 0 9.5 0ZM14.2834 7.9017L9.09773 13.0874C8.96713 13.218 8.81205 13.3217 8.64138 13.3924C8.4707 13.4631 8.28776 13.4995 8.10302 13.4995C7.91827 13.4995 7.73533 13.4631 7.56466 13.3924C7.39398 13.3217 7.23891 13.218 7.1083 13.0874L4.7166 10.6957C4.58599 10.5651 4.48239 10.41 4.4117 10.2394C4.34102 10.0687 4.30464 9.88584 4.30464 9.70113C4.30464 9.51643 4.34102 9.33354 4.4117 9.16289C4.48239 8.99225 4.58599 8.8372 4.7166 8.7066C4.84721 8.57594 5.00228 8.47229 5.17296 8.40157C5.34363 8.33085 5.52657 8.29445 5.71132 8.29445C5.89606 8.29445 6.079 8.33085 6.24968 8.40157C6.42035 8.47229 6.57543 8.57594 6.70604 8.7066L8.10283 10.1034L12.294 5.91264C12.4246 5.78197 12.5796 5.67832 12.7503 5.6076C12.921 5.53689 13.1039 5.50049 13.2887 5.50049C13.4734 5.50049 13.6564 5.53689 13.827 5.6076C13.9977 5.67832 14.1528 5.78197 14.2834 5.91264C14.414 6.04324 14.5176 6.19829 14.5883 6.36893C14.659 6.53957 14.6954 6.72247 14.6954 6.90717C14.6954 7.09187 14.659 7.27476 14.5883 7.44541C14.5176 7.61605 14.414 7.7711 14.2834 7.9017Z" fill="white"/>
</svg>
