<svg width="86" height="86" viewBox="0 0 86 86" fill="none" xmlns="http://www.w3.org/2000/svg">
<path d="M43 0C19.2526 0 0 19.2526 0 43C0 66.7474 19.2526 86 43 86C66.7474 86 86 66.7474 86 43C86 19.2526 66.7474 0 43 0ZM64.6512 35.7656L41.1792 59.2375C40.588 59.829 39.8861 60.2981 39.1136 60.6182C38.3411 60.9383 37.513 61.1031 36.6768 61.1031C35.8406 61.1031 35.0126 60.9383 34.24 60.6182C33.4675 60.2981 32.7656 59.829 32.1744 59.2375L21.3488 48.412C20.7577 47.8208 20.2887 47.119 19.9688 46.3466C19.6488 45.5742 19.4842 44.7464 19.4842 43.9104C19.4842 43.0744 19.6488 42.2465 19.9688 41.4742C20.2887 40.7018 20.7577 40 21.3488 39.4088C21.94 38.8174 22.6419 38.3482 23.4144 38.0282C24.187 37.7081 25.015 37.5433 25.8512 37.5433C26.6875 37.5433 27.5155 37.7081 28.288 38.0282C29.0606 38.3482 29.7625 38.8174 30.3536 39.4088L36.676 45.7312L55.6464 26.7625C56.2375 26.171 56.9394 25.7019 57.712 25.3818C58.4845 25.0617 59.3125 24.8969 60.1488 24.8969C60.985 24.8969 61.813 25.0617 62.5856 25.3818C63.3581 25.7019 64.06 26.171 64.6512 26.7625C65.2423 27.3536 65.7113 28.0554 66.0312 28.8278C66.3512 29.6002 66.5158 30.428 66.5158 31.264C66.5158 32.1 66.3512 32.9279 66.0312 33.7003C65.7113 34.4726 65.2423 35.1744 64.6512 35.7656Z" fill="white"/>
</svg>
