<svg width="21" height="21" viewBox="0 0 21 21" fill="none" xmlns="http://www.w3.org/2000/svg">
<path id="Vector" fill-rule="evenodd" clip-rule="evenodd" d="M10.4167 2.16732C5.81429 2.16732 2.08333 5.89828 2.08333 10.5007C2.08333 15.103 5.81429 18.834 10.4167 18.834C15.0191 18.834 18.75 15.103 18.75 10.5007C18.75 5.89828 15.0191 2.16732 10.4167 2.16732ZM0 10.5007C0 4.74768 4.6637 0.0839844 10.4167 0.0839844C16.1696 0.0839844 20.8333 4.74768 20.8333 10.5007C20.8333 16.2536 16.1696 20.9173 10.4167 20.9173C4.6637 20.9173 0 16.2536 0 10.5007ZM10.2379 5.03957C10.8132 5.03957 11.2796 5.50593 11.2796 6.08123V11.2553L14.9534 12.652C15.4913 12.8564 15.7615 13.458 15.557 13.9958C15.3526 14.5336 14.7509 14.8038 14.2132 14.5993L9.86781 12.9475C9.46354 12.7938 9.19625 12.4063 9.19625 11.9738V6.08123C9.19625 5.50593 9.6626 5.03957 10.2379 5.03957Z" fill="white"/>
</svg>
