<svg width="14" height="20" viewBox="0 0 14 20" fill="none" xmlns="http://www.w3.org/2000/svg">
<path d="M11.6406 4H2V18.4274C2 19.297 2.60949 20 3.35943 20H11.6379C12.3905 20 13 19.297 13 18.4274V4.00308H11.6406V4Z" fill="#EAEAEA"/>
<path d="M14 3.19374C14 3.08664 13.793 3 13.5371 3H1.46292C1.20695 3 1 3.08664 1 3.19374V3.80626C1 3.91336 1.20695 4 1.46292 4H13.5371C13.793 4 14 3.91336 14 3.80626V3.19374Z" fill="#EAEAEA"/>
<path d="M12.9826 2.28737H10.1033V0.57253C10.1033 0.255987 9.85234 0 9.54201 0H4.50385C4.19352 0 3.94256 0.255987 3.94256 0.57253V2.28737H1.01735C0.456052 2.28737 0 2.74154 0 3.3003V4.70135C0 5.19956 0.364302 5.61244 0.839243 5.69777V18.0237C0.839243 19.1137 1.71087 20 2.78489 20H11.2151C12.2891 20 13.1607 19.1137 13.1607 18.0237V5.69777C13.6384 5.61244 14 5.19956 14 4.70135V3.3003C14.0027 2.74429 13.5439 2.28737 12.9826 2.28737ZM5.06245 1.14506H8.98341V2.28737H5.06245V1.14506ZM1.11719 3.43243H12.8801V4.57473H1.11719V3.43243ZM12.0409 18.0264C12.0409 18.4861 11.6712 18.8604 11.2151 18.8604H2.78489C2.32883 18.8604 1.95913 18.4861 1.95913 18.0264V5.71704H12.0409V18.0264Z" fill="#959595"/>
<path d="M7 16.9802C7.27689 16.9802 7.5008 16.7172 7.5008 16.392V7.58824C7.5008 7.26301 7.27689 7 7 7C6.72311 7 6.4992 7.26301 6.4992 7.58824V16.3948C6.4992 16.7172 6.72311 16.9802 7 16.9802ZM4.5008 16.9802C4.77769 16.9802 5.00161 16.7172 5.00161 16.392V7.58824C5.00161 7.26301 4.77769 7 4.5008 7C4.22392 7 4 7.26301 4 7.58824V16.3948C4.00241 16.7172 4.22632 16.9802 4.5008 16.9802ZM9.4992 17C9.77608 17 10 16.737 10 16.4118V7.6052C10 7.27998 9.77608 7.01697 9.4992 7.01697C9.22231 7.01697 8.99839 7.27998 8.99839 7.6052V16.4118C8.99839 16.737 9.22231 17 9.4992 17Z" fill="#959595"/>
</svg>
