<svg width="26" height="26" viewBox="0 0 26 26" fill="none" xmlns="http://www.w3.org/2000/svg">
<path d="M13.9305 1.03891L13.9381 0.989496C13.8986 0.983372 13.8606 0.974388 13.8205 0.964924C13.8012 0.960357 13.7814 0.955678 13.7607 0.951155L13.7609 0.95H13.75H12.25V0.949531L12.2432 0.950465C12.0973 0.970502 11.9507 0.989391 11.8039 1.00831C11.5027 1.04714 11.2004 1.08609 10.9008 1.13535L10.9089 1.18469M13.9305 1.03891L13.938 0.989475C14.1242 1.01782 14.3121 1.04303 14.5005 1.06832C14.9314 1.12614 15.3652 1.18436 15.7885 1.28126M13.9305 1.03891C14.1186 1.06754 14.3075 1.09289 14.4965 1.11825C14.9263 1.17592 15.3564 1.23363 15.7773 1.33M13.9305 1.03891C13.889 1.03248 13.8478 1.02276 13.8067 1.01305C13.7878 1.00859 13.7689 1.00413 13.75 1H12.25C12.1032 1.02016 11.9562 1.03911 11.8092 1.05805C11.5084 1.09681 11.2077 1.13557 10.9089 1.18469M15.7885 1.28126L15.7773 1.33M15.7885 1.28126C15.7885 1.28126 15.7885 1.28126 15.7885 1.28126L15.7773 1.33M15.7885 1.28126C20.4302 2.34236 24.0808 6.227 24.8674 10.9231L24.8674 10.9232C24.9175 11.223 24.9563 11.5253 24.9949 11.8263C25.0128 11.9657 25.0306 12.1048 25.0495 12.2432L25.0505 12.25H25.05V13.75V13.7609L25.0489 13.7606C25.0439 13.7832 25.0388 13.8045 25.0338 13.8251C25.0245 13.8638 25.0157 13.9002 25.0101 13.9386L25.0101 13.9387C24.9838 14.1179 24.9605 14.2986 24.9372 14.4798C24.8886 14.8564 24.8399 15.2351 24.763 15.6065C23.7965 20.2797 19.8024 24.1015 15.0986 24.8647L15.0906 24.8153M15.7773 1.33C20.3992 2.38656 24.0348 6.25516 24.8181 10.9314C24.8681 11.2303 24.9066 11.531 24.9452 11.8315C24.9631 11.9711 24.981 12.1107 25 12.25V13.75C24.9956 13.7702 24.9908 13.7903 24.9859 13.8104C24.9762 13.8506 24.9666 13.8908 24.9606 13.9314C24.934 14.1125 24.9106 14.2942 24.8872 14.4759C24.8389 14.8514 24.7905 15.2268 24.7141 15.5964C23.7517 20.2492 19.7739 24.0555 15.0906 24.8153M15.0906 24.8153L15.0986 24.8647C14.7912 24.9145 14.482 24.9546 14.1735 24.9946C14.0344 25.0126 13.8954 25.0307 13.7568 25.0495L13.75 25.0505V25.05H12.25H12.2378L12.2382 25.0486C12.2195 25.044 12.2021 25.0394 12.1855 25.0349C12.1512 25.0256 12.12 25.0172 12.0864 25.0125L12.0862 25.0124C11.9082 24.9864 11.7289 24.9632 11.5493 24.9399C11.1792 24.8919 10.8075 24.8437 10.443 24.7706C5.76788 23.8351 1.89616 19.8161 1.13814 15.1225C1.08768 14.81 1.04694 14.4952 1.00631 14.1813C0.987968 14.0395 0.969644 13.8979 0.950456 13.7567L0.94954 13.75H0.95V12.25V12.2428L0.95051 12.2429C0.973745 12.0814 0.995305 11.919 1.01691 11.7562C1.06603 11.3863 1.11539 11.0145 1.18524 10.647M15.0906 24.8153C14.784 24.865 14.4761 24.9049 14.1681 24.9449C14.0287 24.9629 13.8893 24.981 13.75 25H12.25C12.234 24.9961 12.218 24.9918 12.202 24.9875C12.1661 24.9778 12.1301 24.9682 12.0934 24.963C11.9137 24.9367 11.7335 24.9133 11.5534 24.89C11.1843 24.8421 10.8157 24.7943 10.4528 24.7216C5.79813 23.7902 1.94219 19.7875 1.1875 15.1145C1.13716 14.8028 1.0966 14.4894 1.05602 14.1758C1.03765 14.0338 1.01928 13.8918 1 13.75V12.25C1.0234 12.0873 1.04505 11.9243 1.0667 11.7612C1.11573 11.3919 1.16479 11.0224 1.23438 10.6562L1.18522 10.6471C1.18523 10.6471 1.18523 10.647 1.18524 10.647M10.9089 1.18469L10.9008 1.13535C6.08708 1.9272 2.07976 5.84931 1.18524 10.647M10.9089 1.18469L1.18524 10.647M20.2269 20.6449C19.5095 18.4182 18.0936 16.8338 15.967 15.8599C17.4574 14.7569 18.2718 13.3019 18.262 11.4299C18.2545 9.98881 17.7153 8.75472 16.6957 7.74356C14.656 5.72043 11.3593 5.71227 9.31939 7.72756L9.35453 7.76312L9.31939 7.72756C8.13274 8.90002 7.60319 10.3388 7.75787 11.9968C7.90997 13.6272 8.7101 14.8996 10.0376 15.8581C7.90655 16.8337 6.4905 18.4186 5.76782 20.6586C4.76173 19.7174 3.95308 18.5849 3.38938 17.3272L3.38936 17.3272C2.45945 15.2569 2.22295 13.1024 2.67462 10.8837C3.60442 6.33364 7.40581 2.95639 11.9511 2.51179L11.9511 2.51179C16.9133 2.02426 21.2712 4.9908 22.8841 9.3363C24.4588 13.5782 23.0848 18.0257 20.2269 20.6449ZM18.726 21.8562L18.7259 21.8562C17.0101 22.9583 15.0126 23.5521 12.6311 23.5438C10.9013 23.5242 8.99179 22.9578 7.24642 21.8356C7.17184 21.7874 7.131 21.7445 7.11084 21.6981C7.09084 21.652 7.08773 21.5945 7.10606 21.5094L7.10608 21.5094C7.73364 18.5803 10.4757 16.5399 13.4571 16.7886C16.1393 17.0122 18.2602 18.8418 18.8782 21.4537C18.9024 21.5563 18.9052 21.6275 18.8848 21.6857C18.8648 21.7429 18.8192 21.7964 18.726 21.8562ZM9.23906 11.4773V11.4773C9.24878 9.39719 10.9477 7.71115 13.016 7.72734L13.0162 7.72734C14.0142 7.73224 14.9694 8.13337 15.6716 8.84249C16.3739 9.55162 16.7657 10.5107 16.7609 11.5087L16.7609 11.5088C16.7597 12.003 16.661 12.4922 16.4704 12.9482C16.2798 13.4042 16.001 13.8182 15.6501 14.1663C15.2992 14.5143 14.8831 14.7898 14.4256 14.9767C13.9681 15.1637 13.4781 15.2585 12.9839 15.2558L12.9837 15.2558C12.4896 15.2543 12.0005 15.1553 11.5447 14.9644C11.0889 14.7736 10.6751 14.4947 10.3273 14.1437C9.97941 13.7927 9.70423 13.3765 9.51749 12.9189C9.33076 12.4614 9.23614 11.9715 9.23906 11.4773ZM15.7072 8.80731C14.9956 8.08876 14.0277 7.6823 13.0164 7.67734L9.18906 11.477C9.1861 11.9778 9.28198 12.4742 9.4712 12.9378C9.66042 13.4015 9.93927 13.8232 10.2918 14.1789C10.6443 14.5345 11.0635 14.8172 11.5254 15.0105C11.9873 15.2039 12.4828 15.3042 12.9836 15.3058C13.4844 15.3086 13.9809 15.2125 14.4445 15.023C14.9081 14.8336 15.3298 14.5545 15.6853 14.2017C16.0409 13.849 16.3234 13.4296 16.5165 12.9675C16.7097 12.5054 16.8097 12.0097 16.8109 11.5089C16.8158 10.4976 16.4188 9.52585 15.7072 8.80731Z" fill="black" stroke="#57544C" stroke-width="0.1"/>
</svg>
