<svg width="41" height="45" viewBox="0 0 41 45" fill="none" xmlns="http://www.w3.org/2000/svg">
<path d="M15.2314 44.2501C6.97211 44.2501 0.257812 37.5463 0.257812 29.2999C0.257812 24.3982 2.66919 19.8137 6.69775 17.0168C6.94322 16.8438 7.232 16.7573 7.52078 16.7573C7.99728 16.7573 8.4449 16.988 8.71925 17.3772C9.18131 18.026 9.00804 18.9343 8.35827 19.3956C5.10942 21.6446 3.16013 25.3497 3.16013 29.2999C3.16013 35.9461 8.57487 41.3523 15.2314 41.3523C20.5451 41.3523 25.1801 37.95 26.754 32.8897C26.9417 32.2842 27.5048 31.8661 28.1401 31.8661C28.2845 31.8661 28.4289 31.8949 28.5733 31.9382C29.3386 32.1689 29.7718 32.9906 29.5263 33.7547C28.6022 36.739 26.6962 39.4061 24.1838 41.2803C21.5847 43.2121 18.4802 44.2501 15.2314 44.2501Z" fill="white"/>
<path d="M13.0814 8.81357C15.4499 8.81357 17.3699 6.89654 17.3699 4.53178C17.3699 2.16702 15.4499 0.25 13.0814 0.25C10.713 0.25 8.79297 2.16702 8.79297 4.53178C8.79297 6.89654 10.713 8.81357 13.0814 8.81357Z" fill="white"/>
<path d="M12.3705 19.6695C11.5763 19.6695 10.9121 19.0207 10.9121 18.2278C10.9121 17.4349 11.5619 16.7861 12.3705 16.7861H25.6402C26.4344 16.7861 27.0986 17.4349 27.0986 18.2278C27.0986 19.0207 26.4488 19.6695 25.6402 19.6695H12.3705Z" fill="white"/>
<path d="M36.1261 34.7635C35.8373 34.7635 35.5485 34.677 35.303 34.504L25.1811 27.5407L12.4456 27.9011C12.0269 27.9011 11.6659 27.7569 11.406 27.4974C11.1316 27.2379 10.9584 26.8631 10.9584 26.4739L10.7129 8.51055C10.7129 8.1213 10.8573 7.76088 11.1316 7.47254C11.406 7.19862 11.767 7.04004 12.1568 7.04004C12.9654 7.04004 13.6152 7.67438 13.6296 8.4673L13.8462 24.9601L25.5854 24.6285C25.9175 24.6285 26.2063 24.715 26.4517 24.888L36.9635 32.1108C37.2812 32.3271 37.4978 32.6586 37.57 33.0479C37.6422 33.4227 37.5556 33.812 37.339 34.1292C37.0502 34.5328 36.6026 34.7635 36.1261 34.7635Z" fill="white"/>
<path d="M36.9481 34.5474C36.7315 34.5474 36.2261 34.2735 35.7063 33.7545C35.0566 33.1057 34.8688 32.5867 34.9122 32.4858L37.9733 29.4438C38.2043 29.4438 38.7097 29.7322 39.2295 30.2512C39.8793 30.8999 40.067 31.4189 40.0237 31.5199L36.9625 34.5618L36.9481 34.5474Z" fill="white"/>
</svg>
