<svg width="56" height="46" viewBox="0 0 56 46" fill="none" xmlns="http://www.w3.org/2000/svg">
<path d="M28.2621 45.5616C26.5914 45.5616 25.026 44.9142 23.8519 43.7248C22.6779 42.5506 22.0156 40.9698 22.0156 39.3137C22.0156 37.6426 22.6628 36.0769 23.8519 34.9026C25.026 33.7283 26.6064 33.0659 28.2621 33.0659C29.9328 33.0659 31.4982 33.7133 32.6723 34.9026C33.8463 36.092 34.5086 37.6577 34.5086 39.3137C34.5086 40.9848 33.8614 42.5506 32.6723 43.7248C31.4982 44.9142 29.9328 45.5616 28.2621 45.5616ZM28.2621 36.1823C27.4343 36.1823 26.6365 36.5135 26.0495 37.1007C25.4625 37.6878 25.1313 38.4707 25.1313 39.3137C25.1313 40.1568 25.4625 40.9397 26.0495 41.5268C26.6365 42.114 27.4192 42.4452 28.2621 42.4452C29.105 42.4452 29.8877 42.114 30.4747 41.5268C31.0617 40.9397 31.3929 40.1568 31.3929 39.3137C31.3929 38.4707 31.0617 37.6878 30.4747 37.1007C29.8877 36.5135 29.09 36.1823 28.2621 36.1823Z" fill="white"/>
<path d="M39.0051 29.2568C38.7492 29.2568 38.4934 29.1515 38.2977 28.9708C35.5282 26.2157 31.8555 24.6952 27.9571 24.6952C24.0587 24.6952 20.3861 26.2157 17.6166 28.9708C17.2252 29.3622 16.5931 29.3622 16.2017 28.9708C15.8104 28.5794 15.8104 27.9471 16.2017 27.5556C19.3325 24.4242 23.5169 22.6929 27.9571 22.6929C32.3974 22.6929 36.5667 24.4242 39.7126 27.5556C40.1039 27.9471 40.1039 28.5794 39.7126 28.9708C39.5169 29.1665 39.261 29.2568 39.0051 29.2568Z" fill="white"/>
<path d="M46.9814 21.5339C46.7256 21.5339 46.4697 21.4285 46.274 21.2478C41.4424 16.4152 35.0303 13.7655 28.2119 13.7655C21.3934 13.7655 14.9663 16.4302 10.1498 21.2478C9.75844 21.6393 9.12626 21.6393 8.73492 21.2478C8.34357 20.8564 8.34357 20.2241 8.73492 19.8327C13.9428 14.6236 20.8516 11.7632 28.2119 11.7632C35.5722 11.7632 42.481 14.6236 47.6889 19.8327C48.0802 20.2241 48.0802 20.8564 47.6889 21.2478C47.4932 21.4285 47.2373 21.5339 46.9814 21.5339Z" fill="white"/>
<path d="M54.65 13.7953C54.3941 13.7953 54.1382 13.6899 53.9425 13.5092C47.0488 6.61404 37.8973 2.82018 28.1438 2.82018C18.3903 2.82018 9.2388 6.61404 2.34509 13.5092C1.95375 13.9007 1.32157 13.9007 0.930228 13.5092C0.538882 13.1178 0.538882 12.4855 0.930228 12.0941C8.20023 4.8225 17.8635 0.817871 28.1438 0.817871C38.4242 0.817871 48.0874 4.8225 55.3574 12.0941C55.7487 12.4855 55.7487 13.1178 55.3574 13.5092C55.1617 13.7049 54.9058 13.7953 54.65 13.7953Z" fill="white"/>
</svg>
