<svg width="15" height="16" viewBox="0 0 15 16" fill="none" xmlns="http://www.w3.org/2000/svg">
<path d="M7.4668 2.24772C9.45678 2.24772 9.6928 2.25518 10.4791 2.2912C12.4989 2.38312 13.4423 3.34147 13.5343 5.34636C13.5703 6.13204 13.5771 6.36806 13.5771 8.35804C13.5771 10.3486 13.5697 10.584 13.5343 11.3697C13.4417 13.3728 12.5008 14.333 10.4791 14.4249C9.6928 14.4609 9.45802 14.4684 7.4668 14.4684C5.47681 14.4684 5.2408 14.4609 4.45511 14.4249C2.43035 14.3323 1.49188 13.3696 1.39995 11.3691C1.36393 10.5834 1.35648 10.348 1.35648 8.35742C1.35648 6.36744 1.36455 6.13204 1.39995 5.34574C1.4925 3.34147 2.43345 2.3825 4.45511 2.29058C5.24142 2.25518 5.47681 2.24772 7.4668 2.24772ZM7.4668 0.904297C5.44265 0.904297 5.18925 0.912992 4.39425 0.949016C1.68752 1.07323 0.18323 2.57504 0.0590117 5.28425C0.0223672 6.07987 0.0136719 6.33328 0.0136719 8.35742C0.0136719 10.3816 0.0223672 10.6356 0.0583906 11.4306C0.182609 14.1373 1.68441 15.6416 4.39363 15.7658C5.18925 15.8019 5.44265 15.8105 7.4668 15.8105C9.49094 15.8105 9.74497 15.8019 10.54 15.7658C13.2442 15.6416 14.7522 14.1398 14.8746 11.4306C14.9112 10.6356 14.9199 10.3816 14.9199 8.35742C14.9199 6.33328 14.9112 6.07987 14.8752 5.28487C14.7535 2.58063 13.2498 1.07386 10.5406 0.949637C9.74497 0.912992 9.49094 0.904297 7.4668 0.904297ZM7.4668 4.53024C5.35321 4.53024 3.63962 6.24384 3.63962 8.35742C3.63962 10.471 5.35321 12.1852 7.4668 12.1852C9.58038 12.1852 11.294 10.4716 11.294 8.35742C11.294 6.24384 9.58038 4.53024 7.4668 4.53024ZM7.4668 10.8418C6.0948 10.8418 4.98242 9.73004 4.98242 8.35742C4.98242 6.98543 6.0948 5.87305 7.4668 5.87305C8.83879 5.87305 9.95117 6.98543 9.95117 8.35742C9.95117 9.73004 8.83879 10.8418 7.4668 10.8418ZM11.4455 3.48494C10.9511 3.48494 10.5505 3.88555 10.5505 4.37932C10.5505 4.87309 10.9511 5.27369 11.4455 5.27369C11.9393 5.27369 12.3393 4.87309 12.3393 4.37932C12.3393 3.88555 11.9393 3.48494 11.4455 3.48494Z" fill="white"/>
</svg>
