<svg width="18" height="18" viewBox="0 0 18 18" fill="none" xmlns="http://www.w3.org/2000/svg">
<path d="M8.60215 2.38254C10.8728 2.38254 11.1422 2.39105 12.0394 2.43215C14.3441 2.53704 15.4206 3.63058 15.5255 5.91829C15.5666 6.8148 15.5744 7.08411 15.5744 9.35481C15.5744 11.6262 15.5659 11.8948 15.5255 12.7913C15.4199 15.0769 14.3462 16.1726 12.0394 16.2775C11.1422 16.3186 10.8743 16.3271 8.60215 16.3271C6.33145 16.3271 6.06214 16.3186 5.16563 16.2775C2.85524 16.1719 1.78438 15.0734 1.67949 12.7906C1.63839 11.8941 1.62988 11.6255 1.62988 9.3541C1.62988 7.0834 1.6391 6.8148 1.67949 5.91758C1.78509 3.63058 2.85878 2.53633 5.16563 2.43145C6.06285 2.39105 6.33145 2.38254 8.60215 2.38254ZM8.60215 0.849609C6.29247 0.849609 6.00332 0.859531 5.09617 0.900636C2.00762 1.04238 0.291133 2.75603 0.149392 5.84742C0.107578 6.75527 0.0976562 7.04442 0.0976562 9.3541C0.0976562 11.6638 0.107578 11.9536 0.148683 12.8608C0.290425 15.9493 2.00408 17.6658 5.09546 17.8076C6.00332 17.8487 6.29247 17.8586 8.60215 17.8586C10.9118 17.8586 11.2017 17.8487 12.1088 17.8076C15.1945 17.6658 16.9153 15.9522 17.0549 12.8608C17.0967 11.9536 17.1066 11.6638 17.1066 9.3541C17.1066 7.04442 17.0967 6.75527 17.0556 5.84812C16.9167 2.76241 15.2009 1.04309 12.1095 0.901345C11.2017 0.859531 10.9118 0.849609 8.60215 0.849609ZM8.60215 4.98705C6.19042 4.98705 4.23509 6.94237 4.23509 9.3541C4.23509 11.7658 6.19042 13.7219 8.60215 13.7219C11.0139 13.7219 12.9692 11.7665 12.9692 9.3541C12.9692 6.94237 11.0139 4.98705 8.60215 4.98705ZM8.60215 12.1889C7.03661 12.1889 5.76732 10.9203 5.76732 9.3541C5.76732 7.78857 7.03661 6.51927 8.60215 6.51927C10.1677 6.51927 11.437 7.78857 11.437 9.3541C11.437 10.9203 10.1677 12.1889 8.60215 12.1889ZM13.1421 3.79429C12.578 3.79429 12.1209 4.25141 12.1209 4.81483C12.1209 5.37825 12.578 5.83537 13.1421 5.83537C13.7056 5.83537 14.162 5.37825 14.162 4.81483C14.162 4.25141 13.7056 3.79429 13.1421 3.79429Z" fill="black"/>
</svg>
