<svg width="15" height="17" viewBox="0 0 15 17" fill="none" xmlns="http://www.w3.org/2000/svg">
<path d="M10.486 0.911749L10.0972 0.298828H7.74481V5.81912L7.7368 11.2112C7.7408 11.2513 7.74481 11.2953 7.74481 11.3354C7.74481 12.6854 6.64675 13.7871 5.2922 13.7871C3.93765 13.7871 2.83958 12.6894 2.83958 11.3354C2.83958 9.98538 3.93765 8.88373 5.2922 8.88373C5.57272 8.88373 5.84524 8.9358 6.09771 9.02394V6.33189C5.83722 6.28783 5.56872 6.26379 5.2922 6.26379C2.49894 6.2678 0.222656 8.54321 0.222656 11.3394C0.222656 14.1356 2.49894 16.411 5.2962 16.411C8.09347 16.411 10.3698 14.1356 10.3698 11.3394V4.92578C11.3837 5.9393 12.6941 6.92879 14.1449 7.24526V4.49313C12.5699 3.79608 11.0029 1.73699 10.486 0.911749Z" fill="black"/>
</svg>
